<svg width="220" height="74" viewBox="0 0 220 74" fill="none" xmlns="http://www.w3.org/2000/svg">
<mask id="mask0_712_722" style="mask-type:luminance" maskUnits="userSpaceOnUse" x="0" y="0" width="220" height="74">
<path d="M219.145 0H0V74H219.145V0Z" fill="white"/>
</mask>
<g mask="url(#mask0_712_722)">
<path d="M15.6447 70.1164H7.9711L6.91523 73.7152H0.0297852L8.22391 51.9138H15.5703L23.7645 73.7152H16.7154L15.6447 70.1164ZM14.2319 65.4021L11.8227 57.5649L9.4285 65.4021H14.2319ZM25.9803 51.9138H32.2709L40.4799 63.9745V51.9138H46.83V73.7152H40.4799L32.3155 61.7438V73.7152H25.9803V51.9138ZM62.2665 65.8185V61.2828H72.6764V70.5774C70.6837 71.9356 68.9189 72.8626 67.3822 73.3583C65.8554 73.8441 64.0411 74.087 61.9393 74.087C59.3517 74.087 57.24 73.6458 55.6041 72.7635C53.9782 71.8811 52.7141 70.5675 51.8119 68.8226C50.9196 67.0776 50.4735 65.075 50.4735 62.8145C50.4735 60.4351 50.9642 58.368 51.9457 56.6132C52.9272 54.8484 54.3648 53.51 56.2584 52.5979C57.7357 51.894 59.7235 51.542 62.2219 51.542C64.631 51.542 66.4305 51.7601 67.6202 52.1964C68.8198 52.6326 69.8112 53.3117 70.5945 54.2337C71.3876 55.1458 71.9824 56.3058 72.379 57.7136L65.8802 58.8736C65.6125 58.0507 65.1565 57.4212 64.5121 56.9849C63.8775 56.5487 63.0646 56.3306 62.0732 56.3306C60.5959 56.3306 59.4161 56.8461 58.5338 57.8772C57.6613 58.8984 57.2251 60.5194 57.2251 62.7402C57.2251 65.0998 57.6663 66.7852 58.5486 67.7964C59.4409 68.8077 60.6802 69.3133 62.2665 69.3133C63.02 69.3133 63.7387 69.2043 64.4228 68.9861C65.1069 68.768 65.8901 68.3962 66.7725 67.8708V65.8185H62.2665ZM76.662 51.9138H94.7158V56.5685H83.4136V60.0336H93.8979V64.4801H83.4136V68.7779H95.043V73.7152H76.662V51.9138ZM98.6865 51.9138H105.423V68.3467H115.937V73.7152H98.6865V51.9138ZM116.8 51.9138H124.28L128.682 59.2751L133.084 51.9138H140.52L132.043 64.5842V73.7152H125.291V64.5842L116.8 51.9138ZM141.174 51.9138H161.652V57.2972H154.781V73.7152H148.045V57.2972H141.174V51.9138ZM164.983 51.9138H171.735V73.7152H164.983V51.9138ZM191.097 64.8073L197.001 66.5919C196.605 68.2475 195.98 69.6306 195.127 70.741C194.275 71.8514 193.214 72.6891 191.945 73.2542C190.686 73.8193 189.08 74.1019 187.127 74.1019C184.757 74.1019 182.819 73.7599 181.312 73.0758C179.815 72.3818 178.521 71.1673 177.43 69.4323C176.34 67.6973 175.795 65.4765 175.795 62.7699C175.795 59.1611 176.751 56.3901 178.665 54.4568C180.588 52.5136 183.305 51.542 186.814 51.542C189.561 51.542 191.717 52.0972 193.283 53.2076C194.86 54.318 196.03 56.0233 196.793 58.3234L190.844 59.6469C190.636 58.9827 190.418 58.4969 190.19 58.1895C189.813 57.674 189.352 57.2774 188.807 56.9998C188.262 56.7222 187.652 56.5834 186.978 56.5834C185.451 56.5834 184.281 57.1981 183.468 58.4275C182.854 59.3396 182.546 60.7722 182.546 62.7253C182.546 65.1444 182.913 66.805 183.647 67.7072C184.38 68.5995 185.411 69.0456 186.74 69.0456C188.029 69.0456 189 68.6838 189.655 67.96C190.319 67.2363 190.8 66.1854 191.097 64.8073ZM199.113 66.5026L205.523 66.1011C205.661 67.1421 205.944 67.9352 206.37 68.4805C207.064 69.3629 208.056 69.8041 209.344 69.8041C210.306 69.8041 211.045 69.581 211.56 69.1349C212.086 68.6788 212.348 68.1533 212.348 67.5585C212.348 66.9934 212.101 66.4878 211.605 66.0416C211.109 65.5955 209.959 65.1741 208.155 64.7775C205.2 64.1133 203.094 63.2309 201.834 62.1304C200.565 61.03 199.931 59.6271 199.931 57.9218C199.931 56.8015 200.253 55.7457 200.898 54.7542C201.552 53.7529 202.528 52.9697 203.827 52.4046C205.136 51.8295 206.925 51.542 209.196 51.542C211.982 51.542 214.103 52.0625 215.561 53.1035C217.028 54.1346 217.9 55.7804 218.178 58.0408L211.828 58.4126C211.659 57.4311 211.303 56.7173 210.757 56.2711C210.222 55.825 209.478 55.6019 208.527 55.6019C207.743 55.6019 207.153 55.7704 206.757 56.1075C206.36 56.4347 206.162 56.8362 206.162 57.3121C206.162 57.6591 206.326 57.9714 206.653 58.249C206.97 58.5365 207.723 58.8042 208.913 59.0521C211.858 59.6866 213.965 60.331 215.234 60.9853C216.512 61.6298 217.439 62.4328 218.014 63.3945C218.599 64.3562 218.892 65.4319 218.892 66.6216C218.892 68.0195 218.505 69.3084 217.732 70.4882C216.959 71.668 215.878 72.5652 214.49 73.1799C213.102 73.7846 211.352 74.087 209.24 74.087C205.532 74.087 202.965 73.3732 201.537 71.9455C200.109 70.5179 199.301 68.7036 199.113 66.5026Z" fill="black"/>
<path d="M168.527 47.9812C170.435 47.9812 171.981 46.4315 171.981 44.5199C171.981 42.6083 170.435 41.0586 168.527 41.0586C166.62 41.0586 165.073 42.6083 165.073 44.5199C165.073 46.4315 166.62 47.9812 168.527 47.9812Z" fill="black"/>
<path d="M90.0398 6.68404C33.8245 8.06728 20.3661 51.6808 20.3661 51.6808L17.7459 46.6679H9.88525C9.88525 46.6679 32.0379 1.31309 90.0398 0.000170436C148.042 -1.31275 167.336 37.7163 167.336 37.7163C167.336 37.7163 165.351 37.4776 163.763 38.6711C162.175 39.8647 161.857 41.2969 161.857 41.2969C161.857 41.2969 146.255 5.3008 90.0398 6.68404Z" fill="black"/>
</g>
</svg>
