<svg width="220" height="74" viewBox="0 0 220 74" fill="none" xmlns="http://www.w3.org/2000/svg">
<g clip-path="url(#clip0_703_4062)">
<path d="M15.6447 70.116H7.97106L6.91519 73.7148H0.0297428L8.22387 51.9134H15.5703L23.7645 73.7148H16.7154L15.6447 70.116ZM14.2319 65.4017L11.8227 57.5645L9.42846 65.4017H14.2319ZM25.9803 51.9134H32.2709L40.4799 63.9741V51.9134H46.83V73.7148H40.4799L32.3155 61.7434V73.7148H25.9803V51.9134ZM62.2665 65.8181V61.2824H72.6764V70.577C70.6837 71.9352 68.9189 72.8622 67.3822 73.3579C65.8554 73.8437 64.0411 74.0866 61.9393 74.0866C59.3517 74.0866 57.24 73.6454 55.6041 72.7631C53.9782 71.8807 52.7141 70.5671 51.8119 68.8222C50.9196 67.0772 50.4735 65.0746 50.4735 62.8141C50.4735 60.4347 50.9642 58.3676 51.9457 56.6128C52.9272 54.848 54.3648 53.5096 56.2584 52.5975C57.7357 51.8936 59.7235 51.5416 62.2219 51.5416C64.631 51.5416 66.4305 51.7597 67.6202 52.196C68.8198 52.6322 69.8112 53.3113 70.5945 54.2333C71.3876 55.1454 71.9824 56.3054 72.379 57.7132L65.8802 58.8732C65.6125 58.0503 65.1565 57.4208 64.5121 56.9845C63.8775 56.5483 63.0646 56.3302 62.0732 56.3302C60.5959 56.3302 59.4161 56.8457 58.5338 57.8768C57.6613 58.898 57.2251 60.519 57.2251 62.7398C57.2251 65.0994 57.6663 66.7848 58.5486 67.796C59.4409 68.8073 60.6802 69.3129 62.2665 69.3129C63.02 69.3129 63.7387 69.2039 64.4228 68.9857C65.1069 68.7676 65.8901 68.3958 66.7725 67.8704V65.8181H62.2665ZM76.662 51.9134H94.7158V56.5681H83.4136V60.0332H93.8979V64.4797H83.4136V68.7775H95.043V73.7148H76.662V51.9134ZM98.6865 51.9134H105.423V68.3463H115.937V73.7148H98.6865V51.9134ZM116.8 51.9134H124.28L128.682 59.2747L133.084 51.9134H140.52L132.043 64.5838V73.7148H125.291V64.5838L116.8 51.9134ZM141.174 51.9134H161.652V57.2968H154.781V73.7148H148.045V57.2968H141.174V51.9134ZM164.983 51.9134H171.735V73.7148H164.983V51.9134ZM191.097 64.8069L197.001 66.5915C196.605 68.2471 195.98 69.6302 195.127 70.7406C194.275 71.851 193.214 72.6887 191.945 73.2538C190.686 73.8189 189.08 74.1015 187.127 74.1015C184.757 74.1015 182.819 73.7595 181.312 73.0754C179.815 72.3814 178.521 71.1669 177.43 69.4319C176.34 67.6969 175.795 65.4761 175.795 62.7695C175.795 59.1607 176.751 56.3897 178.665 54.4564C180.588 52.5132 183.305 51.5416 186.814 51.5416C189.561 51.5416 191.717 52.0968 193.283 53.2072C194.86 54.3176 196.03 56.0229 196.793 58.323L190.844 59.6465C190.636 58.9823 190.418 58.4965 190.19 58.1891C189.813 57.6736 189.352 57.277 188.807 56.9994C188.262 56.7218 187.652 56.583 186.978 56.583C185.451 56.583 184.281 57.1977 183.468 58.4271C182.854 59.3392 182.546 60.7718 182.546 62.7249C182.546 65.144 182.913 66.8046 183.647 67.7068C184.38 68.5991 185.411 69.0452 186.74 69.0452C188.029 69.0452 189 68.6834 189.655 67.9596C190.319 67.2359 190.8 66.185 191.097 64.8069ZM199.113 66.5022L205.523 66.1007C205.661 67.1417 205.944 67.9348 206.37 68.4801C207.064 69.3625 208.056 69.8037 209.344 69.8037C210.306 69.8037 211.045 69.5806 211.56 69.1345C212.086 68.6784 212.348 68.1529 212.348 67.5581C212.348 66.993 212.101 66.4874 211.605 66.0412C211.109 65.5951 209.959 65.1737 208.155 64.7771C205.2 64.1129 203.094 63.2305 201.834 62.13C200.565 61.0296 199.931 59.6267 199.931 57.9214C199.931 56.8011 200.253 55.7453 200.898 54.7538C201.552 53.7525 202.528 52.9693 203.827 52.4042C205.136 51.8291 206.925 51.5416 209.196 51.5416C211.982 51.5416 214.103 52.0621 215.561 53.1031C217.028 54.1342 217.9 55.78 218.178 58.0404L211.828 58.4122C211.659 57.4307 211.303 56.7169 210.757 56.2707C210.222 55.8246 209.478 55.6015 208.527 55.6015C207.743 55.6015 207.153 55.77 206.757 56.1071C206.36 56.4343 206.162 56.8358 206.162 57.3117C206.162 57.6587 206.326 57.971 206.653 58.2486C206.97 58.5361 207.723 58.8038 208.913 59.0517C211.858 59.6862 213.965 60.3306 215.234 60.9849C216.512 61.6294 217.439 62.4324 218.014 63.3941C218.599 64.3558 218.892 65.4315 218.892 66.6212C218.892 68.0191 218.505 69.308 217.732 70.4878C216.959 71.6676 215.878 72.5648 214.49 73.1795C213.102 73.7842 211.352 74.0866 209.24 74.0866C205.532 74.0866 202.965 73.3728 201.537 71.9451C200.109 70.5175 199.301 68.7032 199.113 66.5022Z" fill="#333333"/>
<ellipse cx="168.527" cy="44.5194" rx="3.45391" ry="3.46129" fill="#333333"/>
<path d="M90.0399 6.68404C33.8246 8.06728 20.3662 51.6808 20.3662 51.6808L17.746 46.6679H9.88538C9.88538 46.6679 32.038 1.31309 90.0399 0.000170294C148.042 -1.31275 167.336 37.7163 167.336 37.7163C167.336 37.7163 165.351 37.4776 163.763 38.6711C162.175 39.8647 161.857 41.2969 161.857 41.2969C161.857 41.2969 146.255 5.3008 90.0399 6.68404Z" fill="url(#paint0_linear_703_4062)"/>
</g>
<defs>
<linearGradient id="paint0_linear_703_4062" x1="9.76628" y1="25.7808" x2="167.217" y2="25.7808" gradientUnits="userSpaceOnUse">
<stop stop-color="#1B57A8"/>
<stop offset="1" stop-color="#189FB1"/>
</linearGradient>
<clipPath id="clip0_703_4062">
<rect width="219.145" height="74" fill="white"/>
</clipPath>
</defs>
</svg>
