<svg width="201" height="28" viewBox="0 0 201 28" fill="none" xmlns="http://www.w3.org/2000/svg">
<path d="M9.8032 20.7087H9.7436C9.247 21.4834 8.5815 22.0396 7.7472 22.3773C6.9327 22.7151 6.0686 22.8839 5.1549 22.8839C4.4795 22.8839 3.824 22.7846 3.1883 22.5859C2.5725 22.4071 2.0262 22.129 1.5495 21.7516C1.0727 21.3742 0.6953 20.9074 0.4172 20.3512C0.1391 19.795 0 19.1494 0 18.4144C0 17.5801 0.149 16.8749 0.447001 16.2988C0.7648 15.7228 1.182 15.246 1.6985 14.8686C2.2348 14.4912 2.8407 14.2031 3.5161 14.0045C4.1914 13.786 4.8867 13.6271 5.6018 13.5277C6.3368 13.4284 7.0619 13.3688 7.777 13.349C8.512 13.3291 9.1874 13.3192 9.8032 13.3192C9.8032 12.5246 9.5151 11.8989 8.939 11.442C8.3829 10.9652 7.7174 10.7269 6.9427 10.7269C6.2077 10.7269 5.5323 10.8858 4.9165 11.2036C4.3206 11.5016 3.7842 11.9187 3.3075 12.4551L0.9237 10.0117C1.7581 9.237 2.7314 8.6609 3.8438 8.2835C4.9562 7.8862 6.1084 7.6876 7.3002 7.6876C8.6113 7.6876 9.684 7.8564 10.5183 8.1941C11.3724 8.512 12.0478 8.9887 12.5444 9.6244C13.0609 10.26 13.4185 11.0447 13.6171 11.9783C13.8158 12.8921 13.9151 13.9548 13.9151 15.1666V22.5263H9.8032V20.7087ZM8.7007 16.1796C8.363 16.1796 7.9359 16.1995 7.4194 16.2392C6.9228 16.2591 6.4361 16.3386 5.9594 16.4776C5.5025 16.6167 5.1052 16.8252 4.7675 17.1033C4.4497 17.3814 4.2908 17.7688 4.2908 18.2654C4.2908 18.8017 4.5192 19.199 4.9761 19.4573C5.433 19.7155 5.9097 19.8446 6.4063 19.8446C6.8433 19.8446 7.2605 19.785 7.6578 19.6659C8.0749 19.5467 8.4424 19.3778 8.7603 19.1593C9.0781 18.9408 9.3264 18.6627 9.5052 18.325C9.7038 17.9873 9.8032 17.59 9.8032 17.1331V16.1796H8.7007ZM30.6641 22.5263H26.3734V20.5598H26.3138C26.1548 20.8379 25.9462 21.1159 25.688 21.3941C25.4497 21.6722 25.1517 21.9205 24.7941 22.139C24.4366 22.3575 24.0294 22.5363 23.5725 22.6753C23.1155 22.8144 22.619 22.8839 22.0826 22.8839C20.9504 22.8839 20.0267 22.7151 19.3116 22.3773C18.6163 22.0198 18.07 21.5331 17.6727 20.9173C17.2953 20.3015 17.0371 19.5765 16.898 18.7422C16.7788 17.9078 16.7192 17.004 16.7192 16.0307V8.0452H21.1887V15.1368C21.1887 15.5539 21.1987 15.9909 21.2185 16.4478C21.2583 16.8848 21.3477 17.2921 21.4867 17.6695C21.6456 18.0469 21.8741 18.3548 22.172 18.5932C22.4899 18.8315 22.9368 18.9507 23.5129 18.9507C24.089 18.9507 24.5558 18.8514 24.9133 18.6528C25.2709 18.4342 25.5391 18.1562 25.7178 17.8185C25.9164 17.4609 26.0456 17.0636 26.1052 16.6266C26.1648 16.1896 26.1946 15.7327 26.1946 15.2559V8.0452H30.6641V22.5263ZM43.6917 11.6208H39.7586V16.4478C39.7586 16.8451 39.7784 17.2126 39.8182 17.5503C39.858 17.8681 39.9474 18.1462 40.0863 18.3846C40.2253 18.623 40.4339 18.8117 40.7121 18.9507C41.01 19.0699 41.3974 19.1295 41.8741 19.1295C42.1125 19.1295 42.4205 19.1097 42.7978 19.0699C43.1952 19.0103 43.4932 18.8911 43.6917 18.7124V22.4369C43.1952 22.6157 42.6787 22.7349 42.1423 22.7945C41.606 22.8541 41.0796 22.8839 40.5631 22.8839C39.8082 22.8839 39.1131 22.8044 38.4773 22.6455C37.8416 22.4866 37.2855 22.2383 36.8087 21.9006C36.332 21.543 35.9546 21.0862 35.6764 20.53C35.4183 19.9738 35.2891 19.2984 35.2891 18.5038V11.6208H32.4286V8.0452H35.2891V3.7544H39.7586V8.0452H43.6917V11.6208ZM45.4267 15.2857C45.4267 14.1336 45.6353 13.0907 46.0524 12.1571C46.4696 11.2235 47.0357 10.4289 47.7508 9.7734C48.4857 9.098 49.3401 8.5815 50.3134 8.2239C51.3067 7.8664 52.3593 7.6876 53.4718 7.6876C54.5843 7.6876 55.6272 7.8664 56.6005 8.2239C57.5938 8.5815 58.4478 9.098 59.163 9.7734C59.8979 10.4289 60.474 11.2235 60.8912 12.1571C61.3083 13.0907 61.5169 14.1336 61.5169 15.2857C61.5169 16.4379 61.3083 17.4808 60.8912 18.4144C60.474 19.348 59.8979 20.1525 59.163 20.8279C58.4478 21.4834 57.5938 21.99 56.6005 22.3476C55.6272 22.7051 54.5843 22.8839 53.4718 22.8839C52.3593 22.8839 51.3067 22.7051 50.3134 22.3476C49.3401 21.99 48.4857 21.4834 47.7508 20.8279C47.0357 20.1525 46.4696 19.348 46.0524 18.4144C45.6353 17.4808 45.4267 16.4379 45.4267 15.2857ZM49.8962 15.2857C49.8962 16.3783 50.2042 17.2623 50.8199 17.9376C51.4556 18.613 52.3395 18.9507 53.4718 18.9507C54.6041 18.9507 55.4782 18.613 56.0939 17.9376C56.7296 17.2623 57.0474 16.3783 57.0474 15.2857C57.0474 14.1932 56.7296 13.3092 56.0939 12.6338C55.4782 11.9585 54.6041 11.6208 53.4718 11.6208C52.3395 11.6208 51.4556 11.9585 50.8199 12.6338C50.2042 13.3092 49.8962 14.1932 49.8962 15.2857ZM107.988 20.7087H107.928C107.432 21.4834 106.766 22.0396 105.932 22.3773C105.117 22.7151 104.253 22.8839 103.339 22.8839C102.664 22.8839 102.009 22.7846 101.373 22.5859C100.757 22.4071 100.211 22.129 99.7344 21.7516C99.2574 21.3742 98.8804 20.9074 98.6024 20.3512C98.3244 19.795 98.1854 19.1494 98.1854 18.4144C98.1854 17.5801 98.3344 16.8749 98.6324 16.2988C98.9504 15.7228 99.3674 15.246 99.8834 14.8686C100.419 14.4912 101.025 14.2031 101.701 14.0045C102.376 13.786 103.071 13.6271 103.786 13.5277C104.521 13.4284 105.246 13.3688 105.961 13.349C106.697 13.3291 107.372 13.3192 107.988 13.3192C107.988 12.5246 107.7 11.8989 107.124 11.442C106.567 10.9652 105.902 10.7269 105.127 10.7269C104.392 10.7269 103.717 10.8858 103.101 11.2036C102.505 11.5016 101.969 11.9187 101.492 12.4551L99.1084 10.0117C99.9434 9.237 100.916 8.6609 102.028 8.2835C103.141 7.8862 104.293 7.6876 105.485 7.6876C106.796 7.6876 107.868 7.8564 108.703 8.1941C109.557 8.512 110.232 8.9887 110.729 9.6244C111.246 10.26 111.603 11.0447 111.802 11.9783C112 12.8921 112.1 13.9548 112.1 15.1666V22.5263H107.988V20.7087ZM106.885 16.1796C106.548 16.1796 106.12 16.1995 105.604 16.2392C105.107 16.2591 104.621 16.3386 104.144 16.4776C103.687 16.6167 103.29 16.8252 102.952 17.1033C102.634 17.3814 102.475 17.7688 102.475 18.2654C102.475 18.8017 102.704 19.199 103.161 19.4573C103.618 19.7155 104.094 19.8446 104.591 19.8446C105.028 19.8446 105.445 19.785 105.842 19.6659C106.259 19.5467 106.627 19.3778 106.945 19.1593C107.263 18.9408 107.511 18.6627 107.69 18.325C107.889 17.9873 107.988 17.59 107.988 17.1331V16.1796H106.885ZM114.904 8.0452H119.373V10.3693H119.433C119.91 9.4754 120.476 8.8099 121.131 8.3729C121.787 7.916 122.611 7.6876 123.604 7.6876C123.863 7.6876 124.121 7.6975 124.379 7.7174C124.637 7.7372 124.876 7.777 125.094 7.8366V11.9187C124.776 11.8194 124.459 11.7499 124.141 11.7101C123.843 11.6505 123.525 11.6208 123.187 11.6208C122.333 11.6208 121.658 11.7399 121.161 11.9783C120.665 12.2167 120.277 12.5544 119.999 12.9914C119.741 13.4086 119.572 13.9151 119.492 14.511C119.413 15.107 119.373 15.7625 119.373 16.4776V22.5263H114.904V8.0452ZM127.038 0H131.507V13.7661L136.454 8.0452H141.936L136.185 14.5706L142.085 22.5263H136.454L131.567 15.1964H131.507V22.5263H127.038V0ZM157.301 20.0234C156.586 20.9372 155.682 21.6424 154.59 22.139C153.497 22.6356 152.365 22.8839 151.193 22.8839C150.081 22.8839 149.028 22.7051 148.034 22.3476C147.061 21.99 146.207 21.4834 145.472 20.8279C144.757 20.1525 144.191 19.348 143.773 18.4144C143.356 17.4808 143.148 16.4379 143.148 15.2857C143.148 14.1336 143.356 13.0907 143.773 12.1571C144.191 11.2235 144.757 10.4289 145.472 9.7734C146.207 9.098 147.061 8.5815 148.034 8.2239C149.028 7.8664 150.081 7.6876 151.193 7.6876C152.226 7.6876 153.159 7.8664 153.994 8.2239C154.848 8.5815 155.563 9.098 156.139 9.7734C156.735 10.4289 157.192 11.2235 157.51 12.1571C157.828 13.0907 157.986 14.1336 157.986 15.2857V16.6862H147.617C147.796 17.5403 148.183 18.2257 148.779 18.7422C149.375 19.2388 150.11 19.4871 150.984 19.4871C151.719 19.4871 152.335 19.3281 152.832 19.0103C153.348 18.6726 153.795 18.2456 154.173 17.7291L157.301 20.0234ZM153.517 13.6469C153.537 12.8921 153.289 12.2465 152.772 11.7101C152.256 11.1738 151.59 10.9056 150.776 10.9056C150.279 10.9056 149.842 10.9851 149.465 11.144C149.087 11.3029 148.76 11.5115 148.481 11.7697C148.223 12.0081 148.015 12.2961 147.856 12.6338C147.717 12.9517 147.637 13.2894 147.617 13.6469H153.517ZM170.567 11.6208H166.634V16.4478C166.634 16.8451 166.654 17.2126 166.694 17.5503C166.733 17.8681 166.823 18.1462 166.962 18.3846C167.101 18.623 167.31 18.8117 167.588 18.9507C167.886 19.0699 168.273 19.1295 168.75 19.1295C168.988 19.1295 169.296 19.1097 169.673 19.0699C170.071 19.0103 170.369 18.8911 170.567 18.7124V22.4369C170.071 22.6157 169.554 22.7349 169.018 22.7945C168.481 22.8541 167.955 22.8839 167.439 22.8839C166.684 22.8839 165.989 22.8044 165.353 22.6455C164.717 22.4866 164.161 22.2383 163.684 21.9006C163.207 21.543 162.83 21.0862 162.552 20.53C162.294 19.9738 162.165 19.2984 162.165 18.5038V11.6208H159.304V8.0452H162.165V3.7544H166.634V8.0452H170.567V11.6208ZM186.545 20.0234C185.83 20.9372 184.926 21.6424 183.833 22.139C182.741 22.6356 181.609 22.8839 180.437 22.8839C179.324 22.8839 178.272 22.7051 177.278 22.3476C176.305 21.99 175.451 21.4834 174.716 20.8279C174.001 20.1525 173.434 19.348 173.017 18.4144C172.6 17.4808 172.392 16.4379 172.392 15.2857C172.392 14.1336 172.6 13.0907 173.017 12.1571C173.434 11.2235 174.001 10.4289 174.716 9.7734C175.451 9.098 176.305 8.5815 177.278 8.2239C178.272 7.8664 179.324 7.6876 180.437 7.6876C181.47 7.6876 182.403 7.8664 183.238 8.2239C184.092 8.5815 184.807 9.098 185.383 9.7734C185.979 10.4289 186.436 11.2235 186.754 12.1571C187.072 13.0907 187.23 14.1336 187.23 15.2857V16.6862H176.861C177.04 17.5403 177.427 18.2257 178.023 18.7422C178.619 19.2388 179.354 19.4871 180.228 19.4871C180.963 19.4871 181.579 19.3281 182.075 19.0103C182.592 18.6726 183.039 18.2456 183.416 17.7291L186.545 20.0234ZM182.761 13.6469C182.781 12.8921 182.532 12.2465 182.016 11.7101C181.5 11.1738 180.834 10.9056 180.02 10.9056C179.523 10.9056 179.086 10.9851 178.708 11.144C178.331 11.3029 178.003 11.5115 177.725 11.7697C177.467 12.0081 177.258 12.2961 177.099 12.6338C176.96 12.9517 176.881 13.2894 176.861 13.6469H182.761ZM189.948 8.0452H194.418V10.3693H194.477C194.954 9.4754 195.52 8.8099 196.176 8.3729C196.831 7.916 197.656 7.6876 198.649 7.6876C198.907 7.6876 199.165 7.6975 199.424 7.7174C199.682 7.7372 199.92 7.777 200.139 7.8366V11.9187C199.821 11.8194 199.503 11.7499 199.185 11.7101C198.887 11.6505 198.57 11.6208 198.232 11.6208C197.378 11.6208 196.702 11.7399 196.206 11.9783C195.709 12.2167 195.322 12.5544 195.044 12.9914C194.785 13.4086 194.617 13.9151 194.537 14.511C194.458 15.107 194.418 15.7625 194.418 16.4776V22.5263H189.948V8.0452Z" fill="black"/>
<path fill-rule="evenodd" clip-rule="evenodd" d="M68.9716 1.6123H90.8533C93.4253 1.6123 95.5093 3.6968 95.5093 6.2681V18.6159C95.5093 21.1871 93.4253 23.2717 90.8533 23.2717H74.0929L75.4896 27.6844L67.2615 24.435C65.484 23.7329 64.3159 22.0158 64.3159 20.1047V6.2681C64.3159 3.6968 66.4002 1.6123 68.9716 1.6123ZM72.9792 5.7541H68.6885V20.2353H73.158V13.0245C73.158 12.5477 73.1878 12.0908 73.2474 11.6538C73.307 11.2168 73.4262 10.8295 73.605 10.4917C73.8035 10.1342 74.0817 9.85611 74.4393 9.65741C74.7968 9.43891 75.2636 9.32971 75.8397 9.32971C76.3563 9.32971 76.7436 9.4489 77.0018 9.6872C77.28 9.9256 77.4785 10.2136 77.5977 10.5513C77.7169 10.889 77.7865 11.2466 77.8063 11.624C77.8261 12.0014 77.8361 12.3193 77.8361 12.5775V20.2353H82.3056V12.5775C82.3056 12.1405 82.3454 11.7234 82.4248 11.3261C82.5242 10.9288 82.6732 10.5811 82.8717 10.2832C83.0903 9.98521 83.3683 9.75681 83.706 9.59781C84.0636 9.41911 84.5006 9.32971 85.0173 9.32971C85.7523 9.32971 86.2583 9.57801 86.5363 10.0746C86.8343 10.5513 86.9833 11.1274 86.9833 11.8028V20.2353H91.4533V11.6836C91.4533 10.8096 91.3633 9.9951 91.1853 9.2403C91.0263 8.4656 90.7483 7.80011 90.3503 7.24391C89.9733 6.66781 89.4463 6.2209 88.7713 5.9031C88.1163 5.5654 87.3013 5.39651 86.3283 5.39651C85.2553 5.39651 84.3516 5.59521 83.6167 5.99251C82.8818 6.38971 82.256 7.05521 81.7395 7.98881C81.3421 7.09491 80.7462 6.43941 79.9517 6.02221C79.177 5.60511 78.2831 5.39651 77.27 5.39651C76.7336 5.39651 76.2371 5.4661 75.7801 5.6051C75.3232 5.7441 74.916 5.92291 74.5585 6.14141C74.2009 6.36001 73.8929 6.60821 73.6348 6.88641C73.3766 7.16451 73.1778 7.44251 73.0388 7.72071H72.9792V5.7541Z" fill="black"/>
</svg>
