<svg width="231" height="55" viewBox="0 0 231 55" fill="none" xmlns="http://www.w3.org/2000/svg">
<rect width="230.169" height="55" rx="10.0098" fill="url(#paint0_linear_669_4369)"/>
<path d="M24.8178 35.7233H24.7582C24.2616 36.498 23.5961 37.0542 22.7618 37.3919C21.9473 37.7297 21.0832 37.8985 20.1695 37.8985C19.4941 37.8985 18.8386 37.7992 18.2029 37.6005C17.5871 37.4217 17.0408 37.1436 16.5641 36.7662C16.0873 36.3888 15.7099 35.922 15.4318 35.3658C15.1537 34.8096 15.0146 34.164 15.0146 33.429C15.0146 32.5947 15.1636 31.8895 15.4616 31.3134C15.7794 30.7374 16.1966 30.2606 16.7131 29.8832C17.2494 29.5058 17.8553 29.2177 18.5307 29.0191C19.206 28.8006 19.9013 28.6417 20.6164 28.5423C21.3514 28.443 22.0765 28.3834 22.7916 28.3636C23.5266 28.3437 24.202 28.3338 24.8178 28.3338C24.8178 27.5392 24.5297 26.9135 23.9536 26.4566C23.3975 25.9798 22.732 25.7415 21.9573 25.7415C21.2223 25.7415 20.5469 25.9004 19.9311 26.2182C19.3352 26.5162 18.7988 26.9333 18.3221 27.4697L15.9383 25.0263C16.7727 24.2516 17.746 23.6755 18.8584 23.2981C19.9708 22.9008 21.123 22.7022 22.3148 22.7022C23.6259 22.7022 24.6986 22.871 25.5329 23.2087C26.387 23.5266 27.0624 24.0033 27.559 24.639C28.0755 25.2746 28.4331 26.0593 28.6317 26.9929C28.8304 27.9067 28.9297 28.9694 28.9297 30.1812V37.5409H24.8178V35.7233ZM23.7153 31.1942C23.3776 31.1942 22.9505 31.2141 22.434 31.2538C21.9374 31.2737 21.4507 31.3532 20.974 31.4922C20.5171 31.6313 20.1198 31.8398 19.7821 32.1179C19.4643 32.396 19.3054 32.7834 19.3054 33.28C19.3054 33.8163 19.5338 34.2136 19.9907 34.4719C20.4476 34.7301 20.9243 34.8592 21.4209 34.8592C21.8579 34.8592 22.2751 34.7996 22.6724 34.6805C23.0895 34.5613 23.457 34.3924 23.7749 34.1739C24.0927 33.9554 24.341 33.6773 24.5198 33.3396C24.7184 33.0019 24.8178 32.6046 24.8178 32.1477V31.1942H23.7153ZM45.6787 37.5409H41.388V35.5744H41.3284C41.1694 35.8525 40.9608 36.1305 40.7026 36.4087C40.4643 36.6868 40.1663 36.9351 39.8087 37.1536C39.4512 37.3721 39.044 37.5509 38.5871 37.6899C38.1301 37.829 37.6336 37.8985 37.0972 37.8985C35.965 37.8985 35.0413 37.7297 34.3262 37.3919C33.6309 37.0344 33.0846 36.5477 32.6873 35.9319C32.3099 35.3161 32.0517 34.5911 31.9126 33.7568C31.7934 32.9224 31.7338 32.0186 31.7338 31.0453V23.0598H36.2033V30.1514C36.2033 30.5685 36.2133 31.0055 36.2331 31.4624C36.2729 31.8994 36.3623 32.3067 36.5013 32.6841C36.6602 33.0615 36.8887 33.3694 37.1866 33.6078C37.5045 33.8461 37.9514 33.9653 38.5275 33.9653C39.1036 33.9653 39.5704 33.866 39.9279 33.6674C40.2855 33.4488 40.5537 33.1708 40.7324 32.8331C40.931 32.4755 41.0602 32.0782 41.1198 31.6412C41.1794 31.2042 41.2092 30.7473 41.2092 30.2705V23.0598H45.6787V37.5409ZM58.7063 26.6354H54.7732V31.4624C54.7732 31.8597 54.793 32.2272 54.8328 32.5649C54.8726 32.8827 54.962 33.1608 55.1009 33.3992C55.2399 33.6376 55.4485 33.8263 55.7267 33.9653C56.0246 34.0845 56.412 34.1441 56.8887 34.1441C57.1271 34.1441 57.4351 34.1243 57.8124 34.0845C58.2098 34.0249 58.5078 33.9057 58.7063 33.727V37.4515C58.2098 37.6303 57.6933 37.7495 57.1569 37.8091C56.6206 37.8687 56.0942 37.8985 55.5777 37.8985C54.8228 37.8985 54.1277 37.819 53.4919 37.6601C52.8562 37.5012 52.3001 37.2529 51.8233 36.9152C51.3466 36.5576 50.9692 36.1008 50.691 35.5446C50.4329 34.9884 50.3037 34.313 50.3037 33.5184V26.6354H47.4432V23.0598H50.3037V18.769H54.7732V23.0598H58.7063V26.6354ZM60.4413 30.3003C60.4413 29.1482 60.6499 28.1053 61.067 27.1717C61.4842 26.2381 62.0503 25.4435 62.7654 24.788C63.5003 24.1126 64.3547 23.5961 65.328 23.2385C66.3213 22.881 67.3739 22.7022 68.4864 22.7022C69.5989 22.7022 70.6418 22.881 71.6151 23.2385C72.6084 23.5961 73.4624 24.1126 74.1776 24.788C74.9125 25.4435 75.4886 26.2381 75.9058 27.1717C76.3229 28.1053 76.5315 29.1482 76.5315 30.3003C76.5315 31.4525 76.3229 32.4954 75.9058 33.429C75.4886 34.3626 74.9125 35.1671 74.1776 35.8425C73.4624 36.498 72.6084 37.0046 71.6151 37.3622C70.6418 37.7197 69.5989 37.8985 68.4864 37.8985C67.3739 37.8985 66.3213 37.7197 65.328 37.3622C64.3547 37.0046 63.5003 36.498 62.7654 35.8425C62.0503 35.1671 61.4842 34.3626 61.067 33.429C60.6499 32.4954 60.4413 31.4525 60.4413 30.3003ZM64.9108 30.3003C64.9108 31.3929 65.2188 32.2769 65.8345 32.9522C66.4702 33.6276 67.3541 33.9653 68.4864 33.9653C69.6187 33.9653 70.4928 33.6276 71.1085 32.9522C71.7442 32.2769 72.062 31.3929 72.062 30.3003C72.062 29.2078 71.7442 28.3238 71.1085 27.6484C70.4928 26.9731 69.6187 26.6354 68.4864 26.6354C67.3541 26.6354 66.4702 26.9731 65.8345 27.6484C65.2188 28.3238 64.9108 29.2078 64.9108 30.3003ZM123.003 35.7233H122.943C122.447 36.498 121.781 37.0542 120.947 37.3919C120.132 37.7297 119.268 37.8985 118.354 37.8985C117.679 37.8985 117.024 37.7992 116.388 37.6005C115.772 37.4217 115.226 37.1436 114.749 36.7662C114.272 36.3888 113.895 35.922 113.617 35.3658C113.339 34.8096 113.2 34.164 113.2 33.429C113.2 32.5947 113.349 31.8895 113.647 31.3134C113.965 30.7374 114.382 30.2606 114.898 29.8832C115.434 29.5058 116.04 29.2177 116.716 29.0191C117.391 28.8006 118.086 28.6417 118.801 28.5423C119.536 28.443 120.261 28.3834 120.976 28.3636C121.712 28.3437 122.387 28.3338 123.003 28.3338C123.003 27.5392 122.715 26.9135 122.139 26.4566C121.582 25.9798 120.917 25.7415 120.142 25.7415C119.407 25.7415 118.732 25.9004 118.116 26.2182C117.52 26.5162 116.984 26.9333 116.507 27.4697L114.123 25.0263C114.958 24.2516 115.931 23.6755 117.043 23.2981C118.156 22.9008 119.308 22.7022 120.5 22.7022C121.811 22.7022 122.883 22.871 123.718 23.2087C124.572 23.5266 125.247 24.0033 125.744 24.639C126.261 25.2746 126.618 26.0593 126.817 26.9929C127.015 27.9067 127.115 28.9694 127.115 30.1812V37.5409H123.003V35.7233ZM121.9 31.1942C121.563 31.1942 121.135 31.2141 120.619 31.2538C120.122 31.2737 119.636 31.3532 119.159 31.4922C118.702 31.6313 118.305 31.8398 117.967 32.1179C117.649 32.396 117.49 32.7834 117.49 33.28C117.49 33.8163 117.719 34.2136 118.176 34.4719C118.633 34.7301 119.109 34.8592 119.606 34.8592C120.043 34.8592 120.46 34.7996 120.857 34.6805C121.274 34.5613 121.642 34.3924 121.96 34.1739C122.278 33.9554 122.526 33.6773 122.705 33.3396C122.904 33.0019 123.003 32.6046 123.003 32.1477V31.1942H121.9ZM129.919 23.0598H134.388V25.3839H134.448C134.925 24.49 135.491 23.8245 136.146 23.3875C136.802 22.9306 137.626 22.7022 138.619 22.7022C138.878 22.7022 139.136 22.7121 139.394 22.732C139.652 22.7518 139.891 22.7916 140.109 22.8512V26.9333C139.791 26.834 139.474 26.7645 139.156 26.7247C138.858 26.6651 138.54 26.6354 138.202 26.6354C137.348 26.6354 136.673 26.7545 136.176 26.9929C135.68 27.2313 135.292 27.569 135.014 28.006C134.756 28.4232 134.587 28.9297 134.507 29.5256C134.428 30.1216 134.388 30.7771 134.388 31.4922V37.5409H129.919V23.0598ZM142.053 15.0146H146.522V28.7807L151.469 23.0598H156.951L151.2 29.5852L157.1 37.5409H151.469L146.582 30.211H146.522V37.5409H142.053V15.0146ZM172.316 35.038C171.601 35.9518 170.697 36.657 169.605 37.1536C168.512 37.6502 167.38 37.8985 166.208 37.8985C165.096 37.8985 164.043 37.7197 163.049 37.3622C162.076 37.0046 161.222 36.498 160.487 35.8425C159.772 35.1671 159.206 34.3626 158.788 33.429C158.371 32.4954 158.163 31.4525 158.163 30.3003C158.163 29.1482 158.371 28.1053 158.788 27.1717C159.206 26.2381 159.772 25.4435 160.487 24.788C161.222 24.1126 162.076 23.5961 163.049 23.2385C164.043 22.881 165.096 22.7022 166.208 22.7022C167.241 22.7022 168.174 22.881 169.009 23.2385C169.863 23.5961 170.578 24.1126 171.154 24.788C171.75 25.4435 172.207 26.2381 172.525 27.1717C172.843 28.1053 173.001 29.1482 173.001 30.3003V31.7008H162.632C162.811 32.5549 163.198 33.2403 163.794 33.7568C164.39 34.2534 165.125 34.5017 165.999 34.5017C166.734 34.5017 167.35 34.3427 167.847 34.0249C168.363 33.6872 168.81 33.2602 169.188 32.7437L172.316 35.038ZM168.532 28.6615C168.552 27.9067 168.304 27.2611 167.787 26.7247C167.271 26.1884 166.605 25.9202 165.791 25.9202C165.294 25.9202 164.857 25.9997 164.48 26.1586C164.102 26.3175 163.775 26.5261 163.496 26.7843C163.238 27.0227 163.03 27.3107 162.871 27.6484C162.732 27.9663 162.652 28.304 162.632 28.6615H168.532ZM185.582 26.6354H181.649V31.4624C181.649 31.8597 181.669 32.2272 181.709 32.5649C181.748 32.8827 181.838 33.1608 181.977 33.3992C182.116 33.6376 182.325 33.8263 182.603 33.9653C182.901 34.0845 183.288 34.1441 183.765 34.1441C184.003 34.1441 184.311 34.1243 184.688 34.0845C185.086 34.0249 185.384 33.9057 185.582 33.727V37.4515C185.086 37.6303 184.569 37.7495 184.033 37.8091C183.496 37.8687 182.97 37.8985 182.454 37.8985C181.699 37.8985 181.004 37.819 180.368 37.6601C179.732 37.5012 179.176 37.2529 178.699 36.9152C178.222 36.5576 177.845 36.1008 177.567 35.5446C177.309 34.9884 177.18 34.313 177.18 33.5184V26.6354H174.319V23.0598H177.18V18.769H181.649V23.0598H185.582V26.6354ZM201.56 35.038C200.845 35.9518 199.941 36.657 198.848 37.1536C197.756 37.6502 196.624 37.8985 195.452 37.8985C194.339 37.8985 193.287 37.7197 192.293 37.3622C191.32 37.0046 190.466 36.498 189.731 35.8425C189.016 35.1671 188.449 34.3626 188.032 33.429C187.615 32.4954 187.407 31.4525 187.407 30.3003C187.407 29.1482 187.615 28.1053 188.032 27.1717C188.449 26.2381 189.016 25.4435 189.731 24.788C190.466 24.1126 191.32 23.5961 192.293 23.2385C193.287 22.881 194.339 22.7022 195.452 22.7022C196.485 22.7022 197.418 22.881 198.253 23.2385C199.107 23.5961 199.822 24.1126 200.398 24.788C200.994 25.4435 201.451 26.2381 201.769 27.1717C202.087 28.1053 202.245 29.1482 202.245 30.3003V31.7008H191.876C192.055 32.5549 192.442 33.2403 193.038 33.7568C193.634 34.2534 194.369 34.5017 195.243 34.5017C195.978 34.5017 196.594 34.3427 197.09 34.0249C197.607 33.6872 198.054 33.2602 198.431 32.7437L201.56 35.038ZM197.776 28.6615C197.796 27.9067 197.547 27.2611 197.031 26.7247C196.515 26.1884 195.849 25.9202 195.035 25.9202C194.538 25.9202 194.101 25.9997 193.723 26.1586C193.346 26.3175 193.018 26.5261 192.74 26.7843C192.482 27.0227 192.273 27.3107 192.114 27.6484C191.975 27.9663 191.896 28.304 191.876 28.6615H197.776ZM204.963 23.0598H209.433V25.3839H209.492C209.969 24.49 210.535 23.8245 211.191 23.3875C211.846 22.9306 212.671 22.7022 213.664 22.7022C213.922 22.7022 214.18 22.7121 214.439 22.732C214.697 22.7518 214.935 22.7916 215.154 22.8512V26.9333C214.836 26.834 214.518 26.7645 214.2 26.7247C213.902 26.6651 213.585 26.6354 213.247 26.6354C212.393 26.6354 211.717 26.7545 211.221 26.9929C210.724 27.2313 210.337 27.569 210.059 28.006C209.8 28.4232 209.632 28.9297 209.552 29.5256C209.473 30.1216 209.433 30.7771 209.433 31.4922V37.5409H204.963V23.0598Z" fill="#333333"/>
<path fill-rule="evenodd" clip-rule="evenodd" d="M83.9863 16.6274H105.868C108.44 16.6274 110.524 18.7119 110.524 21.2832V33.631C110.524 36.2022 108.44 38.2868 105.868 38.2868H89.1076L90.5043 42.6995L82.2762 39.4501C80.4987 38.748 79.3306 37.0309 79.3306 35.1198V21.2832C79.3306 18.7119 81.4149 16.6274 83.9863 16.6274ZM87.9939 20.7692H83.7032V35.2504H88.1727V28.0396C88.1727 27.5628 88.2025 27.1059 88.2621 26.6689C88.3217 26.2319 88.4409 25.8446 88.6197 25.5068C88.8182 25.1493 89.0964 24.8712 89.454 24.6725C89.8115 24.454 90.2783 24.3448 90.8544 24.3448C91.371 24.3448 91.7583 24.464 92.0165 24.7023C92.2947 24.9407 92.4932 25.2287 92.6124 25.5664C92.7316 25.9041 92.8012 26.2617 92.821 26.6391C92.8408 27.0165 92.8508 27.3344 92.8508 27.5926V35.2504H97.3203V27.5926C97.3203 27.1556 97.3601 26.7385 97.4395 26.3412C97.5389 25.9439 97.6879 25.5962 97.8864 25.2983C98.105 25.0003 98.383 24.7719 98.7207 24.6129C99.0783 24.4342 99.5153 24.3448 100.032 24.3448C100.767 24.3448 101.273 24.5931 101.551 25.0897C101.849 25.5664 101.998 26.1425 101.998 26.8179V35.2504H106.468V26.6987C106.468 25.8247 106.378 25.0102 106.2 24.2554C106.041 23.4807 105.763 22.8152 105.365 22.259C104.988 21.6829 104.461 21.236 103.786 20.9182C103.131 20.5805 102.316 20.4116 101.343 20.4116C100.27 20.4116 99.3663 20.6103 98.6314 21.0076C97.8965 21.4048 97.2707 22.0703 96.7542 23.0039C96.3568 22.11 95.7609 21.4545 94.9664 21.0373C94.1917 20.6202 93.2978 20.4116 92.2847 20.4116C91.7483 20.4116 91.2518 20.4812 90.7948 20.6202C90.3379 20.7592 89.9307 20.938 89.5732 21.1565C89.2156 21.3751 88.9076 21.6233 88.6495 21.9015C88.3913 22.1796 88.1925 22.4576 88.0535 22.7358H87.9939V20.7692Z" fill="#333333"/>
<defs>
<linearGradient id="paint0_linear_669_4369" x1="-3.42978e-06" y1="55" x2="79.3497" y2="-85.2993" gradientUnits="userSpaceOnUse">
<stop stop-color="#FFA453"/>
<stop offset="1" stop-color="#FFDD76"/>
</linearGradient>
</defs>
</svg>
