<svg width="207" height="107" viewBox="0 0 207 107" fill="none" xmlns="http://www.w3.org/2000/svg">
<path d="M5.63167 106.429H3.18902V82.4094H17.6753V84.5807H5.63167V92.9264H16.8272V95.0637H5.63167V106.429ZM24.6818 106.429H22.2391V82.4094H24.6818V106.429ZM33.4945 104.258H44.69V106.429H31.0519V82.4094H33.4945V104.258ZM55.9992 82.4094H63.9717C65.4645 82.4094 66.9572 82.6582 68.4499 83.1558C69.9653 83.6534 71.3223 84.411 72.521 85.4288C73.7424 86.424 74.7262 87.6792 75.4726 89.1946C76.2189 90.6873 76.5921 92.4288 76.5921 94.4191C76.5921 96.432 76.2189 98.1849 75.4726 99.6776C74.7262 101.17 73.7424 102.426 72.521 103.443C71.3223 104.439 69.9653 105.185 68.4499 105.682C66.9572 106.18 65.4645 106.429 63.9717 106.429H55.9992V82.4094ZM58.4419 104.258H63.2932C65.1026 104.258 66.6745 103.975 68.0089 103.409C69.3659 102.844 70.4855 102.109 71.3676 101.204C72.2496 100.277 72.9055 99.2253 73.3353 98.0492C73.7876 96.8731 74.0138 95.6631 74.0138 94.4191C74.0138 93.1752 73.7876 91.9652 73.3353 90.7891C72.9055 89.613 72.2496 88.5726 71.3676 87.6679C70.4855 86.7406 69.3659 85.9942 68.0089 85.4288C66.6745 84.8634 65.1026 84.5807 63.2932 84.5807H58.4419V104.258ZM81.845 90.382H79.9113L82.1843 82.4094H84.593L81.845 90.382ZM87.403 106.429H84.7229L95.1042 82.4094H97.479L107.792 106.429H105.078L102.432 100.119H90.0153L87.403 106.429ZM90.9313 97.8795H101.516L96.2237 85.1235L90.9313 97.8795ZM113.77 106.429H111.327V82.4094H118.384C119.56 82.4094 120.646 82.5225 121.641 82.7487C122.658 82.9748 123.529 83.348 124.253 83.8682C124.999 84.3658 125.576 85.0217 125.983 85.8359C126.39 86.6501 126.594 87.6453 126.594 88.8214C126.594 89.7034 126.436 90.5064 126.119 91.2301C125.802 91.9539 125.373 92.5871 124.83 93.1299C124.287 93.6501 123.642 94.0686 122.896 94.3852C122.15 94.7018 121.335 94.9054 120.453 94.9959L127.476 106.429H124.49L117.841 95.1994H113.77V106.429ZM113.77 93.096H118.011C119.978 93.096 121.494 92.7455 122.557 92.0443C123.62 91.3206 124.151 90.2463 124.151 88.8214C124.151 88.0298 124.004 87.3626 123.71 86.8198C123.416 86.2769 123.009 85.8359 122.489 85.4967C121.969 85.1574 121.335 84.9086 120.589 84.7503C119.843 84.592 119.017 84.5128 118.112 84.5128H113.77V93.096ZM134.079 106.429H131.636V82.4094H134.079V106.429ZM140.279 106.429H137.599L147.981 82.4094H150.355L160.669 106.429H157.955L155.309 100.119H142.892L140.279 106.429ZM143.808 97.8795H154.393L149.1 85.1235L143.808 97.8795ZM181.234 102.867H181.302V82.4094H183.745V106.429H180.692L166.714 85.7681H166.646V106.429H164.204V82.4094H167.257L181.234 102.867ZM192.555 104.258H205.412V106.429H190.112V82.4094H205.005V84.5807H192.555V92.8585H204.191V94.9959H192.555V104.258Z" fill="#012946"/>
<path d="M80.6543 54.5992L108.179 0L135.703 54.5992H126.528L108.179 18.1997L89.8291 54.5992H80.6543Z" fill="#012946"/>
<path d="M132.984 30.2894C121.067 37.297 115.757 37.297 107.816 35.7778C100.395 34.3581 94.7283 31.5458 87.9856 33.1535C82.2327 34.5251 79.95 37.297 79.95 37.297C92.6862 31.7515 94.5513 37.6239 107.827 39.8421C121.067 42.0545 127.095 36.4789 128.727 35.2213C130.358 33.9637 131.955 32.3904 132.984 30.2894Z" fill="#012946"/>
</svg>
