<svg width="207" height="107" viewBox="0 0 207 107" fill="none" xmlns="http://www.w3.org/2000/svg">
<path d="M5.63161 106.429H3.18896V82.4092H17.6752V84.5805H5.63161V92.9262H16.8271V95.0635H5.63161V106.429ZM24.6817 106.429H22.239V82.4092H24.6817V106.429ZM33.4944 104.258H44.6899V106.429H31.0518V82.4092H33.4944V104.258ZM55.9991 82.4092H63.9716C65.4644 82.4092 66.9571 82.658 68.4498 83.1556C69.9652 83.6532 71.3223 84.4108 72.521 85.4286C73.7424 86.4238 74.7261 87.679 75.4725 89.1944C76.2188 90.6871 76.592 92.4286 76.592 94.4189C76.592 96.4318 76.2188 98.1847 75.4725 99.6774C74.7261 101.17 73.7424 102.426 72.521 103.443C71.3223 104.439 69.9652 105.185 68.4498 105.682C66.9571 106.18 65.4644 106.429 63.9716 106.429H55.9991V82.4092ZM58.4418 104.258H63.2931C65.1025 104.258 66.6745 103.975 68.0089 103.409C69.3659 102.844 70.4854 102.109 71.3675 101.204C72.2495 100.277 72.9054 99.2251 73.3352 98.049C73.7875 96.8729 74.0137 95.6629 74.0137 94.4189C74.0137 93.175 73.7875 91.965 73.3352 90.7889C72.9054 89.6128 72.2495 88.5724 71.3675 87.6677C70.4854 86.7404 69.3659 85.994 68.0089 85.4286C66.6745 84.8632 65.1025 84.5805 63.2931 84.5805H58.4418V104.258ZM81.8449 90.3818H79.9112L82.1842 82.4092H84.5929L81.8449 90.3818ZM87.4029 106.429H84.7228L95.1041 82.4092H97.4789L107.792 106.429H105.078L102.432 100.119H90.0152L87.4029 106.429ZM90.9312 97.8793H101.516L96.2236 85.1233L90.9312 97.8793ZM113.77 106.429H111.327V82.4092H118.384C119.56 82.4092 120.646 82.5223 121.641 82.7485C122.658 82.9746 123.529 83.3478 124.253 83.868C124.999 84.3656 125.576 85.0215 125.983 85.8357C126.39 86.6499 126.594 87.6451 126.594 88.8212C126.594 89.7032 126.436 90.5062 126.119 91.2299C125.802 91.9537 125.373 92.5869 124.83 93.1297C124.287 93.6499 123.642 94.0684 122.896 94.385C122.15 94.7016 121.335 94.9052 120.453 94.9957L127.476 106.429H124.49L117.841 95.1992H113.77V106.429ZM113.77 93.0958H118.011C119.978 93.0958 121.494 92.7453 122.557 92.0441C123.62 91.3204 124.151 90.2461 124.151 88.8212C124.151 88.0296 124.004 87.3624 123.71 86.8196C123.416 86.2767 123.009 85.8357 122.489 85.4965C121.969 85.1572 121.335 84.9084 120.589 84.7501C119.843 84.5918 119.017 84.5126 118.112 84.5126H113.77V93.0958ZM134.079 106.429H131.636V82.4092H134.079V106.429ZM140.279 106.429H137.599L147.981 82.4092H150.355L160.669 106.429H157.955L155.309 100.119H142.892L140.279 106.429ZM143.808 97.8793H154.393L149.1 85.1233L143.808 97.8793ZM181.234 102.867H181.302V82.4092H183.745V106.429H180.692L166.714 85.7679H166.646V106.429H164.204V82.4092H167.257L181.234 102.867ZM192.555 104.258H205.412V106.429H190.112V82.4092H205.005V84.5805H192.555V92.8583H204.191V94.9957H192.555V104.258Z" fill="black"/>
<path d="M76.7041 54.5992L104.229 0L131.753 54.5992H122.578L104.229 18.1997L85.8789 54.5992H76.7041Z" fill="black"/>
<path d="M129.034 30.2891C117.117 37.2967 111.807 37.2967 103.866 35.7775C96.445 34.3578 90.7783 31.5455 84.0356 33.1532C78.2827 34.5248 76 37.2967 76 37.2967C88.7362 31.7512 90.6013 37.6236 103.877 39.8418C117.117 42.0542 123.145 36.4786 124.777 35.221C126.408 33.9634 128.005 32.3901 129.034 30.2891Z" fill="black"/>
</svg>
