<svg width="243" height="89" viewBox="0 0 243 89" fill="none" xmlns="http://www.w3.org/2000/svg">
<path d="M142.289 14.1268C142.289 20.8243 136.859 26.2537 128.429 26.2537C118.267 26.2537 100.711 14.1268 100.711 14.1268C100.711 14.1268 118.267 2 128.429 2C136.859 2 142.289 7.42936 142.289 14.1268Z" stroke="#7630B8" stroke-width="3.24826"/>
<path d="M142.289 31.4509C142.289 38.1483 136.859 43.5777 128.429 43.5777C118.267 43.5777 100.711 31.4509 100.711 31.4509C100.711 31.4509 118.267 19.324 128.429 19.324C136.859 19.324 142.289 24.7534 142.289 31.4509Z" stroke="#7630B8" stroke-width="3.24826"/>
<mask id="path-3-outside-1_1655_23114" maskUnits="userSpaceOnUse" x="3" y="64.2704" width="240" height="25" fill="black">
<rect fill="white" x="3" y="64.2704" width="240" height="25"/>
<path d="M6.34594 88.2704H3.07344V64.8671H17.684V67.7429H6.34594V75.0151H16.9568V77.8248H6.34594V88.2704ZM35.7442 88.8654C34.2016 88.8654 32.8574 88.612 31.7114 88.1051C30.5655 87.5762 29.6179 86.8821 28.8687 86.0226C28.1194 85.1632 27.5575 84.1825 27.1828 83.0807C26.8302 81.9568 26.6539 80.7998 26.6539 79.6098V64.8671H29.9264V79.4115C29.9264 80.2048 30.0256 80.9982 30.2239 81.7915C30.4223 82.5628 30.7418 83.257 31.1825 83.874C31.6453 84.491 32.2403 84.9869 32.9675 85.3615C33.7168 85.7361 34.6424 85.9234 35.7442 85.9234C36.824 85.9234 37.7386 85.7361 38.4878 85.3615C39.2371 84.9869 39.8321 84.491 40.2728 83.874C40.7356 83.257 41.0662 82.5628 41.2645 81.7915C41.4628 80.9982 41.562 80.2048 41.562 79.4115V64.8671H44.8345V79.6098C44.8345 80.7998 44.6472 81.9568 44.2725 83.0807C43.92 84.1825 43.369 85.1632 42.6198 86.0226C41.8705 86.8821 40.9229 87.5762 39.777 88.1051C38.6311 88.612 37.2868 88.8654 35.7442 88.8654ZM58.5828 85.3615H70.8133V88.2704H55.3103V64.8671H70.3175V67.7429H58.5828V74.7507H69.6233V77.5604H58.5828V85.3615ZM83.3938 85.3615H93.8393V88.2704H80.1213V64.8671H83.3938V85.3615ZM101.962 64.8671H110.028C110.91 64.8671 111.791 64.9662 112.672 65.1646C113.554 65.3629 114.336 65.6934 115.019 66.1562C115.725 66.619 116.287 67.225 116.705 67.9743C117.146 68.7235 117.366 69.6601 117.366 70.784C117.366 72.0842 116.992 73.175 116.242 74.0565C115.493 74.938 114.502 75.544 113.267 75.8746V75.9407C114.017 76.0288 114.711 76.2271 115.35 76.5357C115.989 76.8221 116.54 77.2078 117.003 77.6926C117.466 78.1774 117.818 78.7504 118.061 79.4115C118.325 80.0726 118.457 80.8108 118.457 81.6262C118.457 82.7501 118.226 83.7308 117.763 84.5682C117.3 85.4056 116.672 86.0997 115.879 86.6507C115.086 87.1796 114.149 87.5872 113.069 87.8737C112.011 88.1382 110.876 88.2704 109.664 88.2704H101.962V64.8671ZM105.235 74.7507H109.499C110.116 74.7507 110.7 74.6846 111.251 74.5523C111.824 74.3981 112.32 74.1777 112.739 73.8912C113.157 73.5827 113.488 73.2081 113.73 72.7673C113.973 72.3046 114.094 71.7536 114.094 71.1146C114.094 69.8584 113.631 68.9659 112.706 68.4371C111.78 67.8861 110.535 67.6107 108.97 67.6107H105.235V74.7507ZM105.235 85.4937H109.334C110.017 85.4937 110.7 85.4386 111.383 85.3284C112.089 85.1962 112.717 84.9758 113.267 84.6673C113.84 84.3588 114.292 83.9511 114.623 83.4443C114.975 82.9154 115.152 82.2543 115.152 81.4609C115.152 80.0726 114.678 79.0699 113.73 78.4529C112.783 77.8358 111.416 77.5273 109.631 77.5273H105.235V85.4937ZM131.402 85.3615H143.632V88.2704H128.129V64.8671H143.137V67.7429H131.402V74.7507H142.442V77.5604H131.402V85.3615ZM161.138 88.2704H157.866V67.7429H150.362V64.8671H168.642V67.7429H161.138V88.2704ZM184.916 88.2704H181.644V67.7429H174.14V64.8671H192.42V67.7429H184.916V88.2704ZM203.769 85.3615H216V88.2704H200.496V64.8671H215.504V67.7429H203.769V74.7507H214.81V77.5604H203.769V85.3615ZM228.58 88.2704H225.307V64.8671H232.811C233.935 64.8671 235.004 64.9883 236.017 65.2307C237.031 65.451 237.913 65.8146 238.662 66.3215C239.433 66.8283 240.039 67.5005 240.48 68.3379C240.921 69.1533 241.141 70.1559 241.141 71.3459C241.141 73.0648 240.612 74.4532 239.554 75.5109C238.497 76.5687 237.13 77.2408 235.456 77.5273L242.001 88.2704H238.034L232.084 77.8579H228.58V88.2704ZM228.58 75.1143H232.348C233.12 75.1143 233.836 75.0482 234.497 74.9159C235.158 74.7837 235.731 74.5744 236.216 74.2879C236.723 73.9794 237.119 73.5937 237.406 73.1309C237.692 72.6461 237.836 72.0511 237.836 71.3459C237.836 70.6408 237.692 70.0568 237.406 69.594C237.119 69.1092 236.734 68.7235 236.249 68.4371C235.786 68.1506 235.235 67.9522 234.596 67.8421C233.957 67.7098 233.285 67.6437 232.58 67.6437H228.58V75.1143Z"/>
</mask>
<path d="M6.34594 88.2704H3.07344V64.8671H17.684V67.7429H6.34594V75.0151H16.9568V77.8248H6.34594V88.2704ZM35.7442 88.8654C34.2016 88.8654 32.8574 88.612 31.7114 88.1051C30.5655 87.5762 29.6179 86.8821 28.8687 86.0226C28.1194 85.1632 27.5575 84.1825 27.1828 83.0807C26.8302 81.9568 26.6539 80.7998 26.6539 79.6098V64.8671H29.9264V79.4115C29.9264 80.2048 30.0256 80.9982 30.2239 81.7915C30.4223 82.5628 30.7418 83.257 31.1825 83.874C31.6453 84.491 32.2403 84.9869 32.9675 85.3615C33.7168 85.7361 34.6424 85.9234 35.7442 85.9234C36.824 85.9234 37.7386 85.7361 38.4878 85.3615C39.2371 84.9869 39.8321 84.491 40.2728 83.874C40.7356 83.257 41.0662 82.5628 41.2645 81.7915C41.4628 80.9982 41.562 80.2048 41.562 79.4115V64.8671H44.8345V79.6098C44.8345 80.7998 44.6472 81.9568 44.2725 83.0807C43.92 84.1825 43.369 85.1632 42.6198 86.0226C41.8705 86.8821 40.9229 87.5762 39.777 88.1051C38.6311 88.612 37.2868 88.8654 35.7442 88.8654ZM58.5828 85.3615H70.8133V88.2704H55.3103V64.8671H70.3175V67.7429H58.5828V74.7507H69.6233V77.5604H58.5828V85.3615ZM83.3938 85.3615H93.8393V88.2704H80.1213V64.8671H83.3938V85.3615ZM101.962 64.8671H110.028C110.91 64.8671 111.791 64.9662 112.672 65.1646C113.554 65.3629 114.336 65.6934 115.019 66.1562C115.725 66.619 116.287 67.225 116.705 67.9743C117.146 68.7235 117.366 69.6601 117.366 70.784C117.366 72.0842 116.992 73.175 116.242 74.0565C115.493 74.938 114.502 75.544 113.267 75.8746V75.9407C114.017 76.0288 114.711 76.2271 115.35 76.5357C115.989 76.8221 116.54 77.2078 117.003 77.6926C117.466 78.1774 117.818 78.7504 118.061 79.4115C118.325 80.0726 118.457 80.8108 118.457 81.6262C118.457 82.7501 118.226 83.7308 117.763 84.5682C117.3 85.4056 116.672 86.0997 115.879 86.6507C115.086 87.1796 114.149 87.5872 113.069 87.8737C112.011 88.1382 110.876 88.2704 109.664 88.2704H101.962V64.8671ZM105.235 74.7507H109.499C110.116 74.7507 110.7 74.6846 111.251 74.5523C111.824 74.3981 112.32 74.1777 112.739 73.8912C113.157 73.5827 113.488 73.2081 113.73 72.7673C113.973 72.3046 114.094 71.7536 114.094 71.1146C114.094 69.8584 113.631 68.9659 112.706 68.4371C111.78 67.8861 110.535 67.6107 108.97 67.6107H105.235V74.7507ZM105.235 85.4937H109.334C110.017 85.4937 110.7 85.4386 111.383 85.3284C112.089 85.1962 112.717 84.9758 113.267 84.6673C113.84 84.3588 114.292 83.9511 114.623 83.4443C114.975 82.9154 115.152 82.2543 115.152 81.4609C115.152 80.0726 114.678 79.0699 113.73 78.4529C112.783 77.8358 111.416 77.5273 109.631 77.5273H105.235V85.4937ZM131.402 85.3615H143.632V88.2704H128.129V64.8671H143.137V67.7429H131.402V74.7507H142.442V77.5604H131.402V85.3615ZM161.138 88.2704H157.866V67.7429H150.362V64.8671H168.642V67.7429H161.138V88.2704ZM184.916 88.2704H181.644V67.7429H174.14V64.8671H192.42V67.7429H184.916V88.2704ZM203.769 85.3615H216V88.2704H200.496V64.8671H215.504V67.7429H203.769V74.7507H214.81V77.5604H203.769V85.3615ZM228.58 88.2704H225.307V64.8671H232.811C233.935 64.8671 235.004 64.9883 236.017 65.2307C237.031 65.451 237.913 65.8146 238.662 66.3215C239.433 66.8283 240.039 67.5005 240.48 68.3379C240.921 69.1533 241.141 70.1559 241.141 71.3459C241.141 73.0648 240.612 74.4532 239.554 75.5109C238.497 76.5687 237.13 77.2408 235.456 77.5273L242.001 88.2704H238.034L232.084 77.8579H228.58V88.2704ZM228.58 75.1143H232.348C233.12 75.1143 233.836 75.0482 234.497 74.9159C235.158 74.7837 235.731 74.5744 236.216 74.2879C236.723 73.9794 237.119 73.5937 237.406 73.1309C237.692 72.6461 237.836 72.0511 237.836 71.3459C237.836 70.6408 237.692 70.0568 237.406 69.594C237.119 69.1092 236.734 68.7235 236.249 68.4371C235.786 68.1506 235.235 67.9522 234.596 67.8421C233.957 67.7098 233.285 67.6437 232.58 67.6437H228.58V75.1143Z" fill="black" fill-opacity="0.85098"/>
<path d="M6.34594 88.2704V88.2962H6.37177V88.2704H6.34594ZM3.07344 88.2704H3.04762V88.2962H3.07344V88.2704ZM3.07344 64.8671V64.8412H3.04762V64.8671H3.07344ZM17.684 64.8671H17.7098V64.8412H17.684V64.8671ZM17.684 67.7429V67.7687H17.7098V67.7429H17.684ZM6.34594 67.7429V67.7171H6.32012V67.7429H6.34594ZM6.34594 75.0151H6.32012V75.0409H6.34594V75.0151ZM16.9568 75.0151H16.9826V74.9893H16.9568V75.0151ZM16.9568 77.8248V77.8507H16.9826V77.8248H16.9568ZM6.34594 77.8248V77.799H6.32012V77.8248H6.34594ZM6.34594 88.2446H3.07344V88.2962H6.34594V88.2446ZM3.09927 88.2704V64.8671H3.04762V88.2704H3.09927ZM3.07344 64.8929H17.684V64.8412H3.07344V64.8929ZM17.6582 64.8671V67.7429H17.7098V64.8671H17.6582ZM17.684 67.7171H6.34594V67.7687H17.684V67.7171ZM6.32012 67.7429V75.0151H6.37177V67.7429H6.32012ZM6.34594 75.0409H16.9568V74.9893H6.34594V75.0409ZM16.931 75.0151V77.8248H16.9826V75.0151H16.931ZM16.9568 77.799H6.34594V77.8507H16.9568V77.799ZM6.32012 77.8248V88.2704H6.37177V77.8248H6.32012ZM31.7114 88.1051L31.7006 88.1286L31.701 88.1287L31.7114 88.1051ZM28.8687 86.0226L28.8492 86.0396L28.8492 86.0396L28.8687 86.0226ZM27.1828 83.0807L27.1582 83.0884L27.1584 83.089L27.1828 83.0807ZM26.6539 64.8671V64.8412H26.6281V64.8671H26.6539ZM29.9264 64.8671H29.9523V64.8412H29.9264V64.8671ZM30.2239 81.7915L30.1989 81.7978L30.1989 81.7979L30.2239 81.7915ZM31.1825 83.874L31.1615 83.889L31.1619 83.8895L31.1825 83.874ZM32.9675 85.3615L32.9557 85.3845L32.956 85.3846L32.9675 85.3615ZM38.4878 85.3615L38.4763 85.3384L38.4763 85.3384L38.4878 85.3615ZM40.2728 83.874L40.2522 83.8585L40.2518 83.859L40.2728 83.874ZM41.2645 81.7915L41.2895 81.7979L41.2895 81.7978L41.2645 81.7915ZM41.562 64.8671V64.8412H41.5362V64.8671H41.562ZM44.8345 64.8671H44.8603V64.8412H44.8345V64.8671ZM44.2725 83.0807L44.248 83.0725L44.2479 83.0728L44.2725 83.0807ZM42.6198 86.0226L42.6003 86.0056L42.6003 86.0056L42.6198 86.0226ZM39.777 88.1051L39.7874 88.1287L39.7878 88.1286L39.777 88.1051ZM35.7442 88.8396C34.2044 88.8396 32.8638 88.5866 31.7219 88.0815L31.701 88.1287C32.8509 88.6373 34.1988 88.8912 35.7442 88.8912V88.8396ZM31.7223 88.0817C30.5793 87.5541 29.6347 86.8621 28.8881 86.0056L28.8492 86.0396C29.6011 86.902 30.5517 87.5983 31.7006 88.1286L31.7223 88.0817ZM28.8881 86.0056C28.1411 85.1488 27.5808 84.1711 27.2073 83.0724L27.1584 83.089C27.5341 84.1939 28.0977 85.1775 28.8492 86.0396L28.8881 86.0056ZM27.2075 83.0729C26.8557 81.9516 26.6798 80.7972 26.6798 79.6098H26.6281C26.6281 80.8024 26.8048 81.962 27.1582 83.0884L27.2075 83.0729ZM26.6798 79.6098V64.8671H26.6281V79.6098H26.6798ZM26.6539 64.8929H29.9264V64.8412H26.6539V64.8929ZM29.9006 64.8671V79.4115H29.9523V64.8671H29.9006ZM29.9006 79.4115C29.9006 80.207 30 81.0024 30.1989 81.7978L30.249 81.7852C30.0511 80.9939 29.9523 80.2027 29.9523 79.4115H29.9006ZM30.1989 81.7979C30.398 82.5721 30.7188 83.2693 31.1615 83.889L31.2036 83.859C30.7648 83.2447 30.4465 82.5534 30.2489 81.7851L30.1989 81.7979ZM31.1619 83.8895C31.6271 84.5098 32.2252 85.0081 32.9557 85.3845L32.9794 85.3385C32.2554 84.9656 31.6635 84.4722 31.2032 83.8585L31.1619 83.8895ZM32.956 85.3846C33.7098 85.7615 34.6396 85.9493 35.7442 85.9493V85.8976C34.6452 85.8976 33.7238 85.7108 32.9791 85.3384L32.956 85.3846ZM35.7442 85.9493C36.8269 85.9493 37.7456 85.7615 38.4994 85.3846L38.4763 85.3384C37.7315 85.7108 36.8211 85.8976 35.7442 85.8976V85.9493ZM38.4994 85.3846C39.252 85.0083 39.8504 84.5098 40.2938 83.889L40.2518 83.859C39.8138 84.4722 39.2222 84.9655 38.4763 85.3384L38.4994 85.3846ZM40.2935 83.8895C40.7584 83.2697 41.0904 82.5724 41.2895 81.7979L41.2395 81.7851C41.042 82.5532 40.7128 83.2443 40.2522 83.8585L40.2935 83.8895ZM41.2895 81.7978C41.4884 81.0024 41.5878 80.207 41.5878 79.4115H41.5362C41.5362 80.2027 41.4373 80.9939 41.2394 81.7852L41.2895 81.7978ZM41.5878 79.4115V64.8671H41.5362V79.4115H41.5878ZM41.562 64.8929H44.8345V64.8412H41.562V64.8929ZM44.8087 64.8671V79.6098H44.8603V64.8671H44.8087ZM44.8087 79.6098C44.8087 80.7971 44.6218 81.9513 44.248 83.0725L44.297 83.0888C44.6726 81.9623 44.8603 80.8026 44.8603 79.6098H44.8087ZM44.2479 83.0728C43.8964 84.1713 43.3472 85.1489 42.6003 86.0056L42.6392 86.0396C43.3908 85.1774 43.9435 84.1937 44.2971 83.0885L44.2479 83.0728ZM42.6003 86.0056C41.8537 86.8621 40.9091 87.5541 39.7662 88.0817L39.7878 88.1286C40.9367 87.5983 41.8873 86.902 42.6392 86.0396L42.6003 86.0056ZM39.7665 88.0815C38.6246 88.5866 37.284 88.8396 35.7442 88.8396V88.8912C37.2896 88.8912 38.6376 88.6373 39.7874 88.1287L39.7665 88.0815ZM58.5828 85.3615H58.5569V85.3873H58.5828V85.3615ZM70.8133 85.3615H70.8391V85.3357H70.8133V85.3615ZM70.8133 88.2704V88.2962H70.8391V88.2704H70.8133ZM55.3103 88.2704H55.2844V88.2962H55.3103V88.2704ZM55.3103 64.8671V64.8412H55.2844V64.8671H55.3103ZM70.3175 64.8671H70.3433V64.8412H70.3175V64.8671ZM70.3175 67.7429V67.7687H70.3433V67.7429H70.3175ZM58.5828 67.7429V67.7171H58.5569V67.7429H58.5828ZM58.5828 74.7507H58.5569V74.7765H58.5828V74.7507ZM69.6233 74.7507H69.6491V74.7248H69.6233V74.7507ZM69.6233 77.5604V77.5862H69.6491V77.5604H69.6233ZM58.5828 77.5604V77.5346H58.5569V77.5604H58.5828ZM58.5828 85.3873H70.8133V85.3357H58.5828V85.3873ZM70.7875 85.3615V88.2704H70.8391V85.3615H70.7875ZM70.8133 88.2446H55.3103V88.2962H70.8133V88.2446ZM55.3361 88.2704V64.8671H55.2844V88.2704H55.3361ZM55.3103 64.8929H70.3175V64.8412H55.3103V64.8929ZM70.2917 64.8671V67.7429H70.3433V64.8671H70.2917ZM70.3175 67.7171H58.5828V67.7687H70.3175V67.7171ZM58.5569 67.7429V74.7507H58.6086V67.7429H58.5569ZM58.5828 74.7765H69.6233V74.7248H58.5828V74.7765ZM69.5975 74.7507V77.5604H69.6491V74.7507H69.5975ZM69.6233 77.5346H58.5828V77.5862H69.6233V77.5346ZM58.5569 77.5604V85.3615H58.6086V77.5604H58.5569ZM83.3938 85.3615H83.368V85.3873H83.3938V85.3615ZM93.8393 85.3615H93.8652V85.3357H93.8393V85.3615ZM93.8393 88.2704V88.2962H93.8652V88.2704H93.8393ZM80.1213 88.2704H80.0955V88.2962H80.1213V88.2704ZM80.1213 64.8671V64.8412H80.0955V64.8671H80.1213ZM83.3938 64.8671H83.4196V64.8412H83.3938V64.8671ZM83.3938 85.3873H93.8393V85.3357H83.3938V85.3873ZM93.8135 85.3615V88.2704H93.8652V85.3615H93.8135ZM93.8393 88.2446H80.1213V88.2962H93.8393V88.2446ZM80.1471 88.2704V64.8671H80.0955V88.2704H80.1471ZM80.1213 64.8929H83.3938V64.8412H80.1213V64.8929ZM83.368 64.8671V85.3615H83.4196V64.8671H83.368ZM101.962 64.8671V64.8412H101.937V64.8671H101.962ZM112.672 65.1646L112.678 65.1394L112.678 65.1394L112.672 65.1646ZM115.019 66.1562L115.005 66.1776L115.005 66.1778L115.019 66.1562ZM116.705 67.9743L116.683 67.9869L116.683 67.9874L116.705 67.9743ZM116.242 74.0565L116.223 74.0398L116.223 74.0398L116.242 74.0565ZM113.267 75.8746L113.261 75.8496L113.242 75.8547V75.8746H113.267ZM113.267 75.9407H113.242V75.9636L113.264 75.9663L113.267 75.9407ZM115.35 76.5357L115.339 76.5589L115.339 76.5592L115.35 76.5357ZM117.003 77.6926L116.984 77.7104L116.984 77.7104L117.003 77.6926ZM118.061 79.4115L118.036 79.4204L118.037 79.4211L118.061 79.4115ZM117.763 84.5682L117.74 84.5557L117.74 84.5557L117.763 84.5682ZM115.879 86.6507L115.893 86.6722L115.894 86.6719L115.879 86.6507ZM113.069 87.8737L113.075 87.8988L113.076 87.8987L113.069 87.8737ZM101.962 88.2704H101.937V88.2962H101.962V88.2704ZM105.235 74.7507H105.209V74.7765H105.235V74.7507ZM111.251 74.5523L111.257 74.5775L111.258 74.5773L111.251 74.5523ZM112.739 73.8912L112.753 73.9125L112.754 73.912L112.739 73.8912ZM113.73 72.7673L113.753 72.7798L113.753 72.7793L113.73 72.7673ZM112.706 68.4371L112.692 68.4592L112.693 68.4595L112.706 68.4371ZM105.235 67.6107V67.5848H105.209V67.6107H105.235ZM105.235 85.4937H105.209V85.5195H105.235V85.4937ZM111.383 85.3284L111.387 85.3539L111.388 85.3538L111.383 85.3284ZM113.267 84.6673L113.255 84.6446L113.255 84.6448L113.267 84.6673ZM114.623 83.4443L114.601 83.4299L114.601 83.4302L114.623 83.4443ZM113.73 78.4529L113.744 78.4312L113.744 78.4312L113.73 78.4529ZM105.235 77.5273V77.5015H105.209V77.5273H105.235ZM101.962 64.8929H110.028V64.8412H101.962V64.8929ZM110.028 64.8929C110.908 64.8929 111.787 64.9918 112.667 65.1897L112.678 65.1394C111.795 64.9406 110.911 64.8412 110.028 64.8412V64.8929ZM112.667 65.1897C113.545 65.3874 114.325 65.7168 115.005 66.1776L115.034 66.1348C114.348 65.6701 113.562 65.3383 112.678 65.1394L112.667 65.1897ZM115.005 66.1778C115.707 66.6383 116.266 67.2412 116.683 67.9869L116.728 67.9617C116.307 67.2089 115.742 66.5997 115.034 66.1346L115.005 66.1778ZM116.683 67.9874C117.121 68.7317 117.341 69.6634 117.341 70.784H117.392C117.392 69.6568 117.171 68.7154 116.728 67.9612L116.683 67.9874ZM117.341 70.784C117.341 72.0789 116.968 73.1635 116.223 74.0398L116.262 74.0732C117.016 73.1865 117.392 72.0895 117.392 70.784H117.341ZM116.223 74.0398C115.477 74.9168 114.49 75.5203 113.261 75.8496L113.274 75.8995C114.513 75.5677 115.509 74.9591 116.262 74.0732L116.223 74.0398ZM113.242 75.8746V75.9407H113.293V75.8746H113.242ZM113.264 75.9663C114.011 76.0541 114.702 76.2517 115.339 76.5589L115.361 76.5124C114.719 76.2026 114.022 76.0035 113.271 75.915L113.264 75.9663ZM115.339 76.5592C115.976 76.8444 116.524 77.2282 116.984 77.7104L117.021 77.6748C116.556 77.1874 116.003 76.7999 115.361 76.5121L115.339 76.5592ZM116.984 77.7104C117.444 78.1926 117.795 78.7624 118.036 79.4204L118.085 79.4026C117.841 78.7383 117.487 78.1623 117.021 77.6748L116.984 77.7104ZM118.037 79.4211C118.3 80.0787 118.431 80.8137 118.431 81.6262H118.483C118.483 80.808 118.35 80.0665 118.085 79.4019L118.037 79.4211ZM118.431 81.6262C118.431 82.7465 118.201 83.7227 117.74 84.5557L117.786 84.5807C118.251 83.7388 118.483 82.7537 118.483 81.6262H118.431ZM117.74 84.5557C117.28 85.3896 116.654 86.0808 115.864 86.6295L115.894 86.6719C116.69 86.1187 117.321 85.4216 117.786 84.5807L117.74 84.5557ZM115.865 86.6292C115.074 87.1562 114.14 87.5629 113.063 87.8488L113.076 87.8987C114.158 87.6116 115.097 87.2029 115.893 86.6722L115.865 86.6292ZM113.063 87.8487C112.007 88.1125 110.875 88.2446 109.664 88.2446V88.2962C110.878 88.2962 112.015 88.1638 113.075 87.8988L113.063 87.8487ZM109.664 88.2446H101.962V88.2962H109.664V88.2446ZM101.988 88.2704V64.8671H101.937V88.2704H101.988ZM105.235 74.7765H109.499V74.7248H105.235V74.7765ZM109.499 74.7765C110.118 74.7765 110.704 74.7102 111.257 74.5774L111.245 74.5272C110.696 74.6589 110.114 74.7248 109.499 74.7248V74.7765ZM111.258 74.5773C111.833 74.4224 112.332 74.2009 112.753 73.9125L112.724 73.8699C112.308 74.1545 111.815 74.3738 111.244 74.5274L111.258 74.5773ZM112.754 73.912C113.176 73.6013 113.509 73.2239 113.753 72.7798L113.708 72.7549C113.467 73.1922 113.139 73.5641 112.723 73.8704L112.754 73.912ZM113.753 72.7793C113.998 72.3121 114.12 71.7569 114.12 71.1146H114.068C114.068 71.7504 113.947 72.297 113.707 72.7553L113.753 72.7793ZM114.12 71.1146C114.12 69.8511 113.654 68.949 112.718 68.4146L112.693 68.4595C113.609 68.9829 114.068 69.8657 114.068 71.1146H114.12ZM112.719 68.4149C111.788 67.8607 110.538 67.5848 108.97 67.5848V67.6365C110.532 67.6365 111.772 67.9115 112.692 68.4592L112.719 68.4149ZM108.97 67.5848H105.235V67.6365H108.97V67.5848ZM105.209 67.6107V74.7507H105.261V67.6107H105.209ZM105.235 85.5195H109.334V85.4679H105.235V85.5195ZM109.334 85.5195C110.018 85.5195 110.703 85.4643 111.387 85.3539L111.379 85.3029C110.697 85.4129 110.016 85.4679 109.334 85.4679V85.5195ZM111.388 85.3538C112.096 85.2212 112.726 84.9999 113.28 84.6899L113.255 84.6448C112.707 84.9518 112.081 85.1713 111.379 85.3031L111.388 85.3538ZM113.28 84.6901C113.856 84.3797 114.311 83.9691 114.644 83.4584L114.601 83.4302C114.273 83.9331 113.825 84.338 113.255 84.6446L113.28 84.6901ZM114.644 83.4586C115 82.9245 115.177 82.2581 115.177 81.4609H115.126C115.126 82.2504 114.95 82.9062 114.601 83.4299L114.644 83.4586ZM115.177 81.4609C115.177 80.0662 114.701 79.0542 113.744 78.4312L113.716 78.4745C114.655 79.0857 115.126 80.0791 115.126 81.4609H115.177ZM113.744 78.4312C112.791 77.8103 111.419 77.5015 109.631 77.5015V77.5532C111.414 77.5532 112.775 77.8614 113.716 78.4745L113.744 78.4312ZM109.631 77.5015H105.235V77.5532H109.631V77.5015ZM105.209 77.5273V85.4937H105.261V77.5273H105.209ZM131.402 85.3615H131.376V85.3873H131.402V85.3615ZM143.632 85.3615H143.658V85.3357H143.632V85.3615ZM143.632 88.2704V88.2962H143.658V88.2704H143.632ZM128.129 88.2704H128.103V88.2962H128.129V88.2704ZM128.129 64.8671V64.8412H128.103V64.8671H128.129ZM143.137 64.8671H143.162V64.8412H143.137V64.8671ZM143.137 67.7429V67.7687H143.162V67.7429H143.137ZM131.402 67.7429V67.7171H131.376V67.7429H131.402ZM131.402 74.7507H131.376V74.7765H131.402V74.7507ZM142.442 74.7507H142.468V74.7248H142.442V74.7507ZM142.442 77.5604V77.5862H142.468V77.5604H142.442ZM131.402 77.5604V77.5346H131.376V77.5604H131.402ZM131.402 85.3873H143.632V85.3357H131.402V85.3873ZM143.607 85.3615V88.2704H143.658V85.3615H143.607ZM143.632 88.2446H128.129V88.2962H143.632V88.2446ZM128.155 88.2704V64.8671H128.103V88.2704H128.155ZM128.129 64.8929H143.137V64.8412H128.129V64.8929ZM143.111 64.8671V67.7429H143.162V64.8671H143.111ZM143.137 67.7171H131.402V67.7687H143.137V67.7171ZM131.376 67.7429V74.7507H131.428V67.7429H131.376ZM131.402 74.7765H142.442V74.7248H131.402V74.7765ZM142.417 74.7507V77.5604H142.468V74.7507H142.417ZM142.442 77.5346H131.402V77.5862H142.442V77.5346ZM131.376 77.5604V85.3615H131.428V77.5604H131.376ZM161.138 88.2704V88.2962H161.164V88.2704H161.138ZM157.866 88.2704H157.84V88.2962H157.866V88.2704ZM157.866 67.7429H157.891V67.7171H157.866V67.7429ZM150.362 67.7429H150.336V67.7687H150.362V67.7429ZM150.362 64.8671V64.8412H150.336V64.8671H150.362ZM168.642 64.8671H168.668V64.8412H168.642V64.8671ZM168.642 67.7429V67.7687H168.668V67.7429H168.642ZM161.138 67.7429V67.7171H161.112V67.7429H161.138ZM161.138 88.2446H157.866V88.2962H161.138V88.2446ZM157.891 88.2704V67.7429H157.84V88.2704H157.891ZM157.866 67.7171H150.362V67.7687H157.866V67.7171ZM150.388 67.7429V64.8671H150.336V67.7429H150.388ZM150.362 64.8929H168.642V64.8412H150.362V64.8929ZM168.616 64.8671V67.7429H168.668V64.8671H168.616ZM168.642 67.7171H161.138V67.7687H168.642V67.7171ZM161.112 67.7429V88.2704H161.164V67.7429H161.112ZM184.916 88.2704V88.2962H184.942V88.2704H184.916ZM181.644 88.2704H181.618V88.2962H181.644V88.2704ZM181.644 67.7429H181.67V67.7171H181.644V67.7429ZM174.14 67.7429H174.114V67.7687H174.14V67.7429ZM174.14 64.8671V64.8412H174.114V64.8671H174.14ZM192.42 64.8671H192.446V64.8412H192.42V64.8671ZM192.42 67.7429V67.7687H192.446V67.7429H192.42ZM184.916 67.7429V67.7171H184.89V67.7429H184.916ZM184.916 88.2446H181.644V88.2962H184.916V88.2446ZM181.67 88.2704V67.7429H181.618V88.2704H181.67ZM181.644 67.7171H174.14V67.7687H181.644V67.7171ZM174.166 67.7429V64.8671H174.114V67.7429H174.166ZM174.14 64.8929H192.42V64.8412H174.14V64.8929ZM192.394 64.8671V67.7429H192.446V64.8671H192.394ZM192.42 67.7171H184.916V67.7687H192.42V67.7171ZM184.89 67.7429V88.2704H184.942V67.7429H184.89ZM203.769 85.3615H203.743V85.3873H203.769V85.3615ZM216 85.3615H216.025V85.3357H216V85.3615ZM216 88.2704V88.2962H216.025V88.2704H216ZM200.496 88.2704H200.471V88.2962H200.496V88.2704ZM200.496 64.8671V64.8412H200.471V64.8671H200.496ZM215.504 64.8671H215.529V64.8412H215.504V64.8671ZM215.504 67.7429V67.7687H215.529V67.7429H215.504ZM203.769 67.7429V67.7171H203.743V67.7429H203.769ZM203.769 74.7507H203.743V74.7765H203.769V74.7507ZM214.81 74.7507H214.835V74.7248H214.81V74.7507ZM214.81 77.5604V77.5862H214.835V77.5604H214.81ZM203.769 77.5604V77.5346H203.743V77.5604H203.769ZM203.769 85.3873H216V85.3357H203.769V85.3873ZM215.974 85.3615V88.2704H216.025V85.3615H215.974ZM216 88.2446H200.496V88.2962H216V88.2446ZM200.522 88.2704V64.8671H200.471V88.2704H200.522ZM200.496 64.8929H215.504V64.8412H200.496V64.8929ZM215.478 64.8671V67.7429H215.529V64.8671H215.478ZM215.504 67.7171H203.769V67.7687H215.504V67.7171ZM203.743 67.7429V74.7507H203.795V67.7429H203.743ZM203.769 74.7765H214.81V74.7248H203.769V74.7765ZM214.784 74.7507V77.5604H214.835V74.7507H214.784ZM214.81 77.5346H203.769V77.5862H214.81V77.5346ZM203.743 77.5604V85.3615H203.795V77.5604H203.743ZM228.58 88.2704V88.2962H228.606V88.2704H228.58ZM225.307 88.2704H225.282V88.2962H225.307V88.2704ZM225.307 64.8671V64.8412H225.282V64.8671H225.307ZM236.017 65.2307L236.011 65.2558L236.012 65.2559L236.017 65.2307ZM238.662 66.3215L238.647 66.3429L238.648 66.3431L238.662 66.3215ZM240.48 68.3379L240.457 68.3499L240.457 68.3502L240.48 68.3379ZM239.554 75.5109L239.573 75.5292L239.573 75.5292L239.554 75.5109ZM235.456 77.5273L235.451 77.5019L235.414 77.5083L235.433 77.5408L235.456 77.5273ZM242.001 88.2704V88.2962H242.047L242.023 88.2569L242.001 88.2704ZM238.034 88.2704L238.011 88.2832L238.019 88.2962H238.034V88.2704ZM232.084 77.8579L232.106 77.8451L232.099 77.8321H232.084V77.8579ZM228.58 77.8579V77.8321H228.554V77.8579H228.58ZM228.58 75.1143H228.554V75.1401H228.58V75.1143ZM234.497 74.9159L234.502 74.9413L234.502 74.9413L234.497 74.9159ZM236.216 74.2879L236.229 74.3101L236.229 74.3099L236.216 74.2879ZM237.406 73.1309L237.428 73.1445L237.428 73.1441L237.406 73.1309ZM237.406 69.594L237.384 69.6071L237.384 69.6076L237.406 69.594ZM236.249 68.4371L236.235 68.459L236.236 68.4593L236.249 68.4371ZM234.596 67.8421L234.591 67.8674L234.592 67.8675L234.596 67.8421ZM228.58 67.6437V67.6179H228.554V67.6437H228.58ZM228.58 88.2446H225.307V88.2962H228.58V88.2446ZM225.333 88.2704V64.8671H225.282V88.2704H225.333ZM225.307 64.8929H232.811V64.8412H225.307V64.8929ZM232.811 64.8929C233.933 64.8929 235 65.0139 236.011 65.2558L236.023 65.2055C235.008 64.9626 233.937 64.8412 232.811 64.8412V64.8929ZM236.012 65.2559C237.023 65.4757 237.901 65.8381 238.647 66.3429L238.676 66.3001C237.924 65.7912 237.039 65.4264 236.023 65.2054L236.012 65.2559ZM238.648 66.3431C239.415 66.8475 240.018 67.5163 240.457 68.3499L240.503 68.3259C240.06 67.4847 239.451 66.8092 238.676 66.2999L238.648 66.3431ZM240.457 68.3502C240.895 69.1608 241.115 70.159 241.115 71.3459H241.167C241.167 70.1528 240.946 69.1457 240.503 68.3256L240.457 68.3502ZM241.115 71.3459C241.115 73.0591 240.588 74.4405 239.536 75.4927L239.573 75.5292C240.636 74.4659 241.167 73.0706 241.167 71.3459H241.115ZM239.536 75.4927C238.483 76.5462 237.121 77.2162 235.451 77.5019L235.46 77.5528C237.139 77.2655 238.511 76.5913 239.573 75.5292L239.536 75.4927ZM235.433 77.5408L241.978 88.2838L242.023 88.2569L235.478 77.5139L235.433 77.5408ZM242.001 88.2446H238.034V88.2962H242.001V88.2446ZM238.056 88.2576L232.106 77.8451L232.061 77.8707L238.011 88.2832L238.056 88.2576ZM232.084 77.8321H228.58V77.8837H232.084V77.8321ZM228.554 77.8579V88.2704H228.606V77.8579H228.554ZM228.58 75.1401H232.348V75.0884H228.58V75.1401ZM232.348 75.1401C233.121 75.1401 233.839 75.0739 234.502 74.9413L234.492 74.8906C233.833 75.0225 233.118 75.0884 232.348 75.0884V75.1401ZM234.502 74.9413C235.165 74.8086 235.741 74.5983 236.229 74.3101L236.203 74.2657C235.721 74.5504 235.151 74.7589 234.492 74.8906L234.502 74.9413ZM236.229 74.3099C236.739 73.9995 237.139 73.6111 237.428 73.1445L237.384 73.1173C237.1 73.5764 236.706 73.9592 236.202 74.2658L236.229 74.3099ZM237.428 73.1441C237.717 72.6544 237.861 72.0546 237.861 71.3459H237.81C237.81 72.0477 237.667 72.6379 237.384 73.1178L237.428 73.1441ZM237.861 71.3459C237.861 70.6373 237.717 70.0483 237.428 69.5804L237.384 69.6076C237.667 70.0652 237.81 70.6442 237.81 71.3459H237.861ZM237.428 69.5809C237.139 69.0923 236.751 68.7035 236.262 68.4148L236.236 68.4593C236.717 68.7436 237.099 69.1261 237.384 69.6071L237.428 69.5809ZM236.262 68.4151C235.796 68.1266 235.242 67.9272 234.6 67.8166L234.592 67.8675C235.228 67.9772 235.776 68.1746 236.235 68.459L236.262 68.4151ZM234.601 67.8168C233.96 67.6842 233.287 67.6179 232.58 67.6179V67.6695C233.283 67.6695 233.954 67.7355 234.591 67.8673L234.601 67.8168ZM232.58 67.6179H228.58V67.6695H232.58V67.6179ZM228.554 67.6437V75.1143H228.606V67.6437H228.554Z" fill="black" fill-opacity="0.85098" mask="url(#path-3-outside-1_1655_23114)"/>
</svg>
