<svg width="243" height="89" viewBox="0 0 243 89" fill="none" xmlns="http://www.w3.org/2000/svg">
<g clip-path="url(#clip0_712_738)">
<path d="M142.289 14.1268C142.289 20.8243 136.859 26.2537 128.429 26.2537C118.267 26.2537 100.711 14.1268 100.711 14.1268C100.711 14.1268 118.267 2 128.429 2C136.859 2 142.289 7.42936 142.289 14.1268Z" stroke="black" stroke-width="3.24826"/>
<path d="M142.289 31.4511C142.289 38.1485 136.859 43.5779 128.429 43.5779C118.267 43.5779 100.711 31.4511 100.711 31.4511C100.711 31.4511 118.267 19.3242 128.429 19.3242C136.859 19.3242 142.289 24.7536 142.289 31.4511Z" stroke="black" stroke-width="3.24826"/>
<path d="M6.34574 88.2705H3.07324V64.8672H17.6838V67.743H6.34574V75.0152H16.9566V77.8249H6.34574V88.2705ZM35.744 88.8655C34.2014 88.8655 32.8572 88.6121 31.7112 88.1052C30.5653 87.5763 29.6177 86.8822 28.8685 86.0227C28.1192 85.1633 27.5573 84.1826 27.1826 83.0808C26.83 81.9569 26.6537 80.7999 26.6537 79.6099V64.8672H29.9262V79.4116C29.9262 80.2049 30.0254 80.9983 30.2237 81.7916C30.4221 82.5629 30.7416 83.2571 31.1823 83.8741C31.6451 84.4911 32.2401 84.987 32.9673 85.3616C33.7166 85.7362 34.6422 85.9235 35.744 85.9235C36.8238 85.9235 37.7384 85.7362 38.4876 85.3616C39.2369 84.987 39.8319 84.4911 40.2726 83.8741C40.7354 83.2571 41.066 82.5629 41.2643 81.7916C41.4626 80.9983 41.5618 80.2049 41.5618 79.4116V64.8672H44.8343V79.6099C44.8343 80.7999 44.647 81.9569 44.2723 83.0808C43.9198 84.1826 43.3688 85.1633 42.6196 86.0227C41.8703 86.8822 40.9227 87.5763 39.7768 88.1052C38.6309 88.6121 37.2866 88.8655 35.744 88.8655ZM58.5826 85.3616H70.8131V88.2705H55.3101V64.8672H70.3173V67.743H58.5826V74.7508H69.6231V77.5605H58.5826V85.3616ZM83.3936 85.3616H93.8391V88.2705H80.1211V64.8672H83.3936V85.3616ZM101.962 64.8672H110.028C110.91 64.8672 111.791 64.9663 112.672 65.1647C113.554 65.363 114.336 65.6935 115.019 66.1563C115.725 66.6191 116.287 67.2251 116.705 67.9744C117.146 68.7236 117.366 69.6602 117.366 70.7841C117.366 72.0843 116.992 73.1751 116.242 74.0566C115.493 74.9381 114.502 75.5441 113.267 75.8747V75.9408C114.017 76.0289 114.711 76.2272 115.35 76.5358C115.989 76.8222 116.54 77.2079 117.003 77.6927C117.466 78.1775 117.818 78.7505 118.061 79.4116C118.325 80.0727 118.457 80.8109 118.457 81.6263C118.457 82.7502 118.226 83.7309 117.763 84.5683C117.3 85.4057 116.672 86.0998 115.879 86.6508C115.086 87.1797 114.149 87.5873 113.069 87.8738C112.011 88.1383 110.876 88.2705 109.664 88.2705H101.962V64.8672ZM105.235 74.7508H109.499C110.116 74.7508 110.7 74.6847 111.251 74.5524C111.824 74.3982 112.32 74.1778 112.739 73.8913C113.157 73.5828 113.488 73.2082 113.73 72.7674C113.973 72.3047 114.094 71.7537 114.094 71.1147C114.094 69.8585 113.631 68.966 112.706 68.4372C111.78 67.8862 110.535 67.6108 108.97 67.6108H105.235V74.7508ZM105.235 85.4938H109.334C110.017 85.4938 110.7 85.4387 111.383 85.3285C112.089 85.1963 112.717 84.9759 113.267 84.6674C113.84 84.3589 114.292 83.9512 114.623 83.4444C114.975 82.9155 115.152 82.2544 115.152 81.461C115.152 80.0727 114.678 79.07 113.73 78.453C112.783 77.8359 111.416 77.5274 109.631 77.5274H105.235V85.4938ZM131.402 85.3616H143.632V88.2705H128.129V64.8672H143.137V67.743H131.402V74.7508H142.442V77.5605H131.402V85.3616ZM161.138 88.2705H157.866V67.743H150.362V64.8672H168.642V67.743H161.138V88.2705ZM184.916 88.2705H181.644V67.743H174.14V64.8672H192.42V67.743H184.916V88.2705ZM203.769 85.3616H216V88.2705H200.496V64.8672H215.504V67.743H203.769V74.7508H214.81V77.5605H203.769V85.3616ZM228.58 88.2705H225.307V64.8672H232.811C233.935 64.8672 235.004 64.9884 236.017 65.2308C237.031 65.4511 237.913 65.8147 238.662 66.3216C239.433 66.8284 240.039 67.5006 240.48 68.338C240.921 69.1534 241.141 70.156 241.141 71.346C241.141 73.0649 240.612 74.4533 239.554 75.511C238.497 76.5688 237.13 77.2409 235.456 77.5274L242.001 88.2705H238.034L232.084 77.858H228.58V88.2705ZM228.58 75.1144H232.348C233.12 75.1144 233.836 75.0483 234.497 74.916C235.158 74.7838 235.731 74.5745 236.216 74.288C236.723 73.9795 237.119 73.5938 237.406 73.131C237.692 72.6462 237.836 72.0512 237.836 71.346C237.836 70.6409 237.692 70.0569 237.406 69.5941C237.119 69.1093 236.734 68.7236 236.249 68.4372C235.786 68.1507 235.235 67.9523 234.596 67.8422C233.957 67.7099 233.285 67.6438 232.58 67.6438H228.58V75.1144Z" fill="black" fill-opacity="0.85098"/>
<mask id="mask0_712_738" style="mask-type:luminance" maskUnits="userSpaceOnUse" x="3" y="64" width="240" height="26">
<path d="M243 64.2705H3V89.2705H243V64.2705Z" fill="white"/>
<path d="M6.34574 88.2705H3.07324V64.8672H17.6838V67.743H6.34574V75.0152H16.9566V77.8249H6.34574V88.2705ZM35.744 88.8655C34.2014 88.8655 32.8572 88.6121 31.7112 88.1052C30.5653 87.5763 29.6177 86.8822 28.8685 86.0227C28.1192 85.1633 27.5573 84.1826 27.1826 83.0808C26.83 81.9569 26.6537 80.7999 26.6537 79.6099V64.8672H29.9262V79.4116C29.9262 80.2049 30.0254 80.9983 30.2237 81.7916C30.4221 82.5629 30.7416 83.2571 31.1823 83.8741C31.6451 84.4911 32.2401 84.987 32.9673 85.3616C33.7166 85.7362 34.6422 85.9235 35.744 85.9235C36.8238 85.9235 37.7384 85.7362 38.4876 85.3616C39.2369 84.987 39.8319 84.4911 40.2726 83.8741C40.7354 83.2571 41.066 82.5629 41.2643 81.7916C41.4626 80.9983 41.5618 80.2049 41.5618 79.4116V64.8672H44.8343V79.6099C44.8343 80.7999 44.647 81.9569 44.2723 83.0808C43.9198 84.1826 43.3688 85.1633 42.6196 86.0227C41.8703 86.8822 40.9227 87.5763 39.7768 88.1052C38.6309 88.6121 37.2866 88.8655 35.744 88.8655ZM58.5826 85.3616H70.8131V88.2705H55.3101V64.8672H70.3173V67.743H58.5826V74.7508H69.6231V77.5605H58.5826V85.3616ZM83.3936 85.3616H93.8391V88.2705H80.1211V64.8672H83.3936V85.3616ZM101.962 64.8672H110.028C110.91 64.8672 111.791 64.9663 112.672 65.1647C113.554 65.363 114.336 65.6935 115.019 66.1563C115.725 66.6191 116.287 67.2251 116.705 67.9744C117.146 68.7236 117.366 69.6602 117.366 70.7841C117.366 72.0843 116.992 73.1751 116.242 74.0566C115.493 74.9381 114.502 75.5441 113.267 75.8747V75.9408C114.017 76.0289 114.711 76.2272 115.35 76.5358C115.989 76.8222 116.54 77.2079 117.003 77.6927C117.466 78.1775 117.818 78.7505 118.061 79.4116C118.325 80.0727 118.457 80.8109 118.457 81.6263C118.457 82.7502 118.226 83.7309 117.763 84.5683C117.3 85.4057 116.672 86.0998 115.879 86.6508C115.086 87.1797 114.149 87.5873 113.069 87.8738C112.011 88.1383 110.876 88.2705 109.664 88.2705H101.962V64.8672ZM105.235 74.7508H109.499C110.116 74.7508 110.7 74.6847 111.251 74.5524C111.824 74.3982 112.32 74.1778 112.739 73.8913C113.157 73.5828 113.488 73.2082 113.73 72.7674C113.973 72.3047 114.094 71.7537 114.094 71.1147C114.094 69.8585 113.631 68.966 112.706 68.4372C111.78 67.8862 110.535 67.6108 108.97 67.6108H105.235V74.7508ZM105.235 85.4938H109.334C110.017 85.4938 110.7 85.4387 111.383 85.3285C112.089 85.1963 112.717 84.9759 113.267 84.6674C113.84 84.3589 114.292 83.9512 114.623 83.4444C114.975 82.9155 115.152 82.2544 115.152 81.461C115.152 80.0727 114.678 79.07 113.73 78.453C112.783 77.8359 111.416 77.5274 109.631 77.5274H105.235V85.4938ZM131.402 85.3616H143.632V88.2705H128.129V64.8672H143.137V67.743H131.402V74.7508H142.442V77.5605H131.402V85.3616ZM161.138 88.2705H157.866V67.743H150.362V64.8672H168.642V67.743H161.138V88.2705ZM184.916 88.2705H181.644V67.743H174.14V64.8672H192.42V67.743H184.916V88.2705ZM203.769 85.3616H216V88.2705H200.496V64.8672H215.504V67.743H203.769V74.7508H214.81V77.5605H203.769V85.3616ZM228.58 88.2705H225.307V64.8672H232.811C233.935 64.8672 235.004 64.9884 236.017 65.2308C237.031 65.4511 237.913 65.8147 238.662 66.3216C239.433 66.8284 240.039 67.5006 240.48 68.338C240.921 69.1534 241.141 70.156 241.141 71.346C241.141 73.0649 240.612 74.4533 239.554 75.511C238.497 76.5688 237.13 77.2409 235.456 77.5274L242.001 88.2705H238.034L232.084 77.858H228.58V88.2705ZM228.58 75.1144H232.348C233.12 75.1144 233.836 75.0483 234.497 74.916C235.158 74.7838 235.731 74.5745 236.216 74.288C236.723 73.9795 237.119 73.5938 237.406 73.131C237.692 72.6462 237.836 72.0512 237.836 71.346C237.836 70.6409 237.692 70.0569 237.406 69.5941C237.119 69.1093 236.734 68.7236 236.249 68.4372C235.786 68.1507 235.235 67.9523 234.596 67.8422C233.957 67.7099 233.285 67.6438 232.58 67.6438H228.58V75.1144Z" fill="black"/>
</mask>
<g mask="url(#mask0_712_738)">
<path d="M6.34617 88.2705V88.2963H6.372V88.2705H6.34617ZM3.07367 88.2705H3.04785V88.2963H3.07367V88.2705ZM3.07367 64.8672V64.8413H3.04785V64.8672H3.07367ZM17.6842 64.8672H17.71V64.8413H17.6842V64.8672ZM17.6842 67.743V67.7688H17.71V67.743H17.6842ZM6.34617 67.743V67.7172H6.32035V67.743H6.34617ZM6.34617 75.0152H6.32035V75.041H6.34617V75.0152ZM16.957 75.0152H16.9828V74.9894H16.957V75.0152ZM16.957 77.8249V77.8508H16.9828V77.8249H16.957ZM6.34617 77.8249V77.7991H6.32035V77.8249H6.34617ZM6.34617 88.2447H3.07367V88.2963H6.34617V88.2447ZM3.0995 88.2705V64.8672H3.04785V88.2705H3.0995ZM3.07367 64.893H17.6842V64.8413H3.07367V64.893ZM17.6584 64.8672V67.743H17.71V64.8672H17.6584ZM17.6842 67.7172H6.34617V67.7688H17.6842V67.7172ZM6.32035 67.743V75.0152H6.372V67.743H6.32035ZM6.34617 75.041H16.957V74.9894H6.34617V75.041ZM16.9312 75.0152V77.8249H16.9828V75.0152H16.9312ZM16.957 77.7991H6.34617V77.8508H16.957V77.7991ZM6.32035 77.8249V88.2705H6.372V77.8249H6.32035ZM26.6541 64.8672V64.8413H26.6283V64.8672H26.6541ZM29.9266 64.8672H29.9525V64.8413H29.9266V64.8672ZM41.5622 64.8672V64.8413H41.5364V64.8672H41.5622ZM44.8347 64.8672H44.8605V64.8413H44.8347V64.8672ZM35.7444 88.8397C34.2046 88.8397 32.864 88.5867 31.7221 88.0816L31.7008 88.1287C32.8507 88.6373 34.199 88.8913 35.7444 88.8913V88.8397ZM31.7221 88.0816C30.5791 87.554 29.6349 86.8622 28.8883 86.0057L28.8494 86.0397C29.6013 86.9021 30.5519 87.5984 31.7008 88.1287L31.7221 88.0816ZM28.8883 86.0057C28.1413 85.1489 27.581 84.1712 27.2075 83.0725L27.1584 83.0885C27.5341 84.1934 28.0979 85.1776 28.8494 86.0397L28.8883 86.0057ZM27.2075 83.0725C26.8557 81.9512 26.68 80.7973 26.68 79.6099H26.6283C26.6283 80.8025 26.805 81.9621 27.1584 83.0885L27.2075 83.0725ZM26.68 79.6099V64.8672H26.6283V79.6099H26.68ZM26.6541 64.893H29.9266V64.8413H26.6541V64.893ZM29.9008 64.8672V79.4116H29.9525V64.8672H29.9008ZM29.9008 79.4116C29.9008 80.2071 30.0002 81.0025 30.1991 81.7979L30.2492 81.7853C30.0513 80.994 29.9525 80.2028 29.9525 79.4116H29.9008ZM30.1991 81.7979C30.3982 82.5721 30.719 83.2694 31.1617 83.8891L31.2038 83.8591C30.765 83.2448 30.4468 82.5536 30.2492 81.7853L30.1991 81.7979ZM31.1617 83.8891C31.6269 84.5094 32.2254 85.0082 32.9559 85.3846L32.9796 85.3386C32.2556 84.9657 31.6641 84.4728 31.2038 83.8591L31.1617 83.8891ZM32.9559 85.3846C33.7097 85.7615 34.6398 85.9494 35.7444 85.9494V85.8977C34.6454 85.8977 33.7243 85.711 32.9796 85.3386L32.9559 85.3846ZM35.7444 85.9494C36.8271 85.9494 37.7458 85.7616 38.4996 85.3847L38.4765 85.3385C37.7317 85.7109 36.8213 85.8977 35.7444 85.8977V85.9494ZM38.4996 85.3847C39.2522 85.0084 39.8506 84.5099 40.294 83.8891L40.2524 83.8586C39.8144 84.4718 39.2224 84.9656 38.4765 85.3385L38.4996 85.3847ZM40.294 83.8891C40.7589 83.2693 41.0906 82.5725 41.2897 81.798L41.2397 81.7852C41.0422 82.5533 40.713 83.2444 40.2524 83.8586L40.294 83.8891ZM41.2897 81.798C41.4886 81.0026 41.588 80.2071 41.588 79.4116H41.5364C41.5364 80.2028 41.4376 80.9939 41.2397 81.7852L41.2897 81.798ZM41.588 79.4116V64.8672H41.5364V79.4116H41.588ZM41.5622 64.893H44.8347V64.8413H41.5622V64.893ZM44.8089 64.8672V79.6099H44.8605V64.8672H44.8089ZM44.8089 79.6099C44.8089 80.7972 44.622 81.9514 44.2482 83.0726L44.2972 83.0889C44.6728 81.9624 44.8605 80.8027 44.8605 79.6099H44.8089ZM44.2482 83.0726C43.8967 84.1711 43.3474 85.149 42.6005 86.0057L42.6394 86.0397C43.391 85.1775 43.9436 84.1941 44.2972 83.0889L44.2482 83.0726ZM42.6005 86.0057C41.8539 86.8622 40.9093 87.5542 39.7664 88.0818L39.7876 88.1288C40.9365 87.5985 41.8875 86.9021 42.6394 86.0397L42.6005 86.0057ZM39.7664 88.0818C38.6245 88.5869 37.2842 88.8397 35.7444 88.8397V88.8913C37.2898 88.8913 38.6378 88.6374 39.7876 88.1288L39.7664 88.0818ZM58.583 85.3616H58.5571V85.3874H58.583V85.3616ZM70.8135 85.3616H70.8393V85.3358H70.8135V85.3616ZM70.8135 88.2705V88.2963H70.8393V88.2705H70.8135ZM55.3105 88.2705H55.2846V88.2963H55.3105V88.2705ZM55.3105 64.8672V64.8413H55.2846V64.8672H55.3105ZM70.3177 64.8672H70.3435V64.8413H70.3177V64.8672ZM70.3177 67.743V67.7688H70.3435V67.743H70.3177ZM58.583 67.743V67.7172H58.5571V67.743H58.583ZM58.583 74.7508H58.5571V74.7766H58.583V74.7508ZM69.6235 74.7508H69.6493V74.7249H69.6235V74.7508ZM69.6235 77.5605V77.5863H69.6493V77.5605H69.6235ZM58.583 77.5605V77.5347H58.5571V77.5605H58.583ZM58.583 85.3874H70.8135V85.3358H58.583V85.3874ZM70.7877 85.3616V88.2705H70.8393V85.3616H70.7877ZM70.8135 88.2447H55.3105V88.2963H70.8135V88.2447ZM55.3363 88.2705V64.8672H55.2846V88.2705H55.3363ZM55.3105 64.893H70.3177V64.8413H55.3105V64.893ZM70.2919 64.8672V67.743H70.3435V64.8672H70.2919ZM70.3177 67.7172H58.583V67.7688H70.3177V67.7172ZM58.5571 67.743V74.7508H58.6088V67.743H58.5571ZM58.583 74.7766H69.6235V74.7249H58.583V74.7766ZM69.5977 74.7508V77.5605H69.6493V74.7508H69.5977ZM69.6235 77.5347H58.583V77.5863H69.6235V77.5347ZM58.5571 77.5605V85.3616H58.6088V77.5605H58.5571ZM83.394 85.3616H83.3682V85.3874H83.394V85.3616ZM93.8395 85.3616H93.8654V85.3358H93.8395V85.3616ZM93.8395 88.2705V88.2963H93.8654V88.2705H93.8395ZM80.1215 88.2705H80.0957V88.2963H80.1215V88.2705ZM80.1215 64.8672V64.8413H80.0957V64.8672H80.1215ZM83.394 64.8672H83.4198V64.8413H83.394V64.8672ZM83.394 85.3874H93.8395V85.3358H83.394V85.3874ZM93.8137 85.3616V88.2705H93.8654V85.3616H93.8137ZM93.8395 88.2447H80.1215V88.2963H93.8395V88.2447ZM80.1473 88.2705V64.8672H80.0957V88.2705H80.1473ZM80.1215 64.893H83.394V64.8413H80.1215V64.893ZM83.3682 64.8672V85.3616H83.4198V64.8672H83.3682ZM101.962 64.8672V64.8413H101.937V64.8672H101.962ZM113.267 75.8747L113.261 75.8497L113.242 75.8548V75.8747H113.267ZM113.267 75.9408H113.242V75.9637L113.264 75.9664L113.267 75.9408ZM118.061 79.4116L118.036 79.4205L118.037 79.4212L118.061 79.4116ZM115.879 86.6508L115.893 86.6723L115.894 86.672L115.879 86.6508ZM113.069 87.8738L113.075 87.8989L113.076 87.8988L113.069 87.8738ZM101.962 88.2705H101.937V88.2963H101.962V88.2705ZM105.235 74.7508H105.209V74.7766H105.235V74.7508ZM111.251 74.5524L111.257 74.5776L111.258 74.5774L111.251 74.5524ZM112.739 73.8913L112.753 73.9126L112.754 73.9121L112.739 73.8913ZM112.706 68.4372L112.692 68.4593L112.693 68.4596L112.706 68.4372ZM105.235 67.6108V67.5849H105.209V67.6108H105.235ZM105.235 85.4938H105.209V85.5196H105.235V85.4938ZM111.383 85.3285L111.387 85.354L111.388 85.3539L111.383 85.3285ZM105.235 77.5274V77.5016H105.209V77.5274H105.235ZM101.962 64.893H110.028V64.8413H101.962V64.893ZM110.028 64.893C110.908 64.893 111.787 64.9919 112.667 65.1898L112.678 65.1395C111.795 64.9407 110.911 64.8413 110.028 64.8413V64.893ZM112.667 65.1898C113.545 65.3875 114.325 65.7169 115.005 66.1777L115.034 66.1349C114.348 65.6702 113.562 65.3384 112.678 65.1395L112.667 65.1898ZM115.005 66.1777C115.707 66.6382 116.266 67.2413 116.683 67.987L116.728 67.9618C116.307 67.209 115.742 66.6 115.034 66.1349L115.005 66.1777ZM116.683 67.987C117.121 68.7313 117.341 69.6635 117.341 70.7841H117.392C117.392 69.6569 117.171 68.716 116.728 67.9618L116.683 67.987ZM117.341 70.7841C117.341 72.079 116.968 73.1636 116.223 74.0399L116.262 74.0733C117.016 73.1866 117.392 72.0896 117.392 70.7841H117.341ZM116.223 74.0399C115.477 74.9169 114.49 75.5204 113.261 75.8497L113.274 75.8996C114.513 75.5678 115.509 74.9592 116.262 74.0733L116.223 74.0399ZM113.242 75.8747V75.9408H113.293V75.8747H113.242ZM113.264 75.9664C114.011 76.0542 114.702 76.2518 115.339 76.559L115.361 76.5125C114.719 76.2027 114.022 76.0036 113.271 75.9151L113.264 75.9664ZM115.339 76.559C115.976 76.8442 116.524 77.2283 116.984 77.7105L117.021 77.6749C116.556 77.1875 116.003 76.8003 115.361 76.5125L115.339 76.559ZM116.984 77.7105C117.444 78.1927 117.795 78.7625 118.036 79.4205L118.085 79.4027C117.841 78.7384 117.487 78.1624 117.021 77.6749L116.984 77.7105ZM118.037 79.4212C118.3 80.0788 118.431 80.8138 118.431 81.6263H118.483C118.483 80.8081 118.35 80.0673 118.085 79.4027L118.037 79.4212ZM118.431 81.6263C118.431 82.7466 118.201 83.7228 117.74 84.5558L117.786 84.5808C118.251 83.7389 118.483 82.7538 118.483 81.6263H118.431ZM117.74 84.5558C117.28 85.3897 116.654 86.0809 115.864 86.6296L115.894 86.672C116.69 86.1188 117.321 85.4217 117.786 84.5808L117.74 84.5558ZM115.865 86.6293C115.074 87.1563 114.14 87.563 113.063 87.8489L113.076 87.8988C114.158 87.6117 115.097 87.203 115.893 86.6723L115.865 86.6293ZM113.063 87.8489C112.007 88.1127 110.875 88.2447 109.664 88.2447V88.2963C110.878 88.2963 112.015 88.1639 113.075 87.8989L113.063 87.8489ZM109.664 88.2447H101.962V88.2963H109.664V88.2447ZM101.988 88.2705V64.8672H101.937V88.2705H101.988ZM105.235 74.7766H109.499V74.7249H105.235V74.7766ZM109.499 74.7766C110.118 74.7766 110.704 74.7104 111.257 74.5776L111.245 74.5273C110.696 74.659 110.114 74.7249 109.499 74.7249V74.7766ZM111.258 74.5774C111.833 74.4225 112.332 74.201 112.753 73.9126L112.724 73.87C112.308 74.1546 111.815 74.3739 111.244 74.5275L111.258 74.5774ZM112.754 73.9121C113.176 73.6014 113.509 73.224 113.753 72.7799L113.708 72.755C113.467 73.1923 113.139 73.5642 112.723 73.8705L112.754 73.9121ZM113.753 72.7799C113.998 72.3127 114.12 71.757 114.12 71.1147H114.068C114.068 71.7505 113.947 72.2971 113.707 72.7554L113.753 72.7799ZM114.12 71.1147C114.12 69.8512 113.654 68.9491 112.718 68.4147L112.693 68.4596C113.609 68.983 114.068 69.8658 114.068 71.1147H114.12ZM112.719 68.415C111.788 67.8608 110.538 67.5849 108.97 67.5849V67.6366C110.532 67.6366 111.772 67.9116 112.692 68.4593L112.719 68.415ZM108.97 67.5849H105.235V67.6366H108.97V67.5849ZM105.209 67.6108V74.7508H105.261V67.6108H105.209ZM105.235 85.5196H109.334V85.468H105.235V85.5196ZM109.334 85.5196C110.018 85.5196 110.703 85.4644 111.387 85.354L111.379 85.303C110.697 85.413 110.016 85.468 109.334 85.468V85.5196ZM111.388 85.3539C112.096 85.2213 112.726 85 113.28 84.69L113.255 84.6447C112.707 84.9517 112.081 85.1712 111.379 85.303L111.388 85.3539ZM113.28 84.69C113.856 84.3796 114.311 83.9692 114.644 83.4585L114.601 83.43C114.273 83.9329 113.825 84.3381 113.255 84.6447L113.28 84.69ZM114.644 83.4585C115 82.9244 115.177 82.2582 115.177 81.461H115.126C115.126 82.2505 114.95 82.9063 114.601 83.43L114.644 83.4585ZM115.177 81.461C115.177 80.0663 114.701 79.0543 113.744 78.4313L113.716 78.4746C114.655 79.0858 115.126 80.0792 115.126 81.461H115.177ZM113.744 78.4313C112.791 77.8104 111.419 77.5016 109.631 77.5016V77.5533C111.414 77.5533 112.775 77.8615 113.716 78.4746L113.744 78.4313ZM109.631 77.5016H105.235V77.5533H109.631V77.5016ZM105.209 77.5274V85.4938H105.261V77.5274H105.209ZM131.402 85.3616H131.376V85.3874H131.402V85.3616ZM143.632 85.3616H143.658V85.3358H143.632V85.3616ZM143.632 88.2705V88.2963H143.658V88.2705H143.632ZM128.129 88.2705H128.103V88.2963H128.129V88.2705ZM128.129 64.8672V64.8413H128.103V64.8672H128.129ZM143.137 64.8672H143.162V64.8413H143.137V64.8672ZM143.137 67.743V67.7688H143.162V67.743H143.137ZM131.402 67.743V67.7172H131.376V67.743H131.402ZM131.402 74.7508H131.376V74.7766H131.402V74.7508ZM142.442 74.7508H142.468V74.7249H142.442V74.7508ZM142.442 77.5605V77.5863H142.468V77.5605H142.442ZM131.402 77.5605V77.5347H131.376V77.5605H131.402ZM131.402 85.3874H143.632V85.3358H131.402V85.3874ZM143.607 85.3616V88.2705H143.658V85.3616H143.607ZM143.632 88.2447H128.129V88.2963H143.632V88.2447ZM128.155 88.2705V64.8672H128.103V88.2705H128.155ZM128.129 64.893H143.137V64.8413H128.129V64.893ZM143.111 64.8672V67.743H143.162V64.8672H143.111ZM143.137 67.7172H131.402V67.7688H143.137V67.7172ZM131.376 67.743V74.7508H131.428V67.743H131.376ZM131.402 74.7766H142.442V74.7249H131.402V74.7766ZM142.417 74.7508V77.5605H142.468V74.7508H142.417ZM142.442 77.5347H131.402V77.5863H142.442V77.5347ZM131.376 77.5605V85.3616H131.428V77.5605H131.376ZM161.138 88.2705V88.2963H161.164V88.2705H161.138ZM157.866 88.2705H157.84V88.2963H157.866V88.2705ZM157.866 67.743H157.891V67.7172H157.866V67.743ZM150.362 67.743H150.336V67.7688H150.362V67.743ZM150.362 64.8672V64.8413H150.336V64.8672H150.362ZM168.642 64.8672H168.668V64.8413H168.642V64.8672ZM168.642 67.743V67.7688H168.668V67.743H168.642ZM161.138 67.743V67.7172H161.112V67.743H161.138ZM161.138 88.2447H157.866V88.2963H161.138V88.2447ZM157.891 88.2705V67.743H157.84V88.2705H157.891ZM157.866 67.7172H150.362V67.7688H157.866V67.7172ZM150.388 67.743V64.8672H150.336V67.743H150.388ZM150.362 64.893H168.642V64.8413H150.362V64.893ZM168.616 64.8672V67.743H168.668V64.8672H168.616ZM168.642 67.7172H161.138V67.7688H168.642V67.7172ZM161.112 67.743V88.2705H161.164V67.743H161.112ZM184.916 88.2705V88.2963H184.942V88.2705H184.916ZM181.644 88.2705H181.618V88.2963H181.644V88.2705ZM181.644 67.743H181.67V67.7172H181.644V67.743ZM174.14 67.743H174.114V67.7688H174.14V67.743ZM174.14 64.8672V64.8413H174.114V64.8672H174.14ZM192.42 64.8672H192.446V64.8413H192.42V64.8672ZM192.42 67.743V67.7688H192.446V67.743H192.42ZM184.916 67.743V67.7172H184.89V67.743H184.916ZM184.916 88.2447H181.644V88.2963H184.916V88.2447ZM181.67 88.2705V67.743H181.618V88.2705H181.67ZM181.644 67.7172H174.14V67.7688H181.644V67.7172ZM174.166 67.743V64.8672H174.114V67.743H174.166ZM174.14 64.893H192.42V64.8413H174.14V64.893ZM192.394 64.8672V67.743H192.446V64.8672H192.394ZM192.42 67.7172H184.916V67.7688H192.42V67.7172ZM184.89 67.743V88.2705H184.942V67.743H184.89ZM203.769 85.3616H203.743V85.3874H203.769V85.3616ZM216 85.3616H216.025V85.3358H216V85.3616ZM216 88.2705V88.2963H216.025V88.2705H216ZM200.496 88.2705H200.471V88.2963H200.496V88.2705ZM200.496 64.8672V64.8413H200.471V64.8672H200.496ZM215.504 64.8672H215.529V64.8413H215.504V64.8672ZM215.504 67.743V67.7688H215.529V67.743H215.504ZM203.769 67.743V67.7172H203.743V67.743H203.769ZM203.769 74.7508H203.743V74.7766H203.769V74.7508ZM214.81 74.7508H214.835V74.7249H214.81V74.7508ZM214.81 77.5605V77.5863H214.835V77.5605H214.81ZM203.769 77.5605V77.5347H203.743V77.5605H203.769ZM203.769 85.3874H216V85.3358H203.769V85.3874ZM215.974 85.3616V88.2705H216.025V85.3616H215.974ZM216 88.2447H200.496V88.2963H216V88.2447ZM200.522 88.2705V64.8672H200.471V88.2705H200.522ZM200.496 64.893H215.504V64.8413H200.496V64.893ZM215.478 64.8672V67.743H215.529V64.8672H215.478ZM215.504 67.7172H203.769V67.7688H215.504V67.7172ZM203.743 67.743V74.7508H203.795V67.743H203.743ZM203.769 74.7766H214.81V74.7249H203.769V74.7766ZM214.784 74.7508V77.5605H214.835V74.7508H214.784ZM214.81 77.5347H203.769V77.5863H214.81V77.5347ZM203.743 77.5605V85.3616H203.795V77.5605H203.743ZM228.58 88.2705V88.2963H228.606V88.2705H228.58ZM225.307 88.2705H225.282V88.2963H225.307V88.2705ZM225.307 64.8672V64.8413H225.282V64.8672H225.307ZM238.662 66.3216L238.647 66.343L238.648 66.3432L238.662 66.3216ZM235.456 77.5274L235.451 77.502L235.414 77.5084L235.433 77.5409L235.456 77.5274ZM242.001 88.2705V88.2963H242.047L242.023 88.257L242.001 88.2705ZM238.034 88.2705L238.011 88.2833L238.019 88.2963H238.034V88.2705ZM232.084 77.858L232.106 77.8452L232.099 77.8322H232.084V77.858ZM228.58 77.858V77.8322H228.554V77.858H228.58ZM228.58 75.1144H228.554V75.1402H228.58V75.1144ZM236.249 68.4372L236.235 68.4591L236.236 68.4594L236.249 68.4372ZM228.58 67.6438V67.618H228.554V67.6438H228.58ZM228.58 88.2447H225.307V88.2963H228.58V88.2447ZM225.333 88.2705V64.8672H225.282V88.2705H225.333ZM225.307 64.893H232.811V64.8413H225.307V64.893ZM232.811 64.893C233.933 64.893 235 65.014 236.011 65.2559L236.023 65.2056C235.008 64.9627 233.937 64.8413 232.811 64.8413V64.893ZM236.011 65.2559C237.022 65.4757 237.901 65.8382 238.647 66.343L238.676 66.3002C237.924 65.7913 237.039 65.4266 236.023 65.2056L236.011 65.2559ZM238.648 66.3432C239.415 66.8476 240.018 67.5164 240.457 68.35L240.503 68.326C240.06 67.4848 239.451 66.8095 238.676 66.3002L238.648 66.3432ZM240.457 68.35C240.895 69.1606 241.115 70.1591 241.115 71.346H241.167C241.167 70.1529 240.946 69.1461 240.503 68.326L240.457 68.35ZM241.115 71.346C241.115 73.0592 240.588 74.4406 239.536 75.4928L239.573 75.5293C240.636 74.466 241.167 73.0707 241.167 71.346H241.115ZM239.536 75.4928C238.483 76.5463 237.121 77.2163 235.451 77.502L235.46 77.5529C237.139 77.2656 238.511 76.5914 239.573 75.5293L239.536 75.4928ZM235.433 77.5409L241.978 88.2839L242.023 88.257L235.478 77.514L235.433 77.5409ZM242.001 88.2447H238.034V88.2963H242.001V88.2447ZM238.056 88.2577L232.106 77.8452L232.061 77.8708L238.011 88.2833L238.056 88.2577ZM232.084 77.8322H228.58V77.8838H232.084V77.8322ZM228.554 77.858V88.2705H228.606V77.858H228.554ZM228.58 75.1402H232.348V75.0885H228.58V75.1402ZM232.348 75.1402C233.121 75.1402 233.839 75.074 234.502 74.9414L234.492 74.8907C233.833 75.0226 233.118 75.0885 232.348 75.0885V75.1402ZM234.502 74.9414C235.165 74.8087 235.741 74.5984 236.229 74.3102L236.203 74.2658C235.721 74.5505 235.151 74.759 234.492 74.8907L234.502 74.9414ZM236.229 74.3102C236.739 73.9998 237.139 73.6112 237.428 73.1446L237.384 73.1174C237.1 73.5765 236.706 73.9593 236.202 74.2659L236.229 74.3102ZM237.428 73.1446C237.717 72.6549 237.861 72.0547 237.861 71.346H237.81C237.81 72.0478 237.667 72.6375 237.384 73.1174L237.428 73.1446ZM237.861 71.346C237.861 70.6374 237.717 70.0484 237.428 69.5805L237.384 69.6072C237.667 70.0648 237.81 70.6443 237.81 71.346H237.861ZM237.428 69.5805C237.139 69.0919 236.751 68.7036 236.262 68.4149L236.236 68.4594C236.717 68.7437 237.099 69.1262 237.384 69.6072L237.428 69.5805ZM236.262 68.4149C235.796 68.1264 235.242 67.9273 234.6 67.8167L234.591 67.8675C235.227 67.9772 235.776 68.1747 236.235 68.4591L236.262 68.4149ZM234.601 67.8169C233.96 67.6843 233.287 67.618 232.58 67.618V67.6696C233.283 67.6696 233.954 67.7357 234.591 67.8675L234.601 67.8169ZM232.58 67.618H228.58V67.6696H232.58V67.618ZM228.554 67.6438V75.1144H228.606V67.6438H228.554Z" fill="black" fill-opacity="0.85098"/>
</g>
</g>
<defs>
<clipPath id="clip0_712_738">
<rect width="243" height="89" fill="white"/>
</clipPath>
</defs>
</svg>
