<svg width="448" height="326" viewBox="0 0 448 326" fill="none" xmlns="http://www.w3.org/2000/svg">
<g clip-path="url(#clip0_712_751)">
<path d="M84.712 318.192C80.104 320.411 75.027 322.117 69.48 323.312C64.019 324.592 57.704 325.232 50.536 325.232C43.197 325.232 36.499 324.08 30.44 321.776C24.381 319.387 19.176 316.101 14.824 311.92C10.472 307.653 7.059 302.619 4.584 296.816C2.195 290.928 1 284.443 1 277.36C1 270.107 2.23699 263.579 4.71199 257.776C7.27199 251.888 10.728 246.896 15.08 242.8C19.517 238.704 24.723 235.547 30.696 233.328C36.669 231.109 43.155 230 50.152 230C57.405 230 64.019 231.067 69.992 233.2C76.051 235.248 80.915 237.979 84.584 241.392L73.448 253.424C71.144 250.864 67.901 248.688 63.72 246.896C59.624 245.104 55.144 244.208 50.28 244.208C45.501 244.208 41.149 245.061 37.224 246.768C33.384 248.475 30.099 250.821 27.368 253.808C24.637 256.795 22.504 260.293 20.968 264.304C19.517 268.315 18.792 272.667 18.792 277.36C18.792 282.224 19.517 286.704 20.968 290.8C22.504 294.811 24.637 298.309 27.368 301.296C30.184 304.283 33.555 306.629 37.48 308.336C41.491 309.957 46.013 310.768 51.048 310.768C57.96 310.768 63.976 309.701 69.096 307.568V284.528H50.024V271.216H84.712V318.192ZM100 291.952C100 287.088 100.853 282.693 102.56 278.768C104.352 274.757 106.741 271.344 109.728 268.528C112.715 265.712 116.256 263.536 120.352 262C124.448 260.464 128.8 259.696 133.408 259.696C138.016 259.696 142.368 260.464 146.464 262C150.56 263.536 154.101 265.712 157.088 268.528C160.075 271.344 162.421 274.757 164.128 278.768C165.92 282.693 166.816 287.088 166.816 291.952C166.816 296.816 165.92 301.253 164.128 305.264C162.421 309.275 160.075 312.731 157.088 315.632C154.101 318.448 150.56 320.667 146.464 322.288C142.368 323.909 138.016 324.72 133.408 324.72C128.8 324.72 124.448 323.909 120.352 322.288C116.256 320.667 112.715 318.448 109.728 315.632C106.741 312.731 104.352 309.275 102.56 305.264C100.853 301.253 100 296.816 100 291.952ZM115.616 291.952C115.616 294.341 115.957 296.731 116.64 299.12C117.408 301.509 118.517 303.643 119.968 305.52C121.419 307.397 123.253 308.933 125.472 310.128C127.691 311.323 130.336 311.92 133.408 311.92C136.48 311.92 139.125 311.323 141.344 310.128C143.563 308.933 145.397 307.397 146.848 305.52C148.299 303.643 149.365 301.509 150.048 299.12C150.816 296.731 151.2 294.341 151.2 291.952C151.2 289.563 150.816 287.216 150.048 284.912C149.365 282.523 148.299 280.389 146.848 278.512C145.397 276.635 143.563 275.141 141.344 274.032C139.125 272.837 136.48 272.24 133.408 272.24C130.336 272.24 127.691 272.837 125.472 274.032C123.253 275.141 121.419 276.635 119.968 278.512C118.517 280.389 117.408 282.523 116.64 284.912C115.957 287.216 115.616 289.563 115.616 291.952ZM223.693 278.512C222.498 276.805 220.706 275.397 218.317 274.288C215.928 273.093 213.496 272.496 211.021 272.496C208.205 272.496 205.73 273.093 203.597 274.288C201.464 275.397 199.672 276.891 198.221 278.768C196.856 280.645 195.832 282.779 195.149 285.168C194.466 287.472 194.125 289.819 194.125 292.208C194.125 294.597 194.466 296.987 195.149 299.376C195.917 301.68 197.026 303.771 198.477 305.648C199.928 307.525 201.72 309.061 203.853 310.256C206.072 311.365 208.632 311.92 211.533 311.92C213.922 311.92 216.312 311.451 218.701 310.512C221.09 309.573 223.01 308.208 224.461 306.416L234.061 316.144C231.501 318.875 228.216 321.008 224.205 322.544C220.28 323.995 216.013 324.72 211.405 324.72C206.882 324.72 202.573 323.995 198.477 322.544C194.466 321.093 190.925 318.96 187.853 316.144C184.866 313.328 182.477 309.915 180.685 305.904C178.978 301.893 178.125 297.328 178.125 292.208C178.125 287.259 178.978 282.779 180.685 278.768C182.477 274.757 184.866 271.344 187.853 268.528C190.84 265.712 194.296 263.536 198.221 262C202.232 260.464 206.498 259.696 211.021 259.696C215.544 259.696 219.896 260.549 224.077 262.256C228.344 263.963 231.714 266.309 234.189 269.296L223.693 278.512ZM240.625 291.952C240.625 287.088 241.478 282.693 243.185 278.768C244.977 274.757 247.366 271.344 250.353 268.528C253.34 265.712 256.881 263.536 260.977 262C265.073 260.464 269.425 259.696 274.033 259.696C278.641 259.696 282.993 260.464 287.089 262C291.185 263.536 294.726 265.712 297.713 268.528C300.7 271.344 303.046 274.757 304.753 278.768C306.545 282.693 307.441 287.088 307.441 291.952C307.441 296.816 306.545 301.253 304.753 305.264C303.046 309.275 300.7 312.731 297.713 315.632C294.726 318.448 291.185 320.667 287.089 322.288C282.993 323.909 278.641 324.72 274.033 324.72C269.425 324.72 265.073 323.909 260.977 322.288C256.881 320.667 253.34 318.448 250.353 315.632C247.366 312.731 244.977 309.275 243.185 305.264C241.478 301.253 240.625 296.816 240.625 291.952ZM256.241 291.952C256.241 294.341 256.582 296.731 257.265 299.12C258.033 301.509 259.142 303.643 260.593 305.52C262.044 307.397 263.878 308.933 266.097 310.128C268.316 311.323 270.961 311.92 274.033 311.92C277.105 311.92 279.75 311.323 281.969 310.128C284.188 308.933 286.022 307.397 287.473 305.52C288.924 303.643 289.99 301.509 290.673 299.12C291.441 296.731 291.825 294.341 291.825 291.952C291.825 289.563 291.441 287.216 290.673 284.912C289.99 282.523 288.924 280.389 287.473 278.512C286.022 276.635 284.188 275.141 281.969 274.032C279.75 272.837 277.105 272.24 274.033 272.24C270.961 272.24 268.316 272.837 266.097 274.032C263.878 275.141 262.044 276.635 260.593 278.512C259.142 280.389 258.033 282.523 257.265 284.912C256.582 287.216 256.241 289.563 256.241 291.952ZM364.318 278.512C363.123 276.805 361.331 275.397 358.942 274.288C356.553 273.093 354.121 272.496 351.646 272.496C348.83 272.496 346.355 273.093 344.222 274.288C342.089 275.397 340.297 276.891 338.846 278.768C337.481 280.645 336.457 282.779 335.774 285.168C335.091 287.472 334.75 289.819 334.75 292.208C334.75 294.597 335.091 296.987 335.774 299.376C336.542 301.68 337.651 303.771 339.102 305.648C340.553 307.525 342.345 309.061 344.478 310.256C346.697 311.365 349.257 311.92 352.158 311.92C354.547 311.92 356.937 311.451 359.326 310.512C361.715 309.573 363.635 308.208 365.086 306.416L374.686 316.144C372.126 318.875 368.841 321.008 364.83 322.544C360.905 323.995 356.638 324.72 352.03 324.72C347.507 324.72 343.198 323.995 339.102 322.544C335.091 321.093 331.55 318.96 328.478 316.144C325.491 313.328 323.102 309.915 321.31 305.904C319.603 301.893 318.75 297.328 318.75 292.208C318.75 287.259 319.603 282.779 321.31 278.768C323.102 274.757 325.491 271.344 328.478 268.528C331.465 265.712 334.921 263.536 338.846 262C342.857 260.464 347.123 259.696 351.646 259.696C356.169 259.696 360.521 260.549 364.702 262.256C368.969 263.963 372.339 266.309 374.814 269.296L364.318 278.512ZM381.25 291.952C381.25 287.088 382.103 282.693 383.81 278.768C385.602 274.757 387.991 271.344 390.978 268.528C393.965 265.712 397.506 263.536 401.602 262C405.698 260.464 410.05 259.696 414.658 259.696C419.266 259.696 423.618 260.464 427.714 262C431.81 263.536 435.351 265.712 438.338 268.528C441.325 271.344 443.671 274.757 445.378 278.768C447.17 282.693 448.066 287.088 448.066 291.952C448.066 296.816 447.17 301.253 445.378 305.264C443.671 309.275 441.325 312.731 438.338 315.632C435.351 318.448 431.81 320.667 427.714 322.288C423.618 323.909 419.266 324.72 414.658 324.72C410.05 324.72 405.698 323.909 401.602 322.288C397.506 320.667 393.965 318.448 390.978 315.632C387.991 312.731 385.602 309.275 383.81 305.264C382.103 301.253 381.25 296.816 381.25 291.952ZM396.866 291.952C396.866 294.341 397.207 296.731 397.89 299.12C398.658 301.509 399.767 303.643 401.218 305.52C402.669 307.397 404.503 308.933 406.722 310.128C408.941 311.323 411.586 311.92 414.658 311.92C417.73 311.92 420.375 311.323 422.594 310.128C424.813 308.933 426.647 307.397 428.098 305.52C429.549 303.643 430.615 301.509 431.298 299.12C432.066 296.731 432.45 294.341 432.45 291.952C432.45 289.563 432.066 287.216 431.298 284.912C430.615 282.523 429.549 280.389 428.098 278.512C426.647 276.635 424.813 275.141 422.594 274.032C420.375 272.837 417.73 272.24 414.658 272.24C411.586 272.24 408.941 272.837 406.722 274.032C404.503 275.141 402.669 276.635 401.218 278.512C399.767 280.389 398.658 282.523 397.89 284.912C397.207 287.216 396.866 289.563 396.866 291.952Z" fill="black"/>
<path fill-rule="evenodd" clip-rule="evenodd" d="M209.5 28.7177L195 1L177 20.1504L166.5 58.9551L149 92.2164L159.5 125.478L170.5 146.14H174.5L188 163.274L200.5 170.33L209.5 186.96L224 192L238.5 186.96L247.5 170.33L260 163.274L273.5 146.14H277.5L288.5 125.478L299 92.2164L281.5 58.9551L271 20.1504L253 1L238.5 28.7177H209.5ZM195 85.161H205.5L216 98.7678H205.5L195 92.2164V85.161ZM216 125.478L224 121.446L232 125.478V131.021L229.5 138.077L224 140.596L218.5 138.077L216 131.021V125.478ZM181.5 23.6781L194 10.0712L204 30.2296L199 47.8681L190.5 53.4116L172.5 56.9393L181.5 23.6781ZM253 85.161H242.5L232 98.7678H242.5L253 92.2164V85.161ZM266.5 23.6781L254 10.0712L244 30.2296L249 47.8681L257.5 53.4116L275.5 56.9393L266.5 23.6781Z" fill="black" stroke="black"/>
</g>
<defs>
<clipPath id="clip0_712_751">
<rect width="448" height="326" fill="white"/>
</clipPath>
</defs>
</svg>
