<svg width="302" height="260" viewBox="0 0 302 260" fill="none" xmlns="http://www.w3.org/2000/svg">
<path opacity="0.8" d="M127.532 25.9185C86.9499 31.6674 75.5067 96.341 49 96.341C75.5067 96.341 87.5477 158.695 127.532 164.307C175.687 171.065 217.735 96.3411 248 96.3411C217.141 96.3412 176.182 19.0267 127.532 25.9185Z" fill="url(#paint0_linear_1656_23127)"/>
<path opacity="0.6" d="M183.145 186.821C223.728 178.449 221.493 96.3411 248 96.3411C221.493 96.3411 223.13 9.34617 183.145 1.17478C134.99 -8.66653 121.345 92.3314 49 96.3411C121.939 92.3312 134.495 196.856 183.145 186.821Z" fill="url(#paint1_linear_1656_23127)"/>
<path fill-rule="evenodd" clip-rule="evenodd" d="M49 96.3873C49 96.3873 57.9371 94.9947 63.2994 96.1883C66.8743 96.9841 70.7817 100.26 73.8253 99.9681C77.5988 99.6066 80.2926 96.0688 83.3583 94.199C86.3114 92.3977 88.2711 91.1522 92.494 90.7669C96.1001 90.4379 99.3812 91.2075 102.226 92.4085C105.681 93.8677 108.648 95.7362 112.751 94.1488C121.085 90.9254 128.838 67.8901 136.187 66.2986C143.535 64.7071 143.535 69.8786 143.535 69.8786C143.535 69.8786 157.636 54.474 173.325 61.7222C196.579 72.4648 178.29 102.305 178.29 102.305C178.29 102.305 184.159 105.207 188.221 105.488C192.191 105.763 194.854 103.812 197.572 101.822C200.078 99.987 202.629 98.1183 206.293 97.9286C209.704 97.7521 212.228 98.9312 214.755 100.112C217.268 101.285 219.783 102.46 223.175 102.305C226.125 102.17 230.229 98.1724 234.296 96.9841C240.453 95.1853 248 96.3873 248 96.3873C248 96.3873 240.85 96.9841 236.878 98.9734C230.488 102.174 228.736 106.095 223.572 107.13C220.593 107.727 217.193 107.543 214.581 106.554C212.148 105.633 209.883 103.705 206.691 103.897C202.992 104.119 200.156 106.666 197.541 108.206C194.806 109.816 192.095 111.411 188.221 111.456C182.559 111.522 174.12 108.074 174.12 108.074C174.12 108.074 164.785 115.436 157.636 114.44C151.326 113.562 145.941 108.639 146.713 102.305C147.484 95.9741 153.869 92.6639 160.218 93.1542C165.381 93.5529 172.531 98.7244 172.531 98.7244C172.531 98.7244 182.064 79.2788 170.346 72.2659C161.766 67.1306 154.061 71.1224 150.089 75.2507C146.117 79.379 130.229 100.565 119.107 134.533C120.894 112.651 138.57 76.0472 137.378 74.256C136.187 72.4648 125.661 95.6594 116.525 99.7191C111.765 101.834 107.784 100.494 103.6 99.0859C100.206 97.9436 95.884 96.8066 91.6996 97.382C87.8332 97.9136 85.7798 99.586 83.0188 101.256C79.7042 103.261 75.6128 106 71.8393 104.891C67.2715 103.549 66.477 100.565 61.1148 98.7244C54.7006 96.5228 49 96.3873 49 96.3873ZM159.026 98.7244C162.799 98.7244 168.162 103.897 168.162 103.897C168.162 103.897 162.998 108.074 159.026 108.074C155.79 108.074 152.336 105.463 153.068 102.305C153.681 99.6576 156.312 98.7244 159.026 98.7244Z" fill="white" fill-opacity="0.94902"/>
<path d="M0 207.255H18.8355C22.9377 207.255 26.0061 208.23 28.0406 210.181C30.0917 212.133 31.1173 214.909 31.1173 218.511C31.1173 222.214 30 225.107 27.7654 227.192C25.5475 229.276 22.154 230.319 17.5848 230.319H11.3813V243.927H0V207.255ZM11.3813 222.889H14.1579C16.3424 222.889 17.8766 222.514 18.7604 221.763C19.6442 220.996 20.0861 220.021 20.0861 218.837C20.0861 217.686 19.7026 216.71 18.9355 215.91C18.1684 215.109 16.7259 214.709 14.6081 214.709H11.3813V222.889Z" fill="black"/>
<path d="M36.438 207.255H46.6437V243.927H36.438V207.255Z" fill="black"/>
<path d="M62.1201 225.966L52.3897 224.94C52.7565 223.239 53.2818 221.905 53.9655 220.938C54.6659 219.954 55.6665 219.103 56.9672 218.386C57.9011 217.869 59.1851 217.469 60.8194 217.186C62.4536 216.902 64.2212 216.76 66.1223 216.76C69.174 216.76 71.6253 216.936 73.4764 217.286C75.3274 217.619 76.8699 218.328 78.1039 219.412C78.9711 220.162 79.6548 221.23 80.1551 222.614C80.6554 223.981 80.9055 225.291 80.9055 226.541V238.273C80.9055 239.524 80.9805 240.508 81.1306 241.225C81.2974 241.926 81.6476 242.826 82.1812 243.927H72.6259C72.2424 243.243 71.9922 242.726 71.8755 242.376C71.7588 242.009 71.642 241.442 71.5253 240.675C70.1912 241.959 68.8655 242.876 67.5481 243.427C65.7471 244.16 63.6543 244.527 61.2696 244.527C58.1012 244.527 55.6915 243.793 54.0406 242.326C52.4063 240.858 51.5892 239.049 51.5892 236.898C51.5892 234.88 52.1812 233.22 53.3652 231.92C54.5492 230.619 56.7338 229.652 59.9189 229.018C63.7376 228.251 66.214 227.717 67.348 227.417C68.4819 227.1 69.6826 226.691 70.95 226.191C70.95 224.94 70.6915 224.065 70.1745 223.565C69.6576 223.064 68.7488 222.814 67.448 222.814C65.7804 222.814 64.5297 223.081 63.6959 223.615C63.0456 224.031 62.5203 224.815 62.1201 225.966ZM70.95 231.319C69.5492 231.82 68.0901 232.261 66.5725 232.645C64.5047 233.195 63.1957 233.737 62.6454 234.271C62.0784 234.821 61.7949 235.447 61.7949 236.147C61.7949 236.948 62.07 237.606 62.6204 238.123C63.1873 238.624 64.0128 238.874 65.0967 238.874C66.2307 238.874 67.2813 238.599 68.2485 238.048C69.2324 237.498 69.9244 236.831 70.3246 236.047C70.7415 235.247 70.95 234.213 70.95 232.945V231.319Z" fill="black"/>
<path d="M86.7015 217.361H96.1818V221.688C97.5992 219.921 99.0334 218.662 100.484 217.911C101.935 217.144 103.703 216.76 105.787 216.76C108.605 216.76 110.807 217.603 112.391 219.287C113.992 220.955 114.792 223.54 114.792 227.042V243.927H104.561V229.318C104.561 227.65 104.253 226.475 103.636 225.791C103.019 225.09 102.152 224.74 101.034 224.74C99.8004 224.74 98.7999 225.207 98.0328 226.141C97.2657 227.075 96.8822 228.751 96.8822 231.169V243.927H86.7015V217.361Z" fill="black"/>
<path d="M150.054 233.17H129.643C129.827 234.805 130.268 236.022 130.969 236.823C131.953 237.973 133.237 238.549 134.821 238.549C135.822 238.549 136.772 238.298 137.673 237.798C138.223 237.481 138.815 236.923 139.449 236.122L149.479 237.048C147.945 239.716 146.094 241.634 143.926 242.801C141.758 243.952 138.648 244.527 134.596 244.527C131.077 244.527 128.309 244.035 126.291 243.051C124.273 242.051 122.598 240.475 121.263 238.323C119.946 236.155 119.287 233.612 119.287 230.694C119.287 226.541 120.613 223.181 123.265 220.613C125.933 218.045 129.61 216.76 134.296 216.76C138.098 216.76 141.1 217.336 143.301 218.486C145.502 219.637 147.178 221.305 148.329 223.489C149.479 225.674 150.054 228.518 150.054 232.02V233.17ZM139.699 228.292C139.499 226.325 138.965 224.915 138.098 224.065C137.247 223.214 136.122 222.789 134.721 222.789C133.103 222.789 131.811 223.431 130.844 224.715C130.227 225.516 129.835 226.708 129.668 228.292H139.699Z" fill="black"/>
<path d="M166.707 207.255V217.361H172.31V224.79H166.707V234.221C166.707 235.355 166.815 236.105 167.032 236.472C167.365 237.039 167.949 237.323 168.783 237.323C169.533 237.323 170.584 237.106 171.934 236.672L172.685 243.702C170.167 244.252 167.815 244.527 165.631 244.527C163.096 244.527 161.228 244.202 160.028 243.552C158.827 242.901 157.935 241.917 157.351 240.6C156.784 239.266 156.501 237.114 156.501 234.146V224.79H152.749V217.361H156.501V212.483L166.707 207.255Z" fill="black"/>
<path d="M191.62 259.993C191.429 259.993 191.19 259.993 190.903 259.993C190.616 260.041 190.353 259.849 190.114 259.419C189.922 259.18 189.803 258.821 189.755 258.343C189.755 257.865 189.875 257.004 190.114 255.761C190.353 254.948 190.544 254.135 190.687 253.323C190.831 252.558 190.903 251.984 190.903 251.601C190.903 251.41 190.95 251.027 191.046 250.454C191.19 249.928 191.261 249.545 191.261 249.306C191.5 248.924 191.692 248.398 191.835 247.728C191.978 247.059 192.05 246.461 192.05 245.935C192.05 245.361 192.337 244.835 192.911 244.357C192.911 243.975 192.983 243.496 193.126 242.923C193.317 242.349 193.413 241.966 193.413 241.775C193.556 241.106 193.867 239.934 194.345 238.261C194.871 236.539 195.493 234.603 196.21 232.451C196.975 230.299 197.716 228.196 198.433 226.139C199.15 224.083 199.796 222.338 200.37 220.904C200.943 219.565 201.326 218.417 201.517 217.461C201.756 216.457 201.876 215.716 201.876 215.237C201.876 215.046 201.924 214.903 202.019 214.807C202.115 214.664 202.33 214.401 202.665 214.018C203.143 213.54 203.549 213.397 203.884 213.588C204.266 213.779 204.721 214.066 205.247 214.449C205.629 215.07 205.892 215.596 206.036 216.026C206.227 216.457 206.227 217.198 206.036 218.25C206.036 218.967 205.916 219.589 205.677 220.115C205.438 220.641 205.223 221.047 205.031 221.334C204.84 221.573 204.792 221.669 204.888 221.621C206.848 220.712 208.57 220.234 210.052 220.186C211.582 220.091 212.849 220.354 213.853 220.975C214.905 221.549 215.694 222.362 216.22 223.414C216.746 224.466 217.009 225.685 217.009 227.072C217.009 227.646 216.889 228.339 216.65 229.152C216.411 229.917 216.1 230.634 215.718 231.304C215.383 231.925 215.072 232.379 214.785 232.666C214.594 232.666 214.403 232.834 214.212 233.168C214.02 233.455 213.829 233.79 213.638 234.172C213.255 234.651 212.634 235.2 211.773 235.822C210.96 236.396 210.147 236.874 209.335 237.257C208.522 237.591 207.924 237.687 207.542 237.543C207.542 237.543 207.47 237.567 207.326 237.615C207.231 237.615 207.183 237.735 207.183 237.974C207.183 238.069 206.801 238.285 206.036 238.619C205.271 238.906 204.386 239.193 203.382 239.48C202.378 239.719 201.493 239.839 200.728 239.839C199.724 239.839 199.007 239.647 198.577 239.265C198.481 239.36 198.362 239.504 198.218 239.695C198.122 239.886 198.075 240.054 198.075 240.197C198.075 240.484 197.955 241.034 197.716 241.847C197.525 242.612 197.286 243.353 196.999 244.07C196.712 244.787 196.449 245.146 196.21 245.146C196.21 245.146 196.162 245.218 196.066 245.361C195.971 245.505 196.019 245.696 196.21 245.935C196.21 245.935 196.186 246.198 196.138 246.724C196.138 247.298 196.019 247.776 195.78 248.158C195.78 248.541 195.708 249.115 195.564 249.88C195.421 250.645 195.254 251.219 195.062 251.601C195.062 252.175 194.967 252.725 194.776 253.251C194.632 253.825 194.465 254.112 194.273 254.112C194.082 254.159 193.963 254.446 193.915 254.972C193.867 255.546 193.843 255.952 193.843 256.191C193.795 257.387 193.556 258.319 193.126 258.989C192.696 259.658 192.194 259.993 191.62 259.993ZM200.298 236.037C200.68 236.037 201.469 235.87 202.665 235.535C203.86 235.2 205.079 234.794 206.322 234.316C207.613 233.79 208.57 233.264 209.191 232.738C210.434 231.638 211.391 230.395 212.06 229.008C212.777 227.574 212.729 226.211 211.917 224.92C211.534 224.251 210.841 223.988 209.837 224.131C208.833 224.227 207.733 224.609 206.538 225.279C205.342 225.948 204.219 226.785 203.167 227.789C202.593 228.411 202.067 229.176 201.589 230.084C201.111 230.993 200.704 231.901 200.37 232.81C200.083 233.718 199.915 234.483 199.868 235.105C199.82 235.726 199.963 236.037 200.298 236.037Z" fill="black"/>
<path d="M237.532 243.783C237.054 243.305 236.576 242.66 236.098 241.847C235.62 240.986 235.237 240.006 234.95 238.906C234.855 238.524 234.807 237.998 234.807 237.328C234.855 236.659 234.855 236.181 234.807 235.894C234.664 236.229 234.424 236.587 234.09 236.97C233.803 237.304 233.516 237.591 233.229 237.83C233.038 238.022 232.608 238.404 231.938 238.978C231.269 239.504 230.599 239.934 229.93 240.269C228.352 241.273 227.037 241.823 225.985 241.919C224.981 242.014 224.025 241.488 223.117 240.341C222.352 239.719 221.802 239.026 221.467 238.261C221.18 237.496 221.18 236.444 221.467 235.105C221.563 233.431 221.802 231.806 222.184 230.228C222.567 228.602 223.356 226.45 224.551 223.773C225.555 221.812 226.32 220.378 226.846 219.469C227.372 218.513 227.707 217.939 227.85 217.748C228.567 217.509 229.165 217.533 229.643 217.82C230.121 218.059 230.408 218.513 230.504 219.182C230.791 219.66 230.743 220.473 230.36 221.621C230.026 222.768 229.428 224.179 228.567 225.853C227.898 227.478 227.276 229.104 226.703 230.73C226.177 232.355 225.866 233.742 225.77 234.89C225.675 236.037 225.961 236.731 226.631 236.97C227.061 237.209 227.802 237.137 228.854 236.754C229.954 236.372 231.173 235.416 232.512 233.886C233.898 232.355 235.237 230.036 236.528 226.928C236.911 225.972 237.198 225.135 237.389 224.418C237.58 223.653 237.7 222.816 237.747 221.908C237.652 221.334 237.676 220.832 237.819 220.402C238.01 219.923 238.393 219.517 238.967 219.182C239.158 218.943 239.421 218.728 239.756 218.537C240.09 218.298 240.305 218.298 240.401 218.537L241.549 218.465C241.74 218.417 241.859 218.537 241.907 218.824C242.003 219.063 242.17 219.278 242.409 219.469C242.935 219.9 243.079 220.832 242.84 222.266C242.6 223.701 241.931 225.709 240.831 228.291C239.923 230.252 239.301 231.734 238.967 232.738C238.68 233.742 238.512 234.722 238.465 235.679C238.465 236.539 238.632 237.352 238.967 238.117C239.301 238.882 239.827 239.576 240.545 240.197C241.07 240.532 241.357 240.914 241.405 241.345C241.501 241.775 241.525 242.277 241.477 242.851C241.381 243.281 241.094 243.64 240.616 243.927C240.186 244.166 239.684 244.285 239.11 244.285C238.536 244.285 238.01 244.118 237.532 243.783Z" fill="black"/>
<path d="M247.653 240.556C247.175 240.269 246.816 239.982 246.577 239.695C246.338 239.408 246.219 239.002 246.219 238.476C246.219 237.759 246.314 237.017 246.506 236.252C246.697 235.44 246.888 234.651 247.079 233.886C247.175 233.025 247.295 232.164 247.438 231.304C247.629 230.395 247.964 229.558 248.442 228.793C248.968 226.976 249.518 225.183 250.092 223.414C250.665 221.597 251.167 219.732 251.598 217.82C252.219 216.05 252.769 214.496 253.247 213.158C253.773 211.771 254.419 210.026 255.184 207.922C255.614 206.726 255.973 205.459 256.26 204.12C256.594 202.734 257.096 201.491 257.766 200.391C258.053 199.96 258.268 199.602 258.411 199.315C258.602 198.98 258.794 198.669 258.985 198.383C259.033 198.191 259.176 198.072 259.415 198.024C259.702 197.976 260.013 198 260.348 198.096C260.682 198.191 260.945 198.359 261.137 198.598C261.28 198.55 261.447 198.693 261.639 199.028C261.878 199.315 262.093 199.65 262.284 200.032C262.475 200.415 262.547 200.749 262.499 201.036C262.499 201.228 262.451 201.491 262.356 201.825C262.308 202.16 262.188 202.471 261.997 202.758C261.806 202.949 261.615 203.236 261.423 203.618C261.28 203.953 261.041 204.431 260.706 205.053C260.515 205.674 260.348 206.32 260.204 206.989C260.061 207.611 259.869 208.185 259.63 208.711C259.439 209.284 259.2 209.834 258.913 210.36C258.674 210.886 258.507 211.317 258.411 211.651C258.076 212.751 257.67 213.827 257.192 214.879C256.762 215.931 256.379 217.054 256.044 218.25C255.71 219.397 255.375 220.593 255.04 221.836C254.706 223.031 254.227 224.179 253.606 225.279C253.271 225.805 253.032 226.474 252.889 227.287C252.745 228.1 252.602 228.913 252.458 229.726C252.172 230.586 251.909 231.399 251.67 232.164C251.478 232.881 251.383 233.336 251.383 233.527C251.096 234.579 250.881 235.631 250.737 236.683C250.642 237.687 250.402 238.571 250.02 239.337C249.972 239.815 249.876 240.197 249.733 240.484C249.59 240.771 249.351 240.938 249.016 240.986C248.681 240.986 248.227 240.843 247.653 240.556Z" fill="black"/>
<path d="M264.79 242.923C262.4 242.923 260.654 242.062 259.555 240.341C259.22 239.862 259.053 239.384 259.053 238.906C259.101 238.38 259.244 238.022 259.483 237.83C259.77 237.639 260.105 237.806 260.487 238.332C261.156 238.715 262.113 238.906 263.356 238.906C263.977 238.906 264.623 238.858 265.292 238.763C265.962 238.619 266.631 238.428 267.3 238.189C268.018 237.854 268.496 237.567 268.735 237.328C268.974 237.041 268.926 236.802 268.591 236.611H268.663C267.42 236.276 266.153 235.75 264.862 235.033C263.619 234.268 262.543 233.455 261.635 232.595C260.726 231.686 260.2 230.873 260.057 230.156C259.674 228.674 259.77 227.167 260.344 225.637C260.917 224.059 261.73 222.673 262.782 221.477C263.165 221.238 263.643 220.951 264.217 220.617C264.79 220.234 265.245 220.019 265.579 219.971V220.043C266.488 219.087 267.587 218.322 268.878 217.748C270.217 217.174 271.628 216.648 273.11 216.17L274.186 216.026C274.759 215.931 275.237 215.883 275.62 215.883C275.572 215.883 275.668 215.931 275.907 216.026C276.146 216.074 276.361 216.122 276.552 216.17C276.839 216.313 277.078 216.385 277.27 216.385C277.891 216.481 278.465 216.768 278.991 217.246C279.517 217.724 279.923 218.298 280.21 218.967C280.545 219.589 280.664 220.186 280.569 220.76C280.473 221.669 280.186 222.482 279.708 223.199C279.278 223.916 278.752 224.322 278.13 224.418C278.226 224.37 278.154 224.299 277.915 224.203C277.724 224.059 277.509 223.916 277.27 223.773L277.054 223.916C277.054 223.916 277.03 223.868 276.983 223.773C276.983 223.629 276.935 223.462 276.839 223.271C276.696 222.984 276.624 222.673 276.624 222.338C276.624 221.956 276.648 221.549 276.696 221.119C276.791 220.593 276.791 220.282 276.696 220.186C276.648 220.091 276.337 220.019 275.763 219.971C275.094 219.828 274.114 219.947 272.823 220.33C271.58 220.712 270.528 221.238 269.667 221.908C268.615 222.577 267.731 223.223 267.014 223.844C266.296 224.418 265.723 224.992 265.292 225.566C264.862 226.092 264.48 226.713 264.145 227.43C263.906 227.765 263.691 228.1 263.499 228.435C263.356 228.721 263.284 228.984 263.284 229.224C263.284 229.75 263.667 230.299 264.432 230.873C265.245 231.399 266.44 232.021 268.018 232.738C269.261 233.264 270.313 233.838 271.173 234.459C272.034 235.081 272.632 235.798 272.966 236.611C273.062 236.802 273.086 237.041 273.038 237.328C273.038 237.567 272.99 237.735 272.895 237.83C272.99 237.926 273.038 237.998 273.038 238.046V237.974C273.421 238.548 273.421 239.145 273.038 239.767C272.703 240.388 272.106 240.938 271.245 241.416C270.432 241.847 269.428 242.182 268.233 242.421H268.305C267.683 242.612 267.061 242.755 266.44 242.851C265.866 242.899 265.316 242.923 264.79 242.923Z" fill="black"/>
<path d="M289.09 244.142C286.987 244.142 285.265 243.353 283.927 241.775C282.588 240.149 281.942 238.141 281.99 235.75C282.086 234.029 282.42 232.188 282.994 230.228C283.616 228.219 284.429 226.307 285.433 224.49C286.437 222.625 287.536 220.999 288.732 219.613C289.927 218.226 291.17 217.246 292.461 216.672C292.939 216.433 293.441 216.242 293.967 216.098C294.541 215.955 295.115 215.883 295.689 215.883C296.215 215.883 296.764 215.979 297.338 216.17C297.912 216.313 298.39 216.481 298.773 216.672C299.585 217.007 300.207 217.413 300.637 217.891C301.068 218.369 301.45 219.111 301.785 220.115C301.928 221.023 302 221.669 302 222.051C302 222.434 301.88 223.008 301.641 223.773C301.068 225.494 300.327 226.976 299.418 228.219C298.51 229.463 297.29 230.515 295.76 231.375C295.378 231.614 294.924 231.806 294.398 231.949C293.92 232.045 293.418 232.092 292.892 232.092C291.935 232.092 291.003 231.925 290.094 231.59C289.234 231.208 288.541 230.658 288.015 229.941L287.513 229.367L287.297 229.941C286.819 231.232 286.437 232.427 286.15 233.527C285.911 234.627 285.791 235.631 285.791 236.539C285.791 237.113 285.839 237.663 285.935 238.189C286.078 238.715 286.269 239.169 286.509 239.552C286.7 239.839 287.011 240.054 287.441 240.197C287.919 240.293 288.421 240.341 288.947 240.341C289.282 240.341 289.616 240.341 289.951 240.341C290.334 240.293 290.692 240.197 291.027 240.054C291.84 239.767 292.485 239.456 292.963 239.121C293.489 238.787 294.015 238.428 294.541 238.046L294.828 237.902H294.756C295.33 237.615 295.832 237.328 296.262 237.041C296.741 236.754 296.98 236.611 296.98 236.611C297.171 236.611 297.362 236.491 297.553 236.252C297.936 236.061 298.414 236.133 298.988 236.468C299.609 236.802 299.92 237.233 299.92 237.759C299.872 237.998 299.657 238.38 299.275 238.906C298.892 239.384 298.462 239.839 297.984 240.269C297.553 240.699 297.195 240.938 296.908 240.986C296.86 241.034 296.693 241.13 296.406 241.273C296.119 241.369 295.928 241.464 295.832 241.56H295.904C295.473 242.134 295.043 242.421 294.613 242.421H294.039C293.848 242.755 293.226 243.138 292.174 243.568C291.122 243.951 290.095 244.142 289.09 244.142ZM292.318 228.363C293.178 228.363 293.92 228.124 294.541 227.646C295.211 227.12 295.784 226.546 296.262 225.924C297.219 224.633 297.769 223.39 297.912 222.195C298.103 220.951 297.96 220.091 297.482 219.613C297.195 219.469 296.932 219.397 296.693 219.397C296.501 219.35 296.095 219.421 295.473 219.613C295.043 219.708 294.446 220.067 293.68 220.688C292.915 221.31 292.15 222.003 291.385 222.768C290.668 223.533 290.118 224.179 289.736 224.705L288.804 226.211C289.186 226.068 289.545 225.996 289.879 225.996C290.262 225.948 290.477 225.972 290.525 226.068C290.525 226.498 290.597 226.904 290.74 227.287C290.931 227.622 291.146 227.885 291.385 228.076C291.672 228.267 291.983 228.363 292.318 228.363Z" fill="black"/>
<defs>
<linearGradient id="paint0_linear_1656_23127" x1="49" y1="164.739" x2="269.595" y2="85.9299" gradientUnits="userSpaceOnUse">
<stop stop-color="#49B954"/>
<stop offset="1" stop-color="#99CA4A"/>
</linearGradient>
<linearGradient id="paint1_linear_1656_23127" x1="248" y1="0.500026" x2="15.6925" y2="62.3037" gradientUnits="userSpaceOnUse">
<stop stop-color="#00648D"/>
<stop offset="1" stop-color="#10A8BC"/>
</linearGradient>
</defs>
</svg>
