<svg width="303" height="261" viewBox="0 0 303 261" fill="none" xmlns="http://www.w3.org/2000/svg">
<g clip-path="url(#clip0_712_764)">
<path fill-rule="evenodd" clip-rule="evenodd" d="M49.5 96.841C49.6136 96.841 49.727 96.8398 49.8401 96.8374C50.2172 96.8296 50.5912 96.8085 50.9624 96.7748C50.4776 96.792 49.9902 96.8141 49.5 96.841Z" fill="black"/>
<path fill-rule="evenodd" clip-rule="evenodd" d="M223.363 133.339C215.113 156.434 205.704 182.77 183.645 187.321C166.39 190.88 153.676 180.029 141.198 164.72C136.864 165.36 132.474 165.43 128.032 164.807C106.497 161.784 93.0675 142.302 81.1182 124.967C71.8784 111.563 63.5235 99.4422 52.9903 97.2081C55.2311 97.5111 58.3293 98.0967 61.6148 99.2244C64.3337 100.158 65.8782 101.385 67.3357 102.543C68.7528 103.669 70.0876 104.729 72.3393 105.391C75.8621 106.426 79.6619 104.108 82.8481 102.164C83.0749 102.026 83.2986 101.889 83.5188 101.756C83.9724 101.482 84.4068 101.207 84.8333 100.938C87.0033 99.5673 88.9683 98.3263 92.1996 97.882C96.384 97.3066 100.706 98.4436 104.1 99.5859C108.284 100.994 112.265 102.334 117.025 100.219C122.769 97.6667 129.062 87.5506 133.24 80.8357C135.707 76.8703 137.436 74.0909 137.878 74.756C138.292 75.3778 136.432 80.1948 133.752 87.1348C128.713 100.187 120.774 120.747 119.607 135.033C130.729 101.065 146.617 79.879 150.589 75.7507C154.561 71.6224 162.266 67.6306 170.846 72.7659C182.564 79.7788 173.031 99.2244 173.031 99.2244C173.031 99.2244 165.881 94.0529 160.718 93.6542C154.369 93.1639 147.984 96.4741 147.213 102.805C146.441 109.139 151.826 114.062 158.136 114.94C165.285 115.936 174.62 108.574 174.62 108.574C174.62 108.574 183.059 112.022 188.721 111.956C192.595 111.911 195.306 110.316 198.041 108.706C198.64 108.354 199.25 107.948 199.879 107.53C201.999 106.122 204.339 104.568 207.191 104.397C209.437 104.262 211.224 105.176 212.933 106.051C213.653 106.42 214.36 106.781 215.081 107.054C217.693 108.043 221.093 108.227 224.072 107.63C226.952 107.053 228.771 105.577 230.925 103.83C232.633 102.445 234.552 100.889 237.378 99.4734C239.565 98.3781 242.715 97.7049 245.105 97.3211C235.194 100.22 229.611 115.85 223.363 133.339ZM248.204 96.8445C247.125 96.8697 246.093 97.0321 245.105 97.3211C247.056 97.0078 248.5 96.8873 248.5 96.8873C248.5 96.8873 248.396 96.8708 248.204 96.8445ZM248.137 96.8356L248.204 96.8445C248.302 96.8422 248.401 96.8411 248.5 96.8411C248.455 96.8411 248.409 96.8409 248.364 96.8403C248.288 96.8395 248.213 96.8379 248.137 96.8356ZM248.137 96.8356C247.536 96.8175 246.95 96.7541 246.377 96.6474C247.168 96.7141 247.778 96.7878 248.137 96.8356ZM52.878 96.4839C55.969 96.1923 60.5433 95.9635 63.7994 96.6883C65.3169 97.0261 66.8944 97.8108 68.4402 98.5798C70.536 99.6224 72.5737 100.636 74.3253 100.468C76.8651 100.225 78.9158 98.5425 80.92 96.8985C81.8935 96.0999 82.856 95.3103 83.8583 94.699C83.9234 94.6593 83.988 94.6199 84.0521 94.5807C86.8989 92.8432 88.8642 91.6437 92.994 91.2669C96.6001 90.9379 99.8812 91.7075 102.726 92.9085C103.198 93.1079 103.661 93.315 104.119 93.5199C107.013 94.8139 109.709 96.0192 113.251 94.6488C117.416 93.0381 121.435 86.4803 125.331 80.1231C129.232 73.7584 133.01 67.5948 136.687 66.7986C144.035 65.2071 144.035 70.3786 144.035 70.3786C144.035 70.3786 158.136 54.974 173.825 62.2222C197.079 72.9648 178.79 102.805 178.79 102.805C178.79 102.805 184.659 105.707 188.721 105.988C192.689 106.263 195.352 104.314 198.069 102.324L198.072 102.322L198.074 102.32C200.58 100.486 203.13 98.6182 206.793 98.4286C210.204 98.2521 212.728 99.4312 215.255 100.612L215.26 100.614C217.771 101.786 220.285 102.96 223.675 102.805C225.241 102.733 227.133 101.573 229.172 100.322C230.973 99.2168 232.888 98.0414 234.796 97.4841C238.932 96.2757 243.696 96.4215 246.377 96.6474C235.614 94.6438 229.707 77.3767 223.098 58.0569C214.77 33.7112 205.326 6.10552 183.645 1.67477C165.639 -2.00507 152.458 9.81205 139.229 26.2611C135.544 25.8559 131.811 25.8831 128.032 26.4185C106.082 29.528 92.6563 49.8762 80.7611 67.9052C71.621 81.7583 63.3843 94.2421 52.878 96.4839ZM49.8401 96.8374C50.2172 96.8296 50.5912 96.8085 50.9624 96.7748C51.2257 96.7508 51.4876 96.7205 51.748 96.6838C52.1276 96.6304 52.5043 96.5636 52.878 96.4839C51.4682 96.6169 50.3669 96.7629 49.8401 96.8374ZM49.7967 96.8436C50.8845 96.8628 51.9481 96.987 52.9903 97.2081C50.8564 96.9195 49.5 96.8873 49.5 96.8873C49.5 96.8873 49.6041 96.8711 49.7967 96.8436ZM49.7967 96.8436L49.8401 96.8374C49.727 96.8398 49.6136 96.841 49.5 96.841C49.5991 96.841 49.698 96.8419 49.7967 96.8436ZM159.526 99.2244C163.299 99.2244 168.662 104.397 168.662 104.397C168.662 104.397 163.498 108.574 159.526 108.574C156.29 108.574 152.836 105.963 153.568 102.805C154.181 100.158 156.812 99.2244 159.526 99.2244Z" fill="black"/>
<path d="M0.5 207.755H19.3355C23.4377 207.755 26.5061 208.73 28.5406 210.681C30.5917 212.633 31.6173 215.409 31.6173 219.011C31.6173 222.714 30.5 225.607 28.2654 227.692C26.0475 229.776 22.654 230.819 18.0848 230.819H11.8813V244.427H0.5V207.755ZM11.8813 223.389H14.6579C16.8424 223.389 18.3766 223.014 19.2604 222.263C20.1442 221.496 20.5861 220.521 20.5861 219.337C20.5861 218.186 20.2026 217.21 19.4355 216.41C18.6684 215.609 17.2259 215.209 15.1081 215.209H11.8813V223.389Z" fill="black"/>
<path d="M36.938 207.755H47.1437V244.427H36.938V207.755Z" fill="black"/>
<path d="M62.6203 226.466L52.8899 225.44C53.2567 223.739 53.782 222.405 54.4657 221.438C55.1661 220.454 56.1667 219.603 57.4674 218.886C58.4013 218.369 59.6853 217.969 61.3196 217.686C62.9538 217.402 64.7214 217.26 66.6225 217.26C69.6742 217.26 72.1255 217.436 73.9766 217.786C75.8276 218.119 77.3701 218.828 78.6041 219.912C79.4713 220.662 80.155 221.73 80.6553 223.114C81.1556 224.481 81.4057 225.791 81.4057 227.041V238.773C81.4057 240.024 81.4807 241.008 81.6308 241.725C81.7976 242.426 82.1478 243.326 82.6814 244.427H73.1261C72.7426 243.743 72.4924 243.226 72.3757 242.876C72.259 242.509 72.1422 241.942 72.0255 241.175C70.6914 242.459 69.3657 243.376 68.0483 243.927C66.2473 244.66 64.1545 245.027 61.7698 245.027C58.6014 245.027 56.1917 244.293 54.5408 242.826C52.9065 241.358 52.0894 239.549 52.0894 237.398C52.0894 235.38 52.6814 233.72 53.8654 232.42C55.0494 231.119 57.234 230.152 60.4191 229.518C64.2378 228.751 66.7142 228.217 67.8482 227.917C68.9821 227.6 70.1828 227.191 71.4502 226.691C71.4502 225.44 71.1917 224.565 70.6747 224.065C70.1578 223.564 69.249 223.314 67.9482 223.314C66.2806 223.314 65.0299 223.581 64.1961 224.115C63.5458 224.531 63.0205 225.315 62.6203 226.466ZM71.4502 231.819C70.0494 232.32 68.5903 232.761 67.0727 233.145C65.0049 233.695 63.6959 234.237 63.1456 234.771C62.5786 235.321 62.2951 235.947 62.2951 236.647C62.2951 237.448 62.5702 238.106 63.1206 238.623C63.6875 239.124 64.513 239.374 65.5969 239.374C66.7309 239.374 67.7815 239.099 68.7487 238.548C69.7326 237.998 70.4246 237.331 70.8248 236.547C71.2417 235.747 71.4502 234.713 71.4502 233.445V231.819Z" fill="black"/>
<path d="M87.2017 217.861H96.682V222.188C98.0994 220.421 99.5336 219.162 100.984 218.411C102.435 217.644 104.203 217.26 106.287 217.26C109.105 217.26 111.307 218.103 112.891 219.787C114.492 221.455 115.292 224.04 115.292 227.542V244.427H105.061V229.818C105.061 228.15 104.753 226.975 104.136 226.291C103.519 225.59 102.652 225.24 101.534 225.24C100.301 225.24 99.3001 225.707 98.533 226.641C97.7659 227.575 97.3824 229.251 97.3824 231.669V244.427H87.2017V217.861Z" fill="black"/>
<path d="M150.554 233.67H130.143C130.327 235.305 130.768 236.522 131.469 237.323C132.453 238.473 133.737 239.049 135.321 239.049C136.322 239.049 137.272 238.798 138.173 238.298C138.723 237.981 139.315 237.423 139.949 236.622L149.979 237.548C148.445 240.216 146.594 242.134 144.426 243.301C142.258 244.452 139.148 245.027 135.096 245.027C131.577 245.027 128.809 244.535 126.791 243.551C124.773 242.551 123.098 240.975 121.763 238.823C120.446 236.655 119.787 234.112 119.787 231.194C119.787 227.041 121.113 223.681 123.765 221.113C126.433 218.545 130.11 217.26 134.796 217.26C138.598 217.26 141.6 217.836 143.801 218.986C146.002 220.137 147.678 221.805 148.829 223.989C149.979 226.174 150.554 229.018 150.554 232.52V233.67ZM140.199 228.792C139.999 226.825 139.465 225.415 138.598 224.565C137.747 223.714 136.622 223.289 135.221 223.289C133.603 223.289 132.311 223.931 131.344 225.215C130.727 226.016 130.335 227.208 130.168 228.792H140.199Z" fill="black"/>
<path d="M167.207 207.755V217.861H172.81V225.29H167.207V234.721C167.207 235.855 167.315 236.605 167.532 236.972C167.865 237.539 168.449 237.823 169.283 237.823C170.033 237.823 171.084 237.606 172.434 237.172L173.185 244.202C170.667 244.752 168.315 245.027 166.131 245.027C163.596 245.027 161.728 244.702 160.528 244.052C159.327 243.401 158.435 242.417 157.851 241.1C157.284 239.766 157.001 237.614 157.001 234.646V225.29H153.249V217.861H157.001V212.983L167.207 207.755Z" fill="black"/>
<path d="M192.12 260.493C191.929 260.493 191.69 260.493 191.403 260.493C191.116 260.541 190.853 260.349 190.614 259.919C190.422 259.68 190.303 259.321 190.255 258.843C190.255 258.365 190.375 257.504 190.614 256.261C190.853 255.448 191.044 254.635 191.187 253.823C191.331 253.058 191.403 252.484 191.403 252.101C191.403 251.91 191.45 251.527 191.546 250.954C191.69 250.428 191.761 250.045 191.761 249.806C192 249.424 192.192 248.898 192.335 248.228C192.478 247.559 192.55 246.961 192.55 246.435C192.55 245.861 192.837 245.335 193.411 244.857C193.411 244.475 193.483 243.996 193.626 243.423C193.817 242.849 193.913 242.466 193.913 242.275C194.056 241.606 194.367 240.434 194.845 238.761C195.371 237.039 195.993 235.103 196.71 232.951C197.475 230.799 198.216 228.696 198.933 226.639C199.65 224.583 200.296 222.838 200.87 221.404C201.443 220.065 201.826 218.917 202.017 217.961C202.256 216.957 202.376 216.216 202.376 215.737C202.376 215.546 202.424 215.403 202.519 215.307C202.615 215.164 202.83 214.901 203.165 214.518C203.643 214.04 204.049 213.897 204.384 214.088C204.766 214.279 205.221 214.566 205.747 214.949C206.129 215.57 206.392 216.096 206.536 216.526C206.727 216.957 206.727 217.698 206.536 218.75C206.536 219.467 206.416 220.089 206.177 220.615C205.938 221.141 205.723 221.547 205.531 221.834C205.34 222.073 205.292 222.169 205.388 222.121C207.348 221.212 209.07 220.734 210.552 220.686C212.082 220.591 213.349 220.854 214.353 221.475C215.405 222.049 216.194 222.862 216.72 223.914C217.246 224.966 217.509 226.185 217.509 227.572C217.509 228.146 217.389 228.839 217.15 229.652C216.911 230.417 216.6 231.134 216.218 231.804C215.883 232.425 215.572 232.879 215.285 233.166C215.094 233.166 214.903 233.334 214.712 233.668C214.52 233.955 214.329 234.29 214.138 234.672C213.755 235.151 213.134 235.7 212.273 236.322C211.46 236.896 210.647 237.374 209.835 237.757C209.022 238.091 208.424 238.187 208.042 238.043C208.042 238.043 207.97 238.067 207.826 238.115C207.731 238.115 207.683 238.235 207.683 238.474C207.683 238.569 207.301 238.785 206.536 239.119C205.771 239.406 204.886 239.693 203.882 239.98C202.878 240.219 201.993 240.339 201.228 240.339C200.224 240.339 199.507 240.147 199.077 239.765C198.981 239.86 198.862 240.004 198.718 240.195C198.622 240.386 198.575 240.554 198.575 240.697C198.575 240.984 198.455 241.534 198.216 242.347C198.025 243.112 197.786 243.853 197.499 244.57C197.212 245.287 196.949 245.646 196.71 245.646C196.71 245.646 196.662 245.718 196.566 245.861C196.471 246.005 196.519 246.196 196.71 246.435C196.71 246.435 196.686 246.698 196.638 247.224C196.638 247.798 196.519 248.276 196.28 248.658C196.28 249.041 196.208 249.615 196.064 250.38C195.921 251.145 195.754 251.719 195.562 252.101C195.562 252.675 195.467 253.225 195.276 253.751C195.132 254.325 194.965 254.612 194.773 254.612C194.582 254.659 194.463 254.946 194.415 255.472C194.367 256.046 194.343 256.452 194.343 256.691C194.295 257.887 194.056 258.819 193.626 259.489C193.196 260.158 192.694 260.493 192.12 260.493ZM200.798 236.537C201.18 236.537 201.969 236.37 203.165 236.035C204.36 235.7 205.579 235.294 206.822 234.816C208.113 234.29 209.07 233.764 209.691 233.238C210.934 232.138 211.891 230.895 212.56 229.508C213.277 228.074 213.229 226.711 212.417 225.42C212.034 224.751 211.341 224.488 210.337 224.631C209.333 224.727 208.233 225.109 207.038 225.779C205.842 226.448 204.719 227.285 203.667 228.289C203.093 228.911 202.567 229.676 202.089 230.584C201.611 231.493 201.204 232.401 200.87 233.31C200.583 234.218 200.415 234.983 200.368 235.605C200.32 236.226 200.463 236.537 200.798 236.537Z" fill="black"/>
<path d="M238.032 244.283C237.554 243.805 237.076 243.16 236.598 242.347C236.12 241.486 235.737 240.506 235.45 239.406C235.355 239.024 235.307 238.498 235.307 237.828C235.355 237.159 235.355 236.681 235.307 236.394C235.164 236.729 234.924 237.087 234.59 237.47C234.303 237.804 234.016 238.091 233.729 238.33C233.538 238.522 233.108 238.904 232.438 239.478C231.769 240.004 231.099 240.434 230.43 240.769C228.852 241.773 227.537 242.323 226.485 242.419C225.481 242.514 224.525 241.988 223.617 240.841C222.852 240.219 222.302 239.526 221.967 238.761C221.68 237.996 221.68 236.944 221.967 235.605C222.063 233.931 222.302 232.306 222.684 230.728C223.067 229.102 223.856 226.95 225.051 224.273C226.055 222.312 226.82 220.878 227.346 219.969C227.872 219.013 228.207 218.439 228.35 218.248C229.067 218.009 229.665 218.033 230.143 218.32C230.621 218.559 230.908 219.013 231.004 219.682C231.291 220.16 231.243 220.973 230.86 222.121C230.526 223.268 229.928 224.679 229.067 226.353C228.398 227.978 227.776 229.604 227.203 231.23C226.677 232.855 226.366 234.242 226.27 235.39C226.175 236.537 226.461 237.231 227.131 237.47C227.561 237.709 228.302 237.637 229.354 237.254C230.454 236.872 231.673 235.916 233.012 234.386C234.398 232.855 235.737 230.536 237.028 227.428C237.411 226.472 237.698 225.635 237.889 224.918C238.08 224.153 238.2 223.316 238.247 222.408C238.152 221.834 238.176 221.332 238.319 220.902C238.51 220.423 238.893 220.017 239.467 219.682C239.658 219.443 239.921 219.228 240.256 219.037C240.59 218.798 240.805 218.798 240.901 219.037L242.049 218.965C242.24 218.917 242.359 219.037 242.407 219.324C242.503 219.563 242.67 219.778 242.909 219.969C243.435 220.4 243.579 221.332 243.34 222.766C243.1 224.201 242.431 226.209 241.331 228.791C240.423 230.752 239.801 232.234 239.467 233.238C239.18 234.242 239.012 235.222 238.965 236.179C238.965 237.039 239.132 237.852 239.467 238.617C239.801 239.382 240.327 240.076 241.045 240.697C241.57 241.032 241.857 241.414 241.905 241.845C242.001 242.275 242.025 242.777 241.977 243.351C241.881 243.781 241.594 244.14 241.116 244.427C240.686 244.666 240.184 244.785 239.61 244.785C239.036 244.785 238.51 244.618 238.032 244.283Z" fill="black"/>
<path d="M248.153 241.056C247.675 240.769 247.316 240.482 247.077 240.195C246.838 239.908 246.719 239.502 246.719 238.976C246.719 238.259 246.814 237.517 247.006 236.752C247.197 235.94 247.388 235.151 247.579 234.386C247.675 233.525 247.795 232.664 247.938 231.804C248.129 230.895 248.464 230.058 248.942 229.293C249.468 227.476 250.018 225.683 250.592 223.914C251.165 222.097 251.667 220.232 252.098 218.32C252.719 216.55 253.269 214.996 253.747 213.658C254.273 212.271 254.919 210.526 255.684 208.422C256.114 207.226 256.473 205.959 256.76 204.62C257.094 203.234 257.596 201.991 258.266 200.891C258.553 200.46 258.768 200.102 258.911 199.815C259.102 199.48 259.294 199.169 259.485 198.883C259.533 198.691 259.676 198.572 259.915 198.524C260.202 198.476 260.513 198.5 260.848 198.596C261.182 198.691 261.445 198.859 261.637 199.098C261.78 199.05 261.947 199.193 262.139 199.528C262.378 199.815 262.593 200.15 262.784 200.532C262.975 200.915 263.047 201.249 262.999 201.536C262.999 201.728 262.951 201.991 262.856 202.325C262.808 202.66 262.688 202.971 262.497 203.258C262.306 203.449 262.115 203.736 261.923 204.118C261.78 204.453 261.541 204.931 261.206 205.553C261.015 206.174 260.848 206.82 260.704 207.489C260.561 208.111 260.369 208.685 260.13 209.211C259.939 209.784 259.7 210.334 259.413 210.86C259.174 211.386 259.007 211.817 258.911 212.151C258.576 213.251 258.17 214.327 257.692 215.379C257.262 216.431 256.879 217.554 256.544 218.75C256.21 219.897 255.875 221.093 255.54 222.336C255.206 223.531 254.727 224.679 254.106 225.779C253.771 226.305 253.532 226.974 253.389 227.787C253.245 228.6 253.102 229.413 252.958 230.226C252.672 231.086 252.409 231.899 252.17 232.664C251.978 233.381 251.883 233.836 251.883 234.027C251.596 235.079 251.381 236.131 251.237 237.183C251.142 238.187 250.902 239.071 250.52 239.837C250.472 240.315 250.376 240.697 250.233 240.984C250.09 241.271 249.851 241.438 249.516 241.486C249.181 241.486 248.727 241.343 248.153 241.056Z" fill="black"/>
<path d="M265.29 243.423C262.9 243.423 261.154 242.562 260.055 240.841C259.72 240.362 259.553 239.884 259.553 239.406C259.601 238.88 259.744 238.522 259.983 238.33C260.27 238.139 260.605 238.306 260.987 238.832C261.656 239.215 262.613 239.406 263.856 239.406C264.477 239.406 265.123 239.358 265.792 239.263C266.462 239.119 267.131 238.928 267.8 238.689C268.518 238.354 268.996 238.067 269.235 237.828C269.474 237.541 269.426 237.302 269.091 237.111H269.163C267.92 236.776 266.653 236.25 265.362 235.533C264.119 234.768 263.043 233.955 262.135 233.095C261.226 232.186 260.7 231.373 260.557 230.656C260.174 229.174 260.27 227.667 260.844 226.137C261.417 224.559 262.23 223.173 263.282 221.977C263.665 221.738 264.143 221.451 264.717 221.117C265.29 220.734 265.745 220.519 266.079 220.471V220.543C266.988 219.587 268.087 218.822 269.378 218.248C270.717 217.674 272.128 217.148 273.61 216.67L274.686 216.526C275.259 216.431 275.737 216.383 276.12 216.383C276.072 216.383 276.168 216.431 276.407 216.526C276.646 216.574 276.861 216.622 277.052 216.67C277.339 216.813 277.578 216.885 277.77 216.885C278.391 216.981 278.965 217.268 279.491 217.746C280.017 218.224 280.423 218.798 280.71 219.467C281.045 220.089 281.164 220.686 281.069 221.26C280.973 222.169 280.686 222.982 280.208 223.699C279.778 224.416 279.252 224.822 278.63 224.918C278.726 224.87 278.654 224.799 278.415 224.703C278.224 224.559 278.009 224.416 277.77 224.273L277.554 224.416C277.554 224.416 277.53 224.368 277.483 224.273C277.483 224.129 277.435 223.962 277.339 223.771C277.196 223.484 277.124 223.173 277.124 222.838C277.124 222.456 277.148 222.049 277.196 221.619C277.291 221.093 277.291 220.782 277.196 220.686C277.148 220.591 276.837 220.519 276.263 220.471C275.594 220.328 274.614 220.447 273.323 220.83C272.08 221.212 271.028 221.738 270.167 222.408C269.115 223.077 268.231 223.723 267.514 224.344C266.796 224.918 266.223 225.492 265.792 226.066C265.362 226.592 264.98 227.213 264.645 227.93C264.406 228.265 264.191 228.6 263.999 228.935C263.856 229.221 263.784 229.484 263.784 229.724C263.784 230.25 264.167 230.799 264.932 231.373C265.745 231.899 266.94 232.521 268.518 233.238C269.761 233.764 270.813 234.338 271.673 234.959C272.534 235.581 273.132 236.298 273.466 237.111C273.562 237.302 273.586 237.541 273.538 237.828C273.538 238.067 273.49 238.235 273.395 238.33C273.49 238.426 273.538 238.498 273.538 238.546V238.474C273.921 239.048 273.921 239.645 273.538 240.267C273.203 240.888 272.606 241.438 271.745 241.916C270.932 242.347 269.928 242.682 268.733 242.921H268.805C268.183 243.112 267.561 243.255 266.94 243.351C266.366 243.399 265.816 243.423 265.29 243.423Z" fill="black"/>
<path d="M289.59 244.642C287.487 244.642 285.765 243.853 284.427 242.275C283.088 240.649 282.442 238.641 282.49 236.25C282.586 234.529 282.92 232.688 283.494 230.728C284.116 228.719 284.929 226.807 285.933 224.99C286.937 223.125 288.036 221.499 289.232 220.113C290.427 218.726 291.67 217.746 292.961 217.172C293.439 216.933 293.941 216.742 294.467 216.598C295.041 216.455 295.615 216.383 296.189 216.383C296.715 216.383 297.264 216.479 297.838 216.67C298.412 216.813 298.89 216.981 299.273 217.172C300.085 217.507 300.707 217.913 301.137 218.391C301.568 218.869 301.95 219.611 302.285 220.615C302.428 221.523 302.5 222.169 302.5 222.551C302.5 222.934 302.38 223.508 302.141 224.273C301.568 225.994 300.827 227.476 299.918 228.719C299.01 229.963 297.79 231.015 296.26 231.875C295.878 232.114 295.424 232.306 294.898 232.449C294.42 232.545 293.918 232.592 293.392 232.592C292.435 232.592 291.503 232.425 290.594 232.09C289.734 231.708 289.041 231.158 288.515 230.441L288.013 229.867L287.797 230.441C287.319 231.732 286.937 232.927 286.65 234.027C286.411 235.127 286.291 236.131 286.291 237.039C286.291 237.613 286.339 238.163 286.435 238.689C286.578 239.215 286.769 239.669 287.009 240.052C287.2 240.339 287.511 240.554 287.941 240.697C288.419 240.793 288.921 240.841 289.447 240.841C289.782 240.841 290.116 240.841 290.451 240.841C290.834 240.793 291.192 240.697 291.527 240.554C292.34 240.267 292.985 239.956 293.463 239.621C293.989 239.287 294.515 238.928 295.041 238.546L295.328 238.402H295.256C295.83 238.115 296.332 237.828 296.762 237.541C297.241 237.254 297.48 237.111 297.48 237.111C297.671 237.111 297.862 236.991 298.053 236.752C298.436 236.561 298.914 236.633 299.488 236.968C300.109 237.302 300.42 237.733 300.42 238.259C300.372 238.498 300.157 238.88 299.775 239.406C299.392 239.884 298.962 240.339 298.484 240.769C298.053 241.199 297.695 241.438 297.408 241.486C297.36 241.534 297.193 241.63 296.906 241.773C296.619 241.869 296.428 241.964 296.332 242.06H296.404C295.973 242.634 295.543 242.921 295.113 242.921H294.539C294.348 243.255 293.726 243.638 292.674 244.068C291.622 244.451 290.595 244.642 289.59 244.642ZM292.818 228.863C293.678 228.863 294.42 228.624 295.041 228.146C295.711 227.62 296.284 227.046 296.762 226.424C297.719 225.133 298.269 223.89 298.412 222.695C298.603 221.451 298.46 220.591 297.982 220.113C297.695 219.969 297.432 219.897 297.193 219.897C297.001 219.85 296.595 219.921 295.973 220.113C295.543 220.208 294.946 220.567 294.18 221.188C293.415 221.81 292.65 222.503 291.885 223.268C291.168 224.033 290.618 224.679 290.236 225.205L289.304 226.711C289.686 226.568 290.045 226.496 290.379 226.496C290.762 226.448 290.977 226.472 291.025 226.568C291.025 226.998 291.097 227.404 291.24 227.787C291.431 228.122 291.646 228.385 291.885 228.576C292.172 228.767 292.483 228.863 292.818 228.863Z" fill="black"/>
</g>
<defs>
<clipPath id="clip0_712_764">
<rect width="302" height="260" fill="white" transform="translate(0.5 0.5)"/>
</clipPath>
</defs>
</svg>
