<svg width="302" height="153" viewBox="0 0 302 153" fill="none" xmlns="http://www.w3.org/2000/svg">
<g clip-path="url(#clip0_712_801)">
<path fill-rule="evenodd" clip-rule="evenodd" d="M44 36.6043C44 36.6043 52.9371 35.2117 58.2994 36.4053C61.8743 37.2011 65.7817 40.477 68.8253 40.1851C72.5988 39.8236 75.2926 36.2858 78.3583 34.416C81.3114 32.6147 83.2711 31.3692 87.494 30.9839C91.1001 30.6549 94.3812 31.4245 97.226 32.6255C100.681 34.0847 103.648 35.9532 107.751 34.3658C116.085 31.1424 123.838 8.10712 131.187 6.51562C138.535 4.92412 138.535 10.0956 138.535 10.0956C138.535 10.0956 152.636 -5.30898 168.325 1.93922C191.579 12.6818 173.29 42.522 173.29 42.522C173.29 42.522 179.159 45.424 183.221 45.705C187.191 45.98 189.854 44.029 192.572 42.039C195.078 40.204 197.629 38.3353 201.293 38.1456C204.704 37.9691 207.228 39.1482 209.755 40.329C212.268 41.502 214.783 42.677 218.175 42.522C221.125 42.387 225.229 38.3894 229.296 37.2011C235.453 35.4023 243 36.6043 243 36.6043C243 36.6043 235.85 37.2011 231.878 39.1904C225.488 42.391 223.736 46.312 218.572 47.347C215.593 47.944 212.193 47.76 209.581 46.771C207.148 45.85 204.883 43.922 201.691 44.114C197.992 44.336 195.156 46.883 192.541 48.423C189.806 50.033 187.095 51.628 183.221 51.673C177.559 51.739 169.12 48.291 169.12 48.291C169.12 48.291 159.785 55.653 152.636 54.657C146.326 53.779 140.941 48.856 141.713 42.522C142.484 36.1911 148.869 32.8809 155.218 33.3712C160.381 33.7699 167.531 38.9414 167.531 38.9414C167.531 38.9414 177.064 19.4958 165.346 12.4829C156.766 7.34762 149.061 11.3394 145.089 15.4677C141.117 19.596 125.229 40.782 114.107 74.75C115.894 52.868 133.57 16.2642 132.378 14.473C131.187 12.6818 120.661 35.8764 111.525 39.9361C106.765 42.051 102.784 40.711 98.6 39.3029C95.206 38.1606 90.884 37.0236 86.6996 37.599C82.8332 38.1306 80.7798 39.803 78.0188 41.473C74.7042 43.478 70.6128 46.217 66.8393 45.108C62.2715 43.766 61.477 40.782 56.1148 38.9414C49.7006 36.7398 44 36.6043 44 36.6043ZM154.026 38.9414C157.799 38.9414 163.162 44.114 163.162 44.114C163.162 44.114 157.998 48.291 154.026 48.291C150.79 48.291 147.336 45.68 148.068 42.522C148.681 39.8746 151.312 38.9414 154.026 38.9414Z" fill="black"/>
<path d="M0 100.255H18.8355C22.9377 100.255 26.0061 101.23 28.0406 103.181C30.0917 105.133 31.1173 107.909 31.1173 111.511C31.1173 115.214 30 118.107 27.7654 120.192C25.5475 122.276 22.154 123.319 17.5848 123.319H11.3813V136.927H0V100.255ZM11.3813 115.889H14.1579C16.3424 115.889 17.8766 115.514 18.7604 114.763C19.6442 113.996 20.0861 113.021 20.0861 111.837C20.0861 110.686 19.7026 109.71 18.9355 108.91C18.1684 108.109 16.7259 107.709 14.6081 107.709H11.3813V115.889Z" fill="black"/>
<path d="M36.438 100.255H46.6437V136.927H36.438V100.255Z" fill="black"/>
<path d="M62.12 118.966L52.3896 117.94C52.7564 116.239 53.2817 114.905 53.9654 113.938C54.6658 112.954 55.6664 112.103 56.9671 111.386C57.901 110.869 59.185 110.469 60.8193 110.186C62.4535 109.902 64.2211 109.76 66.1222 109.76C69.1739 109.76 71.6252 109.936 73.4763 110.286C75.3273 110.619 76.8698 111.328 78.1038 112.412C78.971 113.162 79.6547 114.23 80.155 115.614C80.6553 116.981 80.9054 118.291 80.9054 119.541V131.273C80.9054 132.524 80.9804 133.508 81.1305 134.225C81.2973 134.926 81.6475 135.826 82.1811 136.927H72.6258C72.2423 136.243 71.9921 135.726 71.8754 135.376C71.7587 135.009 71.6419 134.442 71.5252 133.675C70.1911 134.959 68.8654 135.876 67.548 136.427C65.747 137.16 63.6542 137.527 61.2695 137.527C58.1011 137.527 55.6914 136.793 54.0405 135.326C52.4062 133.858 51.5891 132.049 51.5891 129.898C51.5891 127.88 52.1811 126.22 53.3651 124.92C54.5491 123.619 56.7337 122.652 59.9188 122.018C63.7375 121.251 66.2139 120.717 67.3479 120.417C68.4818 120.1 69.6825 119.691 70.9499 119.191C70.9499 117.94 70.6914 117.065 70.1744 116.565C69.6575 116.064 68.7487 115.814 67.4479 115.814C65.7803 115.814 64.5296 116.081 63.6958 116.615C63.0455 117.031 62.5202 117.815 62.12 118.966ZM70.9499 124.319C69.5491 124.82 68.09 125.261 66.5724 125.645C64.5046 126.195 63.1956 126.737 62.6453 127.271C62.0783 127.821 61.7948 128.447 61.7948 129.147C61.7948 129.948 62.0699 130.606 62.6203 131.123C63.1872 131.624 64.0127 131.874 65.0966 131.874C66.2306 131.874 67.2812 131.599 68.2484 131.048C69.2323 130.498 69.9243 129.831 70.3245 129.047C70.7414 128.247 70.9499 127.213 70.9499 125.945V124.319Z" fill="black"/>
<path d="M86.7014 110.361H96.1817V114.688C97.5991 112.921 99.0333 111.662 100.484 110.911C101.935 110.144 103.703 109.76 105.787 109.76C108.605 109.76 110.807 110.603 112.391 112.287C113.992 113.955 114.792 116.54 114.792 120.042V136.927H104.561V122.318C104.561 120.65 104.253 119.475 103.636 118.791C103.019 118.09 102.152 117.74 101.034 117.74C99.8003 117.74 98.7998 118.207 98.0327 119.141C97.2656 120.075 96.8821 121.751 96.8821 124.169V136.927H86.7014V110.361Z" fill="black"/>
<path d="M150.054 126.17H129.643C129.827 127.805 130.268 129.022 130.969 129.823C131.953 130.973 133.237 131.549 134.821 131.549C135.822 131.549 136.772 131.298 137.673 130.798C138.223 130.481 138.815 129.923 139.449 129.122L149.479 130.048C147.945 132.716 146.094 134.634 143.926 135.801C141.758 136.952 138.648 137.527 134.596 137.527C131.077 137.527 128.309 137.035 126.291 136.051C124.273 135.051 122.598 133.475 121.263 131.323C119.946 129.155 119.287 126.612 119.287 123.694C119.287 119.541 120.613 116.181 123.265 113.613C125.933 111.045 129.61 109.76 134.296 109.76C138.098 109.76 141.1 110.336 143.301 111.486C145.502 112.637 147.178 114.305 148.329 116.489C149.479 118.674 150.054 121.518 150.054 125.02V126.17ZM139.699 121.292C139.499 119.325 138.965 117.915 138.098 117.065C137.247 116.214 136.122 115.789 134.721 115.789C133.103 115.789 131.811 116.431 130.844 117.715C130.227 118.516 129.835 119.708 129.668 121.292H139.699Z" fill="black"/>
<path d="M166.707 100.255V110.361H172.31V117.79H166.707V127.221C166.707 128.355 166.815 129.105 167.032 129.472C167.365 130.039 167.949 130.323 168.783 130.323C169.533 130.323 170.584 130.106 171.934 129.672L172.685 136.702C170.167 137.252 167.815 137.527 165.631 137.527C163.096 137.527 161.228 137.202 160.028 136.552C158.827 135.901 157.935 134.917 157.351 133.6C156.784 132.266 156.501 130.114 156.501 127.146V117.79H152.749V110.361H156.501V105.483L166.707 100.255Z" fill="black"/>
<path d="M191.62 152.993C191.429 152.993 191.19 152.993 190.903 152.993C190.616 153.041 190.353 152.849 190.114 152.419C189.922 152.18 189.803 151.821 189.755 151.343C189.755 150.865 189.875 150.004 190.114 148.761C190.353 147.948 190.544 147.135 190.687 146.323C190.831 145.558 190.903 144.984 190.903 144.601C190.903 144.41 190.95 144.027 191.046 143.454C191.19 142.928 191.261 142.545 191.261 142.306C191.5 141.924 191.692 141.398 191.835 140.728C191.978 140.059 192.05 139.461 192.05 138.935C192.05 138.361 192.337 137.835 192.911 137.357C192.911 136.975 192.983 136.496 193.126 135.923C193.317 135.349 193.413 134.966 193.413 134.775C193.556 134.106 193.867 132.934 194.345 131.261C194.871 129.539 195.493 127.603 196.21 125.451C196.975 123.299 197.716 121.196 198.433 119.139C199.15 117.083 199.796 115.338 200.37 113.904C200.943 112.565 201.326 111.417 201.517 110.461C201.756 109.457 201.876 108.716 201.876 108.237C201.876 108.046 201.924 107.903 202.019 107.807C202.115 107.664 202.33 107.401 202.665 107.018C203.143 106.54 203.549 106.397 203.884 106.588C204.266 106.779 204.721 107.066 205.247 107.449C205.629 108.07 205.892 108.596 206.036 109.026C206.227 109.457 206.227 110.198 206.036 111.25C206.036 111.967 205.916 112.589 205.677 113.115C205.438 113.641 205.223 114.047 205.031 114.334C204.84 114.573 204.792 114.669 204.888 114.621C206.848 113.712 208.57 113.234 210.052 113.186C211.582 113.091 212.849 113.354 213.853 113.975C214.905 114.549 215.694 115.362 216.22 116.414C216.746 117.466 217.009 118.685 217.009 120.072C217.009 120.646 216.889 121.339 216.65 122.152C216.411 122.917 216.1 123.634 215.718 124.304C215.383 124.925 215.072 125.379 214.785 125.666C214.594 125.666 214.403 125.834 214.212 126.168C214.02 126.455 213.829 126.79 213.638 127.172C213.255 127.651 212.634 128.2 211.773 128.822C210.96 129.396 210.147 129.874 209.335 130.257C208.522 130.591 207.924 130.687 207.542 130.543C207.542 130.543 207.47 130.567 207.326 130.615C207.231 130.615 207.183 130.735 207.183 130.974C207.183 131.069 206.801 131.285 206.036 131.619C205.271 131.906 204.386 132.193 203.382 132.48C202.378 132.719 201.493 132.839 200.728 132.839C199.724 132.839 199.007 132.647 198.577 132.265C198.481 132.36 198.362 132.504 198.218 132.695C198.122 132.886 198.075 133.054 198.075 133.197C198.075 133.484 197.955 134.034 197.716 134.847C197.525 135.612 197.286 136.353 196.999 137.07C196.712 137.787 196.449 138.146 196.21 138.146C196.21 138.146 196.162 138.218 196.066 138.361C195.971 138.505 196.019 138.696 196.21 138.935C196.21 138.935 196.186 139.198 196.138 139.724C196.138 140.298 196.019 140.776 195.78 141.158C195.78 141.541 195.708 142.115 195.564 142.88C195.421 143.645 195.254 144.219 195.062 144.601C195.062 145.175 194.967 145.725 194.776 146.251C194.632 146.825 194.465 147.112 194.273 147.112C194.082 147.159 193.963 147.446 193.915 147.972C193.867 148.546 193.843 148.952 193.843 149.191C193.795 150.387 193.556 151.319 193.126 151.989C192.696 152.658 192.194 152.993 191.62 152.993ZM200.298 129.037C200.68 129.037 201.469 128.87 202.665 128.535C203.86 128.2 205.079 127.794 206.322 127.316C207.613 126.79 208.57 126.264 209.191 125.738C210.434 124.638 211.391 123.395 212.06 122.008C212.777 120.574 212.729 119.211 211.917 117.92C211.534 117.251 210.841 116.988 209.837 117.131C208.833 117.227 207.733 117.609 206.538 118.279C205.342 118.948 204.219 119.785 203.167 120.789C202.593 121.411 202.067 122.176 201.589 123.084C201.111 123.993 200.704 124.901 200.37 125.81C200.083 126.718 199.915 127.483 199.868 128.105C199.82 128.726 199.963 129.037 200.298 129.037Z" fill="black"/>
<path d="M237.532 136.783C237.054 136.305 236.576 135.66 236.098 134.847C235.62 133.986 235.237 133.006 234.95 131.906C234.855 131.524 234.807 130.998 234.807 130.328C234.855 129.659 234.855 129.181 234.807 128.894C234.664 129.229 234.424 129.587 234.09 129.97C233.803 130.304 233.516 130.591 233.229 130.83C233.038 131.022 232.608 131.404 231.938 131.978C231.269 132.504 230.599 132.934 229.93 133.269C228.352 134.273 227.037 134.823 225.985 134.919C224.981 135.014 224.025 134.488 223.117 133.341C222.352 132.719 221.802 132.026 221.467 131.261C221.18 130.496 221.18 129.444 221.467 128.105C221.563 126.431 221.802 124.806 222.184 123.228C222.567 121.602 223.356 119.45 224.551 116.773C225.555 114.812 226.32 113.378 226.846 112.469C227.372 111.513 227.707 110.939 227.85 110.748C228.567 110.509 229.165 110.533 229.643 110.82C230.121 111.059 230.408 111.513 230.504 112.182C230.791 112.66 230.743 113.473 230.36 114.621C230.026 115.768 229.428 117.179 228.567 118.853C227.898 120.478 227.276 122.104 226.703 123.73C226.177 125.355 225.866 126.742 225.77 127.89C225.675 129.037 225.961 129.731 226.631 129.97C227.061 130.209 227.802 130.137 228.854 129.754C229.954 129.372 231.173 128.416 232.512 126.886C233.898 125.355 235.237 123.036 236.528 119.928C236.911 118.972 237.198 118.135 237.389 117.418C237.58 116.653 237.7 115.816 237.747 114.908C237.652 114.334 237.676 113.832 237.819 113.402C238.01 112.923 238.393 112.517 238.967 112.182C239.158 111.943 239.421 111.728 239.756 111.537C240.09 111.298 240.305 111.298 240.401 111.537L241.549 111.465C241.74 111.417 241.859 111.537 241.907 111.824C242.003 112.063 242.17 112.278 242.409 112.469C242.935 112.9 243.079 113.832 242.84 115.266C242.6 116.701 241.931 118.709 240.831 121.291C239.923 123.252 239.301 124.734 238.967 125.738C238.68 126.742 238.512 127.722 238.465 128.679C238.465 129.539 238.632 130.352 238.967 131.117C239.301 131.882 239.827 132.576 240.545 133.197C241.07 133.532 241.357 133.914 241.405 134.345C241.501 134.775 241.525 135.277 241.477 135.851C241.381 136.281 241.094 136.64 240.616 136.927C240.186 137.166 239.684 137.285 239.11 137.285C238.536 137.285 238.01 137.118 237.532 136.783Z" fill="black"/>
<path d="M247.653 133.556C247.175 133.269 246.816 132.982 246.577 132.695C246.338 132.408 246.219 132.002 246.219 131.476C246.219 130.759 246.314 130.017 246.506 129.252C246.697 128.44 246.888 127.651 247.079 126.886C247.175 126.025 247.295 125.164 247.438 124.304C247.629 123.395 247.964 122.558 248.442 121.793C248.968 119.976 249.518 118.183 250.092 116.414C250.665 114.597 251.167 112.732 251.598 110.82C252.219 109.05 252.769 107.496 253.247 106.158C253.773 104.771 254.419 103.026 255.184 100.922C255.614 99.726 255.973 98.459 256.26 97.12C256.594 95.734 257.096 94.491 257.766 93.391C258.053 92.96 258.268 92.602 258.411 92.315C258.602 91.98 258.794 91.669 258.985 91.383C259.033 91.191 259.176 91.072 259.415 91.024C259.702 90.976 260.013 91 260.348 91.096C260.682 91.191 260.945 91.359 261.137 91.598C261.28 91.55 261.447 91.693 261.639 92.028C261.878 92.315 262.093 92.65 262.284 93.032C262.475 93.415 262.547 93.749 262.499 94.036C262.499 94.228 262.451 94.491 262.356 94.825C262.308 95.16 262.188 95.471 261.997 95.758C261.806 95.949 261.615 96.236 261.423 96.618C261.28 96.953 261.041 97.431 260.706 98.053C260.515 98.674 260.348 99.32 260.204 99.989C260.061 100.611 259.869 101.185 259.63 101.711C259.439 102.284 259.2 102.834 258.913 103.36C258.674 103.886 258.507 104.317 258.411 104.651C258.076 105.751 257.67 106.827 257.192 107.879C256.762 108.931 256.379 110.054 256.044 111.25C255.71 112.397 255.375 113.593 255.04 114.836C254.706 116.031 254.227 117.179 253.606 118.279C253.271 118.805 253.032 119.474 252.889 120.287C252.745 121.1 252.602 121.913 252.458 122.726C252.172 123.586 251.909 124.399 251.67 125.164C251.478 125.881 251.383 126.336 251.383 126.527C251.096 127.579 250.881 128.631 250.737 129.683C250.642 130.687 250.402 131.571 250.02 132.337C249.972 132.815 249.876 133.197 249.733 133.484C249.59 133.771 249.351 133.938 249.016 133.986C248.681 133.986 248.227 133.843 247.653 133.556Z" fill="black"/>
<path d="M264.79 135.923C262.4 135.923 260.654 135.062 259.555 133.341C259.22 132.862 259.053 132.384 259.053 131.906C259.101 131.38 259.244 131.022 259.483 130.83C259.77 130.639 260.105 130.806 260.487 131.332C261.156 131.715 262.113 131.906 263.356 131.906C263.977 131.906 264.623 131.858 265.292 131.763C265.962 131.619 266.631 131.428 267.3 131.189C268.018 130.854 268.496 130.567 268.735 130.328C268.974 130.041 268.926 129.802 268.591 129.611H268.663C267.42 129.276 266.153 128.75 264.862 128.033C263.619 127.268 262.543 126.455 261.635 125.595C260.726 124.686 260.2 123.873 260.057 123.156C259.674 121.674 259.77 120.167 260.344 118.637C260.917 117.059 261.73 115.673 262.782 114.477C263.165 114.238 263.643 113.951 264.217 113.617C264.79 113.234 265.245 113.019 265.579 112.971V113.043C266.488 112.087 267.587 111.322 268.878 110.748C270.217 110.174 271.628 109.648 273.11 109.17L274.186 109.026C274.759 108.931 275.237 108.883 275.62 108.883C275.572 108.883 275.668 108.931 275.907 109.026C276.146 109.074 276.361 109.122 276.552 109.17C276.839 109.313 277.078 109.385 277.27 109.385C277.891 109.481 278.465 109.768 278.991 110.246C279.517 110.724 279.923 111.298 280.21 111.967C280.545 112.589 280.664 113.186 280.569 113.76C280.473 114.669 280.186 115.482 279.708 116.199C279.278 116.916 278.752 117.322 278.13 117.418C278.226 117.37 278.154 117.299 277.915 117.203C277.724 117.059 277.509 116.916 277.27 116.773L277.054 116.916C277.054 116.916 277.03 116.868 276.983 116.773C276.983 116.629 276.935 116.462 276.839 116.271C276.696 115.984 276.624 115.673 276.624 115.338C276.624 114.956 276.648 114.549 276.696 114.119C276.791 113.593 276.791 113.282 276.696 113.186C276.648 113.091 276.337 113.019 275.763 112.971C275.094 112.828 274.114 112.947 272.823 113.33C271.58 113.712 270.528 114.238 269.667 114.908C268.615 115.577 267.731 116.223 267.014 116.844C266.296 117.418 265.723 117.992 265.292 118.566C264.862 119.092 264.48 119.713 264.145 120.43C263.906 120.765 263.691 121.1 263.499 121.435C263.356 121.721 263.284 121.984 263.284 122.224C263.284 122.75 263.667 123.299 264.432 123.873C265.245 124.399 266.44 125.021 268.018 125.738C269.261 126.264 270.313 126.838 271.173 127.459C272.034 128.081 272.632 128.798 272.966 129.611C273.062 129.802 273.086 130.041 273.038 130.328C273.038 130.567 272.99 130.735 272.895 130.83C272.99 130.926 273.038 130.998 273.038 131.046V130.974C273.421 131.548 273.421 132.145 273.038 132.767C272.703 133.388 272.106 133.938 271.245 134.416C270.432 134.847 269.428 135.182 268.233 135.421H268.305C267.683 135.612 267.061 135.755 266.44 135.851C265.866 135.899 265.316 135.923 264.79 135.923Z" fill="black"/>
<path d="M289.09 137.142C286.987 137.142 285.265 136.353 283.927 134.775C282.588 133.149 281.942 131.141 281.99 128.75C282.086 127.029 282.42 125.188 282.994 123.228C283.616 121.219 284.429 119.307 285.433 117.49C286.437 115.625 287.536 113.999 288.732 112.613C289.927 111.226 291.17 110.246 292.461 109.672C292.939 109.433 293.441 109.242 293.967 109.098C294.541 108.955 295.115 108.883 295.689 108.883C296.215 108.883 296.764 108.979 297.338 109.17C297.912 109.313 298.39 109.481 298.773 109.672C299.585 110.007 300.207 110.413 300.637 110.891C301.068 111.369 301.45 112.111 301.785 113.115C301.928 114.023 302 114.669 302 115.051C302 115.434 301.88 116.008 301.641 116.773C301.068 118.494 300.327 119.976 299.418 121.219C298.51 122.463 297.29 123.515 295.76 124.375C295.378 124.614 294.924 124.806 294.398 124.949C293.92 125.045 293.418 125.092 292.892 125.092C291.935 125.092 291.003 124.925 290.094 124.59C289.234 124.208 288.541 123.658 288.015 122.941L287.513 122.367L287.297 122.941C286.819 124.232 286.437 125.427 286.15 126.527C285.911 127.627 285.791 128.631 285.791 129.539C285.791 130.113 285.839 130.663 285.935 131.189C286.078 131.715 286.269 132.169 286.509 132.552C286.7 132.839 287.011 133.054 287.441 133.197C287.919 133.293 288.421 133.341 288.947 133.341C289.282 133.341 289.616 133.341 289.951 133.341C290.334 133.293 290.692 133.197 291.027 133.054C291.84 132.767 292.485 132.456 292.963 132.121C293.489 131.787 294.015 131.428 294.541 131.046L294.828 130.902H294.756C295.33 130.615 295.832 130.328 296.262 130.041C296.741 129.754 296.98 129.611 296.98 129.611C297.171 129.611 297.362 129.491 297.553 129.252C297.936 129.061 298.414 129.133 298.988 129.468C299.609 129.802 299.92 130.233 299.92 130.759C299.872 130.998 299.657 131.38 299.275 131.906C298.892 132.384 298.462 132.839 297.984 133.269C297.553 133.699 297.195 133.938 296.908 133.986C296.86 134.034 296.693 134.13 296.406 134.273C296.119 134.369 295.928 134.464 295.832 134.56H295.904C295.473 135.134 295.043 135.421 294.613 135.421H294.039C293.848 135.755 293.226 136.138 292.174 136.568C291.122 136.951 290.095 137.142 289.09 137.142ZM292.318 121.363C293.178 121.363 293.92 121.124 294.541 120.646C295.211 120.12 295.784 119.546 296.262 118.924C297.219 117.633 297.769 116.39 297.912 115.195C298.103 113.951 297.96 113.091 297.482 112.613C297.195 112.469 296.932 112.397 296.693 112.397C296.501 112.35 296.095 112.421 295.473 112.613C295.043 112.708 294.446 113.067 293.68 113.688C292.915 114.31 292.15 115.003 291.385 115.768C290.668 116.533 290.118 117.179 289.736 117.705L288.804 119.211C289.186 119.068 289.545 118.996 289.879 118.996C290.262 118.948 290.477 118.972 290.525 119.068C290.525 119.498 290.597 119.904 290.74 120.287C290.931 120.622 291.146 120.885 291.385 121.076C291.672 121.267 291.983 121.363 292.318 121.363Z" fill="black"/>
</g>
<defs>
<clipPath id="clip0_712_801">
<rect width="302" height="153" fill="white"/>
</clipPath>
</defs>
</svg>
