<svg width="140" height="100" viewBox="0 0 140 100" fill="none" xmlns="http://www.w3.org/2000/svg">
<g clip-path="url(#clip0_712_754)">
<path d="M0.399414 99.152V77.3661H11.6192C13.6997 77.3661 15.2898 77.5445 16.3895 77.9011C17.4892 78.2578 18.3759 78.9216 19.0499 79.8925C19.7229 80.8535 20.0599 82.0275 20.0599 83.4145C20.0599 84.6231 19.8029 85.6683 19.2869 86.5501C18.7719 87.4219 18.0638 88.1303 17.1623 88.6752C16.5877 89.0219 15.8001 89.3092 14.7994 89.5371C15.6019 89.8046 16.1864 90.0721 16.553 90.3396C16.8007 90.5179 17.1573 90.8993 17.623 91.4838C18.0985 92.0684 18.4155 92.5191 18.5739 92.8362L21.8289 99.152H14.2199L10.6236 92.4944C10.1678 91.6324 9.76161 91.0727 9.40501 90.8151C8.91951 90.4783 8.36972 90.3098 7.75542 90.3098H7.16102V99.152H0.399414ZM7.16102 86.1934H9.99941C10.3065 86.1934 10.901 86.0943 11.7827 85.8962C12.2285 85.807 12.5901 85.5792 12.8675 85.2126C13.1548 84.846 13.2985 84.425 13.2985 83.9494C13.2985 83.246 13.0756 82.7061 12.6298 82.3296C12.1839 81.9531 11.3468 81.7649 10.1183 81.7649H7.16102V86.1934ZM37.4029 95.5557H29.7349L28.6789 99.152H21.7989L29.9869 77.3661H37.3279L45.5169 99.152H38.4729L37.4029 95.5557ZM35.9909 90.8448L33.5829 83.0132L31.1909 90.8448H35.9909ZM47.6119 77.3661H56.4689L59.8869 90.6219L63.2899 77.3661H72.1169V99.152H66.6189V82.5377L62.3539 99.152H57.3759L53.1249 82.5377V99.152H47.6119V77.3661ZM75.2529 91.9445L81.6579 91.5433C81.7969 92.5835 82.0789 93.3761 82.5049 93.921C83.1989 94.8027 84.1889 95.2436 85.4769 95.2436C86.4379 95.2436 87.1759 95.0207 87.6909 94.5749C88.2169 94.1191 88.4789 93.5941 88.4789 92.9996C88.4789 92.4349 88.2309 91.9297 87.7359 91.4838C87.2409 91.038 86.0909 90.617 84.2879 90.2207C81.3359 89.5569 79.2309 88.6752 77.9729 87.5755C76.7039 86.4758 76.0699 85.0739 76.0699 83.3699C76.0699 82.2504 76.3919 81.1953 77.0359 80.2045C77.6899 79.2039 78.6659 78.4212 79.9639 77.8565C81.2719 77.2819 83.0599 76.9946 85.3289 76.9946C88.1119 76.9946 90.2329 77.5147 91.6889 78.555C93.1549 79.5853 94.0269 81.2299 94.3039 83.4888L87.9589 83.8603C87.7909 82.8795 87.4339 82.1662 86.8889 81.7203C86.3539 81.2745 85.6109 81.0516 84.6599 81.0516C83.8769 81.0516 83.2879 81.22 82.8909 81.5569C82.4949 81.8838 82.2969 82.285 82.2969 82.7606C82.2969 83.1073 82.4599 83.4194 82.7869 83.6968C83.1039 83.9841 83.8569 84.2516 85.0459 84.4993C87.9889 85.1333 90.0939 85.7773 91.3619 86.4312C92.6399 87.0751 93.5659 87.8776 94.1409 88.8386C94.7259 89.7996 95.0179 90.8745 95.0179 92.0634C95.0179 93.4603 94.6309 94.7482 93.8589 95.9272C93.0859 97.1061 92.0059 98.0027 90.6189 98.617C89.2319 99.2213 87.4829 99.5235 85.3729 99.5235C81.6679 99.5235 79.1019 98.8102 77.6749 97.3835C76.2489 95.9569 75.4409 94.1439 75.2529 91.9445ZM98.4059 77.3661H116.447V82.0175H105.153V85.4801H115.63V89.9235H105.153V94.2182H116.774V99.152H98.4059V77.3661ZM118.884 77.3661H139.347V82.7457H132.482V99.152H125.75V82.7457H118.884V77.3661Z" fill="black"/>
<path d="M84.1867 29.0397C84.1867 29.0397 78.1253 22.8943 75.0945 24.4307C72.0639 25.9669 75.0945 27.5033 75.0945 27.5033L84.1867 29.0397Z" fill="black"/>
<path d="M37.1669 26.1319C38.3953 12.4457 53.0959 17.5169 53.0959 17.5169C53.0959 17.5169 43.2285 15.9805 43.2285 26.1319C43.2285 32.8929 50.8053 35.3497 50.8053 35.3497C50.8053 35.3497 36.1329 37.6543 37.1669 26.1319Z" fill="black"/>
<path d="M47.017 26.1325C47.072 23.3069 48.9012 19.9079 51.6064 20.5899C54.1122 21.2217 54.407 24.3475 53.836 26.9007C53.336 29.1375 52.3208 32.2777 50.0476 31.3441C47.7746 30.4105 46.971 28.4947 47.017 26.1325Z" fill="black"/>
<path d="M103.887 46.7071C104.544 46.0405 92.6475 46.5309 89.4915 46.6723C89.0107 46.6937 88.5723 46.9447 88.3323 47.3675C87.9457 48.0485 87.4855 49.0117 87.9753 49.0117H101.437C102.011 49.0117 102.531 48.6813 102.825 48.1815C103.111 47.6949 103.499 47.1003 103.887 46.7071Z" fill="black"/>
<path d="M86.4604 52.3908C84.945 52.3428 76.9488 52.2496 73.7928 52.3908C73.3122 52.4124 72.8934 52.6224 72.6336 53.0862C72.1152 54.0112 74.2864 54.7301 74.7764 54.7301H85.7386C86.3126 54.7301 86.8322 54.4 87.126 53.9002C87.4122 53.4134 87.9758 52.439 86.4604 52.3908Z" fill="black"/>
<path d="M91.5854 52.852H97.8257C109.905 61.4672 114.451 52.4148 108.39 38.4224C123.544 50.8784 108.211 74.5258 91.5854 52.852Z" fill="black"/>
<path fill-rule="evenodd" clip-rule="evenodd" d="M80.3986 14.444C62.972 -12.4412 24.3302 4.45817 25.8456 29.807C27.361 55.156 47.0606 53.6198 47.0606 53.6198C70.5488 52.8518 66.0026 26.7346 62.2142 20.5892C62.2142 29.3604 58.4258 44.5932 47.6934 44.5932C44.8914 44.5932 32.6648 44.5932 31.1494 31.3434C28.8764 -0.919432 77.3678 2.15357 72.8218 16.7484C71.9866 19.3838 70.5488 20.5892 70.5488 20.5892C82.6716 16.7484 91.7638 34.416 91.7638 34.416L75.8526 31.3434C85.4988 36.8446 73.5574 41.616 68.2758 43.634C66.9198 44.1522 69.0334 45.9386 69.0334 45.9386C76.7386 44.0786 85.3118 44.2778 92.1104 44.4358C99.351 44.604 104.579 44.7254 104.601 42.263C104.601 35.5152 88.7332 20.5892 88.7332 20.5892C88.7332 20.5892 90.6286 15.9804 94.0368 15.9804C94.7946 12.1398 85.7024 9.83496 80.3986 14.444ZM98.5396 37.6542C99.7058 36.7962 101.437 39.9586 101.437 39.9586C101.437 39.9586 97.8278 40.598 97.782 39.1904C97.7604 38.5264 97.9918 38.0572 98.5396 37.6542Z" fill="black"/>
</g>
<defs>
<clipPath id="clip0_712_754">
<rect width="140" height="100" fill="white"/>
</clipPath>
</defs>
</svg>
