<svg width="241" height="70" viewBox="0 0 241 70" fill="none" xmlns="http://www.w3.org/2000/svg">
<path d="M0 12.1739C0 5.45044 5.45045 0 12.1739 0H238.913C239.753 0 240.435 0.681306 240.435 1.52174V57.8261C240.435 64.5496 234.984 70 228.261 70H1.52174C0.681307 70 0 69.3187 0 68.4783V12.1739Z" fill="#1F5398"/>
<path d="M47.4531 35.4326C47.4531 35.4326 44.4224 32.3599 42.907 33.1281C41.3917 33.8962 42.907 34.6644 42.907 34.6644L47.4531 35.4326Z" fill="white" fill-opacity="0.94902"/>
<path d="M23.9433 33.9789C24.5575 27.1358 31.9078 29.6714 31.9078 29.6714C31.9078 29.6714 26.9741 28.9032 26.9741 33.9789C26.9741 37.3594 30.7625 38.5878 30.7625 38.5878C30.7625 38.5878 23.4263 39.7401 23.9433 33.9789Z" fill="white" fill-opacity="0.94902"/>
<path d="M28.8683 33.9789C28.8958 32.5661 29.8104 30.8666 31.163 31.2076C32.4159 31.5235 32.5633 33.0864 32.2778 34.363C32.0278 35.4814 31.5202 37.0515 30.3836 36.5847C29.2471 36.1179 28.8453 35.16 28.8683 33.9789Z" fill="white" fill-opacity="0.94902"/>
<path d="M57.303 44.2663C57.6317 43.933 51.6834 44.1782 50.1054 44.2489C49.865 44.2596 49.6458 44.3851 49.5258 44.5965C49.3325 44.937 49.1024 45.4186 49.3473 45.4186H56.0783C56.3653 45.4186 56.625 45.2534 56.772 45.0035C56.9151 44.7602 57.109 44.4629 57.303 44.2663Z" fill="white" fill-opacity="0.94902"/>
<path d="M48.5896 47.108C47.8319 47.084 43.8338 47.0374 42.2558 47.108C42.0155 47.1188 41.8061 47.2238 41.6762 47.4557C41.417 47.9182 42.5026 48.2777 42.7476 48.2777L48.2287 48.2777C48.5157 48.2777 48.7755 48.1126 48.9224 47.8627C49.0655 47.6193 49.3473 47.1321 48.5896 47.108Z" fill="white" fill-opacity="0.94902"/>
<path d="M51.1521 47.3389H54.2722C60.312 51.6465 62.5851 47.1203 59.5543 40.1241C67.1312 46.3521 59.4649 58.1758 51.1521 47.3389Z" fill="white" fill-opacity="0.94902"/>
<path fill-rule="evenodd" clip-rule="evenodd" d="M45.5589 28.135C36.8456 14.6924 17.5247 23.1421 18.2824 35.8165C19.0401 48.491 28.8899 47.7229 28.8899 47.7229C40.634 47.3389 38.3609 34.2803 36.4667 31.2076C36.4667 35.5932 34.5725 43.2096 29.2063 43.2096C27.8053 43.2096 21.692 43.2096 20.9343 36.5847C19.7978 20.4533 44.0435 21.9898 41.7705 29.2872C41.3529 30.6049 40.634 31.2076 40.634 31.2076C46.6954 29.2872 51.2415 38.121 51.2415 38.121L43.2859 36.5847C48.109 39.3353 42.1383 41.721 39.4975 42.73C38.8195 42.9891 39.8763 43.8823 39.8763 43.8823C43.7289 42.9523 48.0155 43.0519 51.4148 43.1309C55.0351 43.215 57.649 43.2757 57.6601 42.0445C57.6601 38.6706 49.7262 31.2076 49.7262 31.2076C49.7262 31.2076 50.6739 28.9032 52.378 28.9032C52.7569 26.9829 48.2108 25.8305 45.5589 28.135ZM54.6294 39.7401C55.2125 39.3111 56.0783 40.8923 56.0783 40.8923C56.0783 40.8923 54.2735 41.212 54.2506 40.5082C54.2398 40.1762 54.3555 39.9416 54.6294 39.7401Z" fill="white" fill-opacity="0.94902"/>
<path d="M81.8995 45.6522V23.8663H93.1193C95.1998 23.8663 96.7899 24.0447 97.8896 24.4013C98.9893 24.758 99.876 25.4218 100.55 26.3927C101.223 27.3537 101.56 28.5277 101.56 29.9147C101.56 31.1233 101.303 32.1685 100.787 33.0503C100.272 33.9221 99.5639 34.6305 98.6624 35.1754C98.0878 35.5221 97.3002 35.8094 96.2995 36.0373C97.102 36.3048 97.6865 36.5723 98.0531 36.8398C98.3008 37.0181 98.6574 37.3995 99.1231 37.984C99.5986 38.5686 99.9156 39.0193 100.074 39.3364L103.329 45.6522H95.72L92.1237 38.9946C91.6679 38.1326 91.2617 37.5729 90.9051 37.3153C90.4196 36.9785 89.8698 36.81 89.2555 36.81H88.6611V45.6522H81.8995ZM88.6611 32.6936H91.4995C91.8066 32.6936 92.4011 32.5945 93.2828 32.3964C93.7286 32.3072 94.0902 32.0794 94.3676 31.7128C94.6549 31.3462 94.7986 30.9252 94.7986 30.4496C94.7986 29.7462 94.5757 29.2063 94.1299 28.8298C93.684 28.4533 92.8469 28.2651 91.6184 28.2651H88.6611V32.6936ZM118.903 42.0559H111.235L110.179 45.6522H103.299L111.487 23.8663H118.828L127.017 45.6522H119.973L118.903 42.0559ZM117.491 37.345L115.083 29.5134L112.691 37.345H117.491ZM129.112 23.8663H137.969L141.387 37.1221L144.79 23.8663H153.617V45.6522H148.119V29.0379L143.854 45.6522H138.876L134.625 29.0379V45.6522H129.112V23.8663ZM156.753 38.4447L163.158 38.0435C163.297 39.0837 163.579 39.8763 164.005 40.4212C164.699 41.3029 165.689 41.7438 166.977 41.7438C167.938 41.7438 168.676 41.5209 169.191 41.0751C169.717 40.6193 169.979 40.0943 169.979 39.4998C169.979 38.9351 169.731 38.4299 169.236 37.984C168.741 37.5382 167.591 37.1172 165.788 36.7209C162.836 36.0571 160.731 35.1754 159.473 34.0757C158.204 32.976 157.57 31.5741 157.57 29.8701C157.57 28.7506 157.892 27.6955 158.536 26.7047C159.19 25.7041 160.166 24.9214 161.464 24.3567C162.772 23.7821 164.56 23.4948 166.829 23.4948C169.612 23.4948 171.733 24.0149 173.189 25.0552C174.655 26.0855 175.527 27.7301 175.804 29.989L169.459 30.3605C169.291 29.3797 168.934 28.6664 168.389 28.2205C167.854 27.7747 167.111 27.5518 166.16 27.5518C165.377 27.5518 164.788 27.7202 164.391 28.0571C163.995 28.384 163.797 28.7852 163.797 29.2608C163.797 29.6075 163.96 29.9196 164.287 30.197C164.604 30.4843 165.357 30.7518 166.546 30.9995C169.489 31.6335 171.594 32.2775 172.862 32.9314C174.14 33.5753 175.066 34.3778 175.641 35.3388C176.226 36.2998 176.518 37.3747 176.518 38.5636C176.518 39.9605 176.131 41.2484 175.359 42.4274C174.586 43.6063 173.506 44.5029 172.119 45.1172C170.732 45.7215 168.983 46.0237 166.873 46.0237C163.168 46.0237 160.602 45.3104 159.175 43.8837C157.749 42.4571 156.941 40.6441 156.753 38.4447ZM179.906 23.8663H197.947V28.5177H186.653V31.9803H197.13V36.4237H186.653V40.7184H198.274V45.6522H179.906V23.8663ZM200.384 23.8663H220.847V29.2459H213.982V45.6522H207.25V29.2459H200.384V23.8663Z" fill="white" fill-opacity="0.94902"/>
</svg>
