<svg width="159" height="67" viewBox="0 0 159 67" fill="none" xmlns="http://www.w3.org/2000/svg">
<path d="M18.2004 28.6897L16.5011 28.3927C14.8154 28.0981 13.5853 26.6345 13.5853 24.9232V10.5133C13.5853 10.2354 13.3601 10.0102 13.0822 10.0102H7.04419C6.7663 10.0102 6.54102 10.2354 6.54102 10.5133V24.9232C6.54102 26.6345 5.31096 28.0981 3.6252 28.3927L1.92592 28.6897C1.6851 28.7318 1.50938 28.9409 1.50938 29.1853V36.6779C1.50938 36.9558 1.73465 37.181 2.01254 37.181H18.1138C18.3917 37.181 18.617 36.9558 18.617 36.6779V29.1853C18.617 28.9409 18.4412 28.7318 18.2004 28.6897Z" stroke="black" stroke-opacity="0.85098" stroke-width="3.01899"/>
<path d="M18.114 43.219L2.0127 43.219" stroke="black" stroke-opacity="0.85098" stroke-width="3.01899" stroke-linecap="round"/>
<path d="M15.0952 49.257H5.03174" stroke="black" stroke-opacity="0.85098" stroke-width="3.01899" stroke-linecap="round"/>
<path d="M17.1077 55.295H3.01904" stroke="black" stroke-opacity="0.85098" stroke-width="3.01899" stroke-linecap="round"/>
<mask id="path-5-outside-1_1655_23088" maskUnits="userSpaceOnUse" x="42.2534" y="14.5513" width="115" height="44" fill="black">
<rect fill="white" x="42.2534" y="14.5513" width="115" height="44"/>
<path d="M59.6505 21.3055C58.973 20.3629 58.104 19.6117 57.0436 19.052C55.9832 18.4629 54.7018 18.1684 53.1995 18.1684C52.4336 18.1684 51.653 18.2862 50.8577 18.5218C50.0624 18.7575 49.3407 19.1257 48.6927 19.6265C48.0446 20.0978 47.5144 20.7016 47.102 21.438C46.7191 22.1744 46.5276 23.0434 46.5276 24.0449C46.5276 25.0465 46.7191 25.8712 47.102 26.5193C47.4849 27.1673 47.9857 27.727 48.6043 28.1983C49.2523 28.6402 49.974 29.0084 50.7693 29.3029C51.5941 29.5975 52.4484 29.8921 53.3321 30.1866C54.422 30.5401 55.5118 30.9231 56.6017 31.3354C57.7211 31.7478 58.7226 32.2928 59.6063 32.9703C60.49 33.6183 61.2117 34.4578 61.7714 35.4888C62.331 36.4903 62.6109 37.7717 62.6109 39.3329C62.6109 40.8941 62.3016 42.2491 61.683 43.3979C61.0939 44.5173 60.3133 45.4451 59.3412 46.1816C58.3986 46.918 57.3087 47.4629 56.0715 47.8164C54.8638 48.1699 53.6414 48.3466 52.4042 48.3466C51.4616 48.3466 50.519 48.2435 49.5763 48.0373C48.6337 47.8606 47.7353 47.5807 46.8811 47.1978C46.0268 46.8149 45.2315 46.3288 44.4951 45.7397C43.7587 45.1506 43.1106 44.4731 42.551 43.7072L45.2904 41.6747C45.9679 42.7941 46.9105 43.7367 48.1182 44.5025C49.3554 45.239 50.7988 45.6072 52.4484 45.6072C53.2437 45.6072 54.0537 45.4893 54.8785 45.2537C55.7033 44.9886 56.4397 44.6056 57.0878 44.1049C57.7653 43.5747 58.3102 42.9413 58.7226 42.2049C59.1645 41.4391 59.3854 40.5554 59.3854 39.5538C59.3854 38.4639 59.1645 37.5655 58.7226 36.8586C58.3102 36.1221 57.7505 35.5183 57.0436 35.047C56.3366 34.5462 55.5266 34.1338 54.6134 33.8098C53.7003 33.4858 52.7429 33.1618 51.7414 32.8377C50.7104 32.5137 49.6942 32.1455 48.6927 31.7331C47.6911 31.3207 46.7927 30.7905 45.9974 30.1425C45.202 29.465 44.554 28.6402 44.0532 27.6681C43.5819 26.696 43.3463 25.503 43.3463 24.0891C43.3463 22.5868 43.6408 21.2907 44.23 20.2009C44.8486 19.111 45.6439 18.2125 46.616 17.5056C47.588 16.7986 48.6632 16.2831 49.8415 15.9591C51.0197 15.6351 52.1833 15.4731 53.3321 15.4731C55.4529 15.4731 57.2645 15.856 58.7668 16.6219C60.2691 17.3583 61.4032 18.242 62.169 19.273L59.6505 21.3055ZM82.0281 34.2075C82.0281 32.4106 81.5568 31.0703 80.6141 30.1866C79.6715 29.3029 78.3018 28.8611 76.505 28.8611C75.2678 28.8611 74.119 29.082 73.0585 29.5239C71.9981 29.9657 71.0997 30.5548 70.3633 31.2913L68.6842 29.3029C69.5385 28.4487 70.6578 27.7417 72.0423 27.1821C73.4562 26.6224 75.0469 26.3426 76.8142 26.3426C77.9336 26.3426 78.9793 26.5046 79.9514 26.8286C80.9234 27.1232 81.7777 27.5797 82.5141 28.1983C83.2505 28.8169 83.8249 29.5975 84.2373 30.5401C84.6497 31.4827 84.8559 32.5873 84.8559 33.854V42.9119C84.8559 43.7072 84.8854 44.532 84.9443 45.3862C85.0032 46.2405 85.0915 46.9622 85.2094 47.5513H82.5141C82.4257 47.0505 82.3521 46.5056 82.2932 45.9165C82.2343 45.3273 82.2048 44.7529 82.2048 44.1932H82.1164C81.1738 45.5777 80.0987 46.5792 78.8909 47.1978C77.7127 47.7869 76.284 48.0815 74.605 48.0815C73.8097 48.0815 72.9849 47.9637 72.1307 47.728C71.3059 47.5218 70.54 47.1684 69.833 46.6676C69.1555 46.1668 68.5811 45.5188 68.1098 44.7235C67.668 43.9281 67.4471 42.9561 67.4471 41.8073C67.4471 40.2166 67.8447 38.9647 68.64 38.0515C69.4648 37.1089 70.5547 36.4167 71.9097 35.9749C73.2647 35.5035 74.8112 35.209 76.5491 35.0912C78.3165 34.9439 80.1428 34.8702 82.0281 34.8702V34.2075ZM81.1444 37.212C79.9072 37.212 78.6553 37.2709 77.3887 37.3888C76.1515 37.4771 75.0174 37.6833 73.9864 38.0074C72.9849 38.3019 72.1601 38.7438 71.5121 39.3329C70.864 39.922 70.54 40.7026 70.54 41.6747C70.54 42.4111 70.6726 43.0297 70.9377 43.5305C71.2322 44.0312 71.6152 44.4436 72.0865 44.7676C72.5578 45.0622 73.0733 45.2831 73.6329 45.4304C74.2221 45.5482 74.8112 45.6072 75.4003 45.6072C76.4608 45.6072 77.4034 45.4304 78.2282 45.0769C79.0529 44.694 79.7452 44.1932 80.3049 43.5747C80.8645 42.9266 81.2916 42.1902 81.5862 41.3654C81.8808 40.5406 82.0281 39.6717 82.0281 38.7585V37.212H81.1444ZM107.354 47.5513C107.295 46.9916 107.251 46.373 107.221 45.6955C107.192 45.018 107.177 44.4584 107.177 44.0165H107.089C106.5 45.2242 105.542 46.211 104.217 46.9769C102.891 47.7133 101.492 48.0815 100.019 48.0815C97.3976 48.0815 95.424 47.3009 94.0985 45.7397C92.8024 44.1785 92.1543 42.1166 92.1543 39.5538V26.8728H95.1589V38.3167C95.1589 39.4065 95.2473 40.3933 95.424 41.277C95.6008 42.1607 95.8953 42.9266 96.3077 43.5747C96.7496 44.1932 97.324 44.6793 98.0309 45.0328C98.7673 45.3862 99.6805 45.563 100.77 45.563C101.566 45.563 102.332 45.401 103.068 45.0769C103.834 44.7529 104.511 44.2669 105.101 43.6188C105.69 42.9413 106.161 42.1018 106.514 41.1003C106.868 40.0693 107.045 38.8616 107.045 37.4771V26.8728H110.049V43.0003C110.049 43.5599 110.064 44.2816 110.093 45.1653C110.123 46.049 110.167 46.8443 110.226 47.5513H107.354ZM132.63 31.6006C132.129 30.8052 131.393 30.1572 130.421 29.6564C129.478 29.1262 128.447 28.8611 127.328 28.8611C126.12 28.8611 125.03 29.082 124.058 29.5239C123.086 29.9363 122.247 30.5254 121.54 31.2913C120.862 32.0277 120.332 32.9114 119.949 33.9424C119.596 34.9439 119.419 36.0338 119.419 37.212C119.419 38.3903 119.596 39.4802 119.949 40.4817C120.332 41.4832 120.862 42.3669 121.54 43.1328C122.217 43.8692 123.042 44.4584 124.014 44.9002C124.986 45.3126 126.076 45.5188 127.284 45.5188C128.609 45.5188 129.729 45.2684 130.642 44.7676C131.555 44.2669 132.306 43.6188 132.895 42.8235L135.149 44.5025C134.265 45.5924 133.175 46.4614 131.879 47.1094C130.612 47.7575 129.081 48.0815 127.284 48.0815C125.605 48.0815 124.088 47.8164 122.733 47.2862C121.378 46.7265 120.214 45.9606 119.242 44.9886C118.299 44.0165 117.563 42.8677 117.033 41.5421C116.503 40.2166 116.238 38.7732 116.238 37.212C116.238 35.6508 116.503 34.2075 117.033 32.8819C117.563 31.5564 118.299 30.4076 119.242 29.4355C120.214 28.4634 121.378 27.7123 122.733 27.1821C124.088 26.6224 125.605 26.3426 127.284 26.3426C128.668 26.3426 130.067 26.6518 131.481 27.2704C132.925 27.8596 134.088 28.7433 134.972 29.9215L132.63 31.6006ZM146.681 44.3258H146.769L153.176 26.8728H156.446L146.151 52.8977C145.532 54.4883 144.737 55.755 143.765 56.6976C142.822 57.6696 141.452 58.1557 139.655 58.1557C138.742 58.1557 137.844 58.0673 136.96 57.8906L137.27 55.1511C137.976 55.3867 138.713 55.5046 139.479 55.5046C140.51 55.5046 141.32 55.1805 141.909 54.5325C142.498 53.9139 143.014 53.0155 143.455 51.8372L145.134 47.5071L136.297 26.8728H139.655L146.681 44.3258Z"/>
</mask>
<path d="M59.6505 21.3055C58.973 20.3629 58.104 19.6117 57.0436 19.052C55.9832 18.4629 54.7018 18.1684 53.1995 18.1684C52.4336 18.1684 51.653 18.2862 50.8577 18.5218C50.0624 18.7575 49.3407 19.1257 48.6927 19.6265C48.0446 20.0978 47.5144 20.7016 47.102 21.438C46.7191 22.1744 46.5276 23.0434 46.5276 24.0449C46.5276 25.0465 46.7191 25.8712 47.102 26.5193C47.4849 27.1673 47.9857 27.727 48.6043 28.1983C49.2523 28.6402 49.974 29.0084 50.7693 29.3029C51.5941 29.5975 52.4484 29.8921 53.3321 30.1866C54.422 30.5401 55.5118 30.9231 56.6017 31.3354C57.7211 31.7478 58.7226 32.2928 59.6063 32.9703C60.49 33.6183 61.2117 34.4578 61.7714 35.4888C62.331 36.4903 62.6109 37.7717 62.6109 39.3329C62.6109 40.8941 62.3016 42.2491 61.683 43.3979C61.0939 44.5173 60.3133 45.4451 59.3412 46.1816C58.3986 46.918 57.3087 47.4629 56.0715 47.8164C54.8638 48.1699 53.6414 48.3466 52.4042 48.3466C51.4616 48.3466 50.519 48.2435 49.5763 48.0373C48.6337 47.8606 47.7353 47.5807 46.8811 47.1978C46.0268 46.8149 45.2315 46.3288 44.4951 45.7397C43.7587 45.1506 43.1106 44.4731 42.551 43.7072L45.2904 41.6747C45.9679 42.7941 46.9105 43.7367 48.1182 44.5025C49.3554 45.239 50.7988 45.6072 52.4484 45.6072C53.2437 45.6072 54.0537 45.4893 54.8785 45.2537C55.7033 44.9886 56.4397 44.6056 57.0878 44.1049C57.7653 43.5747 58.3102 42.9413 58.7226 42.2049C59.1645 41.4391 59.3854 40.5554 59.3854 39.5538C59.3854 38.4639 59.1645 37.5655 58.7226 36.8586C58.3102 36.1221 57.7505 35.5183 57.0436 35.047C56.3366 34.5462 55.5266 34.1338 54.6134 33.8098C53.7003 33.4858 52.7429 33.1618 51.7414 32.8377C50.7104 32.5137 49.6942 32.1455 48.6927 31.7331C47.6911 31.3207 46.7927 30.7905 45.9974 30.1425C45.202 29.465 44.554 28.6402 44.0532 27.6681C43.5819 26.696 43.3463 25.503 43.3463 24.0891C43.3463 22.5868 43.6408 21.2907 44.23 20.2009C44.8486 19.111 45.6439 18.2125 46.616 17.5056C47.588 16.7986 48.6632 16.2831 49.8415 15.9591C51.0197 15.6351 52.1833 15.4731 53.3321 15.4731C55.4529 15.4731 57.2645 15.856 58.7668 16.6219C60.2691 17.3583 61.4032 18.242 62.169 19.273L59.6505 21.3055ZM82.0281 34.2075C82.0281 32.4106 81.5568 31.0703 80.6141 30.1866C79.6715 29.3029 78.3018 28.8611 76.505 28.8611C75.2678 28.8611 74.119 29.082 73.0585 29.5239C71.9981 29.9657 71.0997 30.5548 70.3633 31.2913L68.6842 29.3029C69.5385 28.4487 70.6578 27.7417 72.0423 27.1821C73.4562 26.6224 75.0469 26.3426 76.8142 26.3426C77.9336 26.3426 78.9793 26.5046 79.9514 26.8286C80.9234 27.1232 81.7777 27.5797 82.5141 28.1983C83.2505 28.8169 83.8249 29.5975 84.2373 30.5401C84.6497 31.4827 84.8559 32.5873 84.8559 33.854V42.9119C84.8559 43.7072 84.8854 44.532 84.9443 45.3862C85.0032 46.2405 85.0915 46.9622 85.2094 47.5513H82.5141C82.4257 47.0505 82.3521 46.5056 82.2932 45.9165C82.2343 45.3273 82.2048 44.7529 82.2048 44.1932H82.1164C81.1738 45.5777 80.0987 46.5792 78.8909 47.1978C77.7127 47.7869 76.284 48.0815 74.605 48.0815C73.8097 48.0815 72.9849 47.9637 72.1307 47.728C71.3059 47.5218 70.54 47.1684 69.833 46.6676C69.1555 46.1668 68.5811 45.5188 68.1098 44.7235C67.668 43.9281 67.4471 42.9561 67.4471 41.8073C67.4471 40.2166 67.8447 38.9647 68.64 38.0515C69.4648 37.1089 70.5547 36.4167 71.9097 35.9749C73.2647 35.5035 74.8112 35.209 76.5491 35.0912C78.3165 34.9439 80.1428 34.8702 82.0281 34.8702V34.2075ZM81.1444 37.212C79.9072 37.212 78.6553 37.2709 77.3887 37.3888C76.1515 37.4771 75.0174 37.6833 73.9864 38.0074C72.9849 38.3019 72.1601 38.7438 71.5121 39.3329C70.864 39.922 70.54 40.7026 70.54 41.6747C70.54 42.4111 70.6726 43.0297 70.9377 43.5305C71.2322 44.0312 71.6152 44.4436 72.0865 44.7676C72.5578 45.0622 73.0733 45.2831 73.6329 45.4304C74.2221 45.5482 74.8112 45.6072 75.4003 45.6072C76.4608 45.6072 77.4034 45.4304 78.2282 45.0769C79.0529 44.694 79.7452 44.1932 80.3049 43.5747C80.8645 42.9266 81.2916 42.1902 81.5862 41.3654C81.8808 40.5406 82.0281 39.6717 82.0281 38.7585V37.212H81.1444ZM107.354 47.5513C107.295 46.9916 107.251 46.373 107.221 45.6955C107.192 45.018 107.177 44.4584 107.177 44.0165H107.089C106.5 45.2242 105.542 46.211 104.217 46.9769C102.891 47.7133 101.492 48.0815 100.019 48.0815C97.3976 48.0815 95.424 47.3009 94.0985 45.7397C92.8024 44.1785 92.1543 42.1166 92.1543 39.5538V26.8728H95.1589V38.3167C95.1589 39.4065 95.2473 40.3933 95.424 41.277C95.6008 42.1607 95.8953 42.9266 96.3077 43.5747C96.7496 44.1932 97.324 44.6793 98.0309 45.0328C98.7673 45.3862 99.6805 45.563 100.77 45.563C101.566 45.563 102.332 45.401 103.068 45.0769C103.834 44.7529 104.511 44.2669 105.101 43.6188C105.69 42.9413 106.161 42.1018 106.514 41.1003C106.868 40.0693 107.045 38.8616 107.045 37.4771V26.8728H110.049V43.0003C110.049 43.5599 110.064 44.2816 110.093 45.1653C110.123 46.049 110.167 46.8443 110.226 47.5513H107.354ZM132.63 31.6006C132.129 30.8052 131.393 30.1572 130.421 29.6564C129.478 29.1262 128.447 28.8611 127.328 28.8611C126.12 28.8611 125.03 29.082 124.058 29.5239C123.086 29.9363 122.247 30.5254 121.54 31.2913C120.862 32.0277 120.332 32.9114 119.949 33.9424C119.596 34.9439 119.419 36.0338 119.419 37.212C119.419 38.3903 119.596 39.4802 119.949 40.4817C120.332 41.4832 120.862 42.3669 121.54 43.1328C122.217 43.8692 123.042 44.4584 124.014 44.9002C124.986 45.3126 126.076 45.5188 127.284 45.5188C128.609 45.5188 129.729 45.2684 130.642 44.7676C131.555 44.2669 132.306 43.6188 132.895 42.8235L135.149 44.5025C134.265 45.5924 133.175 46.4614 131.879 47.1094C130.612 47.7575 129.081 48.0815 127.284 48.0815C125.605 48.0815 124.088 47.8164 122.733 47.2862C121.378 46.7265 120.214 45.9606 119.242 44.9886C118.299 44.0165 117.563 42.8677 117.033 41.5421C116.503 40.2166 116.238 38.7732 116.238 37.212C116.238 35.6508 116.503 34.2075 117.033 32.8819C117.563 31.5564 118.299 30.4076 119.242 29.4355C120.214 28.4634 121.378 27.7123 122.733 27.1821C124.088 26.6224 125.605 26.3426 127.284 26.3426C128.668 26.3426 130.067 26.6518 131.481 27.2704C132.925 27.8596 134.088 28.7433 134.972 29.9215L132.63 31.6006ZM146.681 44.3258H146.769L153.176 26.8728H156.446L146.151 52.8977C145.532 54.4883 144.737 55.755 143.765 56.6976C142.822 57.6696 141.452 58.1557 139.655 58.1557C138.742 58.1557 137.844 58.0673 136.96 57.8906L137.27 55.1511C137.976 55.3867 138.713 55.5046 139.479 55.5046C140.51 55.5046 141.32 55.1805 141.909 54.5325C142.498 53.9139 143.014 53.0155 143.455 51.8372L145.134 47.5071L136.297 26.8728H139.655L146.681 44.3258Z" fill="black" fill-opacity="0.85098"/>
<path d="M59.6505 21.3055L59.4871 21.4229L59.6113 21.5958L59.7769 21.4621L59.6505 21.3055ZM57.0436 19.052L56.9458 19.228L56.9496 19.23L57.0436 19.052ZM50.8577 18.5218L50.9149 18.7148L50.9149 18.7148L50.8577 18.5218ZM48.6927 19.6265L48.8111 19.7893L48.8157 19.7857L48.6927 19.6265ZM47.102 21.438L46.9263 21.3396L46.9234 21.3452L47.102 21.438ZM47.102 26.5193L46.9287 26.6217L46.9287 26.6217L47.102 26.5193ZM48.6043 28.1983L48.4821 28.3586L48.4909 28.3646L48.6043 28.1983ZM50.7693 29.3029L50.6994 29.4917L50.7016 29.4925L50.7693 29.3029ZM53.3321 30.1866L53.2684 30.3776L53.27 30.3781L53.3321 30.1866ZM56.6017 31.3354L56.5305 31.5237L56.5322 31.5243L56.6017 31.3354ZM59.6063 32.9703L59.4838 33.13L59.4873 33.1326L59.6063 32.9703ZM61.7714 35.4888L61.5945 35.5849L61.5957 35.587L61.7714 35.4888ZM61.683 43.3979L61.5058 43.3025L61.5049 43.3042L61.683 43.3979ZM59.3412 46.1816L59.2197 46.0211L59.2173 46.023L59.3412 46.1816ZM56.0715 47.8164L56.0162 47.6229L56.015 47.6232L56.0715 47.8164ZM49.5763 48.0373L49.6194 47.8406L49.6134 47.8395L49.5763 48.0373ZM46.8811 47.1978L46.7987 47.3815L46.8811 47.1978ZM44.4951 45.7397L44.3694 45.8969L44.3694 45.8969L44.4951 45.7397ZM42.551 43.7072L42.431 43.5456L42.2706 43.6646L42.3885 43.826L42.551 43.7072ZM45.2904 41.6747L45.4626 41.5705L45.3481 41.3813L45.1705 41.5131L45.2904 41.6747ZM48.1182 44.5025L48.0104 44.6726L48.0153 44.6755L48.1182 44.5025ZM54.8785 45.2537L54.9339 45.4473L54.9401 45.4453L54.8785 45.2537ZM57.0878 44.1049L57.2108 44.2641L57.2118 44.2634L57.0878 44.1049ZM58.7226 42.2049L58.5483 42.1043L58.547 42.1066L58.7226 42.2049ZM58.7226 36.8586L58.5468 36.957L58.5519 36.9652L58.7226 36.8586ZM57.0436 35.047L56.9272 35.2113L56.9319 35.2144L57.0436 35.047ZM51.7414 32.8377L51.8034 32.6462L51.8018 32.6457L51.7414 32.8377ZM48.6927 31.7331L48.7693 31.547L48.7693 31.547L48.6927 31.7331ZM45.9974 30.1425L45.8668 30.2957L45.8702 30.2985L45.9974 30.1425ZM44.0532 27.6681L43.8721 27.7559L43.8743 27.7603L44.0532 27.6681ZM44.23 20.2009L44.0549 20.1015L44.0529 20.1052L44.23 20.2009ZM46.616 17.5056L46.7343 17.6684L46.7343 17.6684L46.616 17.5056ZM49.8415 15.9591L49.7881 15.765L49.7881 15.765L49.8415 15.9591ZM58.7668 16.6219L58.6754 16.8012L58.6782 16.8026L58.7668 16.6219ZM62.169 19.273L62.2954 19.4296L62.4459 19.3082L62.3306 19.153L62.169 19.273ZM59.8139 21.188C59.1177 20.2193 58.2246 19.4478 57.1375 18.8741L56.9496 19.23C57.9835 19.7757 58.8283 20.5065 59.4871 21.4229L59.8139 21.188ZM57.1413 18.8761C56.0447 18.2669 54.7279 17.9671 53.1995 17.9671V18.3696C54.6756 18.3696 55.9216 18.659 56.9458 19.228L57.1413 18.8761ZM53.1995 17.9671C52.4127 17.9671 51.6129 18.0882 50.8005 18.3289L50.9149 18.7148C51.6932 18.4842 52.4545 18.3696 53.1995 18.3696V17.9671ZM50.8005 18.3289C49.9817 18.5715 49.2376 18.951 48.5696 19.4672L48.8157 19.7857C49.4438 19.3004 50.1431 18.9435 50.9149 18.7148L50.8005 18.3289ZM48.5743 19.4637C47.9015 19.953 47.3522 20.5793 46.9264 21.3397L47.2776 21.5364C47.6766 20.8239 48.1877 20.2425 48.811 19.7892L48.5743 19.4637ZM46.9234 21.3452C46.5228 22.1156 46.3263 23.0177 46.3263 24.0449H46.7289C46.7289 23.0691 46.9153 22.2333 47.2806 21.5309L46.9234 21.3452ZM46.3263 24.0449C46.3263 25.0709 46.5224 25.934 46.9287 26.6217L47.2753 26.4169C46.9158 25.8085 46.7289 25.022 46.7289 24.0449H46.3263ZM46.9287 26.6217C47.3253 27.2928 47.8438 27.8719 48.4823 28.3584L48.7263 28.0382C48.1276 27.5821 47.6446 27.0418 47.2753 26.4169L46.9287 26.6217ZM48.4909 28.3646C49.1535 28.8164 49.89 29.1919 50.6994 29.4917L50.8392 29.1142C50.058 28.8249 49.3511 28.4639 48.7177 28.032L48.4909 28.3646ZM50.7016 29.4925C51.5279 29.7876 52.3834 30.0826 53.2684 30.3776L53.3957 29.9957C52.5133 29.7016 51.6604 29.4075 50.837 29.1134L50.7016 29.4925ZM53.27 30.3781C54.3567 30.7306 55.4436 31.1124 56.5305 31.5237L56.673 31.1472C55.5801 30.7337 54.4872 30.3497 53.3942 29.9952L53.27 30.3781ZM56.5322 31.5243C57.6339 31.9302 58.6173 32.4657 59.4839 33.13L59.7288 32.8106C58.8279 32.1199 57.8083 31.5655 56.6713 31.1466L56.5322 31.5243ZM59.4873 33.1326C60.3454 33.7619 61.048 34.5781 61.5945 35.5848L61.9483 35.3928C61.3754 34.3376 60.6346 33.4748 59.7253 32.808L59.4873 33.1326ZM61.5957 35.587C62.1336 36.5496 62.4096 37.7942 62.4096 39.3329H62.8122C62.8122 37.7492 62.5285 36.4311 61.9471 35.3906L61.5957 35.587ZM62.4096 39.3329C62.4096 40.8673 62.1058 42.1883 61.5058 43.3025L61.8602 43.4933C62.4974 42.31 62.8122 40.9209 62.8122 39.3329H62.4096ZM61.5049 43.3042C60.929 44.3984 60.1673 45.3032 59.2197 46.0211L59.4627 46.342C60.4592 45.5871 61.2588 44.6361 61.8611 43.4917L61.5049 43.3042ZM59.2173 46.023C58.2966 46.7423 57.2304 47.276 56.0162 47.6229L56.1268 48.0099C57.387 47.6499 58.5006 47.0937 59.4651 46.3402L59.2173 46.023ZM56.015 47.6232C54.8253 47.9714 53.6219 48.1454 52.4042 48.1454V48.5479C53.6608 48.5479 54.9023 48.3683 56.1281 48.0096L56.015 47.6232ZM52.4042 48.1454C51.4764 48.1454 50.5482 48.0439 49.6194 47.8407L49.5333 48.2339C50.4897 48.4432 51.4468 48.5479 52.4042 48.5479V48.1454ZM49.6134 47.8395C48.686 47.6656 47.8028 47.3904 46.9634 47.0142L46.7987 47.3815C47.6678 47.771 48.5814 48.0556 49.5393 48.2351L49.6134 47.8395ZM46.9634 47.0142C46.1248 46.6382 45.344 46.1611 44.6208 45.5826L44.3694 45.8969C45.119 46.4966 45.9289 46.9915 46.7987 47.3815L46.9634 47.0142ZM44.6208 45.5826C43.8984 45.0046 43.2627 44.34 42.7135 43.5885L42.3885 43.826C42.9586 44.6061 43.619 45.2966 44.3694 45.8969L44.6208 45.5826ZM42.6709 43.8688L45.4103 41.8363L45.1705 41.5131L42.431 43.5456L42.6709 43.8688ZM45.1182 41.7789C45.8133 42.9273 46.779 43.8916 48.0105 44.6725L48.226 44.3326C47.0421 43.5818 46.1225 42.6608 45.4626 41.5705L45.1182 41.7789ZM48.0153 44.6755C49.2879 45.433 50.7679 45.8084 52.4484 45.8084V45.4059C50.8297 45.4059 49.4229 45.0449 48.2212 44.3296L48.0153 44.6755ZM52.4484 45.8084C53.2638 45.8084 54.0925 45.6876 54.9338 45.4472L54.8232 45.0602C54.015 45.2911 53.2236 45.4059 52.4484 45.4059V45.8084ZM54.9401 45.4453C55.7858 45.1735 56.5433 44.78 57.2108 44.2641L56.9647 43.9456C56.3362 44.4313 55.6208 44.8037 54.8169 45.0621L54.9401 45.4453ZM57.2118 44.2634C57.9099 43.717 58.4725 43.0634 58.8982 42.3033L58.547 42.1066C58.1479 42.8193 57.6206 43.4323 56.9637 43.9464L57.2118 44.2634ZM58.8969 42.3055C59.3587 41.5052 59.5867 40.5859 59.5867 39.5538H59.1841C59.1841 40.5248 58.9702 41.3729 58.5483 42.1043L58.8969 42.3055ZM59.5867 39.5538C59.5867 38.4376 59.3604 37.4993 58.8933 36.7519L58.5519 36.9652C58.9685 37.6318 59.1841 38.4903 59.1841 39.5538H59.5867ZM58.8982 36.7602C58.4702 35.9958 57.8885 35.3684 57.1552 34.8795L56.9319 35.2144C57.6126 35.6682 58.1503 36.2484 58.547 36.9569L58.8982 36.7602ZM57.1599 34.8827C56.4362 34.3701 55.6093 33.9496 54.6807 33.6201L54.5461 33.9995C55.4439 34.318 56.2371 34.7223 56.9273 35.2112L57.1599 34.8827ZM54.6807 33.6201C53.7657 33.2954 52.8065 32.9708 51.8034 32.6462L51.6795 33.0292C52.6793 33.3527 53.6349 33.6761 54.5461 33.9995L54.6807 33.6201ZM51.8018 32.6457C50.7763 32.3234 49.7655 31.9572 48.7693 31.547L48.616 31.9192C49.6229 32.3338 50.6446 32.704 51.6811 33.0297L51.8018 32.6457ZM48.7693 31.547C47.785 31.1417 46.9037 30.6213 46.1245 29.9864L45.8702 30.2985C46.6817 30.9596 47.5973 31.4997 48.616 31.9192L48.7693 31.547ZM46.1279 29.9892C45.3534 29.3295 44.7215 28.5258 44.2322 27.5759L43.8743 27.7603C44.3865 28.7545 45.0506 29.6004 45.8669 30.2957L46.1279 29.9892ZM44.2343 27.5803C43.7797 26.6427 43.5475 25.4816 43.5475 24.0891H43.145C43.145 25.5244 43.3841 26.7494 43.8721 27.7559L44.2343 27.5803ZM43.5475 24.0891C43.5475 22.6132 43.8368 21.3514 44.407 20.2966L44.0529 20.1052C43.4449 21.2301 43.145 22.5605 43.145 24.0891H43.5475ZM44.405 20.3002C45.0101 19.2342 45.7865 18.3577 46.7343 17.6684L46.4976 17.3428C45.5013 18.0674 44.6871 18.9878 44.0549 20.1015L44.405 20.3002ZM46.7343 17.6684C47.6865 16.9759 48.7395 16.4709 49.8948 16.1532L49.7881 15.765C48.5868 16.0954 47.4896 16.6213 46.4976 17.3428L46.7343 17.6684ZM49.8948 16.1532C51.0568 15.8336 52.2024 15.6743 53.3321 15.6743V15.2718C52.1641 15.2718 50.9826 15.4365 49.7881 15.765L49.8948 16.1532ZM53.3321 15.6743C55.4292 15.6743 57.2078 16.053 58.6754 16.8012L58.8582 16.4426C57.3213 15.659 55.4767 15.2718 53.3321 15.2718V15.6743ZM58.6782 16.8026C60.1601 17.529 61.2656 18.3944 62.0075 19.393L62.3306 19.153C61.5407 18.0896 60.3781 17.1876 58.8554 16.4412L58.6782 16.8026ZM62.0426 19.1163L59.5241 21.1489L59.7769 21.4621L62.2954 19.4296L62.0426 19.1163ZM73.0585 29.5239L72.9811 29.3381L72.9811 29.3381L73.0585 29.5239ZM70.3633 31.2913L70.2095 31.4211L70.3507 31.5884L70.5056 31.4336L70.3633 31.2913ZM68.6842 29.3029L68.5419 29.1606L68.4111 29.2914L68.5305 29.4328L68.6842 29.3029ZM72.0423 27.1821L71.9682 26.9949L71.9669 26.9955L72.0423 27.1821ZM79.9514 26.8286L79.8877 27.0196L79.893 27.0212L79.9514 26.8286ZM84.9443 45.3862L85.1451 45.3724L85.1451 45.3724L84.9443 45.3862ZM85.2094 47.5513V47.7526H85.4549L85.4067 47.5118L85.2094 47.5513ZM82.5141 47.5513L82.3159 47.5863L82.3452 47.7526H82.5141V47.5513ZM82.2932 45.9165L82.4934 45.8964L82.4934 45.8964L82.2932 45.9165ZM82.2048 44.1932H82.4061V43.992H82.2048V44.1932ZM82.1164 44.1932V43.992H82.01L81.9501 44.08L82.1164 44.1932ZM78.8909 47.1978L78.981 47.3778L78.9827 47.3769L78.8909 47.1978ZM72.1307 47.728L72.1842 47.534L72.1795 47.5328L72.1307 47.728ZM69.833 46.6676L69.7134 46.8295L69.7167 46.8318L69.833 46.6676ZM68.1098 44.7235L67.9338 44.8212L67.9367 44.8261L68.1098 44.7235ZM68.64 38.0515L68.4886 37.919L68.4883 37.9194L68.64 38.0515ZM71.9097 35.9749L71.9721 36.1662L71.9758 36.1649L71.9097 35.9749ZM76.5491 35.0912L76.5628 35.292L76.5659 35.2917L76.5491 35.0912ZM82.0281 34.8702V35.0715H82.2293V34.8702H82.0281ZM77.3887 37.3888L77.403 37.5896L77.4073 37.5892L77.3887 37.3888ZM73.9864 38.0074L74.0432 38.2005L74.0468 38.1994L73.9864 38.0074ZM71.5121 39.3329L71.6474 39.4818L71.6474 39.4818L71.5121 39.3329ZM70.9377 43.5305L70.7596 43.6247L70.7642 43.6325L70.9377 43.5305ZM72.0865 44.7676L71.9723 44.9337L71.9798 44.9383L72.0865 44.7676ZM73.6329 45.4304L73.5816 45.6254L73.5935 45.6278L73.6329 45.4304ZM78.2282 45.0769L78.3075 45.262L78.3129 45.2595L78.2282 45.0769ZM80.3049 43.5747L80.4541 43.7097L80.4572 43.7062L80.3049 43.5747ZM81.5862 41.3654L81.7758 41.4331L81.7758 41.4331L81.5862 41.3654ZM82.0281 37.212H82.2293V37.0108H82.0281V37.212ZM82.2293 34.2075C82.2293 32.3773 81.7488 30.9745 80.7518 30.0398L80.4765 30.3335C81.3647 31.1661 81.8268 32.4439 81.8268 34.2075H82.2293ZM80.7518 30.0398C79.7594 29.1094 78.3328 28.6598 76.505 28.6598V29.0624C78.2708 29.0624 79.5837 29.4964 80.4765 30.3335L80.7518 30.0398ZM76.505 28.6598C75.2433 28.6598 74.0679 28.8852 72.9811 29.3381L73.1359 29.7096C74.17 29.2788 75.2923 29.0624 76.505 29.0624V28.6598ZM72.9811 29.3381C71.8989 29.789 70.9778 30.3921 70.2209 31.1489L70.5056 31.4336C71.2216 30.7176 72.0973 30.1424 73.1359 29.7096L72.9811 29.3381ZM70.517 31.1614L68.838 29.1731L68.5305 29.4328L70.2095 31.4211L70.517 31.1614ZM68.8265 29.4453C69.6578 28.614 70.7526 27.9205 72.1177 27.3687L71.9669 26.9955C70.5631 27.5629 69.4192 28.2833 68.5419 29.1606L68.8265 29.4453ZM72.1164 27.3692C73.5032 26.8202 75.0682 26.5438 76.8142 26.5438V26.1413C75.0255 26.1413 73.4092 26.4245 71.9682 26.9949L72.1164 27.3692ZM76.8142 26.5438C77.914 26.5438 78.938 26.7029 79.8877 27.0195L80.015 26.6376C79.0206 26.3062 77.9532 26.1413 76.8142 26.1413V26.5438ZM79.893 27.0212C80.8405 27.3083 81.6702 27.7523 82.3846 28.3524L82.6436 28.0442C81.8851 27.4071 81.0064 26.938 80.0097 26.636L79.893 27.0212ZM82.3846 28.3524C83.0957 28.9497 83.6521 29.7045 84.0529 30.6208L84.4217 30.4594C83.9978 29.4905 83.4053 28.6841 82.6436 28.0442L82.3846 28.3524ZM84.0529 30.6208C84.4519 31.5328 84.6546 32.6089 84.6546 33.854H85.0572C85.0572 32.5658 84.8475 31.4327 84.4217 30.4594L84.0529 30.6208ZM84.6546 33.854V42.9119H85.0572V33.854H84.6546ZM84.6546 42.9119C84.6546 43.7122 84.6843 44.5416 84.7435 45.4001L85.1451 45.3724C85.0864 44.5224 85.0572 43.7023 85.0572 42.9119H84.6546ZM84.7435 45.4001C84.8028 46.2596 84.892 46.9905 85.012 47.5908L85.4067 47.5118C85.2911 46.9339 85.2036 46.2213 85.1451 45.3724L84.7435 45.4001ZM85.2094 47.35H82.5141V47.7526H85.2094V47.35ZM82.7123 47.5163C82.6249 47.0212 82.5519 46.4813 82.4934 45.8964L82.0929 45.9365C82.1522 46.5298 82.2265 47.0798 82.3159 47.5863L82.7123 47.5163ZM82.4934 45.8964C82.4352 45.3136 82.4061 44.7459 82.4061 44.1932H82.0035C82.0035 44.76 82.0334 45.3411 82.0929 45.9365L82.4934 45.8964ZM82.2048 43.992H82.1164V44.3945H82.2048V43.992ZM81.9501 44.08C81.022 45.443 79.9707 46.4187 78.7992 47.0187L78.9827 47.3769C80.2267 46.7398 81.3256 45.7124 82.2828 44.3065L81.9501 44.08ZM78.8009 47.0178C77.6572 47.5897 76.2611 47.8802 74.605 47.8802V48.2828C76.3069 48.2828 77.7681 47.9842 78.9809 47.3778L78.8009 47.0178ZM74.605 47.8802C73.8297 47.8802 73.0229 47.7654 72.1842 47.534L72.0771 47.9221C72.9468 48.162 73.7897 48.2828 74.605 48.2828V47.8802ZM72.1795 47.5328C71.3794 47.3328 70.6363 46.99 69.9494 46.5034L69.7167 46.8318C70.4437 47.3468 71.2324 47.7109 72.0818 47.9233L72.1795 47.5328ZM69.9527 46.5057C69.2988 46.0225 68.7419 45.3953 68.283 44.6209L67.9367 44.8261C68.4203 45.6423 69.0123 46.3112 69.7134 46.8294L69.9527 46.5057ZM68.2858 44.6257C67.8643 43.8672 67.6483 42.9307 67.6483 41.8073H67.2458C67.2458 42.9815 67.4716 43.9891 67.9339 44.8212L68.2858 44.6257ZM67.6483 41.8073C67.6483 40.2497 68.0373 39.05 68.7918 38.1837L68.4883 37.9194C67.6521 38.8794 67.2458 40.1835 67.2458 41.8073H67.6483ZM68.7915 38.1841C69.5893 37.2723 70.6467 36.5984 71.9721 36.1662L71.8473 35.7835C70.4627 36.235 69.3404 36.9455 68.4886 37.919L68.7915 38.1841ZM71.9758 36.1649C73.3107 35.7006 74.839 35.4088 76.5628 35.292L76.5355 34.8904C74.7834 35.0091 73.2187 35.3065 71.8436 35.7848L71.9758 36.1649ZM76.5659 35.2917C78.3274 35.1449 80.1481 35.0715 82.0281 35.0715V34.669C80.1376 34.669 78.3057 34.7428 76.5324 34.8906L76.5659 35.2917ZM82.2293 34.8702V34.2075H81.8268V34.8702H82.2293ZM81.1444 37.0108C79.9008 37.0108 78.6427 37.07 77.37 37.1884L77.4073 37.5892C78.6679 37.4719 79.9136 37.4133 81.1444 37.4133V37.0108ZM77.3743 37.188C76.1238 37.2773 74.974 37.486 73.9261 37.8154L74.0468 38.1994C75.0608 37.8807 76.1792 37.6769 77.403 37.5895L77.3743 37.188ZM73.9296 37.8143C72.9045 38.1158 72.0512 38.5708 71.3767 39.184L71.6474 39.4818C72.2691 38.9167 73.0653 38.4881 74.0432 38.2004L73.9296 37.8143ZM71.3767 39.184C70.6818 39.8157 70.3387 40.6529 70.3387 41.6747H70.7413C70.7413 40.7524 71.0462 40.0284 71.6474 39.4818L71.3767 39.184ZM70.3387 41.6747C70.3387 42.4344 70.4754 43.0875 70.7598 43.6246L71.1155 43.4363C70.8697 42.9719 70.7413 42.3878 70.7413 41.6747H70.3387ZM70.7642 43.6325C71.0734 44.1582 71.4765 44.5925 71.9724 44.9335L72.2005 44.6018C71.7538 44.2947 71.391 43.9042 71.1111 43.4284L70.7642 43.6325ZM71.9798 44.9383C72.469 45.2441 73.0033 45.4728 73.5817 45.6251L73.6842 45.2358C73.1433 45.0934 72.6466 44.8804 72.1931 44.597L71.9798 44.9383ZM73.5935 45.6278C74.1953 45.7481 74.7977 45.8084 75.4003 45.8084V45.4059C74.8247 45.4059 74.2488 45.3483 73.6724 45.2331L73.5935 45.6278ZM75.4003 45.8084C76.4831 45.8084 77.4535 45.6279 78.3074 45.2619L78.1489 44.8919C77.3533 45.2329 76.4384 45.4059 75.4003 45.4059V45.8084ZM78.3129 45.2595C79.1599 44.8662 79.8748 44.35 80.4541 43.7097L80.1556 43.4396C79.6156 44.0365 78.946 44.5218 78.1434 44.8944L78.3129 45.2595ZM80.4572 43.7062C81.0335 43.0389 81.473 42.2807 81.7758 41.4331L81.3967 41.2977C81.1103 42.0996 80.6956 42.8143 80.1525 43.4431L80.4572 43.7062ZM81.7758 41.4331C82.0784 40.5857 82.2293 39.6937 82.2293 38.7585H81.8268C81.8268 39.6496 81.6832 40.4956 81.3967 41.2977L81.7758 41.4331ZM82.2293 38.7585V37.212H81.8268V38.7585H82.2293ZM82.0281 37.0108H81.1444V37.4133H82.0281V37.0108ZM107.354 47.5513L107.154 47.5724L107.173 47.7526H107.354V47.5513ZM107.221 45.6955L107.02 45.7043L107.02 45.7043L107.221 45.6955ZM107.177 44.0165H107.378V43.8152H107.177V44.0165ZM107.089 44.0165V43.8152H106.963L106.908 43.9283L107.089 44.0165ZM104.217 46.9769L104.315 47.1529L104.317 47.1512L104.217 46.9769ZM94.0985 45.7397L93.9436 45.8683L93.945 45.87L94.0985 45.7397ZM92.1543 26.8728V26.6715H91.9531V26.8728H92.1543ZM95.1589 26.8728H95.3602V26.6715H95.1589V26.8728ZM96.3077 43.5747L96.1377 43.6829L96.1439 43.6916L96.3077 43.5747ZM98.0309 45.0328L97.9409 45.2128L97.9438 45.2142L98.0309 45.0328ZM103.068 45.0769L102.99 44.8916L102.987 44.8927L103.068 45.0769ZM105.101 43.6188L105.249 43.7543L105.252 43.7509L105.101 43.6188ZM106.514 41.1003L106.704 41.1673L106.705 41.1656L106.514 41.1003ZM107.045 26.8728V26.6715H106.843V26.8728H107.045ZM110.049 26.8728H110.25V26.6715H110.049V26.8728ZM110.093 45.1653L109.892 45.172L109.892 45.172L110.093 45.1653ZM110.226 47.5513V47.7526H110.445L110.427 47.5346L110.226 47.5513ZM107.554 47.5302C107.496 46.9754 107.452 46.361 107.422 45.6868L107.02 45.7043C107.05 46.3851 107.094 47.0079 107.154 47.5724L107.554 47.5302ZM107.422 45.6868C107.393 45.0108 107.378 44.4543 107.378 44.0165H106.976C106.976 44.4624 106.991 45.0252 107.02 45.7043L107.422 45.6868ZM107.177 43.8152H107.089V44.2178H107.177V43.8152ZM106.908 43.9283C106.339 45.0951 105.412 46.0539 104.116 46.8026L104.317 47.1512C105.673 46.3681 106.661 45.3533 107.27 44.1047L106.908 43.9283ZM104.119 46.801C102.822 47.5213 101.457 47.8802 100.019 47.8802V48.2828C101.527 48.2828 102.96 47.9053 104.315 47.1528L104.119 46.801ZM100.019 47.8802C97.4389 47.8802 95.529 47.1136 94.2519 45.6094L93.945 45.87C95.319 47.4882 97.3563 48.2828 100.019 48.2828V47.8802ZM94.2533 45.6112C92.9944 44.0947 92.3556 42.0823 92.3556 39.5538H91.9531C91.9531 42.1509 92.6103 44.2623 93.9436 45.8683L94.2533 45.6112ZM92.3556 39.5538V26.8728H91.9531V39.5538H92.3556ZM92.1543 27.074H95.1589V26.6715H92.1543V27.074ZM94.9576 26.8728V38.3167H95.3602V26.8728H94.9576ZM94.9576 38.3167C94.9576 39.4172 95.0468 40.4175 95.2267 41.3165L95.6214 41.2376C95.4477 40.3692 95.3602 39.3959 95.3602 38.3167H94.9576ZM95.2267 41.3165C95.4074 42.2204 95.7101 43.0104 96.1379 43.6827L96.4775 43.4666C96.0806 42.8428 95.7941 42.101 95.6214 41.2376L95.2267 41.3165ZM96.1439 43.6916C96.6056 44.338 97.2058 44.8452 97.9409 45.2128L98.1209 44.8527C97.4421 44.5133 96.8935 44.0485 96.4715 43.4577L96.1439 43.6916ZM97.9438 45.2142C98.7149 45.5843 99.66 45.7642 100.77 45.7642V45.3617C99.701 45.3617 98.8198 45.1881 98.118 44.8513L97.9438 45.2142ZM100.77 45.7642C101.594 45.7642 102.387 45.5963 103.149 45.2612L102.987 44.8927C102.276 45.2056 101.537 45.3617 100.77 45.3617V45.7642ZM103.146 45.2623C103.941 44.9263 104.642 44.4227 105.249 43.7542L104.952 43.4835C104.381 44.1111 103.727 44.5795 102.99 44.8916L103.146 45.2623ZM105.252 43.7509C105.861 43.0511 106.344 42.1884 106.704 41.1673L106.325 41.0333C105.978 42.0152 105.518 42.8315 104.949 43.4868L105.252 43.7509ZM106.705 41.1656C107.067 40.1088 107.246 38.8781 107.246 37.4771H106.843C106.843 38.8451 106.669 40.0299 106.324 41.035L106.705 41.1656ZM107.246 37.4771V26.8728H106.843V37.4771H107.246ZM107.045 27.074H110.049V26.6715H107.045V27.074ZM109.848 26.8728V43.0003H110.25V26.8728H109.848ZM109.848 43.0003C109.848 43.5631 109.863 44.2872 109.892 45.172L110.295 45.1586C110.265 44.276 110.25 43.5568 110.25 43.0003H109.848ZM109.892 45.172C109.922 46.0583 109.966 46.857 110.025 47.568L110.427 47.5346C110.368 46.8316 110.324 46.0397 110.295 45.1586L109.892 45.172ZM110.226 47.35H107.354V47.7526H110.226V47.35ZM132.63 31.6006L132.46 31.7078L132.574 31.8887L132.747 31.7641L132.63 31.6006ZM130.421 29.6564L130.322 29.832L130.329 29.8353L130.421 29.6564ZM124.058 29.5239L124.137 29.7092L124.142 29.7071L124.058 29.5239ZM121.54 31.2913L121.392 31.1547L121.392 31.155L121.54 31.2913ZM119.949 33.9424L119.76 33.8723L119.759 33.8754L119.949 33.9424ZM119.949 40.4817L119.759 40.5487L119.761 40.5536L119.949 40.4817ZM121.54 43.1328L121.389 43.2662L121.392 43.2691L121.54 43.1328ZM124.014 44.9002L123.931 45.0835L123.935 45.0855L124.014 44.9002ZM130.642 44.7676L130.739 44.9441L130.739 44.9441L130.642 44.7676ZM132.895 42.8235L133.015 42.6621L132.854 42.5415L132.733 42.7037L132.895 42.8235ZM135.149 44.5025L135.305 44.6293L135.437 44.4664L135.269 44.3411L135.149 44.5025ZM131.879 47.1094L131.789 46.9294L131.787 46.9303L131.879 47.1094ZM122.733 47.2862L122.656 47.4722L122.659 47.4736L122.733 47.2862ZM119.242 44.9886L119.098 45.1287L119.1 45.1309L119.242 44.9886ZM117.033 41.5421L116.846 41.6169L116.846 41.6169L117.033 41.5421ZM117.033 32.8819L116.846 32.8072L116.846 32.8072L117.033 32.8819ZM119.242 29.4355L119.1 29.2932L119.098 29.2954L119.242 29.4355ZM122.733 27.1821L122.806 27.3695L122.81 27.3681L122.733 27.1821ZM131.481 27.2704L131.401 27.4549L131.405 27.4568L131.481 27.2704ZM134.972 29.9215L135.089 30.0851L135.256 29.9653L135.133 29.8008L134.972 29.9215ZM132.8 31.4933C132.278 30.6629 131.512 29.992 130.513 29.4775L130.329 29.8353C131.274 30.3223 131.981 30.9476 132.46 31.7078L132.8 31.4933ZM130.52 29.481C129.546 28.9332 128.481 28.6598 127.328 28.6598V29.0624C128.414 29.0624 129.411 29.3192 130.322 29.8318L130.52 29.481ZM127.328 28.6598C126.095 28.6598 124.976 28.8854 123.975 29.3406L124.142 29.7071C125.084 29.2786 126.145 29.0624 127.328 29.0624V28.6598ZM123.98 29.3386C122.982 29.762 122.118 30.3676 121.392 31.1547L121.688 31.4278C122.375 30.6832 123.191 30.1105 124.137 29.7091L123.98 29.3386ZM121.392 31.155C120.695 31.9125 120.151 32.8192 119.76 33.8723L120.138 34.0124C120.512 33.0035 121.03 32.1429 121.688 31.4275L121.392 31.155ZM119.759 33.8754C119.397 34.9006 119.218 36.0134 119.218 37.212H119.62C119.62 36.0541 119.794 34.9871 120.139 34.0093L119.759 33.8754ZM119.218 37.212C119.218 38.4106 119.397 39.5234 119.759 40.5487L120.139 40.4147C119.794 39.4369 119.62 38.37 119.62 37.212H119.218ZM119.761 40.5536C120.152 41.5766 120.695 42.4813 121.389 43.2662L121.69 42.9995C121.03 42.2525 120.512 41.3899 120.137 40.4098L119.761 40.5536ZM121.392 43.2691C122.089 44.0266 122.936 44.6312 123.931 45.0834L124.097 44.717C123.148 44.2855 122.346 43.7118 121.688 42.9965L121.392 43.2691ZM123.935 45.0855C124.936 45.5098 126.053 45.7201 127.284 45.7201V45.3175C126.099 45.3175 125.037 45.1154 124.093 44.7149L123.935 45.0855ZM127.284 45.7201C128.634 45.7201 129.789 45.465 130.739 44.9441L130.545 44.5912C129.669 45.0718 128.584 45.3175 127.284 45.3175V45.7201ZM130.739 44.9441C131.676 44.4301 132.45 43.7632 133.057 42.9433L132.733 42.7037C132.163 43.4745 131.434 44.1036 130.545 44.5912L130.739 44.9441ZM132.775 42.9849L135.028 44.6639L135.269 44.3411L133.015 42.6621L132.775 42.9849ZM134.992 44.3758C134.127 45.4427 133.06 46.2938 131.789 46.9294L131.969 47.2895C133.29 46.629 134.403 45.7422 135.305 44.6293L134.992 44.3758ZM131.787 46.9303C130.556 47.5605 129.057 47.8802 127.284 47.8802V48.2828C129.104 48.2828 130.669 47.9545 131.971 47.2886L131.787 46.9303ZM127.284 47.8802C125.626 47.8802 124.134 47.6185 122.806 47.0988L122.659 47.4736C124.041 48.0143 125.583 48.2828 127.284 48.2828V47.8802ZM122.81 47.1002C121.477 46.5499 120.337 45.7984 119.384 44.8463L119.1 45.1309C120.092 46.1229 121.278 46.9031 122.656 47.4722L122.81 47.1002ZM119.387 44.8485C118.463 43.8962 117.741 42.77 117.22 41.4674L116.846 41.6169C117.385 42.9654 118.136 44.1368 119.098 45.1287L119.387 44.8485ZM117.22 41.4674C116.7 40.1678 116.439 38.75 116.439 37.212H116.036C116.036 38.7964 116.305 40.2654 116.846 41.6169L117.22 41.4674ZM116.439 37.212C116.439 35.674 116.7 34.2563 117.22 32.9567L116.846 32.8072C116.305 34.1586 116.036 35.6276 116.036 37.212H116.439ZM117.22 32.9567C117.741 31.6541 118.463 30.5278 119.387 29.5756L119.098 29.2954C118.136 30.2873 117.385 31.4586 116.846 32.8072L117.22 32.9567ZM119.384 29.5778C120.336 28.6265 121.475 27.8902 122.806 27.3695L122.659 26.9946C121.28 27.5344 120.093 28.3003 119.1 29.2932L119.384 29.5778ZM122.81 27.3681C124.137 26.8198 125.627 26.5438 127.284 26.5438V26.1413C125.582 26.1413 124.038 26.4249 122.656 26.996L122.81 27.3681ZM127.284 26.5438C128.637 26.5438 130.009 26.8461 131.401 27.4548L131.562 27.086C130.126 26.4576 128.699 26.1413 127.284 26.1413V26.5438ZM131.405 27.4568C132.817 28.033 133.95 28.8949 134.811 30.0423L135.133 29.8008C134.226 28.5916 133.032 27.6862 131.557 27.0841L131.405 27.4568ZM134.855 29.758L132.513 31.437L132.747 31.7641L135.089 30.0851L134.855 29.758ZM146.681 44.3258L146.494 44.401L146.545 44.5271H146.681V44.3258ZM146.769 44.3258V44.5271H146.91L146.958 44.3952L146.769 44.3258ZM153.176 26.8728V26.6715H153.036L152.987 26.8034L153.176 26.8728ZM156.446 26.8728L156.633 26.9468L156.742 26.6715H156.446V26.8728ZM146.151 52.8977L145.964 52.8236L145.963 52.8247L146.151 52.8977ZM143.765 56.6976L143.625 56.553L143.62 56.5575L143.765 56.6976ZM136.96 57.8906L136.76 57.868L136.739 58.0517L136.921 58.0879L136.96 57.8906ZM137.27 55.1511L137.333 54.9602L137.097 54.8816L137.07 55.1285L137.27 55.1511ZM141.909 54.5325L141.763 54.3937L141.76 54.3971L141.909 54.5325ZM143.455 51.8372L143.268 51.7645L143.267 51.7666L143.455 51.8372ZM145.134 47.5071L145.322 47.5799L145.352 47.5033L145.319 47.4279L145.134 47.5071ZM136.297 26.8728V26.6715H135.992L136.112 26.952L136.297 26.8728ZM139.655 26.8728L139.842 26.7976L139.791 26.6715H139.655V26.8728ZM146.681 44.5271H146.769V44.1245H146.681V44.5271ZM146.958 44.3952L153.365 26.9421L152.987 26.8034L146.58 44.2564L146.958 44.3952ZM153.176 27.074H156.446V26.6715H153.176V27.074ZM156.259 26.7987L145.964 52.8236L146.338 52.9717L156.633 26.9468L156.259 26.7987ZM145.963 52.8247C145.352 54.3952 144.571 55.6351 143.625 56.5531L143.905 56.8421C144.902 55.8748 145.712 54.5814 146.338 52.9706L145.963 52.8247ZM143.62 56.5575C142.727 57.4789 141.416 57.9544 139.655 57.9544V58.3569C141.488 58.3569 142.917 57.8604 143.909 56.8377L143.62 56.5575ZM139.655 57.9544C138.755 57.9544 137.87 57.8673 137 57.6932L136.921 58.0879C137.818 58.2673 138.729 58.3569 139.655 58.3569V57.9544ZM137.16 57.9131L137.47 55.1737L137.07 55.1285L136.76 57.868L137.16 57.9131ZM137.206 55.342C137.934 55.5847 138.692 55.7058 139.479 55.7058V55.3033C138.734 55.3033 138.019 55.1888 137.333 54.9602L137.206 55.342ZM139.479 55.7058C140.555 55.7058 141.424 55.3654 142.058 54.6679L141.76 54.3971C141.216 54.9957 140.464 55.3033 139.479 55.3033V55.7058ZM142.055 54.6713C142.669 54.0261 143.197 53.1006 143.644 51.9079L143.267 51.7666C142.83 52.9304 142.327 53.8017 141.763 54.3937L142.055 54.6713ZM143.643 51.91L145.322 47.5799L144.947 47.4343L143.268 51.7645L143.643 51.91ZM145.319 47.4279L136.482 26.7935L136.112 26.952L144.949 47.5863L145.319 47.4279ZM136.297 27.074H139.655V26.6715H136.297V27.074ZM139.469 26.9479L146.494 44.401L146.868 44.2506L139.842 26.7976L139.469 26.9479Z" fill="black" fill-opacity="0.85098" mask="url(#path-5-outside-1_1655_23088)"/>
</svg>
