<svg width="160" height="68" viewBox="0 0 160 68" fill="none" xmlns="http://www.w3.org/2000/svg">
<g clip-path="url(#clip0_712_782)">
<path d="M18.7003 29.1898L17.001 28.8928C15.3153 28.5982 14.0852 27.1346 14.0852 25.4233V11.0134C14.0852 10.7355 13.86 10.5103 13.5821 10.5103H7.54409C7.2662 10.5103 7.04092 10.7355 7.04092 11.0134V25.4233C7.04092 27.1346 5.81086 28.5982 4.1251 28.8928L2.42582 29.1898C2.185 29.2319 2.00928 29.441 2.00928 29.6854V37.178C2.00928 37.4559 2.23455 37.6811 2.51244 37.6811H18.6137C18.8916 37.6811 19.1169 37.4559 19.1169 37.178V29.6854C19.1169 29.441 18.9411 29.2319 18.7003 29.1898Z" stroke="black" stroke-width="3.01899"/>
<path d="M18.614 43.7192H2.5127" stroke="black" stroke-width="3.01899" stroke-linecap="round"/>
<path d="M15.5952 49.7568H5.53174" stroke="black" stroke-width="3.01899" stroke-linecap="round"/>
<path d="M17.6077 55.7949H3.51904" stroke="black" stroke-width="3.01899" stroke-linecap="round"/>
<path d="M60.1503 21.8055C59.4728 20.8629 58.6038 20.1117 57.5434 19.552C56.483 18.9629 55.2016 18.6684 53.6993 18.6684C52.9334 18.6684 52.1528 18.7862 51.3575 19.0218C50.5622 19.2575 49.8405 19.6257 49.1925 20.1265C48.5444 20.5978 48.0142 21.2016 47.6018 21.938C47.2189 22.6744 47.0274 23.5434 47.0274 24.5449C47.0274 25.5465 47.2189 26.3712 47.6018 27.0193C47.9847 27.6673 48.4855 28.227 49.1041 28.6983C49.7521 29.1402 50.4738 29.5084 51.2691 29.8029C52.0939 30.0975 52.9482 30.3921 53.8319 30.6866C54.9218 31.0401 56.0116 31.4231 57.1015 31.8354C58.2209 32.2478 59.2224 32.7928 60.1061 33.4703C60.9898 34.1183 61.7115 34.9578 62.2712 35.9888C62.8308 36.9903 63.1107 38.2717 63.1107 39.8329C63.1107 41.3941 62.8014 42.7491 62.1828 43.8979C61.5937 45.0173 60.8131 45.9451 59.841 46.6816C58.8984 47.418 57.8085 47.9629 56.5713 48.3164C55.3636 48.6699 54.1412 48.8466 52.904 48.8466C51.9614 48.8466 51.0188 48.7435 50.0761 48.5373C49.1335 48.3606 48.2351 48.0807 47.3809 47.6978C46.5266 47.3149 45.7313 46.8288 44.9949 46.2397C44.2585 45.6506 43.6104 44.9731 43.0508 44.2072L45.7902 42.1747C46.4677 43.2941 47.4103 44.2367 48.618 45.0025C49.8552 45.739 51.2986 46.1072 52.9482 46.1072C53.7435 46.1072 54.5535 45.9893 55.3783 45.7537C56.2031 45.4886 56.9395 45.1056 57.5876 44.6049C58.2651 44.0747 58.81 43.4413 59.2224 42.7049C59.6643 41.9391 59.8852 41.0554 59.8852 40.0538C59.8852 38.9639 59.6643 38.0655 59.2224 37.3586C58.81 36.6221 58.2503 36.0183 57.5434 35.547C56.8364 35.0462 56.0264 34.6338 55.1132 34.3098C54.2001 33.9858 53.2427 33.6618 52.2412 33.3377C51.2102 33.0137 50.194 32.6455 49.1925 32.2331C48.1909 31.8207 47.2925 31.2905 46.4972 30.6425C45.7018 29.965 45.0538 29.1402 44.553 28.1681C44.0817 27.196 43.8461 26.003 43.8461 24.5891C43.8461 23.0868 44.1406 21.7907 44.7298 20.7009C45.3484 19.611 46.1437 18.7125 47.1158 18.0056C48.0878 17.2986 49.163 16.7831 50.3413 16.4591C51.5195 16.1351 52.6831 15.9731 53.8319 15.9731C55.9527 15.9731 57.7643 16.356 59.2666 17.1219C60.7689 17.8583 61.903 18.742 62.6688 19.773L60.1503 21.8055ZM82.5279 34.7075C82.5279 32.9106 82.0566 31.5703 81.1139 30.6866C80.1713 29.8029 78.8016 29.3611 77.0048 29.3611C75.7676 29.3611 74.6188 29.582 73.5583 30.0239C72.4979 30.4657 71.5995 31.0548 70.8631 31.7913L69.184 29.8029C70.0383 28.9487 71.1576 28.2417 72.5421 27.6821C73.956 27.1224 75.5467 26.8426 77.314 26.8426C78.4334 26.8426 79.4791 27.0046 80.4512 27.3286C81.4232 27.6232 82.2775 28.0797 83.0139 28.6983C83.7503 29.3169 84.3247 30.0975 84.7371 31.0401C85.1495 31.9827 85.3557 33.0873 85.3557 34.354V43.4119C85.3557 44.2072 85.3852 45.032 85.4441 45.8862C85.503 46.7405 85.5913 47.4622 85.7092 48.0513H83.0139C82.9255 47.5505 82.8519 47.0056 82.793 46.4165C82.7341 45.8273 82.7046 45.2529 82.7046 44.6932H82.6162C81.6736 46.0777 80.5985 47.0792 79.3907 47.6978C78.2125 48.2869 76.7838 48.5815 75.1048 48.5815C74.3095 48.5815 73.4847 48.4637 72.6305 48.228C71.8057 48.0218 71.0398 47.6684 70.3328 47.1676C69.6553 46.6668 69.0809 46.0188 68.6096 45.2235C68.1678 44.4281 67.9469 43.4561 67.9469 42.3073C67.9469 40.7166 68.3445 39.4647 69.1398 38.5515C69.9646 37.6089 71.0545 36.9167 72.4095 36.4749C73.7645 36.0035 75.311 35.709 77.0489 35.5912C78.8163 35.4439 80.6426 35.3702 82.5279 35.3702V34.7075ZM81.6442 37.712C80.407 37.712 79.1551 37.7709 77.8885 37.8888C76.6513 37.9771 75.5172 38.1833 74.4862 38.5074C73.4847 38.8019 72.6599 39.2438 72.0119 39.8329C71.3638 40.422 71.0398 41.2026 71.0398 42.1747C71.0398 42.9111 71.1724 43.5297 71.4375 44.0305C71.732 44.5312 72.115 44.9436 72.5863 45.2676C73.0576 45.5622 73.5731 45.7831 74.1327 45.9304C74.7219 46.0482 75.311 46.1072 75.9001 46.1072C76.9606 46.1072 77.9032 45.9304 78.728 45.5769C79.5527 45.194 80.245 44.6932 80.8047 44.0747C81.3643 43.4266 81.7914 42.6902 82.086 41.8654C82.3806 41.0406 82.5279 40.1717 82.5279 39.2585V37.712H81.6442ZM107.854 48.0513C107.795 47.4916 107.751 46.873 107.721 46.1955C107.692 45.518 107.677 44.9584 107.677 44.5165H107.589C107 45.7242 106.042 46.711 104.717 47.4769C103.391 48.2133 101.992 48.5815 100.519 48.5815C97.8974 48.5815 95.9238 47.8009 94.5983 46.2397C93.3022 44.6785 92.6541 42.6166 92.6541 40.0538V27.3728H95.6587V38.8167C95.6587 39.9065 95.7471 40.8933 95.9238 41.777C96.1006 42.6607 96.3951 43.4266 96.8075 44.0747C97.2494 44.6932 97.8238 45.1793 98.5307 45.5328C99.2671 45.8862 100.18 46.063 101.27 46.063C102.066 46.063 102.832 45.901 103.568 45.5769C104.334 45.2529 105.011 44.7669 105.601 44.1188C106.19 43.4413 106.661 42.6018 107.014 41.6003C107.368 40.5693 107.545 39.3616 107.545 37.9771V27.3728H110.549V43.5003C110.549 44.0599 110.564 44.7816 110.593 45.6653C110.623 46.549 110.667 47.3443 110.726 48.0513H107.854ZM133.13 32.1006C132.629 31.3052 131.893 30.6572 130.921 30.1564C129.978 29.6262 128.947 29.3611 127.828 29.3611C126.62 29.3611 125.53 29.582 124.558 30.0239C123.586 30.4363 122.747 31.0254 122.04 31.7913C121.362 32.5277 120.832 33.4114 120.449 34.4424C120.096 35.4439 119.919 36.5338 119.919 37.712C119.919 38.8903 120.096 39.9802 120.449 40.9817C120.832 41.9832 121.362 42.8669 122.04 43.6328C122.717 44.3692 123.542 44.9584 124.514 45.4002C125.486 45.8126 126.576 46.0188 127.784 46.0188C129.109 46.0188 130.229 45.7684 131.142 45.2676C132.055 44.7669 132.806 44.1188 133.395 43.3235L135.649 45.0025C134.765 46.0924 133.675 46.9614 132.379 47.6094C131.112 48.2575 129.581 48.5815 127.784 48.5815C126.105 48.5815 124.588 48.3164 123.233 47.7862C121.878 47.2265 120.714 46.4606 119.742 45.4886C118.799 44.5165 118.063 43.3677 117.533 42.0421C117.003 40.7166 116.738 39.2732 116.738 37.712C116.738 36.1508 117.003 34.7075 117.533 33.3819C118.063 32.0564 118.799 30.9076 119.742 29.9355C120.714 28.9634 121.878 28.2123 123.233 27.6821C124.588 27.1224 126.105 26.8426 127.784 26.8426C129.168 26.8426 130.567 27.1518 131.981 27.7704C133.425 28.3596 134.588 29.2433 135.472 30.4215L133.13 32.1006ZM147.181 44.8258H147.269L153.676 27.3728H156.946L146.651 53.3977C146.032 54.9883 145.237 56.255 144.265 57.1976C143.322 58.1696 141.952 58.6557 140.155 58.6557C139.242 58.6557 138.344 58.5673 137.46 58.3906L137.77 55.6511C138.476 55.8867 139.213 56.0046 139.979 56.0046C141.01 56.0046 141.82 55.6805 142.409 55.0325C142.998 54.4139 143.514 53.5155 143.955 52.3372L145.634 48.0071L136.797 27.3728H140.155L147.181 44.8258Z" fill="black"/>
<mask id="mask0_712_782" style="mask-type:luminance" maskUnits="userSpaceOnUse" x="42" y="15" width="116" height="45">
<path d="M157.753 15.0513H42.7534V59.0513H157.753V15.0513Z" fill="white"/>
<path d="M60.1503 21.8055C59.4728 20.8629 58.6038 20.1117 57.5434 19.552C56.483 18.9629 55.2016 18.6684 53.6993 18.6684C52.9334 18.6684 52.1528 18.7862 51.3575 19.0218C50.5622 19.2575 49.8405 19.6257 49.1925 20.1265C48.5444 20.5978 48.0142 21.2016 47.6018 21.938C47.2189 22.6744 47.0274 23.5434 47.0274 24.5449C47.0274 25.5465 47.2189 26.3712 47.6018 27.0193C47.9847 27.6673 48.4855 28.227 49.1041 28.6983C49.7521 29.1402 50.4738 29.5084 51.2691 29.8029C52.0939 30.0975 52.9482 30.3921 53.8319 30.6866C54.9218 31.0401 56.0116 31.4231 57.1015 31.8354C58.2209 32.2478 59.2224 32.7928 60.1061 33.4703C60.9898 34.1183 61.7115 34.9578 62.2712 35.9888C62.8308 36.9903 63.1107 38.2717 63.1107 39.8329C63.1107 41.3941 62.8014 42.7491 62.1828 43.8979C61.5937 45.0173 60.8131 45.9451 59.841 46.6816C58.8984 47.418 57.8085 47.9629 56.5713 48.3164C55.3636 48.6699 54.1412 48.8466 52.904 48.8466C51.9614 48.8466 51.0188 48.7435 50.0761 48.5373C49.1335 48.3606 48.2351 48.0807 47.3809 47.6978C46.5266 47.3149 45.7313 46.8288 44.9949 46.2397C44.2585 45.6506 43.6104 44.9731 43.0508 44.2072L45.7902 42.1747C46.4677 43.2941 47.4103 44.2367 48.618 45.0025C49.8552 45.739 51.2986 46.1072 52.9482 46.1072C53.7435 46.1072 54.5535 45.9893 55.3783 45.7537C56.2031 45.4886 56.9395 45.1056 57.5876 44.6049C58.2651 44.0747 58.81 43.4413 59.2224 42.7049C59.6643 41.9391 59.8852 41.0554 59.8852 40.0538C59.8852 38.9639 59.6643 38.0655 59.2224 37.3586C58.81 36.6221 58.2503 36.0183 57.5434 35.547C56.8364 35.0462 56.0264 34.6338 55.1132 34.3098C54.2001 33.9858 53.2427 33.6618 52.2412 33.3377C51.2102 33.0137 50.194 32.6455 49.1925 32.2331C48.1909 31.8207 47.2925 31.2905 46.4972 30.6425C45.7018 29.965 45.0538 29.1402 44.553 28.1681C44.0817 27.196 43.8461 26.003 43.8461 24.5891C43.8461 23.0868 44.1406 21.7907 44.7298 20.7009C45.3484 19.611 46.1437 18.7125 47.1158 18.0056C48.0878 17.2986 49.163 16.7831 50.3413 16.4591C51.5195 16.1351 52.6831 15.9731 53.8319 15.9731C55.9527 15.9731 57.7643 16.356 59.2666 17.1219C60.7689 17.8583 61.903 18.742 62.6688 19.773L60.1503 21.8055ZM82.5279 34.7075C82.5279 32.9106 82.0566 31.5703 81.1139 30.6866C80.1713 29.8029 78.8016 29.3611 77.0048 29.3611C75.7676 29.3611 74.6188 29.582 73.5583 30.0239C72.4979 30.4657 71.5995 31.0548 70.8631 31.7913L69.184 29.8029C70.0383 28.9487 71.1576 28.2417 72.5421 27.6821C73.956 27.1224 75.5467 26.8426 77.314 26.8426C78.4334 26.8426 79.4791 27.0046 80.4512 27.3286C81.4232 27.6232 82.2775 28.0797 83.0139 28.6983C83.7503 29.3169 84.3247 30.0975 84.7371 31.0401C85.1495 31.9827 85.3557 33.0873 85.3557 34.354V43.4119C85.3557 44.2072 85.3852 45.032 85.4441 45.8862C85.503 46.7405 85.5913 47.4622 85.7092 48.0513H83.0139C82.9255 47.5505 82.8519 47.0056 82.793 46.4165C82.7341 45.8273 82.7046 45.2529 82.7046 44.6932H82.6162C81.6736 46.0777 80.5985 47.0792 79.3907 47.6978C78.2125 48.2869 76.7838 48.5815 75.1048 48.5815C74.3095 48.5815 73.4847 48.4637 72.6305 48.228C71.8057 48.0218 71.0398 47.6684 70.3328 47.1676C69.6553 46.6668 69.0809 46.0188 68.6096 45.2235C68.1678 44.4281 67.9469 43.4561 67.9469 42.3073C67.9469 40.7166 68.3445 39.4647 69.1398 38.5515C69.9646 37.6089 71.0545 36.9167 72.4095 36.4749C73.7645 36.0035 75.311 35.709 77.0489 35.5912C78.8163 35.4439 80.6426 35.3702 82.5279 35.3702V34.7075ZM81.6442 37.712C80.407 37.712 79.1551 37.7709 77.8885 37.8888C76.6513 37.9771 75.5172 38.1833 74.4862 38.5074C73.4847 38.8019 72.6599 39.2438 72.0119 39.8329C71.3638 40.422 71.0398 41.2026 71.0398 42.1747C71.0398 42.9111 71.1724 43.5297 71.4375 44.0305C71.732 44.5312 72.115 44.9436 72.5863 45.2676C73.0576 45.5622 73.5731 45.7831 74.1327 45.9304C74.7219 46.0482 75.311 46.1072 75.9001 46.1072C76.9606 46.1072 77.9032 45.9304 78.728 45.5769C79.5527 45.194 80.245 44.6932 80.8047 44.0747C81.3643 43.4266 81.7914 42.6902 82.086 41.8654C82.3806 41.0406 82.5279 40.1717 82.5279 39.2585V37.712H81.6442ZM107.854 48.0513C107.795 47.4916 107.751 46.873 107.721 46.1955C107.692 45.518 107.677 44.9584 107.677 44.5165H107.589C107 45.7242 106.042 46.711 104.717 47.4769C103.391 48.2133 101.992 48.5815 100.519 48.5815C97.8974 48.5815 95.9238 47.8009 94.5983 46.2397C93.3022 44.6785 92.6541 42.6166 92.6541 40.0538V27.3728H95.6587V38.8167C95.6587 39.9065 95.7471 40.8933 95.9238 41.777C96.1006 42.6607 96.3951 43.4266 96.8075 44.0747C97.2494 44.6932 97.8238 45.1793 98.5307 45.5328C99.2671 45.8862 100.18 46.063 101.27 46.063C102.066 46.063 102.832 45.901 103.568 45.5769C104.334 45.2529 105.011 44.7669 105.601 44.1188C106.19 43.4413 106.661 42.6018 107.014 41.6003C107.368 40.5693 107.545 39.3616 107.545 37.9771V27.3728H110.549V43.5003C110.549 44.0599 110.564 44.7816 110.593 45.6653C110.623 46.549 110.667 47.3443 110.726 48.0513H107.854ZM133.13 32.1006C132.629 31.3052 131.893 30.6572 130.921 30.1564C129.978 29.6262 128.947 29.3611 127.828 29.3611C126.62 29.3611 125.53 29.582 124.558 30.0239C123.586 30.4363 122.747 31.0254 122.04 31.7913C121.362 32.5277 120.832 33.4114 120.449 34.4424C120.096 35.4439 119.919 36.5338 119.919 37.712C119.919 38.8903 120.096 39.9802 120.449 40.9817C120.832 41.9832 121.362 42.8669 122.04 43.6328C122.717 44.3692 123.542 44.9584 124.514 45.4002C125.486 45.8126 126.576 46.0188 127.784 46.0188C129.109 46.0188 130.229 45.7684 131.142 45.2676C132.055 44.7669 132.806 44.1188 133.395 43.3235L135.649 45.0025C134.765 46.0924 133.675 46.9614 132.379 47.6094C131.112 48.2575 129.581 48.5815 127.784 48.5815C126.105 48.5815 124.588 48.3164 123.233 47.7862C121.878 47.2265 120.714 46.4606 119.742 45.4886C118.799 44.5165 118.063 43.3677 117.533 42.0421C117.003 40.7166 116.738 39.2732 116.738 37.712C116.738 36.1508 117.003 34.7075 117.533 33.3819C118.063 32.0564 118.799 30.9076 119.742 29.9355C120.714 28.9634 121.878 28.2123 123.233 27.6821C124.588 27.1224 126.105 26.8426 127.784 26.8426C129.168 26.8426 130.567 27.1518 131.981 27.7704C133.425 28.3596 134.588 29.2433 135.472 30.4215L133.13 32.1006ZM147.181 44.8258H147.269L153.676 27.3728H156.946L146.651 53.3977C146.032 54.9883 145.237 56.255 144.265 57.1976C143.322 58.1696 141.952 58.6557 140.155 58.6557C139.242 58.6557 138.344 58.5673 137.46 58.3906L137.77 55.6511C138.476 55.8867 139.213 56.0046 139.979 56.0046C141.01 56.0046 141.82 55.6805 142.409 55.0325C142.998 54.4139 143.514 53.5155 143.955 52.3372L145.634 48.0071L136.797 27.3728H140.155L147.181 44.8258Z" fill="black"/>
</mask>
<g mask="url(#mask0_712_782)">
<path d="M60.1504 21.8057L59.987 21.9231L60.1112 22.096L60.2768 21.9623L60.1504 21.8057ZM57.5435 19.5522L57.4457 19.7282L57.4495 19.7302L57.5435 19.5522ZM49.1926 20.1267L49.311 20.2895L49.3156 20.2859L49.1926 20.1267ZM47.6019 21.9382L47.4262 21.8398L47.4233 21.8454L47.6019 21.9382ZM49.1042 28.6985L48.982 28.8588L48.9908 28.8648L49.1042 28.6985ZM51.2692 29.8031L51.1993 29.9919L51.2015 29.9927L51.2692 29.8031ZM53.832 30.6868L53.7683 30.8778L53.7699 30.8783L53.832 30.6868ZM57.1016 31.8356L57.0304 32.0239L57.0321 32.0245L57.1016 31.8356ZM60.1062 33.4705L59.9837 33.6302L59.9872 33.6328L60.1062 33.4705ZM62.2713 35.989L62.0944 36.0851L62.0956 36.0872L62.2713 35.989ZM62.1829 43.8981L62.0057 43.8027L62.0048 43.8044L62.1829 43.8981ZM59.8411 46.6818L59.7196 46.5213L59.7172 46.5232L59.8411 46.6818ZM56.5714 48.3166L56.5161 48.1231L56.5149 48.1234L56.5714 48.3166ZM50.0762 48.5375L50.1193 48.3408L50.1133 48.3397L50.0762 48.5375ZM43.0509 44.2074L42.9309 44.0458L42.7705 44.1648L42.8884 44.3262L43.0509 44.2074ZM45.7903 42.1749L45.9625 42.0707L45.848 41.8815L45.6704 42.0133L45.7903 42.1749ZM48.6181 45.0027L48.5103 45.1728L48.5152 45.1757L48.6181 45.0027ZM55.3784 45.7539L55.4338 45.9475L55.44 45.9455L55.3784 45.7539ZM57.5877 44.6051L57.7107 44.7643L57.7117 44.7636L57.5877 44.6051ZM59.2225 42.7051L59.0482 42.6045L59.0469 42.6068L59.2225 42.7051ZM59.2225 37.3588L59.0467 37.4572L59.0518 37.4654L59.2225 37.3588ZM57.5435 35.5472L57.4271 35.7115L57.4318 35.7146L57.5435 35.5472ZM52.2413 33.3379L52.3033 33.1464L52.3017 33.1459L52.2413 33.3379ZM46.4973 30.6427L46.3667 30.7959L46.3701 30.7987L46.4973 30.6427ZM44.5531 28.1683L44.372 28.2561L44.3742 28.2605L44.5531 28.1683ZM44.7299 20.7011L44.5548 20.6017L44.5528 20.6054L44.7299 20.7011ZM59.2667 17.1221L59.1753 17.3014L59.1781 17.3028L59.2667 17.1221ZM62.6689 19.7732L62.7953 19.9298L62.9458 19.8084L62.8305 19.6532L62.6689 19.7732ZM60.3138 21.6882C59.6176 20.7195 58.7245 19.948 57.6374 19.3743L57.4495 19.7302C58.4834 20.2759 59.3282 21.0067 59.987 21.9231L60.3138 21.6882ZM57.6412 19.3763C56.5446 18.7671 55.2278 18.4673 53.6994 18.4673V18.8698C55.1755 18.8698 56.4215 19.1592 57.4457 19.7282L57.6412 19.3763ZM53.6994 18.4673C52.9126 18.4673 52.1128 18.5884 51.3004 18.8291L51.4148 19.215C52.1931 18.9844 52.9544 18.8698 53.6994 18.8698V18.4673ZM51.3004 18.8291C50.4816 19.0717 49.7375 19.4512 49.0695 19.9674L49.3156 20.2859C49.9437 19.8006 50.643 19.4437 51.4148 19.215L51.3004 18.8291ZM49.0742 19.9639C48.4014 20.4532 47.852 21.0794 47.4262 21.8398L47.7775 22.0366C48.1765 21.3241 48.6877 20.7428 49.311 20.2895L49.0742 19.9639ZM47.4233 21.8454C47.0227 22.6158 46.8262 23.5179 46.8262 24.5451H47.2288C47.2288 23.5693 47.4152 22.7335 47.7805 22.0311L47.4233 21.8454ZM46.8262 24.5451C46.8262 25.5711 47.0223 26.4342 47.4286 27.1219L47.7752 26.9171C47.4157 26.3087 47.2288 25.5222 47.2288 24.5451H46.8262ZM47.4286 27.1219C47.8252 27.793 48.3435 28.3723 48.982 28.8588L49.2262 28.5384C48.6275 28.0823 48.1445 27.542 47.7752 26.9171L47.4286 27.1219ZM48.9908 28.8648C49.6534 29.3166 50.3899 29.6921 51.1993 29.9919L51.3391 29.6144C50.5579 29.3251 49.851 28.9641 49.2176 28.5322L48.9908 28.8648ZM51.2015 29.9927C52.0278 30.2878 52.8833 30.5828 53.7683 30.8778L53.8956 30.4959C53.0132 30.2018 52.1603 29.9077 51.3369 29.6136L51.2015 29.9927ZM53.7699 30.8783C54.8566 31.2308 55.9435 31.6126 57.0304 32.0239L57.1729 31.6474C56.08 31.2339 54.9871 30.8499 53.8941 30.4954L53.7699 30.8783ZM57.0321 32.0245C58.1338 32.4304 59.1171 32.9659 59.9837 33.6302L60.2287 33.3108C59.3278 32.6201 58.3082 32.0657 57.1712 31.6468L57.0321 32.0245ZM59.9872 33.6328C60.8453 34.2621 61.5479 35.0784 62.0944 36.0851L62.4482 35.893C61.8753 34.8378 61.1345 33.975 60.2252 33.3082L59.9872 33.6328ZM62.0956 36.0872C62.6335 37.0498 62.9095 38.2944 62.9095 39.8331H63.3121C63.3121 38.2494 63.0284 36.9313 62.447 35.8908L62.0956 36.0872ZM62.9095 39.8331C62.9095 41.3675 62.6057 42.6885 62.0057 43.8027L62.3601 43.9935C62.9973 42.8102 63.3121 41.4211 63.3121 39.8331H62.9095ZM62.0048 43.8044C61.4289 44.8986 60.6672 45.8034 59.7196 46.5213L59.9626 46.8422C60.9591 46.0873 61.7587 45.1363 62.361 43.9919L62.0048 43.8044ZM59.7172 46.5232C58.7965 47.2425 57.7303 47.7762 56.5161 48.1231L56.6267 48.5101C57.8869 48.1501 59.0005 47.5939 59.965 46.8404L59.7172 46.5232ZM56.5149 48.1234C55.3252 48.4716 54.1218 48.6456 52.9041 48.6456V49.0481C54.1607 49.0481 55.4022 48.8685 56.628 48.5098L56.5149 48.1234ZM52.9041 48.6456C51.9763 48.6456 51.0481 48.544 50.1193 48.3408L50.0332 48.7341C50.9896 48.9434 51.9467 49.0481 52.9041 49.0481V48.6456ZM50.1133 48.3397C49.1859 48.1658 48.3027 47.8906 47.4633 47.5144L47.2986 47.8817C48.1677 48.2712 49.0813 48.5558 50.0392 48.7353L50.1133 48.3397ZM47.4633 47.5144C46.6247 47.1384 45.8439 46.6613 45.1207 46.0828L44.8693 46.3971C45.6189 46.9968 46.4288 47.4917 47.2986 47.8817L47.4633 47.5144ZM45.1207 46.0828C44.3983 45.5048 43.7626 44.8402 43.2134 44.0887L42.8884 44.3262C43.4585 45.1063 44.1189 45.7968 44.8693 46.3971L45.1207 46.0828ZM43.1708 44.369L45.9102 42.3365L45.6704 42.0133L42.9309 44.0458L43.1708 44.369ZM45.6181 42.2791C46.3132 43.4275 47.2788 44.3919 48.5103 45.1728L48.7259 44.8328C47.542 44.082 46.6224 43.161 45.9625 42.0707L45.6181 42.2791ZM48.5152 45.1757C49.7878 45.9332 51.2678 46.3086 52.9483 46.3086V45.9061C51.3296 45.9061 49.9228 45.5451 48.7211 44.8298L48.5152 45.1757ZM52.9483 46.3086C53.7637 46.3086 54.5925 46.1879 55.4338 45.9475L55.3231 45.5604C54.5149 45.7913 53.7235 45.9061 52.9483 45.9061V46.3086ZM55.44 45.9455C56.2857 45.6737 57.0432 45.2802 57.7107 44.7643L57.4646 44.4458C56.8361 44.9315 56.1207 45.3039 55.3168 45.5623L55.44 45.9455ZM57.7117 44.7636C58.4098 44.2172 58.9724 43.5636 59.3981 42.8035L59.0469 42.6068C58.6478 43.3195 58.1205 43.9325 57.4636 44.4466L57.7117 44.7636ZM59.3968 42.8057C59.8586 42.0054 60.0866 41.0861 60.0866 40.054H59.684C59.684 41.025 59.4701 41.8731 59.0482 42.6045L59.3968 42.8057ZM60.0866 40.054C60.0866 38.9378 59.8603 37.9995 59.3932 37.2521L59.0518 37.4654C59.4684 38.132 59.684 38.9905 59.684 40.054H60.0866ZM59.3981 37.2604C58.9701 36.496 58.3884 35.8686 57.6551 35.3797L57.4318 35.7146C58.1125 36.1684 58.65 36.7487 59.0467 37.4572L59.3981 37.2604ZM57.6598 35.3829C56.9361 34.8703 56.1092 34.4498 55.1806 34.1203L55.046 34.4997C55.9438 34.8182 56.7369 35.2226 57.4271 35.7115L57.6598 35.3829ZM55.1806 34.1203C54.2656 33.7956 53.3064 33.471 52.3033 33.1464L52.1794 33.5294C53.1792 33.8529 54.1348 34.1763 55.046 34.4997L55.1806 34.1203ZM52.3017 33.1459C51.2762 32.8236 50.2654 32.4574 49.2692 32.0472L49.1159 32.4194C50.1228 32.834 51.1445 33.2042 52.181 33.5299L52.3017 33.1459ZM49.2692 32.0472C48.2849 31.6419 47.4036 31.1215 46.6244 30.4866L46.3701 30.7987C47.1816 31.4598 48.0972 31.9999 49.1159 32.4194L49.2692 32.0472ZM46.6278 30.4894C45.8533 29.8297 45.2214 29.026 44.7321 28.0761L44.3742 28.2605C44.8864 29.2547 45.5504 30.1006 46.3667 30.7959L46.6278 30.4894ZM44.7342 28.0805C44.2796 27.1429 44.0474 25.9818 44.0474 24.5893H43.6449C43.6449 26.0246 43.884 27.2496 44.372 28.2561L44.7342 28.0805ZM44.0474 24.5893C44.0474 23.1134 44.3367 21.8516 44.9069 20.7968L44.5528 20.6054C43.9448 21.7303 43.6449 23.0607 43.6449 24.5893H44.0474ZM44.9049 20.8004C45.51 19.7344 46.2864 18.8579 47.2342 18.1686L46.9975 17.843C46.0012 18.5676 45.187 19.488 44.5548 20.6017L44.9049 20.8004ZM47.2342 18.1686C48.1864 17.4761 49.2394 16.9711 50.3947 16.6534L50.288 16.2652C49.0867 16.5956 47.9895 17.1215 46.9975 17.843L47.2342 18.1686ZM50.3947 16.6534C51.5567 16.3338 52.7023 16.1745 53.832 16.1745V15.772C52.664 15.772 51.4825 15.9367 50.288 16.2652L50.3947 16.6534ZM53.832 16.1745C55.9291 16.1745 57.7077 16.5532 59.1753 17.3014L59.3581 16.9428C57.8212 16.1592 55.9766 15.772 53.832 15.772V16.1745ZM59.1781 17.3028C60.66 18.0292 61.7655 18.8946 62.5074 19.8932L62.8305 19.6532C62.0406 18.5898 60.878 17.6878 59.3553 16.9414L59.1781 17.3028ZM62.5425 19.6165L60.024 21.6491L60.2768 21.9623L62.7953 19.9298L62.5425 19.6165ZM70.8632 31.7915L70.7094 31.9213L70.8506 32.0886L71.0055 31.9338L70.8632 31.7915ZM69.1841 29.8031L69.0418 29.6608L68.911 29.7916L69.0304 29.933L69.1841 29.8031ZM72.5422 27.6823L72.4681 27.4951L72.4668 27.4957L72.5422 27.6823ZM80.4513 27.3288L80.3876 27.5198L80.3929 27.5214L80.4513 27.3288ZM85.7093 48.0515V48.2528H85.9548L85.9066 48.012L85.7093 48.0515ZM83.014 48.0515L82.8158 48.0865L82.8451 48.2528H83.014V48.0515ZM82.7047 44.6934H82.906V44.4922H82.7047V44.6934ZM82.6163 44.6934V44.4922H82.5099L82.45 44.5802L82.6163 44.6934ZM79.3908 47.698L79.4809 47.878L79.4826 47.8771L79.3908 47.698ZM72.6306 48.2282L72.6841 48.0342L72.6794 48.033L72.6306 48.2282ZM70.3329 47.1678L70.2133 47.3297L70.2166 47.332L70.3329 47.1678ZM68.6097 45.2237L68.4337 45.3214L68.4366 45.3263L68.6097 45.2237ZM72.4096 36.4751L72.472 36.6664L72.4757 36.6651L72.4096 36.4751ZM77.049 35.5914L77.0627 35.7922L77.0658 35.7919L77.049 35.5914ZM82.528 35.3704V35.5717H82.7292V35.3704H82.528ZM77.8886 37.889L77.9029 38.0898L77.9072 38.0894L77.8886 37.889ZM74.4863 38.5076L74.5431 38.7007L74.5467 38.6996L74.4863 38.5076ZM71.4376 44.0307L71.2595 44.1249L71.2641 44.1327L71.4376 44.0307ZM72.5864 45.2678L72.4722 45.4339L72.4797 45.4385L72.5864 45.2678ZM74.1328 45.9306L74.0815 46.1256L74.0934 46.128L74.1328 45.9306ZM78.7281 45.5771L78.8074 45.7622L78.8128 45.7597L78.7281 45.5771ZM80.8048 44.0749L80.954 44.2099L80.9571 44.2064L80.8048 44.0749ZM82.528 37.7122H82.7292V37.511H82.528V37.7122ZM82.7292 34.7077C82.7292 32.8775 82.2487 31.4747 81.2517 30.54L80.9764 30.8337C81.8646 31.6663 82.3267 32.9441 82.3267 34.7077H82.7292ZM81.2517 30.54C80.2593 29.6096 78.8327 29.16 77.0049 29.16V29.5626C78.7707 29.5626 80.0836 29.9966 80.9764 30.8337L81.2517 30.54ZM77.0049 29.16C75.7432 29.16 74.5678 29.3854 73.481 29.8383L73.6358 30.2098C74.6699 29.779 75.7922 29.5626 77.0049 29.5626V29.16ZM73.481 29.8383C72.3988 30.2892 71.4777 30.8923 70.7208 31.6491L71.0055 31.9338C71.7215 31.2178 72.5972 30.6426 73.6358 30.2098L73.481 29.8383ZM71.0169 31.6616L69.3379 29.6733L69.0304 29.933L70.7094 31.9213L71.0169 31.6616ZM69.3264 29.9455C70.1577 29.1142 71.2525 28.4207 72.6176 27.8689L72.4668 27.4957C71.063 28.0631 69.9191 28.7835 69.0418 29.6608L69.3264 29.9455ZM72.6163 27.8694C74.0031 27.3204 75.5681 27.044 77.3141 27.044V26.6415C75.5254 26.6415 73.9091 26.9247 72.4681 27.4951L72.6163 27.8694ZM77.3141 27.044C78.4139 27.044 79.4379 27.2032 80.3876 27.5198L80.5149 27.1378C79.5205 26.8064 78.4531 26.6415 77.3141 26.6415V27.044ZM80.3929 27.5214C81.3404 27.8085 82.1701 28.2525 82.8845 28.8526L83.1435 28.5444C82.385 27.9073 81.5063 27.4382 80.5096 27.1362L80.3929 27.5214ZM82.8845 28.8526C83.5956 29.4499 84.152 30.2047 84.5528 31.121L84.9216 30.9596C84.4977 29.9907 83.9052 29.1843 83.1435 28.5444L82.8845 28.8526ZM84.5528 31.121C84.9518 32.033 85.1545 33.1091 85.1545 34.3542H85.5571C85.5571 33.066 85.3474 31.9329 84.9216 30.9596L84.5528 31.121ZM85.1545 34.3542V43.4121H85.5571V34.3542H85.1545ZM85.1545 43.4121C85.1545 44.2124 85.1842 45.0418 85.2434 45.9003L85.645 45.8726C85.5863 45.0226 85.5571 44.2025 85.5571 43.4121H85.1545ZM85.2434 45.9003C85.3027 46.7598 85.3919 47.4907 85.5119 48.091L85.9066 48.012C85.791 47.4341 85.7035 46.7215 85.645 45.8726L85.2434 45.9003ZM85.7093 47.8502H83.014V48.2528H85.7093V47.8502ZM83.2122 48.0165C83.1248 47.5214 83.0518 46.9815 82.9933 46.3966L82.5928 46.4367C82.6521 47.03 82.7264 47.58 82.8158 48.0865L83.2122 48.0165ZM82.9933 46.3966C82.9351 45.8138 82.906 45.2461 82.906 44.6934H82.5034C82.5034 45.2602 82.5333 45.8413 82.5928 46.4367L82.9933 46.3966ZM82.7047 44.4922H82.6163V44.8947H82.7047V44.4922ZM82.45 44.5802C81.5219 45.9432 80.4706 46.9189 79.2991 47.5189L79.4826 47.8771C80.7266 47.24 81.8255 46.2126 82.7827 44.8067L82.45 44.5802ZM79.3008 47.518C78.1571 48.0899 76.761 48.3804 75.1049 48.3804V48.783C76.8068 48.783 78.2681 48.4844 79.4809 47.878L79.3008 47.518ZM75.1049 48.3804C74.3296 48.3804 73.5228 48.2656 72.6841 48.0342L72.577 48.4223C73.4467 48.6622 74.2896 48.783 75.1049 48.783V48.3804ZM72.6794 48.033C71.8793 47.833 71.1362 47.4902 70.4493 47.0036L70.2166 47.332C70.9436 47.847 71.7323 48.2111 72.5817 48.4235L72.6794 48.033ZM70.4526 47.0059C69.7987 46.5227 69.2418 45.8955 68.7829 45.1211L68.4366 45.3263C68.9202 46.1425 69.5122 46.8115 70.2133 47.3297L70.4526 47.0059ZM68.7857 45.1259C68.3642 44.3674 68.1482 43.4309 68.1482 42.3075H67.7457C67.7457 43.4817 67.9714 44.4893 68.4337 45.3214L68.7857 45.1259ZM68.1482 42.3075C68.1482 40.7499 68.5372 39.5502 69.2917 38.6839L68.9885 38.4192C68.1523 39.3792 67.7457 40.6837 67.7457 42.3075H68.1482ZM69.2917 38.6839C70.0895 37.7721 71.1466 37.0986 72.472 36.6664L72.3472 36.2837C70.9626 36.7352 69.8403 37.4457 68.9885 38.4192L69.2917 38.6839ZM72.4757 36.6651C73.8106 36.2008 75.3389 35.909 77.0627 35.7922L77.0354 35.3906C75.2833 35.5093 73.7186 35.8067 72.3435 36.285L72.4757 36.6651ZM77.0658 35.7919C78.8273 35.6451 80.648 35.5717 82.528 35.5717V35.1692C80.6375 35.1692 78.8056 35.243 77.0323 35.3908L77.0658 35.7919ZM82.7292 35.3704V34.7077H82.3267V35.3704H82.7292ZM81.6443 37.511C80.4007 37.511 79.1426 37.5702 77.8699 37.6886L77.9072 38.0894C79.1678 37.9721 80.4135 37.9135 81.6443 37.9135V37.511ZM77.8742 37.6882C76.6237 37.7775 75.4739 37.9862 74.426 38.3156L74.5467 38.6996C75.5607 38.3809 76.6791 38.1772 77.9029 38.0898L77.8742 37.6882ZM74.4295 38.3145C73.4044 38.616 72.5511 39.071 71.8766 39.6842L72.1473 39.982C72.769 39.4169 73.5652 38.9884 74.5431 38.7007L74.4295 38.3145ZM71.8766 39.6842C71.1817 40.3159 70.8386 41.1531 70.8386 42.1749H71.2412C71.2412 41.2526 71.5461 40.5286 72.1473 39.982L71.8766 39.6842ZM70.8386 42.1749C70.8386 42.9346 70.9751 43.5878 71.2595 44.1249L71.6154 43.9365C71.3696 43.4721 71.2412 42.888 71.2412 42.1749H70.8386ZM71.2641 44.1327C71.5733 44.6584 71.9763 45.0929 72.4722 45.4339L72.7004 45.102C72.2537 44.7949 71.8909 44.4044 71.611 43.9286L71.2641 44.1327ZM72.4797 45.4385C72.9689 45.7443 73.5031 45.9733 74.0815 46.1256L74.1841 45.736C73.6432 45.5936 73.1465 45.3806 72.693 45.0972L72.4797 45.4385ZM74.0934 46.128C74.6952 46.2483 75.2976 46.3086 75.9002 46.3086V45.9061C75.3246 45.9061 74.7487 45.8485 74.1723 45.7333L74.0934 46.128ZM75.9002 46.3086C76.983 46.3086 77.9535 46.1282 78.8074 45.7622L78.6488 45.3921C77.8532 45.7331 76.9383 45.9061 75.9002 45.9061V46.3086ZM78.8128 45.7597C79.6598 45.3664 80.3747 44.8502 80.954 44.2099L80.6555 43.9398C80.1155 44.5367 79.4459 45.022 78.6433 45.3946L78.8128 45.7597ZM80.9571 44.2064C81.5334 43.5391 81.9729 42.7809 82.2757 41.9333L81.8966 41.7979C81.6102 42.5998 81.1955 43.3145 80.6524 43.9433L80.9571 44.2064ZM82.2757 41.9333C82.5783 41.0859 82.7292 40.1939 82.7292 39.2587H82.3267C82.3267 40.1498 82.1831 40.9958 81.8966 41.7979L82.2757 41.9333ZM82.7292 39.2587V37.7122H82.3267V39.2587H82.7292ZM82.528 37.511H81.6443V37.9135H82.528V37.511ZM107.854 48.0515L107.654 48.0726L107.673 48.2528H107.854V48.0515ZM107.677 44.5167H107.878V44.3154H107.677V44.5167ZM107.589 44.5167V44.3154H107.463L107.408 44.4285L107.589 44.5167ZM104.717 47.4771L104.815 47.6531L104.817 47.6514L104.717 47.4771ZM94.5984 46.2399L94.4435 46.3685L94.4449 46.3702L94.5984 46.2399ZM92.6542 27.373V27.1717H92.453V27.373H92.6542ZM95.6588 27.373H95.8601V27.1717H95.6588V27.373ZM96.8076 44.0749L96.6376 44.1831L96.6438 44.1918L96.8076 44.0749ZM98.5308 45.533L98.4408 45.713L98.4437 45.7144L98.5308 45.533ZM103.568 45.5771L103.49 45.3918L103.487 45.3929L103.568 45.5771ZM105.601 44.119L105.749 44.2545L105.752 44.2511L105.601 44.119ZM107.014 41.6005L107.204 41.6675L107.205 41.6658L107.014 41.6005ZM107.545 27.373V27.1717H107.343V27.373H107.545ZM110.549 27.373H110.75V27.1717H110.549V27.373ZM110.726 48.0515V48.2528H110.945L110.927 48.0348L110.726 48.0515ZM108.054 48.0304C107.996 47.4756 107.952 46.8612 107.922 46.187L107.52 46.2045C107.55 46.8853 107.594 47.5081 107.654 48.0726L108.054 48.0304ZM107.922 46.187C107.893 45.511 107.878 44.9545 107.878 44.5167H107.476C107.476 44.9626 107.491 45.5254 107.52 46.2045L107.922 46.187ZM107.677 44.3154H107.589V44.718H107.677V44.3154ZM107.408 44.4285C106.839 45.5953 105.912 46.5541 104.616 47.3028L104.817 47.6514C106.173 46.8683 107.161 45.8535 107.77 44.6049L107.408 44.4285ZM104.619 47.3012C103.322 48.0215 101.957 48.3804 100.519 48.3804V48.783C102.027 48.783 103.46 48.4056 104.815 47.6531L104.619 47.3012ZM100.519 48.3804C97.9388 48.3804 96.0289 47.6138 94.7518 46.1096L94.4449 46.3702C95.8189 47.9884 97.8562 48.783 100.519 48.783V48.3804ZM94.7532 46.1114C93.4943 44.5949 92.8555 42.5825 92.8555 40.054H92.453C92.453 42.6511 93.1102 44.7625 94.4435 46.3685L94.7532 46.1114ZM92.8555 40.054V27.373H92.453V40.054H92.8555ZM92.6542 27.5742H95.6588V27.1717H92.6542V27.5742ZM95.4575 27.373V38.8169H95.8601V27.373H95.4575ZM95.4575 38.8169C95.4575 39.9174 95.5467 40.9177 95.7266 41.8167L96.1213 41.7378C95.9476 40.8694 95.8601 39.8961 95.8601 38.8169H95.4575ZM95.7266 41.8167C95.9073 42.7206 96.2098 43.5108 96.6376 44.1831L96.9774 43.9668C96.5805 43.343 96.294 42.6012 96.1213 41.7378L95.7266 41.8167ZM96.6438 44.1918C97.1055 44.8382 97.7057 45.3454 98.4408 45.713L98.6208 45.3529C97.942 45.0135 97.3934 44.5487 96.9714 43.9579L96.6438 44.1918ZM98.4437 45.7144C99.2148 46.0845 100.16 46.2644 101.27 46.2644V45.8619C100.201 45.8619 99.3197 45.6883 98.6179 45.3515L98.4437 45.7144ZM101.27 46.2644C102.094 46.2644 102.887 46.0965 103.649 45.7614L103.487 45.3929C102.776 45.7058 102.037 45.8619 101.27 45.8619V46.2644ZM103.646 45.7625C104.441 45.4265 105.142 44.923 105.749 44.2545L105.452 43.9837C104.881 44.6113 104.227 45.0797 103.49 45.3918L103.646 45.7625ZM105.752 44.2511C106.361 43.5513 106.844 42.6886 107.204 41.6675L106.825 41.5335C106.478 42.5154 106.018 43.3317 105.449 43.987L105.752 44.2511ZM107.205 41.6658C107.567 40.609 107.746 39.3783 107.746 37.9773H107.343C107.343 39.3453 107.169 40.5301 106.824 41.5352L107.205 41.6658ZM107.746 37.9773V27.373H107.343V37.9773H107.746ZM107.545 27.5742H110.549V27.1717H107.545V27.5742ZM110.348 27.373V43.5005H110.75V27.373H110.348ZM110.348 43.5005C110.348 44.0633 110.363 44.7874 110.392 45.6722L110.795 45.6588C110.765 44.7762 110.75 44.057 110.75 43.5005H110.348ZM110.392 45.6722C110.422 46.5585 110.466 47.3572 110.525 48.0682L110.927 48.0348C110.868 47.3318 110.824 46.5399 110.795 45.6588L110.392 45.6722ZM110.726 47.8502H107.854V48.2528H110.726V47.8502ZM133.13 32.1008L132.96 32.208L133.074 32.3889L133.247 32.2643L133.13 32.1008ZM130.921 30.1566L130.822 30.3322L130.829 30.3355L130.921 30.1566ZM124.558 30.0241L124.637 30.2094L124.642 30.2073L124.558 30.0241ZM120.449 34.4426L120.26 34.3725L120.259 34.3756L120.449 34.4426ZM120.449 40.9819L120.259 41.0489L120.261 41.0538L120.449 40.9819ZM122.04 43.633L121.889 43.7664L121.892 43.7693L122.04 43.633ZM124.514 45.4004L124.431 45.5837L124.435 45.5857L124.514 45.4004ZM133.395 43.3237L133.515 43.1623L133.354 43.0417L133.233 43.2039L133.395 43.3237ZM135.649 45.0027L135.805 45.1295L135.937 44.9666L135.769 44.8413L135.649 45.0027ZM132.379 47.6096L132.289 47.4296L132.287 47.4305L132.379 47.6096ZM123.233 47.7864L123.156 47.9724L123.159 47.9738L123.233 47.7864ZM119.742 45.4888L119.598 45.6289L119.6 45.6311L119.742 45.4888ZM119.742 29.9357L119.6 29.7934L119.598 29.7956L119.742 29.9357ZM123.233 27.6823L123.306 27.8697L123.31 27.8683L123.233 27.6823ZM131.981 27.7706L131.901 27.9551L131.905 27.957L131.981 27.7706ZM135.472 30.4217L135.589 30.5853L135.756 30.4655L135.633 30.301L135.472 30.4217ZM133.3 31.9935C132.778 31.1631 132.012 30.4922 131.013 29.9777L130.829 30.3355C131.774 30.8225 132.481 31.4478 132.96 32.208L133.3 31.9935ZM131.02 29.9812C130.046 29.4334 128.981 29.16 127.828 29.16V29.5626C128.914 29.5626 129.911 29.8196 130.822 30.3322L131.02 29.9812ZM127.828 29.16C126.595 29.16 125.476 29.3856 124.475 29.8408L124.642 30.2073C125.584 29.7788 126.645 29.5626 127.828 29.5626V29.16ZM124.48 29.8388C123.482 30.2622 122.618 30.8678 121.892 31.6549L122.188 31.928C122.875 31.1834 123.691 30.6108 124.637 30.2094L124.48 29.8388ZM121.892 31.6549C121.195 32.4124 120.651 33.3194 120.26 34.3725L120.638 34.5126C121.012 33.5037 121.53 32.6434 122.188 31.928L121.892 31.6549ZM120.259 34.3756C119.897 35.4008 119.718 36.5136 119.718 37.7122H120.12C120.12 36.5543 120.294 35.4873 120.639 34.5095L120.259 34.3756ZM119.718 37.7122C119.718 38.9108 119.897 40.0236 120.259 41.0489L120.639 40.9149C120.294 39.9371 120.12 38.8702 120.12 37.7122H119.718ZM120.261 41.0538C120.652 42.0768 121.195 42.9815 121.889 43.7664L122.19 43.4997C121.53 42.7527 121.012 41.8901 120.637 40.91L120.261 41.0538ZM121.892 43.7693C122.589 44.5268 123.436 45.1315 124.431 45.5837L124.597 45.2172C123.648 44.7857 122.846 44.212 122.188 43.4967L121.892 43.7693ZM124.435 45.5857C125.436 46.01 126.553 46.2203 127.784 46.2203V45.8177C126.599 45.8177 125.537 45.6156 124.593 45.2151L124.435 45.5857ZM127.784 46.2203C129.134 46.2203 130.289 45.9652 131.239 45.4443L131.045 45.0914C130.169 45.572 129.084 45.8177 127.784 45.8177V46.2203ZM131.239 45.4443C132.176 44.9303 132.95 44.2634 133.557 43.4435L133.233 43.2039C132.663 43.9747 131.934 44.6038 131.045 45.0914L131.239 45.4443ZM133.275 43.4851L135.528 45.1641L135.769 44.8413L133.515 43.1623L133.275 43.4851ZM135.492 44.876C134.627 45.9429 133.56 46.794 132.289 47.4296L132.469 47.7897C133.79 47.1292 134.903 46.2424 135.805 45.1295L135.492 44.876ZM132.287 47.4305C131.056 48.0607 129.557 48.3804 127.784 48.3804V48.783C129.604 48.783 131.169 48.4547 132.471 47.7888L132.287 47.4305ZM127.784 48.3804C126.126 48.3804 124.634 48.1187 123.306 47.599L123.159 47.9738C124.541 48.5145 126.083 48.783 127.784 48.783V48.3804ZM123.31 47.6004C121.977 47.0501 120.837 46.2986 119.884 45.3465L119.6 45.6311C120.592 46.6231 121.778 47.4033 123.156 47.9724L123.31 47.6004ZM119.887 45.3487C118.963 44.3964 118.241 43.2702 117.72 41.9676L117.346 42.1171C117.885 43.4656 118.636 44.637 119.598 45.6289L119.887 45.3487ZM117.72 41.9676C117.2 40.668 116.939 39.2502 116.939 37.7122H116.536C116.536 39.2966 116.805 40.7656 117.346 42.1171L117.72 41.9676ZM116.939 37.7122C116.939 36.1742 117.2 34.7565 117.72 33.4569L117.346 33.3074C116.805 34.6588 116.536 36.1278 116.536 37.7122H116.939ZM117.72 33.4569C118.241 32.1543 118.963 31.028 119.887 30.0758L119.598 29.7956C118.636 30.7875 117.885 31.9588 117.346 33.3074L117.72 33.4569ZM119.884 30.078C120.836 29.1267 121.975 28.3904 123.306 27.8697L123.159 27.4948C121.78 28.0346 120.593 28.8005 119.6 29.7934L119.884 30.078ZM123.31 27.8683C124.637 27.32 126.127 27.044 127.784 27.044V26.6415C126.082 26.6415 124.538 26.9251 123.156 27.4962L123.31 27.8683ZM127.784 27.044C129.137 27.044 130.509 27.3464 131.901 27.9551L132.062 27.5862C130.626 26.9578 129.199 26.6415 127.784 26.6415V27.044ZM131.905 27.957C133.317 28.5332 134.45 29.3951 135.311 30.5425L135.633 30.301C134.726 29.0918 133.532 28.1864 132.057 27.5843L131.905 27.957ZM135.355 30.2582L133.013 31.9372L133.247 32.2643L135.589 30.5853L135.355 30.2582ZM147.181 44.826L146.994 44.9012L147.045 45.0273H147.181V44.826ZM147.269 44.826V45.0273H147.41L147.458 44.8954L147.269 44.826ZM153.676 27.373V27.1717H153.536L153.487 27.3036L153.676 27.373ZM156.946 27.373L157.133 27.447L157.242 27.1717H156.946V27.373ZM146.651 53.3979L146.464 53.3238L146.463 53.3249L146.651 53.3979ZM144.265 57.1978L144.125 57.0532L144.12 57.0577L144.265 57.1978ZM137.46 58.3908L137.26 58.3682L137.239 58.5519L137.421 58.5881L137.46 58.3908ZM137.77 55.6513L137.833 55.4604L137.597 55.3818L137.57 55.6287L137.77 55.6513ZM142.409 55.0327L142.263 54.8939L142.26 54.8973L142.409 55.0327ZM143.955 52.3374L143.768 52.2647L143.767 52.2668L143.955 52.3374ZM145.634 48.0073L145.822 48.0801L145.852 48.0035L145.819 47.9281L145.634 48.0073ZM136.797 27.373V27.1717H136.492L136.612 27.4522L136.797 27.373ZM140.155 27.373L140.342 27.2978L140.291 27.1717H140.155V27.373ZM147.181 45.0273H147.269V44.6247H147.181V45.0273ZM147.458 44.8954L153.865 27.4423L153.487 27.3036L147.08 44.7566L147.458 44.8954ZM153.676 27.5742H156.946V27.1717H153.676V27.5742ZM156.759 27.2989L146.464 53.3238L146.838 53.4719L157.133 27.447L156.759 27.2989ZM146.463 53.3249C145.852 54.8954 145.071 56.1352 144.125 57.0532L144.405 57.3423C145.402 56.375 146.212 55.0816 146.838 53.4708L146.463 53.3249ZM144.12 57.0577C143.227 57.9791 141.916 58.4546 140.155 58.4546V58.8571C141.988 58.8571 143.417 58.3606 144.409 57.3379L144.12 57.0577ZM140.155 58.4546C139.255 58.4546 138.37 58.3675 137.5 58.1934L137.421 58.5881C138.318 58.7675 139.229 58.8571 140.155 58.8571V58.4546ZM137.66 58.4133L137.97 55.6739L137.57 55.6287L137.26 58.3682L137.66 58.4133ZM137.706 55.8422C138.434 56.0849 139.192 56.206 139.979 56.206V55.8035C139.234 55.8035 138.519 55.689 137.833 55.4604L137.706 55.8422ZM139.979 56.206C141.055 56.206 141.924 55.8656 142.558 55.1681L142.26 54.8973C141.716 55.4959 140.964 55.8035 139.979 55.8035V56.206ZM142.555 55.1715C143.169 54.5263 143.697 53.6008 144.144 52.4081L143.767 52.2668C143.33 53.4306 142.827 54.3019 142.263 54.8939L142.555 55.1715ZM144.143 52.4102L145.822 48.0801L145.447 47.9345L143.768 52.2647L144.143 52.4102ZM145.819 47.9281L136.982 27.2937L136.612 27.4522L145.449 48.0865L145.819 47.9281ZM136.797 27.5742H140.155V27.1717H136.797V27.5742ZM139.969 27.4481L146.994 44.9012L147.368 44.7508L140.342 27.2978L139.969 27.4481Z" fill="black"/>
</g>
</g>
<defs>
<clipPath id="clip0_712_782">
<rect width="159" height="67" fill="white" transform="translate(0.5 0.5)"/>
</clipPath>
</defs>
</svg>
