<svg width="177" height="79" viewBox="0 0 177 79" fill="none" xmlns="http://www.w3.org/2000/svg">
<path fill-rule="evenodd" clip-rule="evenodd" d="M81.6986 39.4194C92.2583 43.1758 103.864 37.6605 107.62 27.1008C108.929 23.4215 109.112 19.6153 108.349 16.0583L105.098 18.2003C104.728 18.4319 104.417 18.8726 104.239 19.1477C104.102 19.3647 103.975 19.5655 103.78 19.7665C103.338 20.2225 102.9 20.4772 102.419 20.7085C102.038 20.8827 101.243 21.2497 100.802 21.5223C100.32 21.82 99.8493 22.2567 99.4081 22.7181C99.0289 23.1146 98.2467 24.4426 97.1476 25.1073C97.051 25.1657 96.9498 25.2328 96.8968 25.2511C96.8438 25.2694 96.7598 25.2579 96.7236 25.2217C96.3706 24.8694 96.2423 24.5706 96.2392 24.2172C96.2358 23.836 96.3766 23.366 96.6441 22.6685C96.8453 22.144 97.1023 21.7514 97.3617 21.3552C97.684 20.8441 98.1704 19.9826 98.2241 19.1911C98.2608 18.6508 97.6484 17.6693 97.1919 17.2869C96.2519 16.4993 95.6604 16.3243 94.0023 15.9756C93.4459 15.8586 92.9534 15.8762 92.2805 15.8221C90.7636 15.7002 88.3909 15.5863 88.3909 15.5863C88.3909 15.5863 87.7649 15.4729 87.5348 15.3605C87.317 15.254 87.1862 15.1138 87.1462 14.8955C87.1204 14.7543 87.1358 14.6457 87.1739 14.5567C87.2128 14.4655 87.2829 14.3775 87.3924 14.2919C87.6183 14.1151 87.9735 13.9773 88.4168 13.8569C92.5136 12.7552 96.6333 13.4654 98.9618 13.8668C99.5118 13.9617 99.9619 14.0392 100.288 14.0717C101.164 14.1587 101.775 13.9669 102.173 13.7375C102.37 13.6237 102.49 13.4915 102.684 13.323C102.936 13.1036 103.008 12.9634 103.305 12.7331C103.681 12.4412 104.644 12.0364 105.547 11.699C105.969 11.5415 106.311 11.4359 106.698 11.3167C104.444 6.74959 100.479 3.02096 95.3015 1.17923C84.7418 -2.57712 73.1363 2.93812 69.3799 13.4979C67.8437 17.8164 67.8582 22.3098 69.1342 26.3698C69.5067 26.2182 69.9409 26.0376 70.2699 25.8943C70.3979 25.853 71.0005 25.6785 71.4438 25.4781C71.927 25.2598 72.2218 25.1582 72.6249 24.8085C73.0394 24.4488 73.239 24.0649 73.4105 23.6989C73.5592 23.3778 73.7529 22.9603 74.0114 22.6535C74.3367 22.2676 74.5975 22.1186 74.9772 21.7806C75.393 21.4105 75.6919 21.2281 76.0498 20.8416C76.6583 20.1848 77.5311 18.4138 77.5311 18.4138C77.5311 18.4138 78.1332 17.2423 78.3167 17.0243C78.4081 16.9156 78.4786 16.8638 78.527 16.8436C78.5617 16.8292 78.5863 16.8288 78.6245 16.8483C79.129 17.1071 79.4153 17.4103 79.5507 17.756C79.6876 18.1058 79.687 18.542 79.5304 19.0984C79.4524 19.3754 79.2963 19.6761 79.0995 19.9934C78.9345 20.2595 78.8655 20.3524 78.7121 20.5801C78.6178 20.7201 78.5357 20.8372 78.4686 20.9372C78.264 21.2424 78.0688 21.5532 77.9568 21.8412C77.8465 22.1248 77.7909 22.4537 77.9707 22.7415C79.0138 24.4115 80.9943 24.7638 83.1355 24.8971C83.5885 24.9253 84.0542 24.9438 84.525 24.9613C86.2758 25.0267 87.7425 24.7513 88.4899 24.5002C88.7711 24.4058 89.138 24.319 89.4817 24.3663C89.8063 24.411 90.1219 24.5752 90.3376 25.0225C90.3724 25.0947 90.3721 25.161 90.3385 25.2413C90.3006 25.3318 90.2202 25.4363 90.0953 25.5515C89.8672 25.7618 87.8974 26.7189 86.3666 27.091C85.0969 27.3996 84.1267 27.4188 83.0354 27.4405C82.8938 27.4433 82.7502 27.4461 82.6037 27.4497C81.3009 27.481 80.377 27.5217 79.4906 27.6774C78.6 27.8337 77.7566 28.1043 76.6066 28.5847C75.5008 29.0467 74.3516 30.0218 73.4929 30.8595C73.06 31.2818 72.6943 31.6759 72.4367 31.9644C72.4174 31.9861 72.307 32.1143 72.1393 32.3096C74.4595 35.4762 77.7212 38.0046 81.6986 39.4194ZM91.3345 19.2751C90.8999 19.3993 89.9669 19.1475 89.7535 18.8028C89.6009 18.5561 89.6916 18.2337 89.8281 18.1341L89.8385 18.1265C89.9794 18.0236 90.2725 17.8095 90.5695 17.6732C90.8664 17.5368 91.8921 17.1977 92.3393 17.0553C92.7865 16.9128 93.2761 16.7544 93.7915 16.5683C95.1722 16.745 96.0775 17.0485 96.9434 17.8027C94.2786 18.2262 93.5805 18.4468 92.7884 18.7305L91.7142 19.1447C91.5399 19.2072 91.413 19.2526 91.3345 19.2751ZM89.3512 17.6117C88.7809 17.8102 88.1232 17.5642 87.8364 17.3723C87.4294 17.0999 87.2527 16.8652 87.6654 16.4781C87.7722 16.378 87.9621 16.3125 88.127 16.2555C88.2311 16.2195 88.3253 16.187 88.3823 16.1514C88.5583 16.1766 88.7684 16.1846 89.0032 16.1936C89.1631 16.1997 89.3345 16.2062 89.5143 16.2189C89.7576 16.2391 90.1227 16.2533 90.5467 16.2699C91.2024 16.2955 91.999 16.3266 92.7035 16.3936C92.7035 16.3936 89.9215 17.4131 89.3512 17.6117ZM84.0193 24.4156C84.2777 24.2676 84.5857 24.0999 84.9113 23.941C85.3492 23.7274 85.8101 23.5342 86.2209 23.4245C86.6468 23.3108 86.9567 23.3044 87.1352 23.3873C87.6368 23.6203 87.9203 23.9124 88.0468 24.0855C87.3002 24.2906 86.035 24.4918 84.5446 24.4362C84.3679 24.4296 84.1928 24.4229 84.0193 24.4156Z" fill="url(#paint0_linear_488_1763)"/>
<path d="M10.5861 65.4883C10.2388 65.0462 9.7809 64.6989 9.21251 64.4463C8.65992 64.1779 8.12312 64.0437 7.6021 64.0437C7.3337 64.0437 7.0574 64.0673 6.77321 64.1147C6.50481 64.1621 6.26009 64.2568 6.03905 64.3989C5.81801 64.5252 5.62855 64.6989 5.47067 64.9199C5.32858 65.1252 5.25753 65.3936 5.25753 65.7251C5.25753 66.0093 5.31279 66.2461 5.42331 66.4356C5.54961 66.6251 5.72328 66.7908 5.94432 66.9329C6.18115 67.075 6.45744 67.2092 6.77321 67.3355C7.08898 67.446 7.44422 67.5645 7.83893 67.6908C8.40731 67.8802 8.99937 68.0934 9.61512 68.3302C10.2309 68.5512 10.7914 68.8512 11.2966 69.2301C11.8018 69.6091 12.2202 70.0827 12.5518 70.6511C12.8833 71.2037 13.0491 71.8984 13.0491 72.7352C13.0491 73.6982 12.8675 74.535 12.5044 75.2455C12.157 75.9402 11.6834 76.5165 11.0834 76.9743C10.4835 77.4322 9.79668 77.7716 9.02305 77.9927C8.24942 78.2137 7.45211 78.3242 6.63112 78.3242C5.4312 78.3242 4.27075 78.119 3.14978 77.7085C2.02881 77.2822 1.09729 76.6822 0.355238 75.9086L3.00768 73.2088C3.41818 73.714 3.95499 74.1403 4.6181 74.4877C5.297 74.8192 5.968 74.985 6.63112 74.985C6.93109 74.985 7.22318 74.9534 7.50737 74.8903C7.79156 74.8271 8.03628 74.7245 8.24153 74.5824C8.46257 74.4403 8.63624 74.2508 8.76255 74.014C8.88885 73.7772 8.95201 73.493 8.95201 73.1614C8.95201 72.8457 8.87306 72.5773 8.71518 72.3562C8.5573 72.1352 8.32837 71.9378 8.02839 71.7642C7.7442 71.5747 7.38106 71.4089 6.93899 71.2668C6.5127 71.1089 6.02326 70.9432 5.47067 70.7695C4.93387 70.5958 4.40496 70.3906 3.88394 70.1538C3.37871 69.9169 2.92085 69.6169 2.51035 69.2538C2.11564 68.8749 1.79198 68.4249 1.53937 67.9039C1.30254 67.3671 1.18413 66.7198 1.18413 65.9619C1.18413 65.0304 1.37359 64.2331 1.75251 63.57C2.13143 62.9069 2.62876 62.3622 3.24451 61.9359C3.86026 61.5096 4.55494 61.2017 5.32857 61.0123C6.10221 60.807 6.88373 60.7044 7.67315 60.7044C8.62045 60.7044 9.58354 60.8781 10.5624 61.2254C11.5571 61.5728 12.4254 62.0859 13.1675 62.7648L10.5861 65.4883ZM23.6309 70.6511C23.6309 70.0353 23.4336 69.5064 23.0389 69.0644C22.6599 68.6223 22.0837 68.4012 21.31 68.4012C20.9311 68.4012 20.5838 68.4644 20.268 68.5907C19.9522 68.7012 19.6759 68.8591 19.4391 69.0644C19.2023 69.2696 19.0128 69.5143 18.8707 69.7985C18.7286 70.0669 18.6497 70.3511 18.6339 70.6511H23.6309ZM27.207 72.1431C27.207 72.301 27.207 72.4589 27.207 72.6167C27.207 72.7746 27.1991 72.9246 27.1833 73.0667H18.6339C18.6655 73.3983 18.7602 73.6982 18.9181 73.9666C19.0918 74.235 19.3049 74.4719 19.5575 74.6771C19.8259 74.8666 20.118 75.0166 20.4338 75.1271C20.7653 75.2376 21.1048 75.2929 21.4521 75.2929C22.0679 75.2929 22.5889 75.1823 23.0152 74.9613C23.4415 74.7245 23.7888 74.4245 24.0572 74.0614L26.757 75.7665C26.2044 76.5717 25.4703 77.1954 24.5546 77.6374C23.6546 78.0637 22.6047 78.2769 21.4048 78.2769C20.5206 78.2769 19.6838 78.1427 18.8944 77.8743C18.105 77.5901 17.4103 77.1875 16.8104 76.6665C16.2262 76.1297 15.7604 75.4744 15.4131 74.7008C15.0815 73.9272 14.9158 73.043 14.9158 72.0484C14.9158 71.0853 15.0815 70.2169 15.4131 69.4433C15.7446 68.6539 16.1946 67.9907 16.763 67.4539C17.3314 66.9013 18.0024 66.4751 18.776 66.1751C19.5496 65.8751 20.3864 65.7251 21.2864 65.7251C22.1547 65.7251 22.952 65.8751 23.6783 66.1751C24.4046 66.4593 25.0282 66.8777 25.5492 67.4303C26.0702 67.9829 26.4728 68.6539 26.757 69.4433C27.057 70.2327 27.207 71.1326 27.207 72.1431ZM37.7387 69.9169C37.5177 69.6327 37.2177 69.4038 36.8388 69.2301C36.4598 69.0565 36.073 68.9696 35.6783 68.9696C35.2678 68.9696 34.8968 69.0565 34.5652 69.2301C34.2337 69.388 33.9495 69.6091 33.7127 69.8932C33.4758 70.1616 33.2864 70.4774 33.1443 70.8405C33.018 71.2037 32.9548 71.5905 32.9548 72.001C32.9548 72.4115 33.018 72.7983 33.1443 73.1614C33.2706 73.5246 33.4522 73.8482 33.689 74.1324C33.9416 74.4008 34.2337 74.614 34.5652 74.7719C34.9126 74.9297 35.2994 75.0087 35.7257 75.0087C36.1204 75.0087 36.5072 74.9376 36.8861 74.7955C37.2808 74.6377 37.5966 74.4166 37.8334 74.1324L39.9885 76.7612C39.4991 77.2348 38.8676 77.6059 38.0939 77.8743C37.3203 78.1427 36.4993 78.2769 35.631 78.2769C34.6994 78.2769 33.8311 78.1348 33.0259 77.8506C32.2207 77.5664 31.5181 77.1559 30.9181 76.6191C30.334 76.0665 29.8682 75.4034 29.5209 74.6298C29.1893 73.8561 29.0235 72.9799 29.0235 72.001C29.0235 71.0379 29.1893 70.1695 29.5209 69.3959C29.8682 68.6223 30.334 67.9671 30.9181 67.4303C31.5181 66.8777 32.2207 66.4593 33.0259 66.1751C33.8311 65.8751 34.6916 65.7251 35.6073 65.7251C36.0336 65.7251 36.452 65.7646 36.8625 65.8435C37.2887 65.9225 37.6913 66.033 38.0703 66.1751C38.465 66.3014 38.8202 66.4672 39.136 66.6724C39.4675 66.8619 39.7517 67.075 39.9885 67.3118L37.7387 69.9169ZM54.0306 71.9536C54.0306 72.9167 53.857 73.793 53.5096 74.5824C53.1623 75.356 52.6886 76.0191 52.0887 76.5717C51.4887 77.1085 50.794 77.5269 50.0046 77.8269C49.2152 78.1269 48.3705 78.2769 47.4706 78.2769C46.5864 78.2769 45.7417 78.1269 44.9365 77.8269C44.1471 77.5269 43.4524 77.1085 42.8525 76.5717C42.2683 76.0191 41.8025 75.356 41.4552 74.5824C41.1079 73.793 40.9342 72.9167 40.9342 71.9536C40.9342 70.9905 41.1079 70.1222 41.4552 69.3485C41.8025 68.5749 42.2683 67.9197 42.8525 67.3829C43.4524 66.8461 44.1471 66.4356 44.9365 66.1514C45.7417 65.8672 46.5864 65.7251 47.4706 65.7251C48.3705 65.7251 49.2152 65.8672 50.0046 66.1514C50.794 66.4356 51.4887 66.8461 52.0887 67.3829C52.6886 67.9197 53.1623 68.5749 53.5096 69.3485C53.857 70.1222 54.0306 70.9905 54.0306 71.9536ZM50.2888 71.9536C50.2888 71.5747 50.2256 71.2037 50.0993 70.8405C49.973 70.4774 49.7915 70.1616 49.5546 69.8932C49.3178 69.6091 49.0257 69.3801 48.6784 69.2065C48.331 69.0328 47.9284 68.9459 47.4706 68.9459C47.0127 68.9459 46.6101 69.0328 46.2628 69.2065C45.9154 69.3801 45.6233 69.6091 45.3865 69.8932C45.1655 70.1616 44.9918 70.4774 44.8655 70.8405C44.755 71.2037 44.6997 71.5747 44.6997 71.9536C44.6997 72.3325 44.755 72.7036 44.8655 73.0667C44.9918 73.4298 45.1734 73.7614 45.4102 74.0614C45.647 74.3456 45.9391 74.5745 46.2864 74.7482C46.6338 74.9218 47.0364 75.0087 47.4943 75.0087C47.9521 75.0087 48.3547 74.9218 48.7021 74.7482C49.0494 74.5745 49.3415 74.3456 49.5783 74.0614C49.8151 73.7614 49.9888 73.4298 50.0993 73.0667C50.2256 72.7036 50.2888 72.3325 50.2888 71.9536ZM64.2339 77.8979V71.4563C64.2339 71.1247 64.2024 70.809 64.1392 70.509C64.0918 70.209 64.005 69.9485 63.8787 69.7275C63.7524 69.4906 63.5708 69.3091 63.334 69.1828C63.113 69.0407 62.8288 68.9696 62.4814 68.9696C62.1341 68.9696 61.8262 69.0407 61.5578 69.1828C61.3052 69.3091 61.092 69.4906 60.9184 69.7275C60.7447 69.9643 60.6105 70.2406 60.5158 70.5564C60.4368 70.8563 60.3974 71.1721 60.3974 71.5037V77.8979H56.4897V66.104H60.2553V67.7381H60.3026C60.4447 67.4855 60.6263 67.2408 60.8473 67.004C61.0842 66.7514 61.3526 66.5382 61.6525 66.3645C61.9683 66.1909 62.3078 66.0488 62.6709 65.9383C63.034 65.8277 63.4208 65.7725 63.8313 65.7725C64.6207 65.7725 65.2918 65.9146 65.8443 66.1988C66.3969 66.483 66.839 66.854 67.1706 67.3118C67.5179 67.7539 67.7626 68.267 67.9047 68.8512C68.0626 69.4354 68.1416 70.0196 68.1416 70.6037V77.8979H64.2339ZM80.0115 77.8979V76.3586H79.9641C79.5852 76.9585 79.0405 77.4243 78.3301 77.7559C77.6354 78.0716 76.8933 78.2295 76.1039 78.2295C75.2197 78.2295 74.4303 78.0558 73.7356 77.7085C73.0409 77.3611 72.4489 76.9033 71.9594 76.3349C71.4858 75.7507 71.1227 75.0797 70.87 74.3219C70.6174 73.564 70.4911 72.7746 70.4911 71.9536C70.4911 71.1326 70.6174 70.3511 70.87 69.6091C71.1384 68.8512 71.5095 68.1881 71.9831 67.6197C72.4726 67.0513 73.0567 66.6014 73.7356 66.2698C74.4303 65.9383 75.204 65.7725 76.0565 65.7725C76.9249 65.7725 77.659 65.9383 78.259 66.2698C78.859 66.6014 79.3247 66.9645 79.6563 67.3592H79.7036V59.9939H83.5876V77.8979H80.0115ZM79.8694 71.9773C79.8694 71.5984 79.7984 71.2274 79.6563 70.8642C79.53 70.5011 79.3405 70.1774 79.0879 69.8932C78.8511 69.6091 78.559 69.3801 78.2116 69.2065C77.8643 69.0328 77.4696 68.9459 77.0275 68.9459C76.5696 68.9459 76.167 69.0328 75.8197 69.2065C75.4724 69.3801 75.1803 69.6091 74.9434 69.8932C74.7066 70.1616 74.5251 70.4774 74.3987 70.8405C74.2882 71.2037 74.233 71.5747 74.233 71.9536C74.233 72.3325 74.2882 72.7115 74.3987 73.0904C74.5251 73.4535 74.7066 73.7772 74.9434 74.0614C75.1803 74.3456 75.4724 74.5745 75.8197 74.7482C76.167 74.9218 76.5696 75.0087 77.0275 75.0087C77.4696 75.0087 77.8643 74.9218 78.2116 74.7482C78.559 74.5745 78.8511 74.3456 79.0879 74.0614C79.3405 73.7772 79.53 73.4535 79.6563 73.0904C79.7984 72.7273 79.8694 72.3562 79.8694 71.9773ZM107.559 75.5771C106.817 76.4296 105.901 77.1085 104.812 77.6138C103.723 78.1032 102.467 78.3479 101.046 78.3479C99.7518 78.3479 98.5519 78.1348 97.4467 77.7085C96.3573 77.2822 95.41 76.6822 94.6048 75.9086C93.7996 75.1192 93.168 74.1798 92.7102 73.0904C92.2523 72.001 92.0234 70.8011 92.0234 69.4906C92.0234 68.1486 92.2523 66.9329 92.7102 65.8435C93.1838 64.7541 93.8311 63.8305 94.6521 63.0727C95.4731 62.299 96.4362 61.707 97.5414 61.2965C98.6466 60.886 99.8386 60.6807 101.117 60.6807C102.302 60.6807 103.462 60.8939 104.599 61.3202C105.751 61.7307 106.683 62.3385 107.393 63.1437L104.646 65.8909C104.267 65.3699 103.77 64.9831 103.154 64.7304C102.538 64.4778 101.907 64.3515 101.26 64.3515C100.549 64.3515 99.8939 64.4857 99.2939 64.7541C98.7097 65.0067 98.2045 65.362 97.7782 65.8198C97.3519 66.2777 97.0204 66.8224 96.7836 67.4539C96.5467 68.0697 96.4283 68.7486 96.4283 69.4906C96.4283 70.2485 96.5467 70.9432 96.7836 71.5747C97.0204 72.2062 97.3441 72.7509 97.7546 73.2088C98.1808 73.6509 98.6861 73.9982 99.2702 74.2508C99.8544 74.5034 100.494 74.6298 101.189 74.6298C101.994 74.6298 102.696 74.4719 103.296 74.1561C103.896 73.8403 104.378 73.4298 104.741 72.9246L107.559 75.5771ZM116.85 77.8979V71.5037C116.85 71.1721 116.826 70.8563 116.778 70.5564C116.731 70.2564 116.636 69.9959 116.494 69.7748C116.368 69.538 116.194 69.3564 115.973 69.2301C115.752 69.088 115.468 69.017 115.121 69.017C114.442 69.017 113.921 69.2617 113.558 69.7512C113.195 70.2248 113.013 70.8169 113.013 71.5273V77.8979H109.129V59.9939H113.013V67.596H113.06C113.329 67.1224 113.755 66.704 114.339 66.3409C114.923 65.9619 115.626 65.7725 116.447 65.7725C117.252 65.7725 117.923 65.9146 118.46 66.1988C119.013 66.483 119.455 66.854 119.786 67.3118C120.134 67.7539 120.378 68.267 120.52 68.8512C120.678 69.4354 120.757 70.0196 120.757 70.6037V77.8979H116.85ZM130.661 72.7588H130.164C129.737 72.7588 129.303 72.7825 128.861 72.8299C128.435 72.8615 128.048 72.9325 127.701 73.043C127.369 73.1535 127.093 73.3193 126.872 73.5404C126.651 73.7456 126.54 74.0219 126.54 74.3692C126.54 74.5903 126.588 74.7797 126.682 74.9376C126.793 75.0955 126.927 75.2218 127.085 75.3166C127.243 75.4113 127.424 75.4823 127.63 75.5297C127.835 75.5613 128.032 75.5771 128.222 75.5771C129.011 75.5771 129.611 75.3639 130.021 74.9376C130.448 74.4956 130.661 73.9035 130.661 73.1614V72.7588ZM123.532 67.7145C124.227 67.0513 125.032 66.554 125.948 66.2224C126.88 65.8909 127.827 65.7251 128.79 65.7251C129.785 65.7251 130.621 65.8514 131.3 66.104C131.995 66.3409 132.556 66.7198 132.982 67.2408C133.408 67.746 133.716 68.3934 133.905 69.1828C134.111 69.9564 134.213 70.88 134.213 71.9536V77.8979H130.661V76.6428H130.59C130.29 77.1322 129.832 77.5111 129.216 77.7795C128.616 78.0479 127.961 78.1821 127.251 78.1821C126.777 78.1821 126.288 78.119 125.782 77.9927C125.277 77.8664 124.811 77.6611 124.385 77.3769C123.975 77.0927 123.635 76.7138 123.367 76.2402C123.098 75.7665 122.964 75.1823 122.964 74.4877C122.964 73.6351 123.193 72.9483 123.651 72.4273C124.125 71.9063 124.724 71.5037 125.451 71.2195C126.193 70.9353 127.014 70.7458 127.914 70.6511C128.814 70.5564 129.69 70.509 130.542 70.509V70.3195C130.542 69.7354 130.337 69.3091 129.927 69.0407C129.516 68.7565 129.011 68.6144 128.411 68.6144C127.858 68.6144 127.322 68.7328 126.801 68.9696C126.295 69.2065 125.861 69.4906 125.498 69.8222L123.532 67.7145ZM144.856 77.8979V71.4563C144.856 71.1247 144.825 70.809 144.762 70.509C144.714 70.209 144.627 69.9485 144.501 69.7275C144.375 69.4906 144.193 69.3091 143.956 69.1828C143.735 69.0407 143.451 68.9696 143.104 68.9696C142.757 68.9696 142.449 69.0407 142.18 69.1828C141.928 69.3091 141.714 69.4906 141.541 69.7275C141.367 69.9643 141.233 70.2406 141.138 70.5564C141.059 70.8563 141.02 71.1721 141.02 71.5037V77.8979H137.112V66.104H140.878V67.7381H140.925C141.067 67.4855 141.249 67.2408 141.47 67.004C141.707 66.7514 141.975 66.5382 142.275 66.3645C142.591 66.1909 142.93 66.0488 143.293 65.9383C143.656 65.8277 144.043 65.7725 144.454 65.7725C145.243 65.7725 145.914 65.9146 146.467 66.1988C147.019 66.483 147.461 66.854 147.793 67.3118C148.14 67.7539 148.385 68.267 148.527 68.8512C148.685 69.4354 148.764 70.0196 148.764 70.6037V77.8979H144.856ZM159.829 69.9169C159.608 69.6327 159.308 69.4038 158.929 69.2301C158.55 69.0565 158.163 68.9696 157.768 68.9696C157.358 68.9696 156.987 69.0565 156.655 69.2301C156.324 69.388 156.04 69.6091 155.803 69.8932C155.566 70.1616 155.376 70.4774 155.234 70.8405C155.108 71.2037 155.045 71.5905 155.045 72.001C155.045 72.4115 155.108 72.7983 155.234 73.1614C155.361 73.5246 155.542 73.8482 155.779 74.1324C156.032 74.4008 156.324 74.614 156.655 74.7719C157.003 74.9297 157.389 75.0087 157.816 75.0087C158.21 75.0087 158.597 74.9376 158.976 74.7955C159.371 74.6377 159.687 74.4166 159.923 74.1324L162.079 76.7612C161.589 77.2348 160.958 77.6059 160.184 77.8743C159.41 78.1427 158.589 78.2769 157.721 78.2769C156.789 78.2769 155.921 78.1348 155.116 77.8506C154.311 77.5664 153.608 77.1559 153.008 76.6191C152.424 76.0665 151.958 75.4034 151.611 74.6298C151.279 73.8561 151.114 72.9799 151.114 72.001C151.114 71.0379 151.279 70.1695 151.611 69.3959C151.958 68.6223 152.424 67.9671 153.008 67.4303C153.608 66.8777 154.311 66.4593 155.116 66.1751C155.921 65.8751 156.782 65.7251 157.697 65.7251C158.124 65.7251 158.542 65.7646 158.953 65.8435C159.379 65.9225 159.781 66.033 160.16 66.1751C160.555 66.3014 160.91 66.4672 161.226 66.6724C161.558 66.8619 161.842 67.075 162.079 67.3118L159.829 69.9169ZM171.739 70.6511C171.739 70.0353 171.542 69.5064 171.147 69.0644C170.768 68.6223 170.192 68.4012 169.419 68.4012C169.04 68.4012 168.692 68.4644 168.376 68.5907C168.061 68.7012 167.784 68.8591 167.548 69.0644C167.311 69.2696 167.121 69.5143 166.979 69.7985C166.837 70.0669 166.758 70.3511 166.742 70.6511H171.739ZM175.315 72.1431C175.315 72.301 175.315 72.4589 175.315 72.6167C175.315 72.7746 175.308 72.9246 175.292 73.0667H166.742C166.774 73.3983 166.869 73.6982 167.027 73.9666C167.2 74.235 167.413 74.4719 167.666 74.6771C167.934 74.8666 168.227 75.0166 168.542 75.1271C168.874 75.2376 169.213 75.2929 169.561 75.2929C170.176 75.2929 170.697 75.1823 171.124 74.9613C171.55 74.7245 171.897 74.4245 172.166 74.0614L174.866 75.7665C174.313 76.5717 173.579 77.1954 172.663 77.6374C171.763 78.0637 170.713 78.2769 169.513 78.2769C168.629 78.2769 167.792 78.1427 167.003 77.8743C166.213 77.5901 165.519 77.1875 164.919 76.6665C164.335 76.1297 163.869 75.4744 163.522 74.7008C163.19 73.9272 163.024 73.043 163.024 72.0484C163.024 71.0853 163.19 70.2169 163.522 69.4433C163.853 68.6539 164.303 67.9907 164.871 67.4539C165.44 66.9013 166.111 66.4751 166.884 66.1751C167.658 65.8751 168.495 65.7251 169.395 65.7251C170.263 65.7251 171.061 65.8751 171.787 66.1751C172.513 66.4593 173.137 66.8777 173.658 67.4303C174.179 67.9829 174.581 68.6539 174.866 69.4433C175.165 70.2327 175.315 71.1326 175.315 72.1431Z" fill="#333333"/>
<defs>
<linearGradient id="paint0_linear_488_1763" x1="68.2007" y1="40.5987" x2="117.205" y2="19.8944" gradientUnits="userSpaceOnUse">
<stop stop-color="#1F62BC"/>
<stop offset="1" stop-color="#2C8AA8"/>
</linearGradient>
</defs>
</svg>
