<svg width="176" height="88" viewBox="0 0 176 88" fill="none" xmlns="http://www.w3.org/2000/svg">
<g clip-path="url(#clip0_712_779)">
<path fill-rule="evenodd" clip-rule="evenodd" d="M80.6236 48.5477C93.6286 53.1739 107.922 46.3815 112.548 33.3765C114.16 28.8452 114.385 24.1576 113.445 19.7769L109.442 22.4149C108.986 22.7001 108.603 23.2429 108.384 23.5817C108.215 23.8489 108.058 24.0962 107.818 24.3438C107.274 24.9054 106.735 25.2191 106.142 25.5039C105.673 25.7185 104.694 26.1705 104.151 26.5062C103.557 26.8728 102.977 27.4106 102.434 27.9789C101.967 28.4672 101.004 30.1027 99.6501 30.9214C99.5311 30.9933 99.4064 31.0759 99.3412 31.0985C99.2759 31.121 99.1725 31.1068 99.1279 31.0622C98.6931 30.6284 98.5351 30.2604 98.5313 29.8251C98.5271 29.3557 98.7005 28.7768 99.03 27.9178C99.2778 27.2718 99.5943 26.7883 99.9137 26.3004C100.311 25.6709 100.91 24.6099 100.976 23.6351C101.021 22.9697 100.267 21.7609 99.7046 21.29C98.5469 20.32 97.8185 20.1045 95.7764 19.675C95.0912 19.5309 94.4846 19.5526 93.6559 19.486C91.7877 19.3359 88.8656 19.1956 88.8656 19.1956C88.8656 19.1956 88.0946 19.0559 87.8112 18.9175C87.543 18.7863 87.3819 18.6137 87.3327 18.3448C87.3009 18.1709 87.3199 18.0372 87.3668 17.9276C87.4147 17.8152 87.501 17.7069 87.6359 17.6014C87.9141 17.3837 88.3515 17.214 88.8975 17.0657C93.943 15.7089 99.0167 16.5836 101.884 17.0779C102.562 17.1948 103.116 17.2902 103.518 17.3303C104.597 17.4374 105.349 17.2012 105.839 16.9187C106.082 16.7785 106.23 16.6157 106.468 16.4082C106.779 16.138 106.868 15.9653 107.233 15.6817C107.696 15.3222 108.882 14.8236 109.994 14.4081C110.514 14.2141 110.935 14.0841 111.412 13.9373C108.636 8.31258 103.753 3.72052 97.3765 1.4523C84.3715 -3.1739 70.0785 3.61849 65.4523 16.6236C63.5603 21.9421 63.5782 27.476 65.1497 32.4762C65.6084 32.2895 66.1432 32.0671 66.5484 31.8906C66.706 31.8397 67.4482 31.6248 67.9941 31.378C68.5892 31.1092 68.9523 30.984 69.4487 30.5534C69.9592 30.1104 70.205 29.6376 70.4162 29.1868C70.5994 28.7914 70.8379 28.2772 71.1563 27.8993C71.5569 27.4241 71.8781 27.2406 72.3457 26.8243C72.8578 26.3685 73.2259 26.1439 73.6667 25.6679C74.4161 24.859 75.491 22.6778 75.491 22.6778C75.491 22.6778 76.2326 21.2351 76.4585 20.9666C76.5711 20.8327 76.6579 20.7689 76.7175 20.744C76.7603 20.7263 76.7906 20.7258 76.8376 20.7498C77.4589 21.0686 77.8115 21.442 77.9783 21.8677C78.1469 22.2985 78.1462 22.8357 77.9533 23.521C77.8572 23.8621 77.665 24.2325 77.4226 24.6232C77.2194 24.951 77.1344 25.0654 76.9455 25.3458C76.8294 25.5182 76.7283 25.6624 76.6456 25.7856C76.3936 26.1615 76.1532 26.5442 76.0153 26.8989C75.8795 27.2482 75.811 27.6533 76.0324 28.0077C77.3171 30.0644 79.7562 30.4983 82.3932 30.6625C82.9511 30.6972 83.5247 30.72 84.1045 30.7415C86.2607 30.8221 88.067 30.4829 88.9875 30.1737C89.3338 30.0574 89.7857 29.9505 90.209 30.0088C90.6088 30.0638 90.9974 30.266 91.2631 30.8169C91.3059 30.9058 91.3056 30.9875 91.2642 31.0864C91.2175 31.1978 91.1185 31.3265 90.9647 31.4684C90.6838 31.7274 88.2578 32.9061 86.3725 33.3644C84.8088 33.7445 83.6139 33.7681 82.2699 33.7948C82.0955 33.7983 81.9187 33.8017 81.7383 33.8062C80.1338 33.8447 78.9959 33.8948 77.9043 34.0866C76.8074 34.2791 75.7687 34.6124 74.3524 35.204C72.9906 35.773 71.5753 36.9739 70.5177 38.0056C69.9846 38.5257 69.5342 39.011 69.2169 39.3663C69.1932 39.3931 69.0572 39.551 68.8507 39.7915C71.7081 43.6914 75.7251 46.8053 80.6236 48.5477ZM92.4908 23.7386C91.9556 23.8916 90.8065 23.5814 90.5437 23.1569C90.3558 22.8531 90.4675 22.456 90.6356 22.3334L90.6484 22.324C90.8219 22.1973 91.1829 21.9336 91.5487 21.7657C91.9143 21.5978 93.1776 21.1801 93.7283 21.0048C94.2791 20.8293 94.882 20.6342 95.5168 20.405C97.2172 20.6226 98.3322 20.9964 99.3986 21.9252C96.1167 22.4468 95.2569 22.7185 94.2814 23.0679L92.9585 23.578C92.7438 23.655 92.5875 23.7109 92.4908 23.7386ZM90.0483 21.69C89.3459 21.9345 88.5359 21.6315 88.1827 21.3952C87.6814 21.0597 87.4638 20.7706 87.9721 20.2939C88.1036 20.1706 88.3375 20.09 88.5406 20.0198C88.6688 19.9754 88.7848 19.9354 88.855 19.8915C89.0718 19.9226 89.3305 19.9324 89.6197 19.9435C89.8166 19.951 90.0277 19.959 90.2491 19.9747C90.5488 19.9996 90.9984 20.017 91.5206 20.0375C92.3281 20.069 93.3092 20.1073 94.1768 20.1898C94.1768 20.1898 90.7506 21.4454 90.0483 21.69ZM83.4817 30.0695C83.7999 29.8872 84.1792 29.6807 84.5802 29.485C85.1195 29.2219 85.6872 28.984 86.1931 28.8489C86.7176 28.7088 87.0993 28.701 87.3191 28.8031C87.9369 29.09 88.286 29.4498 88.4418 29.6629C87.5223 29.9155 85.9641 30.1633 84.1286 30.0948C83.911 30.0867 83.6954 30.0785 83.4817 30.0695Z" fill="black"/>
<path d="M11.0863 74.9885C10.739 74.5464 10.2811 74.1991 9.71274 73.9465C9.16015 73.6781 8.62335 73.5439 8.10233 73.5439C7.83393 73.5439 7.55763 73.5675 7.27344 73.6149C7.00504 73.6623 6.76032 73.757 6.53928 73.8991C6.31824 74.0254 6.12878 74.1991 5.9709 74.4201C5.82881 74.6254 5.75776 74.8938 5.75776 75.2253C5.75776 75.5095 5.81302 75.7463 5.92354 75.9358C6.04984 76.1253 6.22351 76.291 6.44455 76.4331C6.68138 76.5752 6.95767 76.7094 7.27344 76.8357C7.58921 76.9462 7.94445 77.0647 8.33916 77.191C8.90754 77.3804 9.4996 77.5936 10.1154 77.8304C10.7311 78.0514 11.2916 78.3514 11.7968 78.7303C12.302 79.1093 12.7204 79.5829 13.052 80.1513C13.3835 80.7039 13.5493 81.3986 13.5493 82.2354C13.5493 83.1984 13.3677 84.0352 13.0046 84.7457C12.6572 85.4404 12.1836 86.0167 11.5836 86.4745C10.9837 86.9324 10.2969 87.2718 9.52328 87.4929C8.74965 87.7139 7.95234 87.8244 7.13135 87.8244C5.93143 87.8244 4.77098 87.6192 3.65001 87.2087C2.52904 86.7824 1.59752 86.1824 0.855469 85.4088L3.50791 82.709C3.91841 83.2142 4.45522 83.6405 5.11833 83.9879C5.79723 84.3194 6.46823 84.4852 7.13135 84.4852C7.43132 84.4852 7.72341 84.4536 8.0076 84.3905C8.29179 84.3273 8.53651 84.2247 8.74176 84.0826C8.9628 83.9405 9.13647 83.751 9.26278 83.5142C9.38908 83.2774 9.45224 82.9932 9.45224 82.6616C9.45224 82.3459 9.37329 82.0775 9.21541 81.8564C9.05753 81.6354 8.8286 81.438 8.52862 81.2644C8.24443 81.0749 7.88129 80.9091 7.43922 80.767C7.01293 80.6091 6.52349 80.4434 5.9709 80.2697C5.4341 80.096 4.90519 79.8908 4.38417 79.654C3.87894 79.4171 3.42108 79.1171 3.01058 78.754C2.61587 78.3751 2.29221 77.9251 2.0396 77.4041C1.80277 76.8673 1.68436 76.22 1.68436 75.4621C1.68436 74.5306 1.87382 73.7333 2.25274 73.0702C2.63166 72.4071 3.12899 71.8624 3.74474 71.4361C4.36049 71.0098 5.05517 70.7019 5.8288 70.5125C6.60244 70.3072 7.38396 70.2046 8.17338 70.2046C9.12068 70.2046 10.0838 70.3783 11.0626 70.7256C12.0573 71.073 12.9256 71.5861 13.6677 72.265L11.0863 74.9885ZM24.1311 80.1513C24.1311 79.5355 23.9338 79.0066 23.5391 78.5646C23.1601 78.1225 22.5839 77.9014 21.8102 77.9014C21.4313 77.9014 21.084 77.9646 20.7682 78.0909C20.4524 78.2014 20.1761 78.3593 19.9393 78.5646C19.7025 78.7698 19.513 79.0145 19.3709 79.2987C19.2288 79.5671 19.1499 79.8513 19.1341 80.1513H24.1311ZM27.7072 81.6433C27.7072 81.8012 27.7072 81.9591 27.7072 82.1169C27.7072 82.2748 27.6993 82.4248 27.6835 82.5669H19.1341C19.1657 82.8985 19.2604 83.1984 19.4183 83.4668C19.592 83.7352 19.8051 83.9721 20.0577 84.1773C20.3261 84.3668 20.6182 84.5168 20.934 84.6273C21.2655 84.7378 21.605 84.7931 21.9523 84.7931C22.5681 84.7931 23.0891 84.6825 23.5154 84.4615C23.9417 84.2247 24.289 83.9247 24.5574 83.5616L27.2572 85.2667C26.7046 86.0719 25.9705 86.6956 25.0548 87.1376C24.1548 87.5639 23.1049 87.7771 21.905 87.7771C21.0208 87.7771 20.184 87.6429 19.3946 87.3745C18.6052 87.0903 17.9105 86.6877 17.3106 86.1667C16.7264 85.6299 16.2606 84.9746 15.9133 84.201C15.5817 83.4274 15.416 82.5432 15.416 81.5486C15.416 80.5855 15.5817 79.7171 15.9133 78.9435C16.2448 78.1541 16.6948 77.4909 17.2632 76.9541C17.8316 76.4015 18.5026 75.9753 19.2762 75.6753C20.0498 75.3753 20.8866 75.2253 21.7866 75.2253C22.6549 75.2253 23.4522 75.3753 24.1785 75.6753C24.9048 75.9595 25.5284 76.3779 26.0494 76.9305C26.5704 77.4831 26.973 78.1541 27.2572 78.9435C27.5572 79.7329 27.7072 80.6328 27.7072 81.6433ZM38.2389 79.4171C38.0179 79.1329 37.7179 78.904 37.339 78.7303C36.96 78.5567 36.5732 78.4698 36.1785 78.4698C35.768 78.4698 35.397 78.5567 35.0654 78.7303C34.7339 78.8882 34.4497 79.1093 34.2129 79.3934C33.976 79.6618 33.7866 79.9776 33.6445 80.3407C33.5182 80.7039 33.455 81.0907 33.455 81.5012C33.455 81.9117 33.5182 82.2985 33.6445 82.6616C33.7708 83.0248 33.9524 83.3484 34.1892 83.6326C34.4418 83.901 34.7339 84.1142 35.0654 84.2721C35.4128 84.4299 35.7996 84.5089 36.2259 84.5089C36.6206 84.5089 37.0074 84.4378 37.3863 84.2957C37.781 84.1379 38.0968 83.9168 38.3336 83.6326L40.4887 86.2614C39.9993 86.735 39.3678 87.1061 38.5941 87.3745C37.8205 87.6429 36.9995 87.7771 36.1312 87.7771C35.1996 87.7771 34.3313 87.635 33.5261 87.3508C32.7209 87.0666 32.0183 86.6561 31.4183 86.1193C30.8342 85.5667 30.3684 84.9036 30.0211 84.13C29.6895 83.3563 29.5237 82.4801 29.5237 81.5012C29.5237 80.5381 29.6895 79.6697 30.0211 78.8961C30.3684 78.1225 30.8342 77.4673 31.4183 76.9305C32.0183 76.3779 32.7209 75.9595 33.5261 75.6753C34.3313 75.3753 35.1918 75.2253 36.1075 75.2253C36.5338 75.2253 36.9522 75.2648 37.3627 75.3437C37.7889 75.4227 38.1915 75.5332 38.5705 75.6753C38.9652 75.8016 39.3204 75.9674 39.6362 76.1726C39.9677 76.3621 40.2519 76.5752 40.4887 76.812L38.2389 79.4171ZM54.5308 81.4538C54.5308 82.4169 54.3572 83.2932 54.0098 84.0826C53.6625 84.8562 53.1888 85.5193 52.5889 86.0719C51.9889 86.6087 51.2942 87.0271 50.5048 87.3271C49.7154 87.6271 48.8707 87.7771 47.9708 87.7771C47.0866 87.7771 46.2419 87.6271 45.4367 87.3271C44.6473 87.0271 43.9526 86.6087 43.3527 86.0719C42.7685 85.5193 42.3027 84.8562 41.9554 84.0826C41.6081 83.2932 41.4344 82.4169 41.4344 81.4538C41.4344 80.4907 41.6081 79.6224 41.9554 78.8487C42.3027 78.0751 42.7685 77.4199 43.3527 76.8831C43.9526 76.3463 44.6473 75.9358 45.4367 75.6516C46.2419 75.3674 47.0866 75.2253 47.9708 75.2253C48.8707 75.2253 49.7154 75.3674 50.5048 75.6516C51.2942 75.9358 51.9889 76.3463 52.5889 76.8831C53.1888 77.4199 53.6625 78.0751 54.0098 78.8487C54.3572 79.6224 54.5308 80.4907 54.5308 81.4538ZM50.789 81.4538C50.789 81.0749 50.7258 80.7039 50.5995 80.3407C50.4732 79.9776 50.2917 79.6618 50.0548 79.3934C49.818 79.1093 49.5259 78.8803 49.1786 78.7067C48.8312 78.533 48.4286 78.4461 47.9708 78.4461C47.5129 78.4461 47.1103 78.533 46.763 78.7067C46.4156 78.8803 46.1235 79.1093 45.8867 79.3934C45.6657 79.6618 45.492 79.9776 45.3657 80.3407C45.2552 80.7039 45.1999 81.0749 45.1999 81.4538C45.1999 81.8327 45.2552 82.2038 45.3657 82.5669C45.492 82.93 45.6736 83.2616 45.9104 83.5616C46.1472 83.8458 46.4393 84.0747 46.7866 84.2484C47.134 84.422 47.5366 84.5089 47.9945 84.5089C48.4523 84.5089 48.8549 84.422 49.2023 84.2484C49.5496 84.0747 49.8417 83.8458 50.0785 83.5616C50.3153 83.2616 50.489 82.93 50.5995 82.5669C50.7258 82.2038 50.789 81.8327 50.789 81.4538ZM64.7341 87.3981V80.9565C64.7341 80.6249 64.7026 80.3092 64.6394 80.0092C64.592 79.7092 64.5052 79.4487 64.3789 79.2277C64.2526 78.9908 64.071 78.8093 63.8342 78.683C63.6132 78.5409 63.329 78.4698 62.9816 78.4698C62.6343 78.4698 62.3264 78.5409 62.058 78.683C61.8054 78.8093 61.5922 78.9908 61.4186 79.2277C61.2449 79.4645 61.1107 79.7408 61.016 80.0566C60.937 80.3565 60.8976 80.6723 60.8976 81.0039V87.3981H56.9899V75.6042H60.7555V77.2383H60.8028C60.9449 76.9857 61.1265 76.741 61.3475 76.5042C61.5844 76.2516 61.8528 76.0384 62.1527 75.8647C62.4685 75.6911 62.808 75.549 63.1711 75.4385C63.5342 75.3279 63.921 75.2727 64.3315 75.2727C65.1209 75.2727 65.792 75.4148 66.3445 75.699C66.8971 75.9832 67.3392 76.3542 67.6708 76.812C68.0181 77.2541 68.2628 77.7672 68.4049 78.3514C68.5628 78.9356 68.6418 79.5198 68.6418 80.1039V87.3981H64.7341ZM80.5117 87.3981V85.8588H80.4643C80.0854 86.4587 79.5407 86.9245 78.8303 87.2561C78.1356 87.5718 77.3935 87.7297 76.6041 87.7297C75.7199 87.7297 74.9305 87.556 74.2358 87.2087C73.5411 86.8613 72.9491 86.4035 72.4596 85.8351C71.986 85.2509 71.6229 84.5799 71.3702 83.8221C71.1176 83.0642 70.9913 82.2748 70.9913 81.4538C70.9913 80.6328 71.1176 79.8513 71.3702 79.1093C71.6386 78.3514 72.0097 77.6883 72.4833 77.1199C72.9728 76.5515 73.5569 76.1016 74.2358 75.77C74.9305 75.4385 75.7042 75.2727 76.5567 75.2727C77.4251 75.2727 78.1592 75.4385 78.7592 75.77C79.3592 76.1016 79.8249 76.4647 80.1565 76.8594H80.2038V69.4941H84.0878V87.3981H80.5117ZM80.3696 81.4775C80.3696 81.0986 80.2986 80.7276 80.1565 80.3644C80.0302 80.0013 79.8407 79.6776 79.5881 79.3934C79.3513 79.1093 79.0592 78.8803 78.7118 78.7067C78.3645 78.533 77.9698 78.4461 77.5277 78.4461C77.0698 78.4461 76.6672 78.533 76.3199 78.7067C75.9726 78.8803 75.6805 79.1093 75.4436 79.3934C75.2068 79.6618 75.0253 79.9776 74.8989 80.3407C74.7884 80.7039 74.7332 81.0749 74.7332 81.4538C74.7332 81.8327 74.7884 82.2117 74.8989 82.5906C75.0253 82.9537 75.2068 83.2774 75.4436 83.5616C75.6805 83.8458 75.9726 84.0747 76.3199 84.2484C76.6672 84.422 77.0698 84.5089 77.5277 84.5089C77.9698 84.5089 78.3645 84.422 78.7118 84.2484C79.0592 84.0747 79.3513 83.8458 79.5881 83.5616C79.8407 83.2774 80.0302 82.9537 80.1565 82.5906C80.2986 82.2275 80.3696 81.8564 80.3696 81.4775ZM108.059 85.0773C107.317 85.9298 106.401 86.6087 105.312 87.114C104.223 87.6034 102.967 87.8481 101.546 87.8481C100.252 87.8481 99.0521 87.635 97.9469 87.2087C96.8575 86.7824 95.9102 86.1824 95.105 85.4088C94.2998 84.6194 93.6682 83.68 93.2104 82.5906C92.7525 81.5012 92.5236 80.3013 92.5236 78.9908C92.5236 77.6488 92.7525 76.4331 93.2104 75.3437C93.684 74.2543 94.3313 73.3307 95.1523 72.5729C95.9733 71.7992 96.9364 71.2072 98.0416 70.7967C99.1468 70.3862 100.339 70.1809 101.617 70.1809C102.802 70.1809 103.962 70.3941 105.099 70.8204C106.251 71.2309 107.183 71.8387 107.893 72.6439L105.146 75.3911C104.767 74.8701 104.27 74.4833 103.654 74.2306C103.038 73.978 102.407 73.8517 101.76 73.8517C101.049 73.8517 100.394 73.9859 99.7941 74.2543C99.2099 74.5069 98.7047 74.8622 98.2784 75.32C97.8521 75.7779 97.5206 76.3226 97.2838 76.9541C97.0469 77.5699 96.9285 78.2488 96.9285 78.9908C96.9285 79.7487 97.0469 80.4434 97.2838 81.0749C97.5206 81.7064 97.8443 82.2511 98.2548 82.709C98.681 83.1511 99.1863 83.4984 99.7704 83.751C100.355 84.0036 100.994 84.13 101.689 84.13C102.494 84.13 103.196 83.9721 103.796 83.6563C104.396 83.3405 104.878 82.93 105.241 82.4248L108.059 85.0773ZM117.35 87.3981V81.0039C117.35 80.6723 117.326 80.3565 117.278 80.0566C117.231 79.7566 117.136 79.4961 116.994 79.275C116.868 79.0382 116.694 78.8566 116.473 78.7303C116.252 78.5882 115.968 78.5172 115.621 78.5172C114.942 78.5172 114.421 78.7619 114.058 79.2514C113.695 79.725 113.513 80.3171 113.513 81.0275V87.3981H109.629V69.4941H113.513V77.0962H113.56C113.829 76.6226 114.255 76.2042 114.839 75.8411C115.423 75.4621 116.126 75.2727 116.947 75.2727C117.752 75.2727 118.423 75.4148 118.96 75.699C119.513 75.9832 119.955 76.3542 120.286 76.812C120.634 77.2541 120.878 77.7672 121.02 78.3514C121.178 78.9356 121.257 79.5198 121.257 80.1039V87.3981H117.35ZM131.161 82.259H130.664C130.237 82.259 129.803 82.2827 129.361 82.3301C128.935 82.3617 128.548 82.4327 128.201 82.5432C127.869 82.6537 127.593 82.8195 127.372 83.0406C127.151 83.2458 127.04 83.5221 127.04 83.8694C127.04 84.0905 127.088 84.2799 127.182 84.4378C127.293 84.5957 127.427 84.722 127.585 84.8168C127.743 84.9115 127.924 84.9825 128.13 85.0299C128.335 85.0615 128.532 85.0773 128.722 85.0773C129.511 85.0773 130.111 84.8641 130.521 84.4378C130.948 83.9958 131.161 83.4037 131.161 82.6616V82.259ZM124.032 77.2147C124.727 76.5515 125.532 76.0542 126.448 75.7226C127.38 75.3911 128.327 75.2253 129.29 75.2253C130.285 75.2253 131.121 75.3516 131.8 75.6042C132.495 75.8411 133.056 76.22 133.482 76.741C133.908 77.2462 134.216 77.8936 134.405 78.683C134.611 79.4566 134.713 80.3802 134.713 81.4538V87.3981H131.161V86.143H131.09C130.79 86.6324 130.332 87.0113 129.716 87.2797C129.116 87.5481 128.461 87.6823 127.751 87.6823C127.277 87.6823 126.788 87.6192 126.282 87.4929C125.777 87.3666 125.311 87.1613 124.885 86.8771C124.475 86.5929 124.135 86.214 123.867 85.7404C123.598 85.2667 123.464 84.6825 123.464 83.9879C123.464 83.1353 123.693 82.4485 124.151 81.9275C124.625 81.4065 125.224 81.0039 125.951 80.7197C126.693 80.4355 127.514 80.246 128.414 80.1513C129.314 80.0566 130.19 80.0092 131.042 80.0092V79.8197C131.042 79.2356 130.837 78.8093 130.427 78.5409C130.016 78.2567 129.511 78.1146 128.911 78.1146C128.358 78.1146 127.822 78.233 127.301 78.4698C126.795 78.7067 126.361 78.9908 125.998 79.3224L124.032 77.2147ZM145.356 87.3981V80.9565C145.356 80.6249 145.325 80.3092 145.262 80.0092C145.214 79.7092 145.127 79.4487 145.001 79.2277C144.875 78.9908 144.693 78.8093 144.456 78.683C144.235 78.5409 143.951 78.4698 143.604 78.4698C143.257 78.4698 142.949 78.5409 142.68 78.683C142.428 78.8093 142.214 78.9908 142.041 79.2277C141.867 79.4645 141.733 79.7408 141.638 80.0566C141.559 80.3565 141.52 80.6723 141.52 81.0039V87.3981H137.612V75.6042H141.378V77.2383H141.425C141.567 76.9857 141.749 76.741 141.97 76.5042C142.207 76.2516 142.475 76.0384 142.775 75.8647C143.091 75.6911 143.43 75.549 143.793 75.4385C144.156 75.3279 144.543 75.2727 144.954 75.2727C145.743 75.2727 146.414 75.4148 146.967 75.699C147.519 75.9832 147.961 76.3542 148.293 76.812C148.64 77.2541 148.885 77.7672 149.027 78.3514C149.185 78.9356 149.264 79.5198 149.264 80.1039V87.3981H145.356ZM160.329 79.4171C160.108 79.1329 159.808 78.904 159.429 78.7303C159.05 78.5567 158.663 78.4698 158.268 78.4698C157.858 78.4698 157.487 78.5567 157.155 78.7303C156.824 78.8882 156.54 79.1093 156.303 79.3934C156.066 79.6618 155.876 79.9776 155.734 80.3407C155.608 80.7039 155.545 81.0907 155.545 81.5012C155.545 81.9117 155.608 82.2985 155.734 82.6616C155.861 83.0248 156.042 83.3484 156.279 83.6326C156.532 83.901 156.824 84.1142 157.155 84.2721C157.503 84.4299 157.889 84.5089 158.316 84.5089C158.71 84.5089 159.097 84.4378 159.476 84.2957C159.871 84.1379 160.187 83.9168 160.423 83.6326L162.579 86.2614C162.089 86.735 161.458 87.1061 160.684 87.3745C159.91 87.6429 159.089 87.7771 158.221 87.7771C157.289 87.7771 156.421 87.635 155.616 87.3508C154.811 87.0666 154.108 86.6561 153.508 86.1193C152.924 85.5667 152.458 84.9036 152.111 84.13C151.779 83.3563 151.614 82.4801 151.614 81.5012C151.614 80.5381 151.779 79.6697 152.111 78.8961C152.458 78.1225 152.924 77.4673 153.508 76.9305C154.108 76.3779 154.811 75.9595 155.616 75.6753C156.421 75.3753 157.282 75.2253 158.197 75.2253C158.624 75.2253 159.042 75.2648 159.453 75.3437C159.879 75.4227 160.281 75.5332 160.66 75.6753C161.055 75.8016 161.41 75.9674 161.726 76.1726C162.058 76.3621 162.342 76.5752 162.579 76.812L160.329 79.4171ZM172.239 80.1513C172.239 79.5355 172.042 79.0066 171.647 78.5646C171.268 78.1225 170.692 77.9014 169.919 77.9014C169.54 77.9014 169.192 77.9646 168.876 78.0909C168.561 78.2014 168.284 78.3593 168.048 78.5646C167.811 78.7698 167.621 79.0145 167.479 79.2987C167.337 79.5671 167.258 79.8513 167.242 80.1513H172.239ZM175.815 81.6433C175.815 81.8012 175.815 81.9591 175.815 82.1169C175.815 82.2748 175.808 82.4248 175.792 82.5669H167.242C167.274 82.8985 167.369 83.1984 167.527 83.4668C167.7 83.7352 167.913 83.9721 168.166 84.1773C168.434 84.3668 168.727 84.5168 169.042 84.6273C169.374 84.7378 169.713 84.7931 170.061 84.7931C170.676 84.7931 171.197 84.6825 171.624 84.4615C172.05 84.2247 172.397 83.9247 172.666 83.5616L175.366 85.2667C174.813 86.0719 174.079 86.6956 173.163 87.1376C172.263 87.5639 171.213 87.7771 170.013 87.7771C169.129 87.7771 168.292 87.6429 167.503 87.3745C166.713 87.0903 166.019 86.6877 165.419 86.1667C164.835 85.6299 164.369 84.9746 164.022 84.201C163.69 83.4274 163.524 82.5432 163.524 81.5486C163.524 80.5855 163.69 79.7171 164.022 78.9435C164.353 78.1541 164.803 77.4909 165.371 76.9541C165.94 76.4015 166.611 75.9753 167.384 75.6753C168.158 75.3753 168.995 75.2253 169.895 75.2253C170.763 75.2253 171.561 75.3753 172.287 75.6753C173.013 75.9595 173.637 76.3779 174.158 76.9305C174.679 77.4831 175.081 78.1541 175.366 78.9435C175.665 79.7329 175.815 80.6328 175.815 81.6433Z" fill="#333333"/>
</g>
<defs>
<clipPath id="clip0_712_779">
<rect width="176" height="88" fill="white"/>
</clipPath>
</defs>
</svg>
