<svg width="678" height="108" viewBox="0 0 678 108" fill="none" xmlns="http://www.w3.org/2000/svg">
<path d="M-3.8147e-06 10.9367L15.093 0L59 31.443L28.814 53.3165L16.4651 45.1139L-3.8147e-06 10.9367Z" fill="#9B51E0"/>
<path d="M118 97.0633L104.279 108L63.1163 77.924L59 51.9494V31.443L104.279 64.2532L118 97.0633Z" fill="#9B51E0"/>
<path d="M118 10.9367L102.907 0L59 31.443L89.186 53.3165L101.535 45.1139L118 10.9367Z" fill="#BB6BD9"/>
<path d="M-3.8147e-06 97.0633L13.7209 108L54.8837 77.924L59 51.9494V31.443L13.7209 64.2532L-3.8147e-06 97.0633Z" fill="#BB6BD9"/>
<path d="M217.324 83.1026V74.2539H199.195C186.904 74.2539 181.757 67.2417 181.757 53.9687C181.757 40.7791 187.058 33.6 199.272 33.6H217.324V24.8348H195.815C179.914 24.8348 173 37.1896 173 53.9687C173 70.6643 179.99 83.1026 195.815 83.1026H217.324Z" fill="url(#paint0_linear_558_371)"/>
<path d="M273.74 53.9687C273.74 35.7704 284.725 24 301.087 24C317.91 24 328.664 35.1026 328.664 53.9687C328.664 72.3339 317.526 83.9374 301.087 83.9374C284.802 83.9374 273.74 72.0835 273.74 53.9687ZM301.087 75.4226C312.994 75.4226 320.445 67.2417 320.445 53.9687C320.445 40.7791 312.994 32.4313 301.087 32.4313C289.103 32.4313 282.113 41.0296 282.113 53.9687C282.113 66.9078 289.18 75.4226 301.087 75.4226Z" fill="url(#paint1_linear_558_371)"/>
<path d="M332.542 65.6557H341.069C341.607 73.6696 347.675 77.0087 354.205 77.0087C358.584 77.0087 366.573 75.1722 366.573 67.5757C366.573 60.5635 360.274 58.4765 355.204 56.807C353.283 56.1391 351.209 55.6383 349.135 54.887C340.685 52.2991 333.387 49.0435 333.387 39.0261C333.387 28.3409 344.296 24 353.283 24C364.883 24 374.254 29.1756 374.869 42.1983H366.496C365.958 34.4348 359.659 30.8452 353.36 30.8452C348.52 30.8452 341.3 32.5983 341.3 39.193C341.3 45.6209 348.06 47.7913 352.745 49.2939C354.666 49.8783 356.817 50.4626 358.891 51.2139C367.418 53.9687 374.869 57.5583 374.869 67.5757C374.869 79.0957 364.191 83.9374 354.435 83.9374C342.529 83.9374 333.08 79.0957 332.542 65.6557Z" fill="url(#paint2_linear_558_371)"/>
<path d="M380.853 65.6557H389.38C389.918 73.6696 395.986 77.0087 402.516 77.0087C406.894 77.0087 414.883 75.1722 414.883 67.5757C414.883 60.5635 408.584 58.4765 403.514 56.807C401.594 56.1391 399.52 55.6383 397.446 54.887C388.996 52.2991 381.698 49.0435 381.698 39.0261C381.698 28.3409 392.606 24 401.594 24C413.193 24 422.565 29.1756 423.18 42.1983H414.807C414.269 34.4348 407.97 30.8452 401.671 30.8452C396.831 30.8452 389.611 32.5983 389.611 39.193C389.611 45.6209 396.37 47.7913 401.056 49.2939C402.977 49.8783 405.128 50.4626 407.202 51.2139C415.728 53.9687 423.18 57.5583 423.18 67.5757C423.18 79.0957 412.502 83.9374 402.746 83.9374C390.84 83.9374 381.391 79.0957 380.853 65.6557Z" fill="url(#paint3_linear_558_371)"/>
<path d="M432.083 83.1026V24.8348H453.592C464.5 24.8348 471.721 30.4278 471.721 42.7826C471.721 49.7113 468.341 56.64 462.657 59.8122L461.581 60.3965L473.872 83.1026H464.808L454.514 61.6487H440.38V83.1026H432.083ZM440.38 54.4696H452.517C458.662 54.4696 464.116 50.9635 464.116 43.033C464.116 34.7687 458.201 32.5148 452.44 32.5148H440.38V54.4696Z" fill="url(#paint4_linear_558_371)"/>
<path d="M476.286 53.9687C476.286 35.7704 487.271 24 503.633 24C520.456 24 531.21 35.1026 531.21 53.9687C531.21 72.3339 520.072 83.9374 503.633 83.9374C487.347 83.9374 476.286 72.0835 476.286 53.9687ZM503.633 75.4226C515.539 75.4226 522.991 67.2417 522.991 53.9687C522.991 40.7791 515.539 32.4313 503.633 32.4313C491.649 32.4313 484.659 41.0296 484.659 53.9687C484.659 66.9078 491.726 75.4226 503.633 75.4226Z" fill="url(#paint5_linear_558_371)"/>
<path d="M533.555 83.1026L552.453 24.8348H564.282L584.869 83.1026H575.267L571.734 72.2504H545.923L542.543 83.1026H533.555ZM548.304 64.8209H569.276L558.598 33.3496H558.137L548.304 64.8209Z" fill="url(#paint6_linear_558_371)"/>
<path d="M597.182 83.1026L594.001 74.2539H604.209C616.5 74.2539 621.647 67.2417 621.647 53.9687C621.647 40.7791 616.347 33.6 604.133 33.6H580.079L576.891 24.8348H607.589C623.491 24.8348 630.404 37.1896 630.404 53.9687C630.404 70.6643 623.414 83.1026 607.589 83.1026H597.182Z" fill="url(#paint7_linear_558_371)"/>
<path d="M634.711 65.6557H643.237C643.775 73.6696 649.844 77.0087 656.373 77.0087C660.752 77.0087 668.741 75.1722 668.741 67.5757C668.741 60.5635 662.442 58.4765 657.372 56.807C655.451 56.1391 653.377 55.6383 651.303 54.887C642.853 52.2991 635.556 49.0435 635.556 39.0261C635.556 28.3409 646.464 24 655.451 24C667.051 24 676.423 29.1756 677.037 42.1983H668.664C668.126 34.4348 661.827 30.8452 655.528 30.8452C650.689 30.8452 643.468 32.5983 643.468 39.193C643.468 45.6209 650.228 47.7913 654.914 49.2939C656.834 49.8783 658.985 50.4626 661.059 51.2139C669.586 53.9687 677.037 57.5583 677.037 67.5757C677.037 79.0957 666.359 83.9374 656.604 83.9374C644.697 83.9374 635.248 79.0957 634.711 65.6557Z" fill="url(#paint8_linear_558_371)"/>
<path d="M229.538 24.8348H251.046C261.954 24.8348 269.175 30.4278 269.175 42.7826C269.175 49.7113 265.795 56.64 260.111 59.8122L259.035 60.3965L271.326 83.1026H262.262L251.968 61.6487H237.834V83.1026H229.538V54.4696H237.834H249.971C256.116 54.4696 261.57 50.9635 261.57 43.033C261.57 34.7687 255.655 32.5148 249.894 32.5148H237.834H229.538V24.8348Z" fill="url(#paint9_linear_558_371)"/>
<defs>
<linearGradient id="paint0_linear_558_371" x1="173" y1="53.9687" x2="677.037" y2="53.9687" gradientUnits="userSpaceOnUse">
<stop stop-color="#BB6BD9"/>
<stop offset="1" stop-color="#F2994A"/>
</linearGradient>
<linearGradient id="paint1_linear_558_371" x1="173" y1="53.9687" x2="677.037" y2="53.9687" gradientUnits="userSpaceOnUse">
<stop stop-color="#BB6BD9"/>
<stop offset="1" stop-color="#F2994A"/>
</linearGradient>
<linearGradient id="paint2_linear_558_371" x1="173" y1="53.9687" x2="677.037" y2="53.9687" gradientUnits="userSpaceOnUse">
<stop stop-color="#BB6BD9"/>
<stop offset="1" stop-color="#F2994A"/>
</linearGradient>
<linearGradient id="paint3_linear_558_371" x1="173" y1="53.9687" x2="677.037" y2="53.9687" gradientUnits="userSpaceOnUse">
<stop stop-color="#BB6BD9"/>
<stop offset="1" stop-color="#F2994A"/>
</linearGradient>
<linearGradient id="paint4_linear_558_371" x1="173" y1="53.9687" x2="677.037" y2="53.9687" gradientUnits="userSpaceOnUse">
<stop stop-color="#BB6BD9"/>
<stop offset="1" stop-color="#F2994A"/>
</linearGradient>
<linearGradient id="paint5_linear_558_371" x1="173" y1="53.9687" x2="677.037" y2="53.9687" gradientUnits="userSpaceOnUse">
<stop stop-color="#BB6BD9"/>
<stop offset="1" stop-color="#F2994A"/>
</linearGradient>
<linearGradient id="paint6_linear_558_371" x1="173" y1="53.9687" x2="677.037" y2="53.9687" gradientUnits="userSpaceOnUse">
<stop stop-color="#BB6BD9"/>
<stop offset="1" stop-color="#F2994A"/>
</linearGradient>
<linearGradient id="paint7_linear_558_371" x1="173" y1="53.9687" x2="677.037" y2="53.9687" gradientUnits="userSpaceOnUse">
<stop stop-color="#BB6BD9"/>
<stop offset="1" stop-color="#F2994A"/>
</linearGradient>
<linearGradient id="paint8_linear_558_371" x1="173" y1="53.9687" x2="677.037" y2="53.9687" gradientUnits="userSpaceOnUse">
<stop stop-color="#BB6BD9"/>
<stop offset="1" stop-color="#F2994A"/>
</linearGradient>
<linearGradient id="paint9_linear_558_371" x1="173" y1="53.9687" x2="677.037" y2="53.9687" gradientUnits="userSpaceOnUse">
<stop stop-color="#BB6BD9"/>
<stop offset="1" stop-color="#F2994A"/>
</linearGradient>
</defs>
</svg>
