<svg width="710" height="108" viewBox="0 0 710 108" fill="none" xmlns="http://www.w3.org/2000/svg">
<path d="M-2.5034e-06 10.9367L15.093 0L59 31.443L28.814 53.3165L16.4651 45.1139L-2.5034e-06 10.9367Z" fill="#333333"/>
<path d="M118 97.0633L104.279 108L63.1163 77.9241L59 51.9494V31.4431L104.279 64.2532L118 97.0633Z" fill="#333333"/>
<path d="M118 10.9367L102.907 0L59 31.443L89.186 53.3165L101.535 45.1139L118 10.9367Z" fill="#4F4F4F"/>
<path d="M-3.8147e-06 97.0633L13.7209 108L54.8837 77.9241L59 51.9494V31.4431L13.7209 64.2532L-3.8147e-06 97.0633Z" fill="#4F4F4F"/>
<path d="M209.466 83.1643V74.3064H189.744C176.374 74.3064 170.775 67.2869 170.775 54C170.775 40.7967 176.541 33.61 189.828 33.61H209.466V24.8357H186.067C168.769 24.8357 161.249 37.2033 161.249 54C161.249 70.7131 168.853 83.1643 186.067 83.1643H209.466Z" fill="url(#paint0_linear_679_435)" fill-opacity="0.9"/>
<path d="M270.838 54C270.838 35.7827 282.788 24 300.587 24C318.888 24 330.587 35.1142 330.587 54C330.587 72.3844 318.47 84 300.587 84C282.872 84 270.838 72.1337 270.838 54ZM300.587 75.4763C313.54 75.4763 321.646 67.2869 321.646 54C321.646 40.7967 313.54 32.4401 300.587 32.4401C287.551 32.4401 279.947 41.0474 279.947 54C279.947 66.9526 287.635 75.4763 300.587 75.4763Z" fill="url(#paint1_linear_679_435)" fill-opacity="0.9"/>
<path d="M334.806 65.6992H344.082C344.667 73.7214 351.269 77.0641 358.372 77.0641C363.135 77.0641 371.826 75.2256 371.826 67.6212C371.826 60.6017 364.973 58.5125 359.458 56.8412C357.369 56.1727 355.113 55.6713 352.856 54.9192C343.664 52.3287 335.725 49.0696 335.725 39.0418C335.725 28.3454 347.592 24 357.369 24C369.987 24 380.182 29.1811 380.851 42.2173H371.742C371.157 34.4457 364.305 30.8524 357.452 30.8524C352.188 30.8524 344.333 32.6072 344.333 39.2089C344.333 45.6435 351.686 47.8162 356.784 49.3203C358.873 49.9053 361.213 50.4902 363.469 51.2423C372.745 54 380.851 57.5933 380.851 67.6212C380.851 79.1532 369.235 84 358.622 84C345.67 84 335.391 79.1532 334.806 65.6992Z" fill="url(#paint2_linear_679_435)" fill-opacity="0.9"/>
<path d="M387.361 65.6992H396.637C397.222 73.7214 403.823 77.0641 410.926 77.0641C415.69 77.0641 424.381 75.2256 424.381 67.6212C424.381 60.6017 417.528 58.5125 412.013 56.8412C409.924 56.1727 407.667 55.6713 405.411 54.9192C396.219 52.3287 388.28 49.0696 388.28 39.0418C388.28 28.3454 400.147 24 409.924 24C422.542 24 432.737 29.1811 433.406 42.2173H424.297C423.712 34.4457 416.86 30.8524 410.007 30.8524C404.743 30.8524 396.887 32.6072 396.887 39.2089C396.887 45.6435 404.241 47.8162 409.339 49.3203C411.428 49.9053 413.768 50.4902 416.024 51.2423C425.3 54 433.406 57.5933 433.406 67.6212C433.406 79.1532 421.79 84 411.177 84C398.225 84 387.946 79.1532 387.361 65.6992Z" fill="url(#paint3_linear_679_435)" fill-opacity="0.9"/>
<path d="M443.091 83.1643V24.8357H466.49C478.356 24.8357 486.211 30.4345 486.211 42.8022C486.211 49.7382 482.534 56.6741 476.35 59.8496L475.181 60.4345L488.551 83.1643H478.69L467.492 61.688H452.116V83.1643H443.091ZM452.116 54.5014H465.32C472.005 54.5014 477.938 50.9916 477.938 43.0529C477.938 34.7799 471.504 32.5237 465.236 32.5237H452.116V54.5014Z" fill="url(#paint4_linear_679_435)" fill-opacity="0.9"/>
<path d="M491.177 54C491.177 35.7827 503.127 24 520.926 24C539.227 24 550.926 35.1142 550.926 54C550.926 72.3844 538.809 84 520.926 84C503.21 84 491.177 72.1337 491.177 54ZM520.926 75.4763C533.879 75.4763 541.985 67.2869 541.985 54C541.985 40.7967 533.879 32.4401 520.926 32.4401C507.89 32.4401 500.285 41.0474 500.285 54C500.285 66.9526 507.973 75.4763 520.926 75.4763Z" fill="url(#paint5_linear_679_435)" fill-opacity="0.9"/>
<path d="M553.477 83.1643L574.035 24.8357H586.904L609.299 83.1643H598.853L595.009 72.3008H566.931L563.255 83.1643H553.477ZM569.522 64.8635H592.335L580.72 33.3593H580.218L569.522 64.8635Z" fill="url(#paint6_linear_679_435)" fill-opacity="0.9"/>
<path d="M622.693 83.1643L619.233 74.3064H630.338C643.709 74.3064 649.307 67.2869 649.307 54C649.307 40.7967 643.541 33.61 630.255 33.61H604.088L600.62 24.8357H634.015C651.313 24.8357 658.834 37.2033 658.834 54C658.834 70.7131 651.229 83.1643 634.015 83.1643H622.693Z" fill="url(#paint7_linear_679_435)" fill-opacity="0.9"/>
<path d="M663.519 65.6992H672.795C673.38 73.7214 679.981 77.0641 687.084 77.0641C691.847 77.0641 700.538 75.2256 700.538 67.6212C700.538 60.6017 693.686 58.5125 688.171 56.8412C686.081 56.1727 683.825 55.6713 681.569 54.9192C672.377 52.3287 664.438 49.0696 664.438 39.0418C664.438 28.3454 676.304 24 686.081 24C698.7 24 708.895 29.1811 709.563 42.2173H700.455C699.87 34.4457 693.017 30.8524 686.165 30.8524C680.9 30.8524 673.045 32.6072 673.045 39.2089C673.045 45.6435 680.399 47.8162 685.496 49.3203C687.586 49.9053 689.925 50.4902 692.182 51.2423C701.458 54 709.563 57.5933 709.563 67.6212C709.563 79.1532 697.948 84 687.335 84C674.382 84 664.104 79.1532 663.519 65.6992Z" fill="url(#paint8_linear_679_435)" fill-opacity="0.9"/>
<path d="M222.753 24.8357H246.151C258.017 24.8357 265.873 30.4345 265.873 42.8022C265.873 49.7382 262.196 56.6741 256.012 59.8496L254.842 60.4345L268.212 83.1643H258.352L247.154 61.688H231.778V83.1643H222.753V54.5014H231.778H244.981C251.666 54.5014 257.6 50.9916 257.6 43.0529C257.6 34.7799 251.165 32.5237 244.898 32.5237H231.778H222.753V24.8357Z" fill="url(#paint9_linear_679_435)" fill-opacity="0.9"/>
<defs>
<linearGradient id="paint0_linear_679_435" x1="161.249" y1="54" x2="665.362" y2="54" gradientUnits="userSpaceOnUse">
<stop stop-opacity="0.95"/>
<stop offset="1" stop-opacity="0.84"/>
</linearGradient>
<linearGradient id="paint1_linear_679_435" x1="161.249" y1="54" x2="665.362" y2="54" gradientUnits="userSpaceOnUse">
<stop stop-opacity="0.95"/>
<stop offset="1" stop-opacity="0.84"/>
</linearGradient>
<linearGradient id="paint2_linear_679_435" x1="161.249" y1="54" x2="665.362" y2="54" gradientUnits="userSpaceOnUse">
<stop stop-opacity="0.95"/>
<stop offset="1" stop-opacity="0.84"/>
</linearGradient>
<linearGradient id="paint3_linear_679_435" x1="161.249" y1="54" x2="665.362" y2="54" gradientUnits="userSpaceOnUse">
<stop stop-opacity="0.95"/>
<stop offset="1" stop-opacity="0.84"/>
</linearGradient>
<linearGradient id="paint4_linear_679_435" x1="161.249" y1="54" x2="665.362" y2="54" gradientUnits="userSpaceOnUse">
<stop stop-opacity="0.95"/>
<stop offset="1" stop-opacity="0.84"/>
</linearGradient>
<linearGradient id="paint5_linear_679_435" x1="161.249" y1="54" x2="665.362" y2="54" gradientUnits="userSpaceOnUse">
<stop stop-opacity="0.95"/>
<stop offset="1" stop-opacity="0.84"/>
</linearGradient>
<linearGradient id="paint6_linear_679_435" x1="161.249" y1="54" x2="665.362" y2="54" gradientUnits="userSpaceOnUse">
<stop stop-opacity="0.95"/>
<stop offset="1" stop-opacity="0.84"/>
</linearGradient>
<linearGradient id="paint7_linear_679_435" x1="161.249" y1="54" x2="665.362" y2="54" gradientUnits="userSpaceOnUse">
<stop stop-opacity="0.95"/>
<stop offset="1" stop-opacity="0.84"/>
</linearGradient>
<linearGradient id="paint8_linear_679_435" x1="161.249" y1="54" x2="665.362" y2="54" gradientUnits="userSpaceOnUse">
<stop stop-opacity="0.95"/>
<stop offset="1" stop-opacity="0.84"/>
</linearGradient>
<linearGradient id="paint9_linear_679_435" x1="161.249" y1="54" x2="665.362" y2="54" gradientUnits="userSpaceOnUse">
<stop stop-opacity="0.95"/>
<stop offset="1" stop-opacity="0.84"/>
</linearGradient>
</defs>
</svg>
